<svg width="50" height="50" viewBox="0 0 50 50" fill="none" xmlns="http://www.w3.org/2000/svg">
<g clip-path="url(#clip0_17769_246)">
<path d="M48.3336 10.6668V10.0211C48.3336 7.93789 47.2086 5.56289 45.1668 5.56289H43.75C43.3445 5.00898 42.7598 4.60703 42.0824 4.4418L42.0625 4.4375C36.9328 3.37422 31.0375 2.76562 25 2.76562C18.9625 2.76562 13.0672 3.37422 7.37227 4.53359L7.9375 4.4375C7.24687 4.60781 6.66875 5.00938 6.27656 5.55391L6.2707 5.5625H4.8332C2.79141 5.5625 1.66641 7.9793 1.66641 10.0207V10.6664C0.723437 10.9176 0.0339844 11.7488 0 12.7461V12.75V23.1668C0 24.4211 1.0168 25.4375 2.2707 25.4375H2.72891C3.70977 25.3984 4.52734 24.7426 4.80781 23.8492L4.81211 23.8332C4.81211 25.0832 4.81211 26.7082 4.81211 27.7914V39.1457C4.81523 39.5187 4.87617 39.8766 4.98594 40.2121L4.97891 40.1871C4.87656 40.4398 4.81563 40.7332 4.81211 41.0398V44.8328C4.81211 46.0871 5.82891 47.1035 7.08281 47.1035H11.0621C11.0633 47.1035 11.0645 47.1035 11.0656 47.1035C12.2758 47.1035 13.2648 46.157 13.3328 44.9637L13.3332 44.9578V43.7496C16.841 44.4254 20.8754 44.8121 25 44.8121C29.1246 44.8121 33.159 44.4254 37.0687 43.6863L36.6668 43.7496V45.0414C36.6668 46.2957 37.6836 47.3121 38.9375 47.3121H42.7293C43.9836 47.3121 45 46.2953 45 45.0414V41.1664C45 41.1633 45 41.159 45 41.1551C45 40.8418 44.9309 40.5449 44.807 40.2785L44.8125 40.2914C44.9313 39.9895 45 39.6398 45 39.2738C45 39.2727 45 39.2715 45 39.2703V27.9164C45 26.8539 45.125 25.2289 45.125 23.9789C45.4113 24.8832 46.2301 25.5328 47.2051 25.5621H47.2086H47.6668C47.6855 25.5625 47.7074 25.5629 47.7293 25.5629C48.9836 25.5629 50 24.5461 50 23.2922C50 23.2918 50 23.2914 50 23.2914V12.8746C50.0004 12.8594 50.0004 12.8414 50.0004 12.8234C50.0004 11.7922 49.3 10.9242 48.3488 10.6699L48.3332 10.6664L48.3336 10.6668ZM19.3129 3.8957H30.6879C31.9379 3.8957 32.9586 4.625 32.9586 5.5625C32.9586 6.5 31.9379 7.2293 30.6879 7.2293H19.3129C18.0629 7.2293 17.0422 6.5 17.0422 5.5625C17.0422 4.625 18.0629 3.8957 19.3129 3.8957ZM10.2504 11.3543C14.6711 10.0645 19.7492 9.32266 25.0004 9.32266C30.2516 9.32266 35.3301 10.0645 40.1355 11.4492L39.7504 11.3543C40.4059 11.5813 40.8855 12.152 40.9785 12.8449L40.9797 12.8543C41.2922 16.4375 41.6047 19.6461 41.9379 23.0625C41.9379 23.6875 41.5422 23.8957 40.9172 23.8957H9.08398C8.45898 23.8957 8.00078 23.6875 8.06328 23.0625C8.39648 19.6457 8.70898 16.4375 9.02148 12.8543C9.125 12.1559 9.60078 11.5895 10.2375 11.3586L10.2504 11.3543ZM3.33359 10.6668V10.0211C3.33359 8.6043 3.33359 7.2293 4.83359 7.2293H5.64609C5.39609 11.9586 5.2293 16.6668 5.00039 21.1668V12.8336C5.00039 12.8309 5.00039 12.8273 5.00039 12.8238C5.00039 11.7926 4.3 10.925 3.34922 10.6703L3.33359 10.6668ZM13.7504 38.6457L9.02109 36.5625C7.86484 36.293 6.98711 35.3523 6.81484 34.1824L6.81289 34.1668C6.81289 33.2293 7.83359 32.6043 9.06289 32.7918L12.5004 33.3336C13.7504 33.5211 15.8961 34.6879 15.8961 35.9379C15.8961 37.1879 14.9168 39.0004 13.7293 38.6461L13.7504 38.6457ZM28.4379 42.2293H21.5836C21.5687 42.2297 21.5512 42.2297 21.5332 42.2297C20.4859 42.2297 19.6012 41.5336 19.3168 40.5789L19.3125 40.5625C19.6012 39.5914 20.4859 38.8953 21.5332 38.8953C21.5508 38.8953 21.5684 38.8957 21.5859 38.8957H21.5832H28.4164C28.4313 38.8953 28.4488 38.8953 28.4668 38.8953C29.5141 38.8953 30.3988 39.5914 30.6832 40.5461L30.6875 40.5625C30.3988 41.5336 29.5141 42.2297 28.4668 42.2297C28.4492 42.2297 28.4316 42.2293 28.4141 42.2293H28.4168H28.4379ZM34.1047 35.875C34.1047 34.625 36.1879 33.4582 37.5004 33.2707L40.9586 32.7914C42.1879 32.6039 43.2086 33.2289 43.2086 34.1664C43.0133 35.3211 42.152 36.2309 41.0406 36.4957L41.0211 36.4996L36.2918 38.5828C35.0836 38.9996 34.0836 37.1246 34.0836 35.8746L34.1047 35.875ZM45.0004 12.8332V20.5625C44.8129 16.1668 44.7086 11.7293 44.4797 7.25H45.1672C46.584 7.25 46.6672 8.625 46.6672 10.0418V10.6875C45.7043 10.9445 45.0059 11.807 45.0004 12.8332Z" fill="white"/>
</g>
<defs>
<clipPath id="clip0_17769_246">
<rect width="50" height="50" fill="white"/>
</clipPath>
</defs>
</svg>
