<svg width="50" height="50" viewBox="0 0 50 50" fill="none" xmlns="http://www.w3.org/2000/svg">
<g clip-path="url(#clip0_17769_221)">
<path d="M38.4578 8.3332H11.541L13.2078 4.9582H36.791L38.4578 8.3332ZM31.7289 0H18.2707L16.6664 3.375H33.3332L31.7289 0ZM41.8328 16.8332L40.1453 10.1039H9.85352L8.16602 16.8332L24.9992 11.7914L41.8328 16.8332ZM43.1664 38.7082L44.8539 40.3957L42.4789 42.7707C41.6566 43.5945 40.5199 44.1039 39.2645 44.1039C39.2594 44.1039 39.2543 44.1039 39.2492 44.1039H39.25C39.2469 44.1039 39.243 44.1039 39.2391 44.1039C37.9887 44.1039 36.8578 43.5941 36.0422 42.7711L36.0418 42.7707C35.6598 42.3578 35.1152 42.1 34.5105 42.1C33.9059 42.1 33.3613 42.3578 32.9805 42.7691L32.9793 42.7707C32.1543 43.5918 31.0168 44.0996 29.7605 44.0996C28.5043 44.0996 27.3668 43.5918 26.5418 42.7703C26.1594 42.3504 25.6102 42.0883 25 42.0883C24.3898 42.0883 23.8406 42.3508 23.4598 42.7688L23.4582 42.7703C22.6332 43.5914 21.4957 44.0992 20.2395 44.0992C18.9832 44.0992 17.8457 43.5914 17.0207 42.7699C16.6391 42.357 16.0941 42.0992 15.4895 42.0992C14.8848 42.0992 14.3398 42.357 13.9594 42.7684L13.9582 42.7699C13.1332 43.591 11.9957 44.0988 10.7395 44.0988C9.4832 44.0988 8.3457 43.591 7.5207 42.7695L5.1457 40.3945L6.8332 38.707L9.2082 41.1027C9.60234 41.4895 10.143 41.7281 10.7395 41.7281C11.3359 41.7281 11.8766 41.4895 12.2711 41.1023L12.2707 41.1027C13.0891 40.282 14.2211 39.7742 15.4719 39.7742C15.9504 39.7742 16.4117 39.8484 16.8445 39.9863L16.8125 39.9777L3.125 20.207L25 15.1445V38.707L26.6875 15.1445L46.875 20.207L33.1875 39.9777C33.5883 39.8488 34.0496 39.7742 34.5281 39.7742C35.7785 39.7742 36.9105 40.282 37.7289 41.1023C38.123 41.4891 38.6637 41.7277 39.2602 41.7277C39.8566 41.7277 40.3973 41.4891 40.7918 41.102L40.7914 41.1023L43.1664 38.7082ZM28.3746 23.5625L31.7289 20.2082L28.3746 18.3125V23.5625ZM18.2703 20.2082L21.6246 23.5625V18.3125L18.2703 20.2082ZM40.9164 47.2918C40.5496 47.4988 40.1109 47.6211 39.6437 47.6211C38.8895 47.6211 38.2094 47.3027 37.7305 46.7934L37.7293 46.7918C36.9043 45.9707 35.7668 45.4629 34.5105 45.4629C33.2543 45.4629 32.1168 45.9707 31.2918 46.7922C30.9094 47.2121 30.3602 47.4742 29.75 47.4742C29.1398 47.4742 28.5906 47.2117 28.2098 46.7938L28.2082 46.7922C27.3867 45.9723 26.2523 45.4652 25 45.4652C23.7477 45.4652 22.6133 45.9723 21.7918 46.7926C21.4094 47.2125 20.8602 47.4746 20.25 47.4746C19.6398 47.4746 19.0906 47.2121 18.7098 46.7941L18.7082 46.7926C17.8832 45.9715 16.7457 45.4637 15.4895 45.4637C14.2332 45.4637 13.0957 45.9715 12.2707 46.793C11.7906 47.3039 11.1105 47.6223 10.3563 47.6223C9.88906 47.6223 9.45039 47.5 9.07031 47.2863L9.08359 47.293L6.70859 45.5012L5.27109 47.3969L7.64609 49.1887C8.40664 49.6871 9.33828 49.984 10.3395 49.984C11.734 49.984 12.9941 49.4082 13.8949 48.4816L13.8961 48.4805C14.2777 48.0676 14.8227 47.8098 15.4273 47.8098C16.032 47.8098 16.577 48.0676 16.9574 48.4789L16.9586 48.4805C17.7836 49.3016 18.9211 49.8094 20.1773 49.8094C21.4336 49.8094 22.5711 49.3016 23.3961 48.4801C23.7785 48.0602 24.3277 47.798 24.9379 47.798C25.548 47.798 26.0969 48.0606 26.4781 48.4785L26.4797 48.4801C27.3047 49.3012 28.4422 49.809 29.6984 49.809C30.9547 49.809 32.0922 49.3012 32.9172 48.4797C33.2992 48.0668 33.8438 47.809 34.4484 47.809C35.0531 47.809 35.5977 48.0668 35.9785 48.4781L35.9797 48.4797C36.9234 49.4254 38.2258 50.0133 39.6656 50.0215H39.6672C39.684 50.0219 39.7035 50.0219 39.723 50.0219C40.6883 50.0219 41.5809 49.7094 42.3043 49.1797L42.2922 49.1883L44.6672 47.3965L43.2297 45.5008L40.9164 47.2918Z" fill="white"/>
</g>
<defs>
<clipPath id="clip0_17769_221">
<rect width="50" height="50" fill="white"/>
</clipPath>
</defs>
</svg>
