<svg width="50" height="50" viewBox="0 0 50 50" fill="none" xmlns="http://www.w3.org/2000/svg">
<g clip-path="url(#clip0_17769_241)">
<path d="M39.7902 41.6668C39.4172 42.023 38.9105 42.2422 38.3527 42.2422C37.7949 42.2422 37.2883 42.023 36.9145 41.666L36.9152 41.6668C36.657 41.4309 36.3707 41.2176 36.0645 41.0344L36.0402 41.0211L43.9152 26.8336L26.582 23.6879L24.9988 39.4379V23.6672L6.08203 26.8129L13.957 41.0004C13.6266 41.1969 13.3402 41.4101 13.0781 41.65L13.082 41.6465C12.7078 42.009 12.1969 42.2324 11.6336 42.2324C11.0812 42.2324 10.5789 42.0172 10.2059 41.6664L10.207 41.6672L7.97773 39.4379L6.39453 41.0004L8.62383 43.2297C9.38359 44.0226 10.4516 44.5156 11.6344 44.5156C12.8172 44.5156 13.8848 44.0226 14.6434 43.2312L14.6449 43.2297C15.0191 42.8676 15.5301 42.6441 16.093 42.6441C16.6559 42.6441 17.1664 42.8672 17.5414 43.2301L17.5406 43.2297C18.3004 44.0226 19.3684 44.5156 20.5512 44.5156C21.734 44.5156 22.8016 44.0226 23.5602 43.2312L23.5617 43.2297C23.9348 42.8734 24.4414 42.6543 24.9992 42.6543C25.557 42.6543 26.0637 42.8734 26.4375 43.2305L26.4367 43.2297C27.1965 44.0226 28.2645 44.5156 29.4473 44.5156C30.6301 44.5156 31.6977 44.0226 32.4563 43.2312L32.4578 43.2297C32.832 42.8676 33.343 42.6441 33.9059 42.6441C34.4688 42.6441 34.9793 42.8672 35.3543 43.2301L35.3539 43.2297C36.1109 44.0016 37.1645 44.4797 38.3297 44.4797C38.3383 44.4797 38.3469 44.4797 38.3555 44.4797H38.3543C38.3676 44.4797 38.3836 44.4801 38.3992 44.4801C39.5645 44.4801 40.6184 44.0016 41.3746 43.2305L41.3754 43.2297L43.6047 41.0004L42.0215 39.4379L39.7902 41.6668ZM19.1027 41.6668C18.8445 41.4309 18.5582 41.2176 18.252 41.0344L18.2277 41.0211H22.9152C22.5848 41.2176 22.2984 41.4309 22.0363 41.6707L22.0402 41.6672C21.6637 42.0418 21.1445 42.273 20.5715 42.273C19.9984 42.273 19.4793 42.041 19.1027 41.6668ZM28.0191 41.6668C27.7609 41.4309 27.4746 41.2176 27.1684 41.0344L27.1441 41.0211H31.7691C31.4387 41.2176 31.1523 41.4309 30.8902 41.6707L30.8941 41.6672C30.5211 42.0234 30.0145 42.2426 29.4566 42.2426C28.8988 42.2426 28.3922 42.0234 28.0184 41.6664L28.0191 41.6668ZM42.1441 45.8332L43.4773 47.6039L41.248 49.2707C40.5922 49.7652 39.7633 50.0629 38.8652 50.0629C38.8387 50.0629 38.8121 50.0625 38.7859 50.0621H38.7898C37.4613 50.0168 36.2734 49.4508 35.4164 48.5637L35.4148 48.5621C35.0406 48.2 34.5297 47.9766 33.9668 47.9766C33.4039 47.9766 32.8934 48.1996 32.5184 48.5625L32.5188 48.5621C31.7445 49.3242 30.6812 49.7949 29.5082 49.7949C28.3352 49.7949 27.2719 49.3242 26.4973 48.5613L26.4977 48.5617C26.1246 48.2055 25.618 47.9863 25.0602 47.9863C24.5023 47.9863 23.9957 48.2055 23.6219 48.5625L23.6227 48.5617C22.8484 49.3238 21.7855 49.7945 20.6121 49.7945C19.4387 49.7945 18.3758 49.3238 17.6012 48.5609L17.6016 48.5613C17.2273 48.1992 16.7164 47.9758 16.1535 47.9758C15.5906 47.9758 15.0801 48.1988 14.7051 48.5617L14.7059 48.5613C13.8656 49.4406 12.684 49.9875 11.3746 49.9875C10.4184 49.9875 9.53008 49.6961 8.79414 49.1969L8.81016 49.207L6.58086 47.5402L7.85156 45.832L10.0809 47.4988C10.4285 47.6984 10.8449 47.816 11.2887 47.816C11.9949 47.816 12.6312 47.5183 13.0797 47.0418L13.0809 47.0406C13.8406 46.2476 14.9086 45.7547 16.0914 45.7547C17.2742 45.7547 18.3418 46.2476 19.1004 47.0391L19.102 47.0406C19.475 47.3969 19.9816 47.616 20.5395 47.616C21.0973 47.616 21.6039 47.3969 21.9777 47.0398L21.977 47.0406C22.75 46.2672 23.818 45.7887 24.9977 45.7887C26.1773 45.7887 27.2457 46.2672 28.0184 47.0402C28.3914 47.3965 28.898 47.6156 29.4559 47.6156C30.0137 47.6156 30.5203 47.3965 30.8941 47.0394L30.8934 47.0402C31.6531 46.2473 32.7211 45.7543 33.9039 45.7543C35.0867 45.7543 36.1543 46.2473 36.9129 47.0387L36.9145 47.0402C37.3641 47.5183 38.0004 47.8156 38.7066 47.8156C39.1504 47.8156 39.5672 47.698 39.9266 47.4922L39.9145 47.4984L42.1441 45.8332ZM39.1859 25.2918L36.0402 12.7918L29.3109 11.6668L27.7066 7.89609H32.8941V4.7293H31.2484V6.25H27.0816L25.7273 3.0832H28.2066V0H21.9566V3.1457H24.4359L22.9152 6.25H18.7484V4.7293H17.1027V7.89609H22.2902L20.6859 11.6668L13.9566 12.625L10.8109 25.2293L24.9984 22.0836L39.1859 25.2918ZM36.0402 20.5L25.7902 19.0418V15.7711H32.8945L36.0402 20.5ZM17.1027 15.7707H24.207V19.0414L13.957 20.4996L17.1027 15.7707Z" fill="white"/>
</g>
<defs>
<clipPath id="clip0_17769_241">
<rect width="50" height="50" fill="white"/>
</clipPath>
</defs>
</svg>
