<svg width="70" height="70" viewBox="0 0 70 70" fill="none" xmlns="http://www.w3.org/2000/svg">
<path d="M52.5 59.7915H17.5V10.2079H52.5V59.7915ZM55.4165 1.4585H14.583V7.29201H55.4165V1.4585ZM55.4165 62.7085H14.583V68.542H55.4165V62.7085ZM0 65.625H11.6665V59.7915H0V65.625ZM0 13.125H14.5835V10.2085H0V13.125ZM14.5835 21.875V16.0415H2.91703V56.875H14.5835V51.0415H5.83352V48.125H14.5835V42.2915H5.83352V39.375H14.5835V33.5415H5.83352V30.625H14.5835V24.7915H5.83352V21.875H14.5835ZM70 59.7915H58.3335V65.625H70V59.7915ZM70 10.2085H55.4165V13.125H70V10.2085ZM55.4165 16.0415V21.875H64.1665V24.7915H55.4165V30.625H64.1665V33.5415H55.4165V39.375H64.1665V42.2915H55.4165V48.125H64.1665V51.0415H55.4165V56.875H67.083V16.0415H55.4165ZM48.125 17.7915H21.875V20.708H48.125V17.7915ZM48.125 28.2915H21.875V31.208H48.125V28.2915ZM48.125 49.2915H21.875V52.208H48.125V49.2915ZM48.125 38.7915H21.875V41.7079H48.125V38.7915Z" fill="white"/>
</svg>
