<svg width="70" height="70" viewBox="0 0 70 70" fill="none" xmlns="http://www.w3.org/2000/svg">
<g clip-path="url(#clip0_17769_226)">
<path d="M65.771 28.9625C67.953 28.5382 69.6358 26.8166 69.9962 24.6477L70.0005 24.6171C70.0005 22.8086 68.0466 21.3506 65.6255 21.3506C65.6212 21.3506 65.6162 21.3506 65.6113 21.3506C64.0938 21.3506 62.7594 22.1332 61.9899 23.3171L61.9795 23.3341C60.988 21.1466 60.0255 18.8716 59.063 16.4801C58.5796 15.3546 57.662 14.4939 56.5266 14.0974L56.4966 14.0881C50.038 12.5432 42.6229 11.6572 35.0005 11.6572C27.3782 11.6572 19.9631 12.5432 12.8521 14.2177L13.5045 14.0881C12.3391 14.4939 11.4209 15.3546 10.9484 16.4517L10.9375 16.4796C9.975 18.8711 9.0125 21.1461 8.02102 23.3336C7.24117 22.1332 5.9068 21.35 4.38922 21.35C4.3843 21.35 4.37937 21.35 4.37445 21.35C1.95344 21.35 0 22.8086 0 24.6165C0.364766 26.8161 2.0475 28.5382 4.19562 28.9571L4.22898 28.9625H4.52047C3.63945 29.6954 3.08219 30.7924 3.08219 32.019C3.08219 32.1136 3.08547 32.2071 3.09203 32.3001L3.09148 32.2875C3.47047 36.4 3.82047 41.5625 4.2 45.9375C4.2432 46.4866 4.38922 46.9919 4.61891 47.4486L4.60852 47.425C3.60938 48.0397 2.94055 49.1072 2.88805 50.3344V50.3415V54.5705C2.88531 54.623 2.88367 54.6843 2.88367 54.7455C2.88367 56.7268 4.48984 58.333 6.47117 58.333C6.48266 58.333 6.49469 58.333 6.50672 58.333H14.1466C16.1175 58.333 17.7177 56.7432 17.7341 54.7761V52.791C22.9255 53.7376 28.8996 54.2785 35.0005 54.2785C41.1015 54.2785 47.0761 53.7371 52.8784 52.7002L52.267 52.791V54.7745C52.2834 56.7432 53.8836 58.333 55.8545 58.333H63.496C65.467 58.333 67.0671 56.7432 67.0835 54.7761V50.5455C67.0305 49.3112 66.3616 48.2437 65.3784 47.6378L65.3631 47.629C65.5681 47.1954 65.7125 46.6922 65.7694 46.1623L65.771 46.1415C66.15 41.7665 66.5 36.604 66.8795 32.4915C66.8855 32.4111 66.8888 32.3176 66.8888 32.223C66.8888 30.9964 66.3321 29.8993 65.4571 29.172L65.4505 29.1665L65.771 28.9625ZM15.4 19.3086C15.4 19.3086 15.575 18.7546 15.6625 18.6961C21.6934 17.3775 28.6212 16.6223 35.7252 16.6223C42.309 16.6223 48.7413 17.2709 54.962 18.5079L54.3375 18.4046C54.3375 18.4046 54.5415 19.3086 54.6 19.3671C55.9125 22.2836 57.1375 25.6671 58.3335 27.7086H56.7585C50.2212 26.734 42.6754 26.1773 35 26.1773C27.3246 26.1773 19.7794 26.734 12.402 27.8092L13.2415 27.7086H11.6665C12.8625 25.6671 14.1165 22.1671 15.4 19.3086ZM16.7125 43.4C13.0867 42.7744 9.95312 41.0047 7.62234 38.4814L7.6125 38.4705C5.97898 36.458 7.4375 34.679 9.77102 34.679C12.1045 34.679 19.192 35.1455 20.0085 39.258C20.043 39.4434 20.0627 39.6572 20.0627 39.8749C20.0627 41.7611 18.5828 43.3016 16.7213 43.3989L16.7125 43.4ZM47.3375 40.0461C47.3375 42.3211 45.821 46.4921 43.8665 46.7546C41.195 47.1161 38.1068 47.3222 34.9705 47.3222C31.8341 47.3222 28.7459 47.1161 25.719 46.7163L26.0745 46.7546C24.1205 46.4921 22.662 42.3211 22.662 40.0461C22.6379 39.8973 22.6237 39.7267 22.6237 39.5522C22.6237 37.7803 24.0603 36.3437 25.8322 36.3437C25.9793 36.3437 26.1242 36.3536 26.2664 36.3727L26.25 36.3711C28.922 36.7473 32.0091 36.9617 35.146 36.9617C38.2829 36.9617 41.3695 36.7473 44.3926 36.3317L44.042 36.3711C45.996 36.1375 47.4545 37.6546 47.4545 39.9296L47.3375 40.0461ZM62.3875 38.4711C60.0469 41.0047 56.9133 42.775 53.3827 43.3864L53.2875 43.4C51.4166 43.3021 49.9373 41.7616 49.9373 39.8754C49.9373 39.6572 49.957 39.4439 49.9948 39.2367L49.9915 39.2586C50.808 35.1461 57.925 34.65 60.229 34.6796C62.533 34.7091 64.1665 36.4586 62.3875 38.4711Z" fill="white"/>
</g>
<defs>
<clipPath id="clip0_17769_226">
<rect width="70" height="70" fill="white"/>
</clipPath>
</defs>
</svg>
