<svg width="50" height="50" viewBox="0 0 50 50" fill="none" xmlns="http://www.w3.org/2000/svg">
<g clip-path="url(#clip0_17769_251)">
<path d="M21.9156 18.7501C21.982 19.0368 22.0199 19.3661 22.0199 19.704C22.0199 21.5028 20.9449 23.0501 19.402 23.7392L19.3738 23.7505C18.0406 24.5837 16.2695 25.063 16.5195 27.2298C16.5195 27.2298 16.8738 33.813 17.2277 46.9798C17.2344 47.0517 17.2383 47.1353 17.2383 47.22C17.2383 48.7505 15.9977 49.9907 14.4676 49.9907C12.9375 49.9907 11.6969 48.7501 11.6969 47.22C11.6969 47.1356 11.7008 47.052 11.7082 46.9692L11.7074 46.9798C12.0617 39.938 12.8324 27.2505 12.8324 27.2505C13.0824 25.1673 11.3117 24.688 9.97813 23.8548C8.4082 23.1419 7.33594 21.5876 7.33594 19.7833C7.33594 19.4169 7.38008 19.061 7.46328 18.72L7.45703 18.7505C8.08437 11.6524 9.08594 5.25322 10.4773 -0.999512L10.2906 0.000488281H11.2906L10.5406 15.4587H12.7699L14.3117 0.000488281H15.041L16.666 15.4587H18.7492L18.0617 0.000488281H19.0617C20.2703 5.24775 21.2789 11.6458 21.8727 18.1638L21.916 18.7505L21.9156 18.7501ZM42.6031 14.1669C42.6031 8.77119 39.5824 9.76324e-05 35.9363 9.76324e-05C32.2902 9.76324e-05 29.1656 8.7708 29.1656 14.1044C29.1656 18.5626 31.2488 22.2919 34.1449 23.3751C34.0199 25.2294 33.9156 26.6251 33.8531 27.1251C33.8531 27.1251 33.0613 39.8333 32.7281 46.8958C32.7215 46.9677 32.7176 47.0513 32.7176 47.136C32.7176 48.6665 33.9582 49.9067 35.4883 49.9067C37.0184 49.9067 38.259 48.6661 38.259 47.136C38.259 47.0517 38.2551 46.9681 38.2477 46.8853L38.2484 46.8958C37.8941 33.729 37.5191 27.0833 37.5191 27.0833C37.5191 26.604 37.3734 25.2708 37.2273 23.5001C40.3316 22.6044 42.6023 18.7501 42.6023 14.1044L42.6031 14.1669Z" fill="white"/>
</g>
<defs>
<clipPath id="clip0_17769_251">
<rect width="50" height="50" fill="white"/>
</clipPath>
</defs>
</svg>
