<svg width="50" height="50" viewBox="0 0 50 50" fill="none" xmlns="http://www.w3.org/2000/svg">
<g clip-path="url(#clip0_17769_256)">
<path d="M34.4375 45.5414C37.2414 45.1914 39.5609 43.4117 40.6676 40.966L40.6875 40.9164C41 40.0832 41.3332 39.0832 41.6668 38.2707C42.407 36.5148 43.0672 34.4253 43.5387 32.2652L43.5836 32.0207C43.7016 30.9859 43.7687 29.7867 43.7687 28.5714C43.7687 28.1871 43.7621 27.8046 43.7488 27.4234L43.7504 27.4785C43.5223 24.7203 43.1535 22.2281 42.6387 19.7902L42.709 20.1871C42.0633 16.9578 41.3965 17.1039 40.7508 13.7914C40.0848 11.0308 37.9621 8.89448 35.2609 8.21909L35.209 8.20815C32.9891 7.81948 30.3422 7.53628 27.6516 7.42104L27.5215 7.41675L32.2715 3.74995L32.084 3.41675H32.334L33.0008 4.39604C33.318 4.83979 33.8313 5.12534 34.4113 5.12534C34.4133 5.12534 34.4156 5.12534 34.4176 5.12534C34.4383 5.12612 34.4621 5.1269 34.4863 5.1269C34.8348 5.1269 35.1578 5.01714 35.4227 4.83042L35.4176 4.83394C35.8707 4.52651 36.1645 4.01401 36.1645 3.43276C36.1645 3.06792 36.0484 2.72964 35.8516 2.45386L35.8551 2.45894L34.6469 0.750732C34.357 0.319482 33.8824 0.0315918 33.3387 0.00112305L33.3344 0.000732422H16.7719C16.768 0.000732422 16.7633 0.000732422 16.7582 0.000732422C16.1758 0.000732422 15.6621 0.296045 15.359 0.744873L15.3551 0.750732L14.1676 2.45894C13.9801 2.73003 13.868 3.06558 13.868 3.42769C13.868 4.37534 14.6363 5.14409 15.5844 5.14409C16.1703 5.14409 16.6875 4.85034 16.9973 4.40229L17.0012 4.39643L17.668 3.41714H17.918L17.7305 3.75034L22.4387 7.41714C19.618 7.53667 16.9711 7.82026 14.3777 8.26128L14.7512 8.20893C11.9957 8.90308 9.87305 11.0464 9.21992 13.7617L9.20937 13.8132C8.56367 17.105 7.89687 16.98 7.25117 20.2089C6.81523 22.2726 6.46055 24.782 6.26406 27.3351L6.25117 27.5421C6.19805 28.2433 6.16797 29.0613 6.16797 29.8859C6.16797 30.7105 6.19805 31.5281 6.25742 32.3378L6.25117 32.2296C6.82578 34.5558 7.53945 36.5683 8.42344 38.4863L8.33477 38.2714C8.66797 39.0839 8.98047 40.0839 9.31406 40.9171C10.4406 43.4124 12.7602 45.1921 15.5254 45.5382L15.5641 45.5421H11.7098L4.16797 50.0003H12.5012L16.668 47.2503H33.3348L37.5016 50.0003H45.8348L38.293 45.5421L34.4375 45.5414ZM33.7707 38.6664C32.8504 38.6664 32.1039 37.9203 32.1039 36.9996C32.1039 36.0789 32.85 35.3328 33.7707 35.3328C34.691 35.3328 35.4375 36.0789 35.4375 36.9996C35.4375 37.9199 34.6914 38.6664 33.7707 38.6664ZM34.4582 33.2496C33.0199 33.2496 31.8539 32.0835 31.8539 30.6453C31.8539 29.207 33.0199 28.041 34.4582 28.041C35.8965 28.041 37.0625 29.207 37.0625 30.6453C37.0633 30.6703 37.0637 30.6992 37.0637 30.7285C37.0637 32.1667 35.8977 33.3328 34.4594 33.3328C34.459 33.3328 34.4586 33.3328 34.4578 33.3328L34.4582 33.2496ZM29.3332 3.41636L25 5.87456L20.6668 3.41636H29.3332ZM38.2918 14.7289L36.2086 23.2914H13.8754L11.7922 14.7289H38.2918ZM12.25 30.6453C12.2965 29.2433 13.4437 28.1246 14.8527 28.1246C16.291 28.1246 17.457 29.2906 17.457 30.7289C17.457 32.1667 16.2918 33.3324 14.8543 33.3332C14.8539 33.3332 14.8535 33.3332 14.8531 33.3332C13.4148 33.3332 12.2488 32.1671 12.2488 30.7289C12.2488 30.6996 12.2492 30.6703 12.2504 30.6414V30.6457L12.25 30.6453ZM13.875 36.9996C13.875 36.0792 14.6211 35.3328 15.5418 35.3328C16.4625 35.3328 17.2086 36.0789 17.2086 36.9996C17.2086 37.9199 16.4625 38.6664 15.5418 38.6664C14.6215 38.6664 13.875 37.9203 13.875 36.9996ZM15.4582 43.7496L18.5 42.0203H32.3332L34.2707 43.7496H15.4582Z" fill="white"/>
</g>
<defs>
<clipPath id="clip0_17769_256">
<rect width="50" height="50" fill="white"/>
</clipPath>
</defs>
</svg>
