<svg width="24" height="24" viewBox="0 0 24 24" fill="none" xmlns="http://www.w3.org/2000/svg">
<path fill-rule="evenodd" clip-rule="evenodd" d="M3.99969 20C3.64119 20 3.31119 19.8085 3.13269 19.498C2.95469 19.1875 2.95569 18.8055 3.13619 18.496L11.1362 4.496C11.3152 4.189 11.6442 4 11.9997 4C12.3552 4 12.6842 4.189 12.8637 4.496L20.8637 18.496C21.0442 18.8055 21.0452 19.1875 20.8672 19.498C20.6892 19.8085 20.3577 20 19.9997 20H3.99969ZM12.7397 15H11.2532L11.0427 9H12.9497L12.7397 15ZM11.0712 16.698C11.0232 16.8135 10.9997 16.9365 10.9997 17.071C10.9997 17.2055 11.0232 17.3285 11.0712 17.4405C11.1177 17.553 11.1852 17.65 11.2727 17.7345C11.3582 17.8175 11.4637 17.8825 11.5847 17.9305C11.7067 17.977 11.8432 18 11.9967 18C12.1497 18 12.2877 17.977 12.4107 17.931C12.5357 17.883 12.6412 17.818 12.7267 17.735C12.8137 17.6505 12.8812 17.5535 12.9282 17.441C12.9762 17.329 12.9997 17.206 12.9997 17.071C12.9997 16.9365 12.9762 16.8135 12.9282 16.698C12.8817 16.584 12.8142 16.485 12.7267 16.402C12.6412 16.318 12.5357 16.2525 12.4107 16.2055C12.2877 16.1595 12.1497 16.135 11.9967 16.135C11.8437 16.135 11.7067 16.1595 11.5847 16.2055C11.4637 16.2525 11.3582 16.318 11.2727 16.402C11.1857 16.485 11.1182 16.584 11.0712 16.698Z" fill="#F34141"/>
</svg>
