<svg width="201" height="42" viewBox="0 0 201 42" fill="none" xmlns="http://www.w3.org/2000/svg">
<path d="M55.5423 23.4392C55.5423 23.7843 55.3641 23.9514 54.9967 23.9514H53.126C52.9812 23.9514 52.8587 23.9068 52.7697 23.8066C52.6806 23.7064 52.6249 23.6062 52.5804 23.4726L50.5092 16.1569H42.2694L40.2316 23.4726C40.1871 23.5951 40.1091 23.7064 40.0089 23.8066C39.8976 23.9068 39.7862 23.9514 39.6526 23.9514H37.7708C37.4145 23.9514 37.2363 23.7843 37.2363 23.4392C37.2363 23.3278 37.2364 23.261 37.2698 23.2164L43.1602 2.50537C43.2938 2.01543 43.4719 1.6257 43.7169 1.31392C43.9619 1.00214 44.2291 0.757201 44.5297 0.579042C44.8192 0.400882 45.1422 0.267232 45.4651 0.200422C45.788 0.122477 46.1109 0.089099 46.4004 0.089099C46.6899 0.089099 47.0017 0.122455 47.3246 0.17813C47.6475 0.24494 47.9482 0.367444 48.2489 0.545604C48.5384 0.723764 48.8167 0.968772 49.0617 1.28055C49.3067 1.59233 49.4848 1.982 49.6184 2.47194L55.5089 23.2164C55.5089 23.2164 55.5423 23.3389 55.5423 23.4392ZM47.0129 3.17345C46.9127 2.79486 46.7122 2.60562 46.4116 2.60562C46.1109 2.60562 45.8882 2.79486 45.7769 3.17345L42.8818 13.6404H49.9191L47.024 3.17345H47.0129ZM78.447 7.21546L75.3625 21.9805C75.2623 22.4927 75.151 22.8824 75.0397 23.1719C74.9394 23.4614 74.7835 23.673 74.5942 23.8289C74.4049 23.9737 74.16 24.0738 73.8482 24.1184C73.5476 24.1629 73.1579 24.1852 72.6902 24.1852C72.2671 24.1852 71.9107 24.1518 71.6435 24.1073C71.3651 24.0516 71.1313 23.9514 70.942 23.7843C70.7527 23.6284 70.5968 23.3946 70.4632 23.1051C70.3296 22.8045 70.2071 22.4036 70.0846 21.8914L67.312 11.0682C67.2674 10.968 67.2451 10.9012 67.234 10.8789C67.234 10.8566 67.2006 10.8455 67.1561 10.8455C67.1115 10.8455 67.0892 10.8566 67.0781 10.8789C67.0781 10.9012 67.0336 10.968 67.0002 11.0682L64.2275 21.8914C64.1051 22.359 63.9715 22.7377 63.849 23.0383C63.7265 23.339 63.5706 23.5728 63.3702 23.7398C63.1809 23.9068 62.9359 24.0293 62.6464 24.085C62.3569 24.1518 62.0117 24.1852 61.6109 24.1852C61.1209 24.1852 60.7312 24.1629 60.4305 24.1184C60.1299 24.0738 59.8849 23.9848 59.6956 23.8289C59.5063 23.6842 59.3505 23.4614 59.2502 23.1608C59.1389 22.8601 59.0386 22.4704 58.9273 21.9805L55.8429 7.21546V7.09299C55.8429 6.92596 55.8986 6.78118 56.0099 6.64756C56.1324 6.51394 56.2772 6.45828 56.4442 6.45828H58.159C58.3149 6.45828 58.4262 6.51398 58.5264 6.61419C58.6266 6.71441 58.6824 6.8369 58.7046 6.97052L61.3436 21.5128C61.3882 21.7021 61.4327 21.8135 61.4661 21.8469C61.5106 21.8803 61.5552 21.8914 61.5997 21.8914C61.6999 21.8914 61.789 21.7578 61.8558 21.5128L64.9736 9.26433C65.085 8.90801 65.2297 8.65192 65.4301 8.5183C65.6306 8.38468 65.9089 8.30673 66.243 8.30673H68.0246C68.3587 8.30673 68.637 8.37354 68.8375 8.5183C69.0379 8.65192 69.1938 8.90801 69.294 9.26433L72.4118 21.5128C72.4675 21.7689 72.5565 21.8914 72.6679 21.8914C72.7124 21.8914 72.757 21.8691 72.8015 21.8469C72.8461 21.8135 72.8794 21.7021 72.924 21.5128L75.563 6.97052C75.5852 6.8369 75.6409 6.72554 75.7412 6.61419C75.8302 6.50284 75.9527 6.45828 76.1086 6.45828H77.8234C77.9904 6.45828 78.1352 6.52508 78.2465 6.64756C78.3579 6.78118 78.4247 6.92596 78.4247 7.09299V7.21546H78.447ZM93.4235 23.3167C93.4235 23.4837 93.3568 23.6396 93.2343 23.7621C93.1006 23.8846 92.9559 23.9514 92.7888 23.9514H91.319C91.152 23.9514 91.0072 23.8846 90.8736 23.7621C90.74 23.6285 90.6843 23.4837 90.6843 23.3167V22.6152C89.916 23.0606 89.1366 23.428 88.3348 23.7287C87.5331 24.0293 86.6869 24.1741 85.785 24.1741C85.1057 24.1741 84.4487 24.0961 83.8252 23.9402C83.2016 23.7732 82.6448 23.4948 82.1772 23.094C81.6984 22.6931 81.3087 22.1586 81.0303 21.5017C80.7408 20.8447 80.596 20.0207 80.596 19.0186V18.64C80.596 17.7937 80.7296 17.0476 80.9968 16.3907C81.2641 15.7449 81.6984 15.1993 82.2997 14.765C82.901 14.3308 83.6916 14.0078 84.6715 13.7963C85.6513 13.5847 86.8428 13.4733 88.268 13.4733H90.6175V12.204C90.6175 10.8678 90.3614 9.93243 89.8603 9.40909C89.3481 8.87461 88.4685 8.60733 87.2102 8.60733C86.1746 8.60733 85.2615 8.64074 84.471 8.68528C83.6804 8.74096 82.9789 8.79667 82.3442 8.86348H82.1772C82.0324 8.86348 81.8988 8.83006 81.7763 8.77438C81.6538 8.70757 81.5982 8.57396 81.5982 8.36239V7.24889C81.5982 6.90371 81.8209 6.70324 82.2663 6.64756C82.9232 6.53621 83.6359 6.44719 84.4153 6.35811C85.1948 6.28016 86.119 6.22449 87.1991 6.22449C89.4038 6.22449 90.9961 6.75896 91.9649 7.81679C92.9225 8.87461 93.4124 10.3444 93.4124 12.204V23.3055L93.4235 23.3167ZM90.6175 15.4888H88.268C87.3104 15.4888 86.5198 15.5445 85.8851 15.6669C85.2393 15.7894 84.7494 15.9676 84.3819 16.2126C84.0256 16.4575 83.7695 16.7804 83.6136 17.1701C83.4689 17.5599 83.3909 18.0387 83.3909 18.6177V18.9963C83.3909 20.1432 83.647 20.9115 84.1592 21.3013C84.6603 21.691 85.3841 21.8914 86.3194 21.8914C87.0655 21.8914 87.7669 21.7912 88.4462 21.5685C89.1254 21.3569 89.8492 21.034 90.6064 20.6109V15.4888H90.6175ZM103.712 8.68528C102.977 8.68528 102.254 8.78552 101.563 8.98595C100.884 9.18638 100.127 9.53156 99.3251 10.0215V23.3278C99.3251 23.4949 99.2694 23.6507 99.1358 23.7732C99.0022 23.8957 98.8685 23.9625 98.6904 23.9625H97.1315C96.9645 23.9625 96.8197 23.8957 96.7084 23.7732C96.5859 23.6396 96.5302 23.4949 96.5302 23.3278V7.10413C96.5302 6.93711 96.5859 6.79233 96.7084 6.65871C96.8197 6.52509 96.9645 6.46943 97.1315 6.46943H98.6236C98.7906 6.46943 98.9354 6.53622 99.0578 6.65871C99.1692 6.79233 99.236 6.93712 99.236 7.11528V7.7945C100.038 7.23775 100.817 6.83688 101.541 6.60304C102.276 6.36921 103 6.24672 103.723 6.24672C104.169 6.24672 104.391 6.43603 104.391 6.82576V8.15083C104.391 8.51828 104.169 8.69643 103.723 8.69643L103.712 8.68528ZM119.079 22.9047C119.079 23.1163 119.034 23.2833 118.967 23.3946C118.889 23.506 118.711 23.595 118.41 23.6284C117.419 23.8177 116.44 23.9625 115.471 24.0405C114.502 24.1296 113.533 24.163 112.553 24.163C111.362 24.163 110.338 23.9737 109.469 23.6062C108.601 23.2388 107.877 22.7154 107.309 22.0361C106.741 21.3569 106.318 20.5329 106.04 19.5531C105.761 18.5732 105.627 17.4931 105.627 16.3128V14.019C105.627 11.5136 106.195 9.58726 107.342 8.23992C108.489 6.89259 110.237 6.21335 112.553 6.21335C113.043 6.21335 113.634 6.24676 114.324 6.2913C115.014 6.34698 115.671 6.42488 116.284 6.52509V0.612411C116.284 0.445386 116.351 0.300615 116.462 0.17813C116.584 0.0667801 116.729 0 116.896 0H118.522C118.689 0 118.834 0.0556451 118.934 0.17813C119.034 0.28948 119.101 0.434251 119.101 0.612411V22.8824L119.079 22.9047ZM116.273 8.908C115.749 8.79665 115.114 8.74099 114.402 8.71872C113.678 8.69645 113.066 8.68528 112.553 8.68528C111.774 8.68528 111.117 8.79664 110.583 9.04161C110.059 9.27545 109.636 9.62062 109.313 10.0772C108.99 10.5337 108.768 11.1016 108.623 11.7586C108.489 12.4267 108.411 13.1838 108.411 14.0412V16.335C108.411 18.0721 108.712 19.4083 109.302 20.3437C109.892 21.279 110.972 21.7467 112.542 21.7467C113.088 21.7467 113.723 21.7243 114.413 21.6798C115.092 21.6353 115.727 21.6019 116.273 21.5573V8.91914V8.908Z" fill="#272F3F"/>
<path d="M145.203 0.93521L141.673 22.448C141.561 23.1049 141.339 23.5392 140.982 23.7508C140.626 23.9624 140.203 24.0737 139.702 24.0737H138.332C137.887 24.0737 137.497 23.9289 137.185 23.6506C136.862 23.3611 136.64 22.9714 136.517 22.4925L133.411 10.7228C133.366 10.567 133.333 10.489 133.31 10.4668C133.288 10.4445 133.255 10.4333 133.221 10.4333H133.155C133.155 10.4333 133.077 10.4334 133.065 10.4668C133.043 10.489 133.01 10.567 132.965 10.7228L129.814 22.4925C129.692 22.9825 129.469 23.3722 129.146 23.6506C128.823 23.9401 128.444 24.0737 127.999 24.0737H126.663C126.162 24.0737 125.728 23.9624 125.382 23.7508C125.026 23.5392 124.803 23.1049 124.703 22.448L121.162 0.93521V0.834965C121.162 0.478645 121.34 0.289361 121.708 0.289361H123.556C123.857 0.289361 124.035 0.46751 124.091 0.834965L127.175 21.134C127.22 21.3011 127.242 21.4236 127.242 21.5015C127.242 21.5795 127.275 21.6128 127.342 21.6128C127.42 21.6128 127.498 21.457 127.565 21.134L130.683 9.33097C130.894 8.48471 131.395 8.05042 132.175 8.05042H134.212C134.992 8.05042 135.493 8.47358 135.704 9.33097L138.822 21.134C138.878 21.457 138.967 21.6128 139.045 21.6128C139.112 21.6128 139.145 21.5795 139.145 21.5015C139.145 21.4236 139.167 21.3011 139.212 21.134L142.296 0.834965C142.352 0.478645 142.541 0.289361 142.842 0.289361H144.69C145.047 0.289361 145.236 0.46751 145.236 0.834965V0.93521H145.203ZM159.411 23.3054C159.411 23.4724 159.344 23.6283 159.222 23.7508C159.088 23.8733 158.943 23.9401 158.776 23.9401H157.306C157.139 23.9401 156.995 23.8733 156.861 23.7508C156.727 23.6172 156.672 23.4724 156.672 23.3054V22.6039C155.903 23.0493 155.124 23.4167 154.311 23.7174C153.509 24.018 152.663 24.1628 151.772 24.1628C151.093 24.1628 150.436 24.0848 149.813 23.9289C149.189 23.7619 148.632 23.4835 148.164 23.0827C147.686 22.6818 147.307 22.1473 147.018 21.4904C146.728 20.8334 146.594 20.0094 146.594 19.0073V18.6287C146.594 17.7824 146.717 17.0364 146.984 16.3794C147.251 15.7336 147.686 15.188 148.287 14.7537C148.899 14.3194 149.69 13.9965 150.659 13.785C151.627 13.5734 152.83 13.4621 154.255 13.4621H156.616V12.1927C156.616 10.8565 156.36 9.92113 155.848 9.39778C155.335 8.8633 154.456 8.59603 153.209 8.59603C152.173 8.59603 151.26 8.62944 150.469 8.67398C149.679 8.72965 148.977 8.78537 148.332 8.85218H148.176C148.02 8.85218 147.886 8.81875 147.775 8.76308C147.663 8.69627 147.597 8.56265 147.597 8.35109V7.23759C147.597 6.8924 147.819 6.692 148.265 6.63632C148.922 6.52497 149.634 6.43588 150.414 6.3468C151.193 6.26886 152.117 6.21319 153.198 6.21319C155.402 6.21319 156.983 6.74766 157.952 7.80548C158.91 8.86331 159.4 10.3331 159.4 12.1927V23.2942L159.411 23.3054ZM156.616 15.4775H154.255C153.298 15.4775 152.507 15.5332 151.872 15.6556C151.227 15.7781 150.737 15.9563 150.369 16.2012C150.013 16.4462 149.757 16.7691 149.612 17.1588C149.456 17.5486 149.389 18.0274 149.389 18.6064V18.985C149.389 20.1319 149.645 20.9002 150.158 21.29C150.67 21.6797 151.383 21.8801 152.318 21.8801C153.064 21.8801 153.765 21.7799 154.445 21.5572C155.124 21.3456 155.848 21.0227 156.605 20.5996V15.4775H156.616ZM165.491 23.7508C165.379 23.8733 165.246 23.9401 165.079 23.9401H163.419C163.252 23.9401 163.119 23.8733 163.007 23.7508C162.907 23.6172 162.852 23.4724 162.852 23.3054V0.623398C162.852 0.456373 162.907 0.311601 163.007 0.189116C163.119 0.0777664 163.252 0.0109863 163.419 0.0109863H165.079C165.246 0.0109863 165.379 0.0666314 165.491 0.189116C165.602 0.300466 165.646 0.445238 165.646 0.623398V23.3054C165.646 23.4724 165.591 23.6283 165.491 23.7508ZM172.038 23.7508C171.938 23.8733 171.793 23.9401 171.626 23.9401H169.978C169.811 23.9401 169.666 23.8733 169.566 23.7508C169.455 23.6172 169.399 23.4724 169.399 23.3054V0.623398C169.399 0.456373 169.455 0.311601 169.566 0.189116C169.666 0.0777664 169.811 0.0109863 169.978 0.0109863H171.626C171.793 0.0109863 171.938 0.0666314 172.038 0.189116C172.149 0.300466 172.194 0.445238 172.194 0.623398V23.3054C172.194 23.4724 172.138 23.6283 172.038 23.7508ZM189.086 15.3773C189.086 15.8449 188.885 16.0788 188.484 16.0788H177.862V16.5242C177.862 18.406 178.229 19.7422 178.975 20.5328C179.721 21.3234 180.823 21.7131 182.293 21.7131C183.217 21.7131 184.209 21.6797 185.266 21.6128C186.313 21.546 187.215 21.4681 187.95 21.3568H188.106C188.239 21.3568 188.351 21.3902 188.462 21.457C188.573 21.5238 188.618 21.6352 188.618 21.8022V22.8822C188.618 23.0938 188.573 23.2608 188.484 23.3722C188.406 23.4835 188.228 23.5726 187.983 23.606C187.07 23.7731 186.157 23.9067 185.266 24.0069C184.364 24.096 183.373 24.1517 182.293 24.1517C181.38 24.1517 180.489 24.0291 179.621 23.7842C178.752 23.5392 177.984 23.1272 177.316 22.5482C176.648 21.9692 176.102 21.1786 175.69 20.2099C175.278 19.23 175.067 18.0052 175.067 16.5242V13.6625C175.067 11.3687 175.668 9.55369 176.871 8.22862C178.073 6.89242 179.821 6.22433 182.104 6.22433C183.273 6.22433 184.286 6.40246 185.155 6.74765C186.023 7.09283 186.747 7.59394 187.326 8.23977C187.905 8.8856 188.34 9.67616 188.64 10.5892C188.941 11.5134 189.086 12.5379 189.086 13.6625V15.3773ZM186.28 13.6625C186.28 11.8586 185.934 10.5781 185.244 9.80977C184.554 9.04146 183.507 8.6629 182.115 8.6629C180.723 8.6629 179.677 9.06372 178.953 9.87658C178.218 10.6894 177.85 11.9477 177.85 13.6625V13.952H186.28V13.6625ZM200.432 24.0069C200.109 24.0514 199.764 24.0848 199.385 24.1182C199.007 24.1516 198.662 24.1628 198.372 24.1628C197.626 24.1628 196.98 24.1071 196.446 23.9846C195.9 23.8621 195.455 23.6506 195.11 23.3388C194.753 23.0159 194.497 22.5816 194.319 22.036C194.141 21.4904 194.041 20.7777 194.041 19.8981V8.79652L190.956 8.44019C190.555 8.39565 190.355 8.20634 190.355 7.87229V7.01488C190.355 6.63629 190.555 6.44698 190.956 6.44698H194.041V3.32919C194.041 2.97287 194.23 2.75017 194.609 2.69449L196.268 2.43841H196.357C196.479 2.43841 196.602 2.48295 196.691 2.58317C196.791 2.67225 196.836 2.80585 196.836 2.98401V6.44698H200.265C200.432 6.44698 200.588 6.51384 200.711 6.63632C200.833 6.76994 200.9 6.91466 200.9 7.08168V8.16181C200.9 8.32884 200.833 8.47355 200.711 8.60717C200.577 8.72966 200.432 8.79652 200.265 8.79652H196.836V19.8758C196.836 20.7443 196.958 21.29 197.214 21.5238C197.47 21.7576 197.916 21.869 198.55 21.869H200.332C200.777 21.869 201 22.0249 201 22.3255V23.4501C201 23.7508 200.811 23.9289 200.432 23.9957V24.0069Z" fill="#272F3F"/>
<path opacity="0.3" d="M29.5003 13.4959H28.2087C27.6853 13.4959 27.2511 13.0616 27.2511 12.5383C27.2511 12.0149 27.6742 11.5807 28.2087 11.5807H29.3333L28.9102 6.78152C28.8434 6.03547 28.1753 5.41187 27.4292 5.41187H26.5384L27.2956 17.2595C27.407 18.9743 26.1821 20.6223 24.523 21.0009L10.8047 24.1744H29.0661C29.8122 24.1744 30.38 23.5619 30.3132 22.8159L29.5003 13.4959Z" fill="url(#paint0_linear_14353_488)"/>
<path fill-rule="evenodd" clip-rule="evenodd" d="M1.23847 5.24467L22.8849 0.233925C23.6087 0.0668997 24.2434 0.545661 24.2879 1.30284L25.3012 17.3818C25.3458 18.139 24.789 18.885 24.0764 19.052L2.41877 24.0628C1.695 24.2298 1.06036 23.751 1.01582 23.0049L0.00249703 6.926C-0.042043 6.16882 0.51469 5.42278 1.23847 5.25575V5.24467Z" fill="url(#paint1_linear_14353_488)"/>
<path d="M168.291 37.9567C168.291 38.092 168.211 38.1755 168.052 38.2074C167.566 38.3108 166.918 38.3626 166.106 38.3626C165.676 38.3626 165.302 38.3268 164.984 38.2551C164.673 38.1915 164.371 38.0721 164.077 37.897C163.79 37.7219 163.571 37.4593 163.42 37.1091C163.269 36.7589 163.193 36.3212 163.193 35.7959V29.6239C163.193 29.5602 163.217 29.5045 163.265 29.4568C163.312 29.409 163.368 29.3851 163.432 29.3851H164.996C165.059 29.3851 165.115 29.409 165.163 29.4568C165.211 29.5045 165.234 29.5602 165.234 29.6239V35.7959C165.234 36.1063 165.29 36.3212 165.402 36.4405C165.513 36.552 165.712 36.6077 165.999 36.6077H168.052C168.116 36.6077 168.171 36.6316 168.219 36.6793C168.267 36.7271 168.291 36.7828 168.291 36.8464V37.9567ZM174.804 37.9567C174.804 38.0999 174.724 38.1835 174.565 38.2074C173.841 38.3108 173.069 38.3626 172.249 38.3626C171.819 38.3626 171.445 38.3268 171.127 38.2551C170.816 38.1915 170.518 38.0721 170.231 37.897C169.945 37.7219 169.726 37.4593 169.575 37.1091C169.423 36.7589 169.348 36.3212 169.348 35.7959V31.8324C169.348 31.3072 169.423 30.8694 169.575 30.5193C169.726 30.1691 169.945 29.9104 170.231 29.7433C170.526 29.5682 170.828 29.4488 171.139 29.3851C171.457 29.3135 171.831 29.2777 172.261 29.2777C173.072 29.2777 173.841 29.3294 174.565 29.4329C174.724 29.4568 174.804 29.5364 174.804 29.6717V30.7819C174.804 30.8456 174.78 30.9013 174.732 30.949C174.684 30.9968 174.628 31.0207 174.565 31.0207H172.141C171.855 31.0207 171.656 31.0804 171.544 31.1997C171.433 31.3112 171.377 31.5221 171.377 31.8324V32.9188H174.469C174.533 32.9188 174.589 32.9427 174.636 32.9904C174.684 33.0382 174.708 33.0939 174.708 33.1576V34.2917C174.708 34.3554 174.684 34.4111 174.636 34.4588C174.589 34.5066 174.533 34.5305 174.469 34.5305H171.377V35.7959C171.377 36.1063 171.433 36.3212 171.544 36.4405C171.656 36.552 171.855 36.6077 172.141 36.6077H174.565C174.628 36.6077 174.684 36.6316 174.732 36.6793C174.78 36.7271 174.804 36.7828 174.804 36.8464V37.9567ZM183.233 38.0641C183.233 38.1915 183.165 38.2551 183.03 38.2551H181.358C181.231 38.2551 181.152 38.1835 181.12 38.0402L180.69 36.0824H178.243L177.813 38.0402C177.781 38.1835 177.701 38.2551 177.574 38.2551H175.903C175.767 38.2551 175.7 38.1915 175.7 38.0641L175.712 38.0402C175.712 38.0243 175.712 38.0124 175.712 38.0044L177.491 30.6028C177.618 30.0855 177.853 29.7353 178.195 29.5523C178.545 29.3692 178.971 29.2777 179.472 29.2777C179.974 29.2777 180.395 29.3692 180.738 29.5523C181.08 29.7353 181.315 30.0855 181.442 30.6028L183.221 38.0044C183.221 38.0124 183.225 38.0243 183.233 38.0402V38.0641ZM180.356 34.4469L179.627 31.152C179.604 31.0326 179.552 30.9729 179.472 30.9729C179.385 30.9729 179.329 31.0326 179.305 31.152L178.577 34.4469H180.356ZM191.147 38.1119C191.147 38.2074 191.087 38.2551 190.968 38.2551H189.141C189.062 38.2551 188.982 38.1755 188.903 38.0164L187.303 34.996L187.172 35.008C187.084 35.008 186.937 35.004 186.73 34.996C186.531 34.9881 186.396 34.9841 186.324 34.9841V38.0164C186.324 38.08 186.3 38.1357 186.252 38.1835C186.205 38.2313 186.149 38.2551 186.085 38.2551H184.533C184.47 38.2551 184.414 38.2313 184.366 38.1835C184.318 38.1357 184.295 38.08 184.295 38.0164V30.0059C184.295 29.8149 184.334 29.6796 184.414 29.6C184.494 29.5204 184.633 29.4647 184.832 29.4329C185.508 29.3294 186.316 29.2777 187.255 29.2777C189.651 29.2777 190.849 30.2089 190.849 32.0712V32.2264C190.849 32.8313 190.705 33.3366 190.419 33.7425C190.14 34.1405 189.77 34.431 189.309 34.614L191.111 37.9806C191.135 38.0283 191.147 38.0721 191.147 38.1119ZM188.819 32.2264V32.0712C188.819 31.3629 188.298 31.0087 187.255 31.0087C186.921 31.0087 186.611 31.0207 186.324 31.0445V33.3366C186.499 33.3526 186.782 33.3605 187.172 33.3605C187.792 33.3605 188.222 33.277 188.461 33.1098C188.7 32.9347 188.819 32.6403 188.819 32.2264ZM199.44 37.8015C199.44 37.9288 199.392 38.0363 199.297 38.1238C199.209 38.2114 199.102 38.2551 198.975 38.2551H197.805C197.534 38.2551 197.327 38.1318 197.184 37.885L194.462 33.1815C194.422 33.1178 194.386 33.0859 194.355 33.0859C194.315 33.0859 194.295 33.1178 194.295 33.1815V38.0164C194.295 38.08 194.271 38.1357 194.223 38.1835C194.176 38.2313 194.12 38.2551 194.056 38.2551H192.647C192.584 38.2551 192.528 38.2313 192.48 38.1835C192.433 38.1357 192.409 38.08 192.409 38.0164V29.8388C192.409 29.7115 192.452 29.604 192.54 29.5165C192.628 29.4289 192.735 29.3851 192.862 29.3851H194.068C194.259 29.3851 194.426 29.5085 194.569 29.7552L197.399 34.6737C197.439 34.7374 197.47 34.7692 197.494 34.7692C197.534 34.7692 197.554 34.7334 197.554 34.6618V29.612C197.554 29.5483 197.578 29.4966 197.626 29.4568C197.673 29.409 197.729 29.3851 197.793 29.3851H199.201C199.265 29.3851 199.321 29.409 199.369 29.4568C199.416 29.4966 199.44 29.5483 199.44 29.612V37.8015Z" fill="#0168CA"/>
<defs>
<linearGradient id="paint0_linear_14353_488" x1="20.5616" y1="5.41187" x2="24.4462" y2="24.1026" gradientUnits="userSpaceOnUse">
<stop stop-color="#606981"/>
<stop offset="1" stop-color="#3C4355"/>
</linearGradient>
<linearGradient id="paint1_linear_14353_488" x1="12.6519" y1="0.200683" x2="17.518" y2="24.0396" gradientUnits="userSpaceOnUse">
<stop stop-color="#606981"/>
<stop offset="1" stop-color="#3C4355"/>
</linearGradient>
</defs>
</svg>
