<svg  viewBox="0 0 16 16" fill="none" xmlns="http://www.w3.org/2000/svg">
<path d="M10.9291 3.85656C10.8119 3.7394 10.622 3.7394 10.5048 3.85656L8.04503 6.31636L5.54164 3.81297C5.42448 3.69581 5.23453 3.69581 5.11737 3.81297L3.81443 5.11591C3.69727 5.23307 3.69727 5.42302 3.81443 5.54017L6.31782 8.04356L3.85802 10.5034C3.74086 10.6205 3.74086 10.8105 3.85802 10.9276L5.07378 12.1434C5.19094 12.2605 5.38089 12.2605 5.49805 12.1434L7.95784 9.68359L10.4612 12.187C10.5784 12.3041 10.7683 12.3041 10.8855 12.187L12.1884 10.884C12.3056 10.7669 12.3056 10.5769 12.1884 10.4598L9.68505 7.95638L12.1448 5.49658C12.262 5.37942 12.262 5.18948 12.1448 5.07232L10.9291 3.85656Z" fill="currentColor"/>
</svg>
