<svg  viewBox="0 0 24 24" fill="none" xmlns="http://www.w3.org/2000/svg">
<path d="M23.0001 10.1791C23.0001 14.7091 19.2784 18.3582 14.6583 18.3582C10.0382 18.3582 6.31641 14.7091 6.31641 10.1791C6.31641 5.64914 10.0382 2 14.6583 2C19.2784 2 23.0001 5.64914 23.0001 10.1791ZM14.6583 5.14581C11.8349 5.14581 9.52482 7.4108 9.52482 10.1791C9.52482 12.9474 11.8349 15.2124 14.6583 15.2124C17.4817 15.2124 19.7917 12.9474 19.7917 10.1791C19.7917 7.4108 17.4817 5.14581 14.6583 5.14581Z" fill="currentColor"/>
<path d="M7.9875 13.2569L1 20.108L3.7224 22.7773L10.7099 15.9261L7.9875 13.2569Z" fill="currentColor"/>
</svg>
