<svg width="24" height="24" viewBox="0 0 24 24" fill="none" xmlns="http://www.w3.org/2000/svg">
<path d="M7.88666 7.07346C7.88666 4.917 9.82221 3 11.9995 3C14.1769 3 16.1124 4.917 16.1124 7.07346C16.1124 9.22991 14.1769 11.1469 11.9995 11.1469C9.82221 11.1469 7.88666 9.46982 7.88666 7.07346ZM4.5 16.6576C4.5 14.7406 5.46755 12.824 7.16133 11.3864C8.12888 13.3034 10.0644 14.5011 12 14.5011C13.9356 14.5011 15.6289 13.3029 16.8387 11.3864C18.532 12.824 19.5 14.9805 19.5 16.6576C19.5 20.0122 16.1129 20.9705 12.0005 20.9705C7.88756 21.2099 4.5 20.0122 4.5 16.6576Z" fill="#313745"/>
</svg>
