<svg id="Layer_1" data-name="Layer 1" xmlns="http://www.w3.org/2000/svg" viewBox="0 0 345 50"><title>green-startups</title><polygon points="47 25 41 18 47 18 53 25 47 32 41 32 47 25"/><polygon points="57 25 51 18 57 18 63 25 57 32 51 32 57 25"/><polygon points="141 25 135 18 141 18 147 25 141 32 135 32 141 25"/><polygon points="151 25 145 18 151 18 157 25 151 32 145 32 151 25"/><polygon points="213 25 207 18 213 18 219 25 213 32 207 32 213 25"/><polygon points="223 25 217 18 223 18 229 25 223 32 217 32 223 25"/><path d="M188.76,25.11l-2.9,1.68a11.78,11.78,0,0,0-5.52-3.17V20.25h-6v3.37a11.79,11.79,0,0,0-5.51,3.17L166,25.11l-3,5.15L165.91,32a11.68,11.68,0,0,0,0,6.35L163,40l3,5.15,2.9-1.68a11.79,11.79,0,0,0,5.51,3.17V50h6V46.63a11.78,11.78,0,0,0,5.52-3.17l2.9,1.68,3-5.15-2.91-1.69a11.68,11.68,0,0,0,0-6.35l2.91-1.69ZM177.52,40.63a5.51,5.51,0,1,1,5.65-5.51A5.58,5.58,0,0,1,177.52,40.63Z"/><path d="M202.81,14.77V8.82h-2.7a9.81,9.81,0,0,0-2-3.5L199.44,3l-5.16-3-1.35,2.34a9.38,9.38,0,0,0-4,0L187.54,0l-5.16,3,1.36,2.34a9.81,9.81,0,0,0-2,3.5H179v5.95h2.7a9.77,9.77,0,0,0,2,3.49l-1.36,2.35,5.16,3,1.35-2.34a9.82,9.82,0,0,0,4,0l1.35,2.34,5.16-3-1.36-2.35a9.77,9.77,0,0,0,2-3.49Zm-17.26-2.83a5.36,5.36,0,1,1,10.71,0,5.36,5.36,0,1,1-10.71,0Z"/><path d="M99.37,24.92H74.5V3.5h36.07V14.84a14.91,14.91,0,0,1,3-.34V.5H71.5V27.92H98.71A15.72,15.72,0,0,1,99.37,24.92Z"/><path d="M113.8,16.49A13.2,13.2,0,0,0,102.15,35.9l-9.8,9.79L96.66,50l9.53-9.53a13.2,13.2,0,1,0,7.61-24Zm0,21.32a8.12,8.12,0,1,1,8.12-8.12A8.12,8.12,0,0,1,113.8,37.81Z"/><path d="M23,28.43A6.77,6.77,0,0,1,25.85,25V9.93l5.44-5.67L32.65,0,28.57,1.42,23.13,7.09H1.36L0,8.51l16.93,5.05L9.52,21.28H4.08L2.72,22.7l5.67,1.18L5.44,27v1.42H6.8l3-3.08,1.13,5.91,1.36-1.41V24.12l7.41-7.73Z"/><path d="M38,43.49C38,44.64,37,50,29.14,50s-8.85-5.51-8.85-6.52A7.67,7.67,0,0,1,23.94,37a6.37,6.37,0,0,0,5.21,2.72A6.16,6.16,0,0,0,34.35,37C38,40.34,38,42.33,38,43.49Z"/><ellipse cx="29.15" cy="30.99" rx="4.69" ry="4.89"/><path d="M274.37,20.08a12.7,12.7,0,0,0-2.56-1.86l-.91-.5a8.24,8.24,0,0,0-.71-1.7,11.21,11.21,0,0,0-2.46-3.27,13.48,13.48,0,0,0-18.09,0l-.64.65c-.13.14-.25.28-.37.43l-2.49,1.28a13.62,13.62,0,0,0-7.61,12c0,7.4,6.68,13.66,14.59,13.66a15.47,15.47,0,0,0,6.55-1.47l1.42.46a13.39,13.39,0,0,0,4.21.67,13.14,13.14,0,0,0,9.07-3.53,11.43,11.43,0,0,0,3.7-8.41A11.69,11.69,0,0,0,274.37,20.08ZM272.32,34.7A10.42,10.42,0,0,1,262,36.89a13.09,13.09,0,0,0,3.79-5.24,1.39,1.39,0,0,0-.19-1.34,1,1,0,0,0-.27-.24h-.05a.86.86,0,0,0-1.23.57,11,11,0,0,1-5.38,5.79,12.4,12.4,0,0,1-5.57,1.33c-6.29,0-11.59-4.9-11.59-10.66a10.67,10.67,0,0,1,6-9.34,11,11,0,0,0,.63,8.27.85.85,0,0,0,1.31.4l.07-.05a1.38,1.38,0,0,0,.27-1.57,8.31,8.31,0,0,1,1.42-9.42l.47-.46a10.47,10.47,0,0,1,14,0,8.24,8.24,0,0,1,1.86,2.48,5.66,5.66,0,0,1,.55,1.34,6.43,6.43,0,0,1,.29,1.26,8.09,8.09,0,0,1-.8,4.79,1.36,1.36,0,0,0,.28,1.57.18.18,0,0,0,.07.05.84.84,0,0,0,1.31-.4,10.64,10.64,0,0,0,1.13-5.18,10.15,10.15,0,0,1,2,1.43,8.66,8.66,0,0,1,2.75,6.21A8.52,8.52,0,0,1,272.32,34.7Z"/><polygon points="313.2 24.56 320.84 32.2 328.48 24.56 326.36 22.44 322.64 26.16 322.64 17.8 319.04 17.8 319.04 26.16 315.33 22.44 313.2 24.56"/><path d="M327.5,37.41a6.21,6.21,0,0,1-2.93-.52c-1.17-.6-1.92-1.14-3.34-.47a13,13,0,0,1-5.56,1.33c-6.29,0-11.6-4.9-11.6-10.66a10.67,10.67,0,0,1,6-9.34,27.61,27.61,0,0,0,4.17-2.83,10.49,10.49,0,0,1,14,0,8.59,8.59,0,0,1,1.86,2.48,6.07,6.07,0,0,1,.54,1.34,2.91,2.91,0,0,0,2.29,2.09,10.39,10.39,0,0,1,1.95,1.43,8.86,8.86,0,0,1,1.48,1.84,6.53,6.53,0,0,1,3.85,1.4,11.94,11.94,0,0,0-3.27-5.43,13,13,0,0,0-2.56-1.86l-.27-.15-.3-.09-.3-.12a9.23,9.23,0,0,0-.75-1.84,11.25,11.25,0,0,0-2.47-3.27,13.48,13.48,0,0,0-18.07-.05,24.4,24.4,0,0,1-3.52,2.38,13.63,13.63,0,0,0-7.61,12c0,7.4,6.68,13.66,14.6,13.66a16,16,0,0,0,6.77-1.58l.75.39a8.07,8.07,0,0,0,2.64.76A9.6,9.6,0,0,1,327.5,37.41Z"/><path d="M345,43.49c0,1.15-1,6.51-8.86,6.51s-8.85-5.51-8.85-6.52A7.67,7.67,0,0,1,330.94,37a6.37,6.37,0,0,0,5.21,2.72A6.19,6.19,0,0,0,341.36,37C345,40.34,345,42.33,345,43.49Z"/><ellipse cx="336.15" cy="30.99" rx="4.69" ry="4.89"/></svg>