<svg xmlns="http://www.w3.org/2000/svg" width="215" height="26" fill="#2e3853" xmlns:v="https://vecta.io/nano"><path d="M59.413 25.072c0 .369-.191.548-.584.548h-2.001c-.155 0-.286-.048-.381-.155a.97.97 0 0 1-.203-.357l-2.215-7.825h-8.814l-2.18 7.825c-.048.131-.131.25-.238.357a.54.54 0 0 1-.381.155h-2.013c-.381 0-.572-.179-.572-.548 0-.119 0-.191.036-.238L46.169 2.68c.143-.524.334-.941.596-1.274a3.16 3.16 0 0 1 .869-.786 3.16 3.16 0 0 1 1.001-.405c.345-.083.691-.119 1-.119a5.89 5.89 0 0 1 .989.095 3.18 3.18 0 0 1 .989.393 3.34 3.34 0 0 1 .869.786c.262.334.453.75.596 1.274l6.301 22.189a1.09 1.09 0 0 0 .036.238zM50.29 3.394c-.107-.405-.322-.607-.643-.607s-.56.202-.679.607L45.871 14.59h7.528L50.302 3.394h-.012zm33.624 4.324l-3.299 15.793a7.76 7.76 0 0 1-.345 1.275 1.53 1.53 0 0 1-.477.703c-.202.155-.464.262-.798.31-.322.048-.739.072-1.239.072a6.95 6.95 0 0 1-1.12-.083c-.298-.06-.548-.167-.75-.346-.203-.167-.369-.417-.512-.726-.143-.322-.274-.75-.405-1.298l-2.966-11.577-.083-.203c0-.024-.036-.036-.083-.036s-.072.012-.083.036c0 .024-.048.095-.083.203l-2.966 11.577a9.85 9.85 0 0 1-.405 1.227c-.131.322-.298.572-.512.75a1.62 1.62 0 0 1-.774.369c-.31.072-.679.107-1.108.107-.524 0-.941-.024-1.263-.072s-.584-.143-.786-.31c-.203-.155-.369-.393-.476-.715-.119-.322-.226-.739-.345-1.263L59.735 7.718v-.131a.72.72 0 0 1 .179-.476.6.6 0 0 1 .464-.202h1.834a.52.52 0 0 1 .393.167c.107.107.167.238.191.381l2.823 15.555c.048.203.095.322.131.357a.23.23 0 0 0 .143.048c.107 0 .203-.143.274-.405L69.501 9.91c.119-.381.274-.655.488-.798s.512-.226.869-.226h1.906c.357 0 .655.071.869.226.214.143.381.417.488.798l3.335 13.102c.06.274.155.405.274.405.048 0 .095-.024.143-.048.048-.036.083-.155.131-.357l2.823-15.555a.72.72 0 0 1 .191-.381c.095-.119.226-.167.393-.167h1.834c.179 0 .334.071.453.202.119.143.191.298.191.476v.131h.024zm16.02 17.223c0 .179-.071.346-.202.477-.143.131-.298.202-.477.202h-1.572c-.179 0-.334-.071-.476-.202a.64.64 0 0 1-.203-.477v-.75a16.63 16.63 0 0 1-2.513 1.191c-.858.322-1.763.477-2.727.477a8.62 8.62 0 0 1-2.096-.25c-.667-.179-1.263-.476-1.763-.905-.512-.429-.929-1-1.227-1.703-.31-.703-.465-1.584-.465-2.656v-.405c0-.905.143-1.703.429-2.406.286-.691.75-1.274 1.394-1.739s1.489-.81 2.537-1.036 2.323-.345 3.847-.345h2.513v-1.358c0-1.429-.274-2.43-.81-2.99-.548-.572-1.489-.858-2.835-.858l-2.93.083-2.275.191h-.179c-.155 0-.298-.036-.429-.095-.131-.071-.191-.214-.191-.441V7.754c0-.369.238-.584.715-.643l2.299-.31a29.84 29.84 0 0 1 2.978-.143c2.358 0 4.062.572 5.098 1.703 1.024 1.131 1.548 2.704 1.548 4.693v11.875l.012.012zm-3.001-8.373H94.42c-1.024 0-1.87.06-2.549.191-.691.131-1.215.322-1.608.584-.381.262-.655.607-.822 1.024-.155.417-.238.929-.238 1.548v.405c0 1.227.274 2.049.822 2.465.536.417 1.31.631 2.311.631a7.21 7.21 0 0 0 2.275-.345c.727-.226 1.501-.572 2.311-1.024v-5.479h.012zm14.007-7.277a8.25 8.25 0 0 0-2.299.322c-.726.214-1.536.584-2.394 1.108v14.233a.62.62 0 0 1-.202.476c-.143.131-.286.203-.477.203h-1.667c-.179 0-.334-.072-.453-.203-.131-.143-.19-.298-.19-.476V7.599a.67.67 0 0 1 .19-.476c.119-.143.274-.202.453-.202h1.596a.64.64 0 0 1 .464.202c.12.143.191.298.191.488v.727c.858-.596 1.691-1.024 2.466-1.274.786-.25 1.56-.381 2.334-.381.476 0 .715.203.715.619v1.417c0 .393-.239.584-.715.584l-.012-.012zm16.437 15.21c0 .226-.048.405-.119.524-.084.119-.274.214-.596.25l-3.144.441a34.12 34.12 0 0 1-3.121.131c-1.274 0-2.37-.203-3.299-.596s-1.703-.953-2.311-1.679-1.06-1.608-1.358-2.656-.44-2.203-.44-3.466v-2.454c0-2.68.607-4.74 1.834-6.182s3.097-2.168 5.574-2.168l1.894.083 2.096.25V.655a.68.68 0 0 1 .191-.465.68.68 0 0 1 .464-.191h1.739c.179 0 .334.06.441.191a.68.68 0 0 1 .178.465v23.821l-.023.024zm-3.002-14.972c-.56-.119-1.239-.179-2.001-.202l-1.977-.036c-.834 0-1.536.119-2.108.381a3.25 3.25 0 0 0-1.358 1.108c-.345.489-.584 1.096-.738 1.799a12.43 12.43 0 0 0-.227 2.442v2.454c0 1.858.322 3.287.953 4.288s1.787 1.501 3.466 1.501l2.001-.072 1.989-.131V9.54v-.012zM155.316 1l-3.775 23.011c-.119.703-.358 1.167-.739 1.393s-.833.345-1.369.345h-1.465c-.477 0-.894-.155-1.227-.453-.346-.31-.584-.726-.715-1.239l-3.323-12.589c-.047-.167-.083-.25-.107-.274s-.06-.036-.095-.036h-.072s-.083 0-.095.036c-.024.024-.06.107-.107.274l-3.371 12.589c-.131.524-.369.941-.715 1.239-.345.31-.75.453-1.226.453h-1.43c-.536 0-1-.119-1.369-.345-.381-.226-.62-.691-.727-1.393L129.602 1V.893c0-.381.19-.584.583-.584h1.977c.322 0 .512.191.572.584l3.299 21.713c.048.179.072.31.072.393s.035.119.107.119c.083 0 .167-.167.238-.512l3.335-12.625c.226-.905.762-1.37 1.596-1.37h2.18c.834 0 1.369.453 1.596 1.37l3.335 12.625c.059.345.155.512.238.512.071 0 .107-.036.107-.119s.024-.214.072-.393L152.208.893c.059-.381.262-.584.583-.584h1.978c.381 0 .583.191.583.584V1h-.036zm15.198 23.928c0 .179-.071.345-.202.476a.69.69 0 0 1-.477.203h-1.572c-.178 0-.333-.071-.476-.203a.64.64 0 0 1-.203-.476v-.75a16.25 16.25 0 0 1-2.525 1.191 7.66 7.66 0 0 1-2.715.476c-.727 0-1.43-.083-2.097-.25-.667-.179-1.262-.477-1.762-.905-.512-.429-.917-1-1.227-1.703s-.453-1.584-.453-2.656v-.405c0-.905.131-1.703.417-2.406a4.01 4.01 0 0 1 1.394-1.739c.655-.464 1.5-.81 2.537-1.036s2.322-.345 3.847-.345h2.525v-1.358c0-1.429-.274-2.43-.822-2.99-.548-.572-1.489-.858-2.823-.858l-2.93.083-2.287.191h-.166a.95.95 0 0 1-.429-.095c-.119-.071-.191-.214-.191-.441v-1.19c0-.369.238-.584.715-.643l2.299-.31a29.93 29.93 0 0 1 2.977-.143c2.359 0 4.05.572 5.086 1.703 1.024 1.132 1.548 2.704 1.548 4.693v11.875l.012.012zm-2.989-8.373H165c-1.025 0-1.87.059-2.549.191-.691.131-1.215.322-1.608.584a2.13 2.13 0 0 0-.81 1.024c-.167.417-.238.929-.238 1.549v.405c0 1.227.274 2.049.822 2.465s1.31.631 2.31.631c.798 0 1.549-.107 2.275-.346.727-.226 1.501-.572 2.311-1.024v-5.479h.012zm9.492 8.85a.57.57 0 0 1-.44.203h-1.775a.57.57 0 0 1-.441-.203c-.107-.143-.166-.298-.166-.476V.667c0-.179.059-.334.166-.465.12-.119.262-.191.441-.191h1.775a.56.56 0 0 1 .44.191c.12.119.167.274.167.465v24.262a.74.74 0 0 1-.167.476zm7.004 0c-.107.131-.262.203-.441.203h-1.763a.55.55 0 0 1-.44-.203.72.72 0 0 1-.179-.476V.667a.67.67 0 0 1 .179-.465c.107-.119.262-.191.44-.191h1.763c.179 0 .334.06.441.191.119.119.167.274.167.465v24.262a.75.75 0 0 1-.167.476zm18.235-8.957c0 .5-.214.75-.643.75H190.25v.476c0 2.013.393 3.442 1.191 4.288s1.977 1.262 3.55 1.262l3.18-.107 2.87-.274h.167a.71.71 0 0 1 .381.107c.119.071.167.191.167.369v1.155c0 .226-.048.405-.143.524-.084.119-.274.214-.536.25l-2.906.429-3.18.155a10.48 10.48 0 0 1-2.859-.393 6.34 6.34 0 0 1-2.465-1.322c-.715-.619-1.299-1.465-1.739-2.501-.441-1.048-.667-2.358-.667-3.942v-3.061c0-2.454.643-4.395 1.929-5.812 1.286-1.429 3.156-2.144 5.598-2.144 1.251 0 2.334.191 3.264.56s1.703.905 2.322 1.596 1.084 1.536 1.406 2.513c.321.989.476 2.084.476 3.287v1.834zm-3.002-1.834c0-1.93-.369-3.299-1.107-4.121s-1.858-1.227-3.347-1.227-2.608.429-3.383 1.298c-.786.869-1.179 2.215-1.179 4.05v.31h9.016v-.31zm15.139 11.065l-1.12.119-1.084.048c-.798 0-1.488-.06-2.06-.191-.584-.131-1.06-.357-1.429-.691-.382-.345-.655-.81-.846-1.394s-.298-1.346-.298-2.287V9.409l-3.299-.381c-.429-.048-.643-.25-.643-.607v-.917c0-.405.214-.607.643-.607h3.299V3.561c0-.381.203-.619.608-.679l1.774-.274h.096a.47.47 0 0 1 .357.155c.107.095.155.238.155.429v3.704h3.668a.67.67 0 0 1 .477.203c.131.143.202.298.202.476V8.73c0 .179-.071.333-.202.476a.69.69 0 0 1-.477.203h-3.668V21.26c0 .929.131 1.513.405 1.763s.75.369 1.429.369h1.906c.476 0 .714.167.714.488v1.203c0 .322-.202.512-.607.584v.012z"/><path fill-rule="evenodd" d="M1.325 5.61L24.479.25c.774-.179 1.453.333 1.501 1.143l1.084 17.199a1.79 1.79 0 0 1-1.31 1.787l-23.166 5.36c-.774.179-1.453-.334-1.501-1.132L.003 7.409c-.048-.81.548-1.608 1.322-1.787V5.61z"/><path d="M31.554 14.436h-1.382c-.56 0-1.024-.465-1.024-1.024s.453-1.024 1.024-1.024h1.203l-.453-5.133c-.071-.798-.786-1.465-1.584-1.465h-.953l.81 12.673c.119 1.834-1.191 3.597-2.966 4.002l-14.674 3.395H31.09a1.32 1.32 0 0 0 1.334-1.453l-.87-9.969z" fill-opacity=".4"/></svg>