<svg width="303" height="145" viewBox="0 0 303 145" fill="none" xmlns="http://www.w3.org/2000/svg">
<mask id="mask0_21210_2850" style="mask-type:alpha" maskUnits="userSpaceOnUse" x="0" y="-159" width="431" height="304">
<rect y="-159" width="430.556" height="303.158" fill="#C4C4C4"/>
</mask>
<g mask="url(#mask0_21210_2850)">
<mask id="mask1_21210_2850" style="mask-type:alpha" maskUnits="userSpaceOnUse" x="12" y="-489" width="492" height="669">
<path opacity="0.0294118" d="M300.3 -12.5634C264.947 -8.35691 198.6 -17.3136 216.045 -86.7922C237.851 -173.641 213.016 -259.528 129.085 -323.115C61.9403 -373.984 43.292 -450.913 42.3609 -483.019" stroke="#EAEBED"/>
<path opacity="0.0588235" d="M299.389 -2.42518C263.872 -0.150416 198.066 -12.7091 218.981 -81.1422C245.124 -166.684 224.641 -253.806 144.022 -321.878C79.5273 -376.335 64.7725 -454.175 65.4569 -486.287" stroke="#EAEBED"/>
<path opacity="0.0882353" d="M297.88 7.73165C262.297 8.06847 197.214 -8.05786 221.54 -75.2578C251.948 -159.258 235.874 -247.377 158.788 -319.747C97.12 -377.643 86.2991 -456.18 88.5973 -488.211" stroke="#EAEBED"/>
<path opacity="0.117647" d="M295.758 17.8737C260.208 16.2717 196.024 -3.37806 223.696 -69.1607C258.286 -151.389 246.665 -240.263 173.323 -316.733C114.65 -377.909 107.793 -456.928 111.699 -488.79" stroke="#EAEBED"/>
<path opacity="0.147059" d="M293.041 27.9679C257.62 24.4314 194.512 1.31216 225.454 -62.8729C264.131 -143.104 256.994 -232.49 187.598 -312.85C132.082 -377.139 129.207 -456.423 134.709 -488.028" stroke="#EAEBED"/>
<path opacity="0.176471" d="M289.725 37.9806C254.53 32.5194 192.671 5.99392 226.797 -56.4176C269.455 -134.432 266.823 -224.084 201.562 -308.115C149.354 -375.339 150.47 -454.671 157.553 -485.934" stroke="#EAEBED"/>
<path opacity="0.205882" d="M285.805 47.8812C250.933 40.5101 190.492 10.6512 227.71 -49.8157C274.232 -125.399 276.111 -215.072 215.165 -302.543C166.408 -372.519 171.511 -451.682 180.157 -482.516" stroke="#EAEBED"/>
<path opacity="0.235294" d="M281.304 57.6364C246.851 48.3757 187.994 15.2652 228.201 -43.0914C278.46 -116.037 284.845 -205.484 228.381 -296.155C183.209 -368.692 192.285 -447.468 202.47 -477.789" stroke="#EAEBED"/>
<path opacity="0.264706" d="M276.216 67.2137C242.275 56.0888 185.164 19.8174 228.25 -36.2688C282.108 -106.377 292.981 -195.353 241.153 -288.976C199.691 -363.874 212.715 -442.048 224.41 -471.772" stroke="#EAEBED"/>
<path opacity="0.294118" d="M270.564 76.5829C237.229 63.6243 182.02 24.2915 227.867 -29.3707C285.176 -96.4485 300.508 -184.711 253.458 -281.029C215.819 -358.083 232.756 -435.44 245.929 -464.486" stroke="#EAEBED"/>
<path opacity="0.323529" d="M264.345 85.7128C231.707 70.9559 178.551 28.6695 227.034 -22.4216C287.637 -86.2855 307.385 -173.592 265.243 -272.341C231.529 -351.34 252.333 -427.668 266.949 -455.957" stroke="#EAEBED"/>
<path opacity="0.352941" d="M257.587 94.572C225.735 78.0573 174.779 32.9331 225.764 -15.4468C289.495 -75.9218 313.606 -162.033 276.487 -262.942C246.791 -343.669 271.404 -418.76 287.422 -446.214" stroke="#EAEBED"/>
<path opacity="0.382353" d="M250.296 103.133C219.319 84.9061 170.701 37.0678 224.049 -8.46842C290.733 -65.3887 319.141 -150.068 287.146 -252.861C261.55 -335.096 289.905 -408.742 307.282 -435.286" stroke="#EAEBED"/>
<path opacity="0.411765" d="M242.481 111.367C212.463 91.4771 166.317 41.0559 221.881 -1.51177C291.336 -54.7213 323.963 -137.737 297.18 -242.132C275.754 -325.648 307.773 -397.649 326.46 -423.21" stroke="#EAEBED"/>
<path opacity="0.441176" d="M234.175 119.245C205.197 97.7474 161.65 44.8814 219.278 5.39903C291.313 -43.954 328.069 -125.079 306.572 -230.79C289.375 -315.359 324.97 -385.517 344.917 -410.024" stroke="#EAEBED"/>
<path opacity="0.470588" d="M225.379 126.741C197.523 103.694 156.693 48.5282 216.227 12.2392C290.645 -33.122 331.43 -112.133 315.278 -218.87C302.356 -304.26 341.43 -372.383 362.582 -395.771" stroke="#EAEBED"/>
<path opacity="0.5" d="M216.131 133.829C189.471 109.296 151.471 51.9816 212.749 18.9856C289.345 -22.2594 334.047 -98.9404 323.283 -206.411C314.673 -292.388 357.118 -358.289 379.417 -380.492" stroke="#EAEBED"/>
<path opacity="0.529412" d="M206.435 140.485C181.045 114.534 145.979 55.2278 208.831 25.6151C287.397 -11.4007 335.892 -85.5415 330.547 -193.452C326.272 -279.78 371.972 -343.278 395.357 -364.236" stroke="#EAEBED"/>
<path opacity="0.558824" d="M196.328 146.686C172.279 119.387 140.243 58.2518 204.498 32.1037C284.816 -0.581469 336.973 -71.9787 337.062 -180.032C337.132 -266.475 385.963 -327.396 410.369 -347.052" stroke="#EAEBED"/>
<path opacity="0.588235" d="M185.821 152.408C163.176 123.836 134.258 61.0401 199.74 38.4281C281.592 10.1632 337.267 -58.2949 342.788 -166.195C347.205 -252.516 399.032 -310.694 424.393 -328.993" stroke="#EAEBED"/>
<path opacity="0.617647" d="M174.951 157.632C153.774 127.866 128.053 63.5802 194.582 44.5664C277.743 20.7992 336.784 -44.5321 347.723 -151.984C356.474 -237.945 411.155 -293.22 437.401 -310.113" stroke="#EAEBED"/>
<path opacity="0.647059" d="M163.729 162.338C144.078 131.459 121.625 65.86 189.018 50.4966C273.261 31.2922 335.506 -30.7332 351.832 -137.442C364.893 -222.809 422.278 -275.029 449.338 -290.468" stroke="#EAEBED"/>
<path opacity="0.676471" d="M152.198 166.508C134.127 134.601 115.002 67.8689 183.076 56.1978C268.168 41.609 333.447 -16.9406 355.116 -122.614C372.451 -207.152 432.384 -256.175 460.183 -270.119" stroke="#EAEBED"/>
<path opacity="0.705882" d="M140.377 170.126C123.935 137.278 108.192 69.5954 176.759 61.6487C262.468 51.7154 330.601 -3.19784 357.554 -107.546C379.116 -191.024 441.431 -236.714 469.893 -249.125" stroke="#EAEBED"/>
<path opacity="0.735294" d="M128.287 173.176C113.518 139.477 101.2 71.0298 170.073 66.8293C256.164 61.5787 326.964 10.4523 359.127 -92.2841C384.857 -174.473 449.384 -216.707 478.431 -227.55" stroke="#EAEBED"/>
<path opacity="0.764706" d="M115.971 175.644C102.917 141.187 94.0568 72.1626 163.047 71.7197C249.284 71.1662 322.558 23.9669 359.842 -76.8767C389.669 -157.552 456.231 -196.212 485.783 -205.458" stroke="#EAEBED"/>
<path opacity="0.794118" d="M103.443 177.519C92.1401 142.399 86.7627 72.986 155.68 76.302C241.827 80.4471 317.374 37.3042 359.677 -61.3701C393.52 -140.31 461.934 -175.291 491.911 -182.914" stroke="#EAEBED"/>
<path opacity="0.823529" d="M90.7507 178.792C81.2287 143.103 79.3488 73.4931 148.005 80.559C233.825 89.3914 311.438 50.423 358.644 -45.8116C396.41 -122.799 466.489 -154.006 496.809 -159.985" stroke="#EAEBED"/>
<path opacity="0.852941" d="M77.9074 179.453C70.1929 143.294 71.8155 73.6769 140.022 84.4732C225.281 97.9686 304.747 63.2817 356.727 -30.2493C398.312 -105.074 469.864 -132.42 500.443 -136.74" stroke="#EAEBED"/>
<path opacity="0.882353" d="M64.9602 179.494C59.0742 142.965 64.195 73.5312 131.766 88.0284C216.229 106.15 297.329 75.8395 353.941 -14.7317C399.231 -87.1886 472.061 -110.599 502.814 -113.247" stroke="#EAEBED"/>
<path opacity="0.911765" d="M51.9245 178.911C47.8833 142.112 56.4882 73.0524 123.237 91.2107C206.674 113.909 289.187 88.0578 350.275 0.694737C399.146 -69.1957 473.053 -88.6066 503.898 -89.5758" stroke="#EAEBED"/>
<path opacity="0.941176" d="M38.8477 177.701C36.6623 140.732 48.7276 72.2357 114.472 94.0053C196.653 121.217 280.353 99.8969 345.75 15.9815C398.068 -51.1509 472.85 -66.509 503.701 -65.7966" stroke="#EAEBED"/>
<path opacity="0.970588" d="M25.7534 175.862C25.4298 138.824 40.9226 71.0791 105.483 96.4004C186.182 128.052 270.84 111.321 340.367 31.0827C395.988 -33.1076 471.44 -44.371 502.213 -41.9788" stroke="#EAEBED"/>
<path d="M12.6655 173.392C14.2046 136.388 33.0824 69.5796 96.2807 98.3832C175.279 134.388 260.661 122.291 334.127 45.9505C392.9 -15.1217 468.814 -22.2593 499.425 -18.1941" stroke="#EAEBED"/>
</mask>
<g mask="url(#mask1_21210_2850)">
<rect y="-159" width="430.556" height="303.158" fill="url(#paint0_linear_21210_2850)"/>
</g>
</g>
<defs>
<linearGradient id="paint0_linear_21210_2850" x1="396" y1="-159" x2="201.685" y2="135.179" gradientUnits="userSpaceOnUse">
<stop stop-color="#606E93"/>
<stop offset="1" stop-color="#606E93" stop-opacity="0.4"/>
</linearGradient>
</defs>
</svg>
