<svg xmlns="http://www.w3.org/2000/svg" viewBox="0 0 17 24"><defs><style>.cls-1{fill:#fff;}.cls-2{fill:#4684c4;}</style></defs><title>map-marker</title><g id="Layer_1" data-name="Layer 1"><path class="cls-1" d="M8.46,24A1.46,1.46,0,0,1,7,22.76c-.33-2-1-6.19-2.63-6.84l-.07,0-.06,0a8.46,8.46,0,0,1-4-9.29A8.57,8.57,0,0,1,7.86,0L8.5,0a8.5,8.5,0,0,1,4.25,15.86c-.86.44-2.08,2.78-2.84,6.93A1.45,1.45,0,0,1,8.46,24Z"/><path class="cls-2" d="M8.93,22.61c.64-3.49,1.82-6.85,3.32-7.61a7.5,7.5,0,1,0-7.5,0c1.93.76,2.68,4.13,3.24,7.6A.48.48,0,0,0,8.93,22.61Z"/><circle class="cls-1" cx="8.5" cy="8.5" r="2.79"/></g></svg>