<svg width="39" height="38" viewBox="0 0 39 38" fill="none" xmlns="http://www.w3.org/2000/svg">
<path d="M0 6.75C0 3.02208 3.02208 0 6.75 0H25.25C28.9779 0 32 3.02208 32 6.75V25.25C32 28.9779 28.9779 32 25.25 32H6.75C3.02208 32 0 28.9779 0 25.25V6.75Z" fill="white"/>
<path d="M0 6.75C0 3.02208 3.02208 0 6.75 0H25.25C28.9779 0 32 3.02208 32 6.75V25.25C32 28.9779 28.9779 32 25.25 32H6.75C3.02208 32 0 28.9779 0 25.25V6.75Z" fill="url(#paint0_linear_13395_24)"/>
<path fill-rule="evenodd" clip-rule="evenodd" d="M6.6072 10.4912L21.5897 7.02301C22.0907 6.9074 22.53 7.23877 22.5608 7.76285L23.2622 18.8918C23.293 19.4159 22.9076 19.9323 22.4144 20.0479L7.42414 23.5161C6.92319 23.6317 6.48392 23.3002 6.4531 22.7839L5.75173 11.6549C5.7209 11.1308 6.10624 10.6145 6.6072 10.4988V10.4912Z" fill="url(#paint1_linear_13395_24)"/>
<path opacity="0.3" d="M26.1706 16.2018H25.2766C24.9144 16.2018 24.6138 15.9012 24.6138 15.539C24.6138 15.1767 24.9066 14.8762 25.2766 14.8762H26.055L25.7621 11.5544C25.7159 11.0381 25.2535 10.6064 24.7371 10.6064H24.1205L24.6446 18.8068C24.7217 19.9936 23.8739 21.1343 22.7256 21.3963L13.2305 23.5928H25.87C26.3864 23.5928 26.7795 23.1689 26.7332 22.6526L26.1706 16.2018Z" fill="url(#paint2_linear_13395_24)"/>
<circle cx="30" cy="29" r="7.75" fill="#0168CA" stroke="white" stroke-width="1.5"/>
<path d="M30.901 33.3155H28.8359V27.353H30.901V33.3155ZM30.901 26.3466H28.8359V24.3333H30.901V26.3466Z" fill="white"/>
<defs>
<linearGradient id="paint0_linear_13395_24" x1="0" y1="0" x2="32" y2="32" gradientUnits="userSpaceOnUse">
<stop stop-color="white" stop-opacity="0"/>
<stop offset="1" stop-color="#3C4355" stop-opacity="0.4"/>
</linearGradient>
<linearGradient id="paint1_linear_13395_24" x1="14.5069" y1="7" x2="17.875" y2="23.5" gradientUnits="userSpaceOnUse">
<stop stop-color="#606981"/>
<stop offset="1" stop-color="#3C4355"/>
</linearGradient>
<linearGradient id="paint2_linear_13395_24" x1="19.9837" y1="10.6064" x2="22.6724" y2="23.5432" gradientUnits="userSpaceOnUse">
<stop stop-color="#606981"/>
<stop offset="1" stop-color="#3C4355"/>
</linearGradient>
</defs>
</svg>
