<?xml version="1.0" encoding="utf-8"?>
<!-- Generator: Adobe Illustrator 26.0.1, SVG Export Plug-In . SVG Version: 6.00 Build 0)  -->
<svg version="1.2" baseProfile="tiny-ps" id="Layer_1" xmlns="http://www.w3.org/2000/svg" xmlns:xlink="http://www.w3.org/1999/xlink"
	viewBox="0 0 96 96"  xml:space="preserve">

<title> AwardWallet </title>

<rect fill="#FFFFFF" width="96" height="96"/>
<g>
	<path fill="#515865" d="M7.14,32.84c0.31-0.96,0.71-1.85,1.46-2.56c0.79-0.75,1.78-1.01,2.8-1.24c14.28-3.29,28.55-6.59,42.82-9.88
		c5.05-1.16,10.09-2.33,15.14-3.49c1.97-0.45,3.68,0.84,3.8,2.85c0.4,6.42,0.81,12.84,1.21,19.26c0.36,5.75,0.73,11.5,1.09,17.24
		c0.15,2.38,0.31,4.75,0.46,7.12c0.14,2.21-1.31,4.16-3.47,4.66c-11.17,2.58-22.35,5.16-33.52,7.74c-8.38,1.93-16.75,3.87-25.13,5.8
		c-2.1,0.48-3.78-0.75-3.92-2.88c-0.28-4.21-0.53-8.41-0.79-12.62c-0.31-4.93-0.64-9.86-0.95-14.79c-0.23-3.7-0.46-7.4-0.69-11.1
		c-0.07-1.09-0.14-2.18-0.22-3.26c-0.01-0.07-0.07-0.15-0.1-0.22C7.14,34.59,7.14,33.71,7.14,32.84z"/>
	<path fill="#A2A7B2" d="M37.2,80.65c0.2-0.11,0.39-0.26,0.6-0.31c3.2-0.75,6.4-1.47,9.61-2.21c7.48-1.73,14.96-3.46,22.44-5.2
		c1.78-0.42,3.63-0.69,5.31-1.38c3.5-1.43,5.57-4.13,6.07-7.89c0.18-1.35,0.04-2.75-0.02-4.12c-0.06-1.39-0.19-2.79-0.29-4.18
		c-0.18-2.73-0.36-5.47-0.53-8.2c-0.12-1.9-0.22-3.8-0.35-5.7c-0.17-2.68-0.36-5.36-0.53-8.04c-0.08-1.22-0.13-2.45-0.2-3.74
		c1.47,0.09,2.95-0.26,4.3,0.52c1.27,0.73,2,1.8,2.13,3.28c0.31,3.5,0.64,7.01,0.95,10.51c0.07,0.81,0.12,1.62,0.18,2.5
		c-1.05,0-2.08-0.01-3.12,0c-1.19,0.01-2.18,0.83-2.47,2.01c-0.26,1.07,0.27,2.31,1.28,2.81c0.39,0.19,0.86,0.29,1.3,0.31
		c1.11,0.05,2.22,0.02,3.33,0.03c0.03,0,0.06,0.03,0.13,0.06c0.12,1.26,0.24,2.53,0.35,3.81c0.22,2.42,0.43,4.84,0.64,7.26
		c0.15,1.77,0.3,3.54,0.46,5.31c0.21,2.42,0.43,4.84,0.64,7.26c0.06,0.69,0.13,1.38,0.13,2.06c0,1.4-0.9,2.59-2.23,3.05
		c-0.17,0.06-0.34,0.12-0.5,0.18C70.29,80.65,53.75,80.65,37.2,80.65z"/>
</g>
</svg>
