<svg width="1196" height="872" viewBox="0 0 1196 872" fill="none" xmlns="http://www.w3.org/2000/svg">
<g clip-path="url(#clip0_16033_2385)">
<path opacity="0.0294118" fill-rule="evenodd" clip-rule="evenodd" d="M578.319 208.001C595.947 138.005 603.023 68.2216 598.775 0H596.284C600.543 68.0185 593.487 137.597 575.909 207.396C563.282 257.543 565.784 296.907 578.369 327.543C590.961 358.186 613.578 379.958 640.93 395.02C695.563 425.107 769.214 428.506 820.33 422.441L820.039 419.974C769.161 426.011 696.113 422.58 642.129 392.847C615.168 378.001 593.001 356.616 580.669 326.601C568.332 296.577 565.784 257.778 578.319 208.001Z" fill="url(#paint0_linear_16033_2385)"/>
<path opacity="0.0588235" fill-rule="evenodd" clip-rule="evenodd" d="M586.794 224.312C609.756 149.409 620.272 74.081 617.248 0H614.764C617.787 73.8371 607.307 148.92 584.42 223.586C569.28 272.979 569.795 312.425 580.818 343.702C591.844 374.985 613.337 397.955 639.887 414.48C692.926 447.496 766.308 454.886 817.661 451.607L817.502 449.133C766.393 452.398 693.614 445 641.2 412.374C615.026 396.083 593.963 373.524 583.16 342.878C572.357 312.225 571.768 273.34 586.794 224.312Z" fill="url(#paint1_linear_16033_2385)"/>
<path opacity="0.0882353" fill-rule="evenodd" clip-rule="evenodd" d="M594.145 241.298C623.129 161.475 637.499 80.3559 635.756 0H633.272C635.014 80.0716 620.694 160.903 591.809 240.452C574.199 288.956 572.723 328.375 582.156 360.207C591.589 392.045 611.889 416.15 637.57 434.093C688.87 469.941 761.776 481.312 813.225 480.826L813.201 478.345C761.996 478.827 689.693 467.488 638.993 432.062C613.674 414.37 593.779 390.695 584.537 359.501C575.292 328.304 576.666 289.441 594.145 241.298Z" fill="url(#paint2_linear_16033_2385)"/>
<path opacity="0.117647" fill-rule="evenodd" clip-rule="evenodd" d="M600.365 258.895C636.096 174.21 654.763 87.0742 654.327 0H651.846C652.279 86.7491 633.675 173.557 598.076 257.931C578.042 305.413 574.582 344.699 582.396 376.998C590.211 409.305 609.269 434.479 634.009 453.791C683.428 492.375 755.66 507.688 807.063 510L807.173 507.518C756.015 505.221 684.383 489.968 635.538 451.838C611.143 432.792 592.468 408.071 584.81 376.417C577.151 344.757 580.483 306.021 600.365 258.895Z" fill="url(#paint3_linear_16033_2385)"/>
<path opacity="0.147059" fill-rule="evenodd" clip-rule="evenodd" d="M605.404 277.039C648.633 187.63 672.057 94.271 672.937 0H670.452C669.572 93.9048 646.231 186.894 603.168 275.96C580.767 322.289 575.33 361.334 581.501 394.013C587.677 426.699 605.439 452.869 629.167 473.499C676.574 514.714 747.93 533.93 799.148 539.027L799.393 536.56C748.423 531.484 677.653 512.364 630.8 471.628C607.398 451.285 589.994 425.578 583.943 393.552C577.892 361.522 583.173 323.02 605.404 277.039Z" fill="url(#paint4_linear_16033_2385)"/>
<path opacity="0.176471" fill-rule="evenodd" clip-rule="evenodd" d="M609.244 295.663C660.746 201.753 689.404 101.987 691.576 0H689.088C686.92 101.579 658.362 200.936 607.065 294.471C582.357 339.522 574.961 378.218 579.475 411.187C583.993 444.16 600.411 471.263 623.067 493.151C668.327 536.883 738.614 559.948 789.506 567.821L789.886 565.368C739.239 557.531 669.53 534.593 624.792 491.368C602.448 469.781 586.364 443.164 581.938 410.85C577.509 378.533 584.724 340.372 609.244 295.663Z" fill="url(#paint5_linear_16033_2385)"/>
<path opacity="0.205882" fill-rule="evenodd" clip-rule="evenodd" d="M611.848 314.708C672.408 216.612 706.79 110.275 710.208 0H707.724C704.302 109.825 670.044 215.712 609.733 313.405C582.79 357.052 573.449 395.296 576.295 428.464C579.145 461.639 594.171 489.593 615.692 512.679C658.684 558.807 727.711 585.658 778.135 596.281L778.646 593.857C728.467 583.279 660.008 556.588 617.509 510.988C596.283 488.217 581.562 460.763 578.772 428.251C575.979 395.739 585.107 358.023 611.848 314.708Z" fill="url(#paint6_linear_16033_2385)"/>
<path opacity="0.235294" fill-rule="evenodd" clip-rule="evenodd" d="M613.22 334.103C683.617 232.233 724.228 119.189 728.827 0H726.343C721.74 118.696 681.278 231.25 611.175 332.693C582.063 374.818 570.81 412.502 571.981 445.78C573.152 479.065 586.748 507.795 607.073 532.019C647.68 580.415 715.256 610.978 765.076 624.327L765.718 621.931C716.139 608.645 649.121 578.271 608.979 530.424C588.927 506.529 575.611 478.31 574.465 445.695C573.315 413.073 584.335 375.906 613.22 334.103Z" fill="url(#paint7_linear_16033_2385)"/>
<path opacity="0.264706" fill-rule="evenodd" clip-rule="evenodd" d="M613.338 353.779C694.343 248.65 741.696 128.791 747.4 0H744.912C739.209 128.255 692.029 247.584 611.371 352.266C580.172 392.754 567.034 429.775 566.523 463.071C566.016 496.374 578.142 525.802 597.218 551.093C635.327 601.63 701.27 635.819 750.345 651.859L751.119 649.498C702.278 633.54 636.878 599.564 599.202 549.601C580.385 524.65 568.511 495.746 569.007 463.11C569.508 430.47 582.383 393.953 613.338 353.779Z" fill="url(#paint8_linear_16033_2385)"/>
<path opacity="0.294118" fill-rule="evenodd" clip-rule="evenodd" d="M612.175 373.673C704.526 265.901 759.158 139.149 765.873 0H763.389C756.671 138.569 702.24 264.752 610.29 372.057C577.093 410.797 562.102 447.056 559.916 480.281C557.73 513.505 568.356 543.55 586.129 569.845C621.636 622.378 685.762 660.104 733.964 678.785L734.862 676.474C686.891 657.878 623.294 620.4 588.187 568.459C570.652 542.515 560.25 513.005 562.393 480.444C564.537 447.875 579.24 412.109 612.175 373.673Z" fill="url(#paint9_linear_16033_2385)"/>
<path opacity="0.323529" fill-rule="evenodd" clip-rule="evenodd" d="M609.734 393.708C714.131 284.021 776.575 150.333 784.23 0H781.742C774.09 149.708 711.877 282.789 607.935 391.999C572.829 428.882 556.032 464.276 552.17 497.338C548.313 530.399 557.409 560.98 573.83 588.203C606.64 642.593 668.775 683.747 715.965 705.019L716.988 702.758C670.021 681.585 608.4 640.7 575.959 586.923C559.754 560.061 550.857 530.027 554.64 497.625C558.424 465.223 574.905 430.304 609.734 393.708Z" fill="url(#paint10_linear_16033_2385)"/>
<path opacity="0.352941" fill-rule="evenodd" clip-rule="evenodd" d="M606.039 413.814C723.126 303.041 793.935 162.414 802.471 0.000213623H799.983C791.451 161.745 720.905 301.725 604.332 412.013C567.412 446.943 548.851 481.376 543.329 514.182C537.81 546.992 545.352 578.022 560.378 606.1C590.395 662.192 650.366 706.667 696.417 730.474L697.56 728.269C651.725 704.576 592.251 660.398 562.568 604.93C547.74 577.225 540.369 546.747 545.781 514.593C551.193 482.439 569.414 448.467 606.039 413.814Z" fill="url(#paint11_linear_16033_2385)"/>
<path opacity="0.382353" fill-rule="evenodd" clip-rule="evenodd" d="M601.036 433.93C731.386 322.996 811.127 175.467 820.521 0H818.034C808.643 174.752 729.2 321.596 599.425 432.044C560.794 464.918 540.523 498.298 533.354 530.761C526.185 563.227 532.154 594.626 545.74 623.477C572.889 681.124 630.535 728.79 675.323 755.067L676.579 752.926C632.001 726.777 574.834 679.43 547.99 622.42C534.578 593.949 528.754 563.11 535.781 531.296C542.805 499.482 562.714 466.545 601.036 433.93Z" fill="url(#paint12_linear_16033_2385)"/>
<path opacity="0.411765" fill-rule="evenodd" clip-rule="evenodd" d="M594.721 453.982C738.834 343.906 828.08 189.559 838.365 0.000213623H835.88C825.595 188.799 736.687 342.422 593.209 452.012C552.975 482.744 531.046 514.98 522.248 547.01C513.454 579.04 517.83 610.719 529.942 640.271C554.146 699.312 609.308 750.044 652.711 778.714L654.081 776.644C610.883 748.109 556.18 697.721 532.242 639.332C520.285 610.166 516.023 579.054 524.644 547.666C533.264 516.277 554.806 484.47 594.721 453.982Z" fill="url(#paint13_linear_16033_2385)"/>
<path opacity="0.441176" fill-rule="evenodd" clip-rule="evenodd" d="M587.15 473.9C745.423 365.783 844.758 204.755 856.055 0H853.567C842.277 203.949 743.315 364.216 585.748 471.851C544.016 500.358 520.49 531.36 510.088 562.869C499.689 594.378 502.461 626.252 513.069 656.418C534.26 716.692 586.788 770.348 628.683 801.336L630.163 799.344C588.459 768.498 536.371 715.207 515.411 655.595C504.942 625.82 502.255 594.52 512.448 563.645C522.637 532.771 545.755 502.176 587.15 473.9Z" fill="url(#paint14_linear_16033_2385)"/>
<path opacity="0.470588" fill-rule="evenodd" clip-rule="evenodd" d="M578.314 493.609C751.049 388.632 861.077 221.11 873.584 0H871.096C858.597 220.259 748.987 386.98 577.022 491.489C533.909 517.691 508.85 547.371 496.872 578.274C484.898 609.177 486.062 641.161 495.133 671.858C513.254 733.199 563.004 789.635 603.277 822.859L604.86 820.945C564.771 787.877 515.44 731.828 497.515 671.156C488.561 640.852 487.457 609.45 499.19 579.171C510.923 548.892 535.549 519.598 578.314 493.609Z" fill="url(#paint15_linear_16033_2385)"/>
<path opacity="0.5" fill-rule="evenodd" clip-rule="evenodd" d="M568.221 513.048C755.607 412.442 876.938 238.674 890.978 0H888.49C874.458 237.777 753.594 410.708 567.043 510.864C522.667 534.688 496.146 562.968 482.628 593.18C469.11 623.391 468.659 655.393 476.168 686.541C491.17 748.779 538.002 807.837 576.547 843.203L578.226 841.374C539.862 806.175 493.423 747.52 478.582 685.963C471.168 655.212 471.651 623.792 484.895 594.194C498.137 564.595 524.204 536.681 568.221 513.048Z" fill="url(#paint16_linear_16033_2385)"/>
<path opacity="0.529412" fill-rule="evenodd" clip-rule="evenodd" d="M556.845 532.147C758.969 437.202 892.222 257.488 908.235 0H905.747C889.745 256.544 757.007 435.38 555.787 529.899C510.269 551.285 482.356 578.086 467.333 607.525C452.31 636.961 450.245 668.895 456.175 700.407C468.018 763.376 511.809 824.898 548.516 862.305L550.29 860.568C513.75 823.327 470.332 762.234 458.617 699.95C452.761 668.838 454.827 637.489 469.544 608.652C484.262 579.816 511.699 553.351 556.845 532.147Z" fill="url(#paint17_linear_16033_2385)"/>
<path opacity="0.558824" fill-rule="evenodd" clip-rule="evenodd" d="M925.495 0H923.003C904.439 276.585 759.205 460.962 543.357 548.541C496.823 567.42 467.594 592.673 451.105 621.254C434.617 649.835 430.943 681.613 435.273 713.406C443.358 772.741 479.341 832.331 512.385 872H515.625C482.382 832.54 445.842 772.567 437.736 713.073C433.46 681.684 437.104 650.491 453.256 622.495C469.407 594.498 498.139 569.565 544.294 550.838C761.114 462.865 906.912 277.575 925.495 0Z" fill="url(#paint18_linear_16033_2385)"/>
<path opacity="0.588235" fill-rule="evenodd" clip-rule="evenodd" d="M942.757 0C920.87 298.954 761.887 489.394 530.516 569.054C483.486 585.247 453.536 608.585 435.997 635.663C418.454 662.741 413.245 693.694 415.931 725.27C420.392 777.714 446.637 831.711 474.06 872H471.061C443.826 831.636 417.915 777.877 413.454 725.483C410.735 693.499 416.002 661.961 433.91 634.316C451.818 606.664 482.283 583.035 529.707 566.708C760.035 487.409 918.4 297.917 940.265 0H942.757Z" fill="url(#paint19_linear_16033_2385)"/>
<path opacity="0.617647" fill-rule="evenodd" clip-rule="evenodd" d="M960.655 0.000213623C959.761 6.70121 958.959 13.4703 958.263 20.307C926.656 329.854 755.994 518.22 515.566 586.732C467.779 600.347 436.697 622.027 417.817 648.112C398.937 674.201 392.169 704.828 393.262 736.507C394.876 783.354 413.668 832.367 435.665 872H432.829C410.985 832.338 392.392 783.46 390.777 736.592C389.674 704.505 396.527 673.297 415.805 646.659C435.083 620.017 466.7 598.075 514.881 584.343C754.276 516.128 924.282 328.654 955.79 20.0553C956.478 13.3044 957.266 6.61926 958.15 0.000213623H960.655Z" fill="url(#paint20_linear_16033_2385)"/>
<path opacity="0.647059" fill-rule="evenodd" clip-rule="evenodd" d="M982.779 0C977.672 19.9978 973.399 40.7327 970.105 62.1977C922.933 369.604 743.004 548.442 499.442 603.803C451.038 614.806 418.906 634.766 398.74 659.792C378.572 684.818 370.271 715.033 369.76 746.726C369.085 788.969 382.252 833.724 399.479 872H396.756C379.643 833.699 366.597 789 367.275 746.687C367.79 714.586 376.208 683.793 396.803 658.236C417.401 632.675 450.083 612.477 498.892 601.386C741.4 546.265 920.622 368.285 967.65 61.8216C970.922 40.4945 975.159 19.8849 980.216 0H982.779Z" fill="url(#paint21_linear_16033_2385)"/>
<path opacity="0.676471" fill-rule="evenodd" clip-rule="evenodd" d="M1010.58 0.000213623C997.855 32.5535 987.254 67.5222 979.563 104.911C916.953 409.337 728.251 578.161 482.226 620.215C433.336 628.574 400.242 646.762 378.841 670.653C357.438 694.548 347.625 724.27 345.52 755.896C342.964 794.286 351.775 835.383 364.908 872H362.268C349.213 835.344 340.477 794.24 343.041 755.73C345.174 723.7 355.131 693.403 376.989 669.001C398.85 644.592 432.505 626.199 481.807 617.77C726.76 575.899 914.71 407.898 977.129 104.412C984.777 67.2252 995.296 32.4229 1007.91 0.000213623H1010.58Z" fill="url(#paint22_linear_16033_2385)"/>
<path opacity="0.705882" fill-rule="evenodd" clip-rule="evenodd" d="M1045.43 0C1021.34 43.8024 1000.85 93.1877 986.571 148.314C908.696 448.924 711.736 607.27 463.926 635.904C414.681 641.594 380.717 657.959 358.142 680.656C335.566 703.353 324.267 732.501 320.57 763.968C316.438 799.128 321.81 837.106 331.478 872H328.902C319.279 837.038 313.953 798.997 318.103 763.677C321.848 731.806 333.319 702.095 356.378 678.909C379.443 655.719 413.982 639.176 463.642 633.437C710.369 604.931 906.531 447.371 984.168 147.692C998.371 92.8556 1018.7 43.6762 1042.59 0H1045.43Z" fill="url(#paint23_linear_16033_2385)"/>
<path opacity="0.735294" fill-rule="evenodd" clip-rule="evenodd" d="M1089.68 0.000213623C1050.05 52.8538 1014.84 116.675 991.105 192.273C944.649 340.224 870.266 451.086 776.336 526.855C682.409 602.623 568.998 643.245 444.582 650.81C395.117 653.819 360.376 668.317 336.69 689.756C313.002 711.194 300.248 739.686 294.969 770.908C289.478 803.381 292.086 838.74 298.84 872H296.305C289.576 838.637 286.996 803.162 292.519 770.497C297.867 738.871 310.821 709.819 335.022 687.916C359.223 666.013 394.549 651.37 444.433 648.336C568.388 640.796 681.291 600.337 774.778 524.926C868.265 449.513 942.402 339.091 988.734 191.53C1012.34 116.351 1047.24 52.7712 1086.58 0.000213623H1089.68Z" fill="url(#paint24_linear_16033_2385)"/>
<path opacity="0.764706" fill-rule="evenodd" clip-rule="evenodd" d="M1147.69 0.000213623C1087.82 58.0628 1030.48 135.955 993.142 236.649C939.29 381.876 859.417 488.547 761.796 559.112C664.171 629.676 548.865 664.081 424.24 664.879C374.693 665.198 339.268 677.789 314.535 697.908C289.8 718.032 275.628 745.79 268.782 776.683C262.073 806.954 262.413 840.172 266.713 872H264.207C259.916 840.034 259.597 806.643 266.356 776.147C273.291 744.855 287.693 716.543 312.966 695.984C338.241 675.424 374.26 662.717 424.226 662.397C548.39 661.603 663.177 627.333 760.337 557.102C857.501 486.87 937.104 380.628 990.814 235.788C1027.91 135.737 1084.68 58.1057 1144.13 0.000213623H1147.69Z" fill="url(#paint25_linear_16033_2385)"/>
<path opacity="0.794118" fill-rule="evenodd" clip-rule="evenodd" d="M1196.02 23.3341C1121.03 79.6245 1043.36 163.378 992.653 281.311C931.55 423.413 846.407 525.603 745.357 590.769C644.308 655.935 527.426 684.031 402.932 678.061C353.433 675.687 317.424 686.335 291.711 705.083C265.997 723.834 250.445 750.781 242.05 781.259C234.195 809.78 232.623 841.335 234.839 872H232.349C230.134 841.15 231.728 809.379 239.655 780.599C248.158 749.729 263.969 722.239 290.247 703.08C316.526 683.917 353.136 673.188 403.05 675.58C527.086 681.532 643.442 653.539 744.012 588.685C844.579 523.827 929.431 422.055 990.371 280.332C1041.61 161.173 1120.26 76.7643 1196.02 20.2336V23.3341Z" fill="url(#paint26_linear_16033_2385)"/>
<path opacity="0.823529" fill-rule="evenodd" clip-rule="evenodd" d="M1196.02 86.1876C1121.26 138.347 1043.87 215.884 989.631 326.122C921.449 464.712 831.266 562.135 727.069 621.725C622.871 681.316 504.73 703.023 380.708 690.298C331.396 685.24 294.9 693.921 268.279 711.244C241.656 728.57 224.767 754.638 214.847 784.616C205.849 811.807 202.604 842.164 203.019 872H200.535C200.119 841.941 203.395 811.318 212.488 783.836C222.537 753.468 239.714 726.872 266.923 709.166C294.134 691.457 331.236 682.73 380.96 687.831C504.527 700.51 622.136 678.877 725.834 619.574C829.534 560.267 919.401 463.245 987.403 325.027C1042.19 213.672 1120.5 135.547 1196.02 83.1636V86.1876Z" fill="url(#paint27_linear_16033_2385)"/>
<path opacity="0.852941" fill-rule="evenodd" clip-rule="evenodd" d="M1196.02 146.488C1120.62 194.548 1042.19 266.691 984.077 370.94C908.995 505.636 814.022 598.032 706.96 651.88C599.899 705.732 480.827 720.992 357.615 701.549C308.627 693.818 271.744 700.503 244.287 716.359C216.828 732.214 198.649 757.325 187.23 786.725C177.03 812.988 172.247 842.621 171.064 872H168.578C169.763 842.356 174.589 812.41 184.914 785.828C196.481 756.045 214.977 730.417 243.043 714.21C271.112 698.001 308.604 691.301 358.001 699.096C480.76 718.471 599.295 703.254 705.842 649.665C812.393 596.076 907.026 504.069 981.909 369.735C1040.58 264.468 1119.9 191.804 1196.02 143.546V146.488Z" fill="url(#paint28_linear_16033_2385)"/>
<path opacity="0.882353" fill-rule="evenodd" clip-rule="evenodd" d="M1196.02 204.676C1119.18 248.619 1038.49 315.958 976.002 415.632C894.23 546.067 794.728 633.178 685.097 681.138C575.462 729.098 455.781 737.872 333.72 711.761C285.189 701.382 248.02 706.054 219.803 720.396C191.585 734.738 172.165 758.824 159.281 787.561C147.749 813.282 141.477 842.675 138.823 872H136.328C138.992 842.366 145.324 812.619 157.013 786.548C170.067 757.435 189.829 732.845 218.676 718.184C247.525 703.523 285.304 698.869 334.241 709.337C455.852 735.351 574.998 726.592 684.1 678.866C793.202 631.137 892.346 544.397 973.897 414.313C1036.96 313.723 1118.49 245.927 1196.02 201.819V204.676Z" fill="url(#paint29_linear_16033_2385)"/>
<path opacity="0.911765" fill-rule="evenodd" clip-rule="evenodd" d="M1196.01 261.214C1116.99 300.915 1032.9 363.812 965.403 460.058C877.165 585.874 773.404 667.463 661.502 709.404C549.6 751.345 429.641 753.607 309.066 720.903C261.123 707.898 223.77 710.549 194.87 723.335C165.968 736.124 145.361 759.122 131.046 787.118C117.988 812.655 110.193 842.299 106.125 872H103.617C107.705 841.952 115.581 811.907 128.833 785.991C143.337 757.626 164.314 734.143 193.863 721.066C223.413 707.99 261.376 705.395 309.717 718.507C429.85 751.09 549.27 748.818 660.629 707.079C771.988 665.343 875.369 584.109 963.366 458.633C1031.45 361.561 1116.34 298.271 1196.01 258.437V261.214Z" fill="url(#paint30_linear_16033_2385)"/>
<path opacity="0.941176" fill-rule="evenodd" clip-rule="evenodd" d="M1196.03 316.561C1114.16 351.762 1025.58 410.333 952.31 504.076C857.844 624.93 750.112 700.773 636.247 736.578C522.382 772.387 402.473 768.129 283.715 728.918C236.492 713.328 199.057 713.945 169.552 725.146C140.048 736.347 118.31 758.193 102.603 785.374C87.7546 811.07 78.3278 841.473 72.844 872H70.3203C75.835 841.09 85.3661 810.237 100.451 784.134C116.367 756.595 138.5 734.281 168.67 722.828C198.84 711.375 236.882 710.843 284.494 726.564C402.821 765.63 522.194 769.845 635.502 734.213C748.813 698.582 856.148 623.072 950.351 502.552C1024.21 408.068 1113.54 349.162 1196.03 313.861V316.561Z" fill="url(#paint31_linear_16033_2385)"/>
<path opacity="0.970588" fill-rule="evenodd" clip-rule="evenodd" d="M1196.03 371.213C1110.77 401.506 1016.65 455.62 936.742 547.563C836.313 663.121 724.9 733.008 609.385 762.582C493.867 792.155 374.338 781.39 257.72 735.787C211.347 717.653 173.932 716.235 143.904 725.82C113.877 735.401 91.0687 756.035 74.0128 782.326C57.0374 808.489 45.7996 840.197 38.8472 872H36.3047C43.3008 839.779 54.6688 807.578 71.9281 780.975C89.2112 754.337 112.441 733.253 143.148 723.455C173.856 713.654 211.872 715.193 258.625 733.476C374.82 778.916 493.817 789.607 608.768 760.178C723.719 730.75 834.712 661.178 934.868 545.939C1015.35 453.334 1110.19 398.944 1196.03 368.583V371.213Z" fill="url(#paint32_linear_16033_2385)"/>
<path fill-rule="evenodd" clip-rule="evenodd" d="M1196.03 425.621C1106.98 450.427 1006.23 499.684 918.692 590.379C812.571 700.322 697.783 764.063 580.937 787.324C464.088 810.581 345.265 793.339 231.106 741.466C185.71 720.836 148.417 717.39 117.948 725.327C87.4802 733.263 63.6646 752.632 45.3069 777.955C25.7942 804.877 12.4972 838.463 3.98421 872H1.42188C9.99044 838.017 23.4459 803.885 43.2946 776.502C61.8983 750.838 86.1607 731.044 117.322 722.927C148.482 714.806 186.368 718.407 232.134 739.204C345.881 790.893 464.173 808.036 580.451 784.889C696.725 761.745 811.077 698.298 916.903 588.657C1005.01 497.377 1106.43 447.896 1196.03 423.048V425.621Z" fill="url(#paint33_linear_16033_2385)"/>
</g>
<defs>
<linearGradient id="paint0_linear_16033_2385" x1="800.048" y1="3.19023e-05" x2="532.207" y2="169.806" gradientUnits="userSpaceOnUse">
<stop stop-color="#EAEBED"/>
<stop offset="1" stop-color="#EAEBED" stop-opacity="0.4"/>
</linearGradient>
<linearGradient id="paint1_linear_16033_2385" x1="798.007" y1="2.8024e-05" x2="525.078" y2="157.512" gradientUnits="userSpaceOnUse">
<stop stop-color="#EAEBED"/>
<stop offset="1" stop-color="#EAEBED" stop-opacity="0.4"/>
</linearGradient>
<linearGradient id="paint2_linear_16033_2385" x1="794.217" y1="2.22974e-05" x2="518.4" y2="144.804" gradientUnits="userSpaceOnUse">
<stop stop-color="#EAEBED"/>
<stop offset="1" stop-color="#EAEBED" stop-opacity="0.4"/>
</linearGradient>
<linearGradient id="paint3_linear_16033_2385" x1="788.822" y1="3.21183e-05" x2="512.285" y2="132.156" gradientUnits="userSpaceOnUse">
<stop stop-color="#EAEBED"/>
<stop offset="1" stop-color="#EAEBED" stop-opacity="0.4"/>
</linearGradient>
<linearGradient id="paint4_linear_16033_2385" x1="781.716" y1="2.99009e-05" x2="506.659" y2="119.809" gradientUnits="userSpaceOnUse">
<stop stop-color="#EAEBED"/>
<stop offset="1" stop-color="#EAEBED" stop-opacity="0.4"/>
</linearGradient>
<linearGradient id="paint5_linear_16033_2385" x1="772.901" y1="3.08548e-05" x2="501.313" y2="107.914" gradientUnits="userSpaceOnUse">
<stop stop-color="#EAEBED"/>
<stop offset="1" stop-color="#EAEBED" stop-opacity="0.4"/>
</linearGradient>
<linearGradient id="paint6_linear_16033_2385" x1="762.367" y1="3.32212e-05" x2="496.024" y2="96.5797" gradientUnits="userSpaceOnUse">
<stop stop-color="#EAEBED"/>
<stop offset="1" stop-color="#EAEBED" stop-opacity="0.4"/>
</linearGradient>
<linearGradient id="paint7_linear_16033_2385" x1="750.163" y1="4.37759e-05" x2="490.625" y2="85.8878" gradientUnits="userSpaceOnUse">
<stop stop-color="#EAEBED"/>
<stop offset="1" stop-color="#EAEBED" stop-opacity="0.4"/>
</linearGradient>
<linearGradient id="paint8_linear_16033_2385" x1="736.302" y1="3.72708e-05" x2="484.933" y2="75.885" gradientUnits="userSpaceOnUse">
<stop stop-color="#EAEBED"/>
<stop offset="1" stop-color="#EAEBED" stop-opacity="0.4"/>
</linearGradient>
<linearGradient id="paint9_linear_16033_2385" x1="749.321" y1="4.88258e-05" x2="471.997" y2="89.8197" gradientUnits="userSpaceOnUse">
<stop stop-color="#EAEBED"/>
<stop offset="1" stop-color="#EAEBED" stop-opacity="0.4"/>
</linearGradient>
<linearGradient id="paint10_linear_16033_2385" x1="765.534" y1="3.63426e-05" x2="457.647" y2="108.438" gradientUnits="userSpaceOnUse">
<stop stop-color="#EAEBED"/>
<stop offset="1" stop-color="#EAEBED" stop-opacity="0.4"/>
</linearGradient>
<linearGradient id="paint11_linear_16033_2385" x1="781.525" y1="0.000256804" x2="442.936" y2="128.933" gradientUnits="userSpaceOnUse">
<stop stop-color="#EAEBED"/>
<stop offset="1" stop-color="#EAEBED" stop-opacity="0.4"/>
</linearGradient>
<linearGradient id="paint12_linear_16033_2385" x1="797.226" y1="5.24704e-05" x2="428.02" y2="151.273" gradientUnits="userSpaceOnUse">
<stop stop-color="#EAEBED"/>
<stop offset="1" stop-color="#EAEBED" stop-opacity="0.4"/>
</linearGradient>
<linearGradient id="paint13_linear_16033_2385" x1="812.624" y1="0.000239257" x2="413.102" y2="175.415" gradientUnits="userSpaceOnUse">
<stop stop-color="#EAEBED"/>
<stop offset="1" stop-color="#EAEBED" stop-opacity="0.4"/>
</linearGradient>
<linearGradient id="paint14_linear_16033_2385" x1="827.762" y1="4.83375e-05" x2="398.448" y2="201.309" gradientUnits="userSpaceOnUse">
<stop stop-color="#EAEBED"/>
<stop offset="1" stop-color="#EAEBED" stop-opacity="0.4"/>
</linearGradient>
<linearGradient id="paint15_linear_16033_2385" x1="842.648" y1="3.89984e-05" x2="384.249" y2="228.905" gradientUnits="userSpaceOnUse">
<stop stop-color="#EAEBED"/>
<stop offset="1" stop-color="#EAEBED" stop-opacity="0.4"/>
</linearGradient>
<linearGradient id="paint16_linear_16033_2385" x1="857.291" y1="6.37352e-05" x2="370.733" y2="258.147" gradientUnits="userSpaceOnUse">
<stop stop-color="#EAEBED"/>
<stop offset="1" stop-color="#EAEBED" stop-opacity="0.4"/>
</linearGradient>
<linearGradient id="paint17_linear_16033_2385" x1="871.705" y1="6.27787e-05" x2="358.09" y2="288.98" gradientUnits="userSpaceOnUse">
<stop stop-color="#EAEBED"/>
<stop offset="0.925" stop-color="#EAEBED" stop-opacity="0.445"/>
<stop offset="1" stop-color="#EAEBED" stop-opacity="0.4"/>
</linearGradient>
<linearGradient id="paint18_linear_16033_2385" x1="886.013" y1="4.27261e-05" x2="349.277" y2="322.743" gradientUnits="userSpaceOnUse">
<stop stop-color="#EAEBED"/>
<stop offset="1" stop-color="#EAEBED" stop-opacity="0.4"/>
</linearGradient>
<linearGradient id="paint19_linear_16033_2385" x1="900.222" y1="5.63883e-05" x2="345.616" y2="359.31" gradientUnits="userSpaceOnUse">
<stop stop-color="#EAEBED"/>
<stop offset="1" stop-color="#EAEBED" stop-opacity="0.4"/>
</linearGradient>
<linearGradient id="paint20_linear_16033_2385" x1="914.909" y1="0.000258503" x2="344.839" y2="397.212" gradientUnits="userSpaceOnUse">
<stop stop-color="#EAEBED"/>
<stop offset="1" stop-color="#EAEBED" stop-opacity="0.4"/>
</linearGradient>
<linearGradient id="paint21_linear_16033_2385" x1="933.377" y1="7.982e-05" x2="349.474" y2="439.355" gradientUnits="userSpaceOnUse">
<stop stop-color="#EAEBED"/>
<stop offset="1" stop-color="#EAEBED" stop-opacity="0.4"/>
</linearGradient>
<linearGradient id="paint22_linear_16033_2385" x1="956.967" y1="0.000291534" x2="361.55" y2="486.197" gradientUnits="userSpaceOnUse">
<stop stop-color="#EAEBED"/>
<stop offset="1" stop-color="#EAEBED" stop-opacity="0.4"/>
</linearGradient>
<linearGradient id="paint23_linear_16033_2385" x1="986.937" y1="2.50111e-05" x2="383.291" y2="537.756" gradientUnits="userSpaceOnUse">
<stop stop-color="#EAEBED"/>
<stop offset="1" stop-color="#EAEBED" stop-opacity="0.4"/>
</linearGradient>
<linearGradient id="paint24_linear_16033_2385" x1="1025.46" y1="0.000271014" x2="417.928" y2="594.261" gradientUnits="userSpaceOnUse">
<stop stop-color="#EAEBED"/>
<stop offset="1" stop-color="#EAEBED" stop-opacity="0.4"/>
</linearGradient>
<linearGradient id="paint25_linear_16033_2385" x1="1076.53" y1="0.000276226" x2="470.809" y2="656.47" gradientUnits="userSpaceOnUse">
<stop stop-color="#EAEBED"/>
<stop offset="1" stop-color="#EAEBED" stop-opacity="0.4"/>
</linearGradient>
<linearGradient id="paint26_linear_16033_2385" x1="1118.6" y1="20.2337" x2="535.384" y2="724.262" gradientUnits="userSpaceOnUse">
<stop stop-color="#EAEBED"/>
<stop offset="1" stop-color="#EAEBED" stop-opacity="0.4"/>
</linearGradient>
<linearGradient id="paint27_linear_16033_2385" x1="1116.12" y1="83.1635" x2="589.716" y2="791.313" gradientUnits="userSpaceOnUse">
<stop stop-color="#EAEBED"/>
<stop offset="1" stop-color="#EAEBED" stop-opacity="0.4"/>
</linearGradient>
<linearGradient id="paint28_linear_16033_2385" x1="1113.56" y1="143.546" x2="645.379" y2="847.445" gradientUnits="userSpaceOnUse">
<stop stop-color="#EAEBED"/>
<stop offset="1" stop-color="#EAEBED" stop-opacity="0.4"/>
</linearGradient>
<linearGradient id="paint29_linear_16033_2385" x1="1110.97" y1="201.819" x2="701.07" y2="892.703" gradientUnits="userSpaceOnUse">
<stop stop-color="#EAEBED"/>
<stop offset="1" stop-color="#EAEBED" stop-opacity="0.4"/>
</linearGradient>
<linearGradient id="paint30_linear_16033_2385" x1="1108.34" y1="258.437" x2="755.66" y2="927.77" gradientUnits="userSpaceOnUse">
<stop stop-color="#EAEBED"/>
<stop offset="1" stop-color="#EAEBED" stop-opacity="0.4"/>
</linearGradient>
<linearGradient id="paint31_linear_16033_2385" x1="1105.68" y1="313.861" x2="808.205" y2="953.411" gradientUnits="userSpaceOnUse">
<stop stop-color="#EAEBED"/>
<stop offset="1" stop-color="#EAEBED" stop-opacity="0.4"/>
</linearGradient>
<linearGradient id="paint32_linear_16033_2385" x1="1102.95" y1="368.583" x2="857.862" y2="970.426" gradientUnits="userSpaceOnUse">
<stop stop-color="#EAEBED"/>
<stop offset="1" stop-color="#EAEBED" stop-opacity="0.4"/>
</linearGradient>
<linearGradient id="paint33_linear_16033_2385" x1="1100.15" y1="423.048" x2="903.927" y2="979.602" gradientUnits="userSpaceOnUse">
<stop stop-color="#EAEBED"/>
<stop offset="1" stop-color="#EAEBED" stop-opacity="0.4"/>
</linearGradient>
<clipPath id="clip0_16033_2385">
<rect width="1196" height="872" fill="white"/>
</clipPath>
</defs>
</svg>
