<svg width="95" height="51" viewBox="0 0 95 51" fill="none" xmlns="http://www.w3.org/2000/svg">
<path d="M0.191406 0.132812H94.1914V50.1328H0.191406V0.132812Z" fill="white"/>
<path d="M15.1914 24.9615V36.79H47.1285H79.0657V24.9615V13.1329H47.1285H15.1914V24.9615ZM77.9983 24.9615V35.7249L47.1454 35.7137L16.2869 35.6969L16.27 24.9446L16.2588 14.198H47.1285H77.9983V24.9615Z" fill="black"/>
<path d="M20.6973 18.8732V19.1759L20.9388 19.2152C21.068 19.232 21.259 19.2656 21.3602 19.2824L21.5399 19.3105L21.5287 24.9557L21.5118 30.5952L21.1074 30.6401L20.6973 30.6905V31.0213V31.3521H22.832H24.9668V31.0213V30.6905L24.5623 30.6401L24.1522 30.5952L24.1354 28.0277L24.1241 25.4658H26.933H29.7419V28.0109C29.7419 30.1356 29.7307 30.5616 29.6633 30.584C29.6183 30.6009 29.4048 30.6345 29.1857 30.6569L28.7869 30.6962V31.0213V31.3521H30.9778H33.1688V31.0213V30.6905L32.7924 30.6513C32.5901 30.6289 32.3879 30.6009 32.3429 30.584C32.2812 30.5616 32.2699 29.5525 32.2699 24.9332V19.3105L32.4946 19.2768C32.6182 19.26 32.8205 19.2264 32.9441 19.2095L33.1688 19.1759V18.8732V18.5705H30.9778H28.7869V18.8732V19.1759L29.0565 19.2095C29.2026 19.232 29.4161 19.26 29.5341 19.2768L29.7419 19.3105V21.7154V24.1204H26.933H24.1241V21.7154V19.3105L24.3657 19.2712C25.0286 19.1703 24.9668 19.2095 24.9668 18.8732V18.5705H22.832H20.6973V18.8732Z" fill="black"/>
<path d="M36.4778 18.7275C35.3093 19.333 35.7756 21.0933 37.1014 21.0933C37.5002 21.0933 37.8092 20.9475 38.0676 20.6504C38.489 20.1571 38.489 19.5068 38.062 19.0135C37.6688 18.5482 37.034 18.436 36.4778 18.7275Z" fill="black"/>
<path d="M40.8652 18.8452V19.1199L41.2472 19.1647L41.6236 19.2152L41.6405 24.9444L41.6517 30.6681L41.5 30.7018C41.4102 30.7186 41.236 30.7466 41.1068 30.7634L40.8652 30.8027V31.0774V31.3521H42.8596H44.8539V31.0774V30.8027L44.6179 30.7634C44.4831 30.7466 44.3089 30.7186 44.2247 30.7018L44.0674 30.6681V24.6193V18.5705H42.4663H40.8652V18.8452Z" fill="black"/>
<path d="M48.5772 19.9947L47.4368 20.3366V21.3008V22.2707H46.5661H45.6953V22.6911V23.1116H46.5324H47.375L47.3919 26.5144C47.4144 30.304 47.4144 30.2648 47.802 30.8029C48.3919 31.6102 50.1558 31.6943 52.2569 31.0104L52.6052 30.8926V30.5843V30.276L52.4367 30.3152C52.3412 30.3377 51.9423 30.3545 51.5491 30.3545C50.5266 30.3601 50.2008 30.2367 49.9536 29.7378L49.8244 29.4743L49.8075 26.2902L49.7907 23.1116H50.8637H51.9311V22.6911V22.2707H50.8637H49.7963V20.9533C49.7963 20.2301 49.7794 19.6359 49.757 19.6415C49.7289 19.6471 49.2008 19.8041 48.5772 19.9947Z" fill="black"/>
<path d="M57.2134 22.024C56.3708 22.1361 55.3202 22.5565 54.7304 23.0218C54.0394 23.5712 53.4832 24.4458 53.2248 25.3819C53.0507 26.0098 53.0057 27.4057 53.1349 28.1513C53.3203 29.194 53.6237 29.8387 54.236 30.4553C54.9663 31.1897 55.9719 31.5485 57.4943 31.6102C59.101 31.683 60.4156 31.257 61.3706 30.36C62.2751 29.5135 62.6964 28.5325 62.7582 27.1478C62.7975 26.2677 62.7133 25.6006 62.4717 24.8942C62.2245 24.1599 61.9886 23.7843 61.4549 23.2517C61.0897 22.8817 60.9043 22.7528 60.4718 22.5341C59.7358 22.1753 59.1684 22.0464 58.1966 22.0184C57.764 22.0072 57.3202 22.0128 57.2134 22.024ZM58.2246 22.7191C58.8819 22.8425 59.3313 23.218 59.6572 23.9244C60.0111 24.6868 60.1347 25.4268 60.1347 26.8339C60.1347 29.6425 59.4493 30.9094 57.9157 30.915C57.3595 30.9206 56.955 30.7637 56.6123 30.4049C55.8989 29.6761 55.5506 27.9831 55.6966 25.9986C55.8427 24.0085 56.4438 22.9321 57.5112 22.7191C57.8426 22.6575 57.8932 22.6575 58.2246 22.7191Z" fill="black"/>
<path d="M69.7508 22.1078C69.0486 22.1975 68.1834 22.5843 67.4475 23.1393C67.2228 23.3075 67.0093 23.4477 66.9812 23.4477C66.9531 23.4477 66.9307 23.1842 66.9307 22.859V22.2704H65.3296H63.7285V22.5731V22.8758L63.9982 22.9095C64.1442 22.9319 64.3296 22.9599 64.4195 22.9768L64.5712 23.0104V26.8393V30.6681L64.251 30.7018C63.7285 30.7634 63.7285 30.7634 63.7285 31.0774V31.3521H65.7509H67.7733V31.0718C67.7733 30.9148 67.7565 30.7915 67.734 30.7858C67.7059 30.7802 67.5261 30.7522 67.3239 30.713L66.9587 30.6513V27.3999V24.1484L67.2396 23.9634C67.3969 23.8625 67.7228 23.6999 67.9699 23.6046C68.3576 23.4477 68.4868 23.4252 68.925 23.4196C69.4811 23.4196 69.7396 23.5149 70.0317 23.8232C70.4755 24.2885 70.5373 24.8099 70.5148 28.1006L70.498 30.6513L70.1328 30.713C69.9306 30.7522 69.7508 30.7802 69.7283 30.7858C69.7002 30.7915 69.6834 30.9148 69.6834 31.0718V31.3521H71.7058H73.7282V31.0774C73.7282 30.7634 73.7282 30.7634 73.2113 30.7074L72.8911 30.6681L72.8743 27.4055C72.8574 24.1764 72.8518 24.1428 72.7226 23.756C72.5484 23.2234 72.3799 22.9487 72.0428 22.646C71.7114 22.3489 71.2901 22.1751 70.7283 22.1022C70.2789 22.0406 70.2395 22.0406 69.7508 22.1078Z" fill="black"/>
<path d="M35.0781 22.5451V22.8198L35.3478 22.8534C35.4938 22.8758 35.6792 22.9039 35.7691 22.9207L35.9208 22.9543L35.9096 26.8L35.8927 30.6513L35.5275 30.713C35.3253 30.7522 35.1455 30.7802 35.1231 30.7858C35.095 30.7915 35.0781 30.9148 35.0781 31.0718V31.3521H37.1061H39.1286L39.1117 31.0942C39.0892 30.7858 39.0499 30.7522 38.6061 30.7074L38.2803 30.6737V26.4693V22.2704H36.6792H35.0781V22.5451Z" fill="black"/>
</svg>
