<svg width="95" height="51" viewBox="0 0 95 51" fill="none" xmlns="http://www.w3.org/2000/svg">
<path d="M0.191406 0.132812H94.1914V50.1328H0.191406V0.132812Z" fill="white"/>
<path d="M49.6783 27.0079L47.2122 20.8074L44.7604 26.9667C45.3983 26.9466 46.0436 26.935 46.7031 26.935C47.7212 26.935 48.7119 26.9598 49.6783 27.0079ZM70.1449 33.2945C64.8601 30.9964 58.9167 29.2944 51.9331 28.7199L54.0596 33.8843H52.4136L50.3146 28.6085C49.1417 28.5435 47.9388 28.5071 46.7058 28.5071C45.8313 28.5071 44.9727 28.525 44.1278 28.5594L42.0087 33.8843H40.3616L42.5177 28.6449C35.11 29.1307 28.8013 30.886 23.2598 33.2929V32.9676C26.9583 30.9034 30.6157 29.3625 34.564 28.356V25.1861L30.1172 18.3598H31.7695L35.298 24.0317L38.8281 18.3598H40.4783L36.0326 25.1861L36.0315 28.0086C38.2911 27.518 40.6531 27.1938 43.1788 27.0401L46.8436 18.1338H47.5781L51.2719 27.1109C53.7512 27.3089 56.0752 27.6738 58.3031 28.2077V19.5474H54.67V18.3598H63.4391V19.5474H59.8076V28.5979C63.39 29.5986 66.7511 31.0539 70.1449 32.9708V33.2945ZM76.0202 18.3598H67.2522V19.5474H70.8848V30.2513H72.3882V19.5474H76.0202V18.3598ZM25.6857 30.2513L24.1823 30.2529V24.385H17.6987V30.2513H16.1953V18.3598H17.6987V23.1984H24.1823V18.3598H25.6857V30.2513Z" fill="#4B77A9"/>
<path d="M79.9878 19.2857C79.916 19.2434 79.7998 19.2228 79.6403 19.2228H79.3953V19.818H79.6546C79.7776 19.818 79.8674 19.8048 79.9292 19.781C80.0406 19.734 80.0987 19.6495 80.0987 19.5249C80.0987 19.4061 80.0607 19.3269 79.9878 19.2857ZM79.6784 19.0285C79.8795 19.0285 80.0285 19.048 80.124 19.0861C80.2925 19.1568 80.3765 19.2962 80.3765 19.5011C80.3765 19.6463 80.3236 19.7546 80.218 19.8243C80.161 19.8607 80.0839 19.8856 79.9809 19.9019C80.1114 19.922 80.2033 19.9753 80.2635 20.0619C80.3205 20.1485 80.3506 20.2336 80.3506 20.3165V20.4353C80.3506 20.4738 80.3522 20.5145 80.3548 20.5562C80.3574 20.5995 80.3617 20.6275 80.3691 20.6428L80.3791 20.6629H80.1114C80.1098 20.6571 80.1082 20.6523 80.1066 20.647C80.105 20.6412 80.105 20.6338 80.1034 20.6275L80.0966 20.5747V20.4448C80.0966 20.2568 80.0432 20.1322 79.9419 20.0714C79.8795 20.0371 79.775 20.0186 79.6213 20.0186H79.3953V20.6629H79.1059V19.0285H79.6784ZM78.8028 18.944C78.5531 19.1949 78.4295 19.498 78.4295 19.8518C78.4295 20.2082 78.5525 20.5124 78.8007 20.7637C79.0494 21.0161 79.351 21.1408 79.7063 21.1408C80.0612 21.1408 80.3633 21.0161 80.6136 20.7637C80.8612 20.5124 80.9858 20.2082 80.9858 19.8518C80.9858 19.498 80.8612 19.1949 80.6136 18.944C80.3617 18.6942 80.0596 18.5686 79.7063 18.5686C79.3531 18.5686 79.0531 18.6942 78.8028 18.944ZM80.7593 20.9052C80.4699 21.1983 80.1193 21.3441 79.7063 21.3441C79.2939 21.3441 78.9433 21.1983 78.6529 20.9052C78.3656 20.6132 78.222 20.2626 78.222 19.8502C78.222 19.4409 78.3672 19.0903 78.6581 18.7999C78.9475 18.51 79.2971 18.3647 79.7063 18.3647C80.1193 18.3647 80.4699 18.51 80.7593 18.7999C81.0513 19.0877 81.1965 19.4393 81.1965 19.8502C81.1965 20.261 81.0513 20.6127 80.7593 20.9052Z" fill="#4B77A9"/>
</svg>
