<svg width="95" height="51" viewBox="0 0 95 51" fill="none" xmlns="http://www.w3.org/2000/svg">
<path d="M0.191406 0.132812H94.1914V50.1328H0.191406V0.132812Z" fill="white"/>
<path fill-rule="evenodd" clip-rule="evenodd" d="M48.6874 16.4334H46.1179V23.9319H36.8355V16.4334H34.287V33.4784H36.8355V25.691H46.1179V33.4784H48.6874V16.4334Z" fill="black"/>
<path fill-rule="evenodd" clip-rule="evenodd" d="M24.1914 33.4784H26.7353V16.4334H24.1914V33.4784Z" fill="black"/>
<path fill-rule="evenodd" clip-rule="evenodd" d="M71.1695 17.5782C71.2844 17.5782 71.3444 17.5275 71.3444 17.4308V17.4263C71.3444 17.3203 71.2798 17.2832 71.1695 17.2832H71.0406V17.5782H71.1695ZM70.8197 17.1128H71.1741C71.4087 17.1128 71.5606 17.2096 71.5606 17.4169V17.4217C71.5606 17.5737 71.4732 17.6566 71.3535 17.6936L71.6203 18.122H71.3904L71.1465 17.7304H71.0406V18.122H70.8197V17.1128ZM72.007 17.6289C72.007 17.1267 71.6572 16.7765 71.1695 16.7765C70.6817 16.7765 70.332 17.1313 70.332 17.6337C70.332 18.1405 70.7002 18.4816 71.1695 18.4816C71.6434 18.4816 72.007 18.1312 72.007 17.6289ZM70.1477 17.6337C70.1477 17.0668 70.5988 16.6106 71.1695 16.6106C71.7493 16.6106 72.191 17.0621 72.191 17.6289C72.191 18.205 71.7401 18.6475 71.1695 18.6475C70.6034 18.6475 70.1477 18.2097 70.1477 17.6337Z" fill="black"/>
<path d="M66.9377 25.2756V31.8821C66.218 32.3713 65.0095 32.7572 63.6464 32.7572C59.6615 32.7572 56.9357 29.2297 56.9357 24.7756C56.9357 20.5785 59.3267 17.1285 63.3125 17.1285C66.0636 17.1285 67.6323 18.4159 68.7891 19.8578H68.9177V16.8967C68.098 16.6917 65.8242 16.1541 63.4432 16.1499H63.3912C57.6601 16.1616 54.156 20.3212 54.108 24.9118V25.108C54.1579 30.121 57.9391 33.7514 63.4439 33.7615H63.4881C65.614 33.7573 67.37 33.1242 68.5895 32.6845C68.9423 32.5573 69.2502 32.4462 69.5092 32.3713V25.2756H66.9377Z" fill="black"/>
<path fill-rule="evenodd" clip-rule="evenodd" d="M63.4669 33.7615L63.4439 33.7615H63.4881L63.4669 33.7615ZM54.108 24.9118V25.108C54.1076 25.0745 54.1075 25.041 54.1075 25.0074C54.1075 24.9755 54.1076 24.9437 54.108 24.9118ZM63.4432 16.1499L63.4154 16.1499L63.3912 16.1499H63.4432Z" fill="black"/>
</svg>
