<svg width="95" height="51" viewBox="0 0 95 51" fill="none" xmlns="http://www.w3.org/2000/svg">
<path d="M0.191406 0.132812H94.1914V50.1328H0.191406V0.132812Z" fill="white"/>
<path d="M33.3516 39.1865H34.0767L35.3094 41.234L36.53 39.1865H37.2551L37.4485 43.5238H36.6992L36.5542 40.5192L35.4786 42.288H35.1039L34.0163 40.5555L33.8833 43.5238H33.1582L33.3516 39.1865Z" fill="black"/>
<path d="M41.5099 41.7428L40.966 40.0588L40.4101 41.7428H41.5099ZM40.5793 39.1865H41.3769L42.9359 43.5238H42.0658L41.7032 42.4213H40.1684L39.8058 43.5238H38.9961L40.5793 39.1865Z" fill="black"/>
<path d="M46.1496 41.1371C46.343 41.1371 46.5001 41.0765 46.6088 40.9553C46.7176 40.8342 46.778 40.6888 46.778 40.5071C46.778 40.3254 46.7176 40.1679 46.6088 40.0467C46.488 39.9256 46.343 39.8771 46.1617 39.8771H45.3399V41.1371H46.1496ZM44.5785 39.1865H46.1375C46.3913 39.1865 46.6209 39.2229 46.8022 39.3077C46.9835 39.3925 47.1285 39.4894 47.2373 39.6227C47.346 39.7559 47.4306 39.8892 47.479 40.0467C47.5273 40.2042 47.5515 40.3496 47.5515 40.4829C47.5515 40.7494 47.4911 41.0038 47.3823 41.2098C47.2735 41.4157 47.0922 41.5853 46.8626 41.7186L47.8174 43.5359H46.9351L46.1012 41.8276H45.3157V43.5359H44.5664V39.1865H44.5785Z" fill="black"/>
<path d="M51.141 41.1371C51.3344 41.1371 51.4915 41.0765 51.6003 40.9553C51.7091 40.8342 51.7695 40.6888 51.7695 40.5071C51.7695 40.3254 51.7091 40.1679 51.6003 40.0467C51.4794 39.9256 51.3344 39.8771 51.1531 39.8771H50.3313V41.1371H51.141ZM49.582 39.1865H51.141C51.3948 39.1865 51.6245 39.2229 51.8057 39.3077C51.987 39.3925 52.132 39.4894 52.2408 39.6227C52.3496 39.7559 52.4342 39.8892 52.4825 40.0467C52.5309 40.2042 52.555 40.3496 52.555 40.4829C52.555 40.7494 52.4946 41.0038 52.3858 41.2098C52.2771 41.4157 52.0958 41.5853 51.8662 41.7186L52.8209 43.5359H51.9387L51.1048 41.8276H50.3313V43.5359H49.582V39.1865Z" fill="black"/>
<path d="M55.541 39.1865H54.7676V43.5238H55.541V39.1865Z" fill="black"/>
<path d="M59.5653 42.8695C59.7707 42.8695 59.952 42.8332 60.1212 42.7484C60.2904 42.6636 60.4233 42.5545 60.5442 42.4091C60.665 42.2638 60.7496 42.1063 60.8101 41.9124C60.8705 41.7307 60.9067 41.5368 60.9067 41.3309C60.9067 41.1249 60.8705 40.9311 60.8101 40.7372C60.7496 40.5555 60.665 40.3859 60.5442 40.2526C60.4233 40.1072 60.2904 39.9982 60.1212 39.9255C59.952 39.8407 59.7707 39.8044 59.5653 39.8044C59.3598 39.8044 59.1785 39.8407 59.0093 39.9255C58.8522 40.0103 58.7072 40.1194 58.5984 40.2526C58.4776 40.3859 58.393 40.5555 58.3326 40.7372C58.2721 40.919 58.2359 41.1128 58.2359 41.3309C58.2359 41.5368 58.2721 41.7307 58.3326 41.9124C58.393 42.0942 58.4776 42.2638 58.5984 42.4091C58.7193 42.5545 58.8522 42.6636 59.0093 42.7484C59.1785 42.8211 59.3598 42.8695 59.5653 42.8695ZM59.5653 43.6328C59.2631 43.6328 58.9852 43.5722 58.7193 43.4511C58.4655 43.3299 58.2359 43.1724 58.0425 42.9664C57.8491 42.7605 57.692 42.5182 57.5833 42.2395C57.4745 41.9609 57.4141 41.6701 57.4141 41.343C57.4141 41.028 57.4745 40.7251 57.5833 40.4465C57.692 40.1678 57.8491 39.9255 58.0425 39.7196C58.2359 39.5136 58.4534 39.3561 58.7193 39.235C58.9852 39.1138 59.2631 39.0532 59.5653 39.0532C59.8674 39.0532 60.1454 39.1138 60.4112 39.235C60.665 39.3561 60.8946 39.5136 61.088 39.7196C61.2814 39.9255 61.4385 40.1678 61.5473 40.4465C61.656 40.7251 61.7165 41.0159 61.7165 41.343C61.7165 41.658 61.656 41.9609 61.5473 42.2395C61.4385 42.5182 61.2814 42.7605 61.088 42.9664C60.8946 43.1724 60.665 43.342 60.4112 43.4511C60.1454 43.5722 59.8674 43.6328 59.5653 43.6328Z" fill="black"/>
<path d="M64.1222 39.9013H62.7324V39.1865H66.2976V39.9013H64.9078V43.5238H64.1222V39.9013Z" fill="black"/>
<path d="M69.0152 39.9013H67.6133V39.1865H71.1906V39.9013H69.7886V43.5238H69.0152V39.9013Z" fill="black"/>
<path d="M54.2115 34.8492H61.1605L49.5344 7.08108L43.6972 9.91605L47.7579 19.584L45.8726 24.0788L38.5972 6.63281L32.6995 9.33452L37.437 20.4806L37.4128 20.529C34.4881 27.568 30.9109 29.4943 30.5604 29.6276C29.7265 29.9668 28.8322 30.1606 27.8895 30.1606C27.5995 30.1606 27.3215 30.1485 27.0436 30.1122L24.1914 36.2425C25.1341 36.7877 26.1976 37.1027 27.3215 37.1027C28.7476 37.1027 30.0528 36.606 31.1405 35.7821L31.1284 35.8064C31.1284 35.8064 33.8234 34.4373 36.7118 26.938C36.7118 26.9259 37.7754 24.5392 38.3434 23.0126L38.4038 22.843L43.4797 34.8614H50.4167L46.8394 26.4049L48.7368 21.9102L54.2115 34.8492Z" fill="#A11D2B"/>
</svg>
