<svg width="16" height="16" viewBox="0 0 16 16" fill="none" xmlns="http://www.w3.org/2000/svg">
<path fill-rule="evenodd" clip-rule="evenodd" d="M16 11.5C16 13.433 14.433 15 12.5 15C10.567 15 9 13.433 9 11.5C9 9.567 10.567 8 12.5 8C14.433 8 16 9.567 16 11.5ZM12.5 14C13.8807 14 15 12.8807 15 11.5C15 11.0089 14.8584 10.5508 14.6137 10.1644L11.1644 13.6137C11.5508 13.8584 12.0089 14 12.5 14ZM12.5 9C11.1193 9 10 10.1193 10 11.5C10 12.0279 10.1636 12.5176 10.4429 12.9211L13.9211 9.44289C13.5176 9.16361 13.0279 9 12.5 9Z" fill="#5C6373"/>
<path d="M15 11.5C15 12.8807 13.8807 14 12.5 14C12.0089 14 11.5508 13.8584 11.1644 13.6137L14.6137 10.1644C14.8584 10.5508 15 11.0089 15 11.5Z" fill="#F5F5F5"/>
<path d="M10 11.5C10 10.1193 11.1193 9 12.5 9C13.0279 9 13.5176 9.16361 13.9211 9.44289L10.4429 12.9211C10.1636 12.5176 10 12.0279 10 11.5Z" fill="#F5F5F5"/>
<path fill-rule="evenodd" clip-rule="evenodd" d="M8.74434 13.9798C8.50147 13.9934 8.25292 14 8 14C5.24003 14 3 13.2175 3 11.0282C3.093 9.58574 3.76405 8.31473 4.78404 7.42746L4.79004 7.42245C5.38872 8.62882 6.58739 9.46223 7.98987 9.54191L8 9.54228C8.16124 9.53312 8.31969 9.51415 8.47477 9.48597C8.17098 10.0919 8 10.776 8 11.5C8 12.4164 8.27392 13.2688 8.74434 13.9798ZM8 1.875C6.48127 1.875 5.24997 3.09456 5.24997 4.59922C5.24997 6.10389 6.48108 7.32345 8 7.32345C9.51873 7.32345 10.75 6.10389 10.75 4.59922V4.58882C10.7444 3.08861 9.51536 1.875 8 1.875Z" fill="#5C6373"/>
</svg>
