<svg width="16" height="16" viewBox="0 0 16 16" xmlns="http://www.w3.org/2000/svg">
<path d="M3.15016 15.0832C2.71627 15.0832 2.34669 14.9306 2.04141 14.6253C1.73613 14.32 1.5835 13.9505 1.5835 13.5166V3.48324C1.5835 3.04476 1.73613 2.67125 2.04141 2.36272C2.34669 2.05417 2.71627 1.8999 3.15016 1.8999H4.0835V0.899902H5.45016V1.8999H10.5502V0.899902H11.9168V1.8999H12.8502C13.2886 1.8999 13.6621 2.05417 13.9707 2.36272C14.2792 2.67125 14.4335 3.04476 14.4335 3.48324V13.5166C14.4335 13.9505 14.2792 14.32 13.9707 14.6253C13.6621 14.9306 13.2886 15.0832 12.8502 15.0832H3.15016ZM3.15016 13.5166H12.8502V6.4999H3.15016V13.5166ZM3.15016 5.4999H12.8502V3.48324H3.15016V5.4999ZM8.00191 9.43324C7.78519 9.43324 7.60294 9.35993 7.45516 9.21332C7.30738 9.06672 7.2335 8.88505 7.2335 8.66832C7.2335 8.4516 7.3068 8.26935 7.45341 8.12157C7.60001 7.97379 7.78168 7.8999 7.99841 7.8999C8.21513 7.8999 8.39738 7.97321 8.54516 8.11982C8.69294 8.26642 8.76683 8.44809 8.76683 8.66482C8.76683 8.88154 8.69352 9.06379 8.54691 9.21157C8.40031 9.35935 8.21865 9.43324 8.00191 9.43324ZM5.33525 9.43324C5.11852 9.43324 4.93627 9.35993 4.7885 9.21332C4.64072 9.06672 4.56683 8.88505 4.56683 8.66832C4.56683 8.4516 4.64013 8.26935 4.78675 8.12157C4.93335 7.97379 5.11501 7.8999 5.33175 7.8999C5.54847 7.8999 5.73072 7.97321 5.8785 8.11982C6.02627 8.26642 6.10016 8.44809 6.10016 8.66482C6.10016 8.88154 6.02686 9.06379 5.88025 9.21157C5.73365 9.35935 5.55198 9.43324 5.33525 9.43324ZM10.6686 9.43324C10.4674 9.43324 10.2891 9.35993 10.1335 9.21332C9.97794 9.06672 9.90016 8.88505 9.90016 8.66832C9.90016 8.4516 9.97736 8.26935 10.1317 8.12157C10.2861 7.97379 10.4667 7.8999 10.6734 7.8999C10.8801 7.8999 11.0585 7.97321 11.2085 8.11982C11.3585 8.26642 11.4335 8.44809 11.4335 8.66482C11.4335 8.88154 11.3602 9.06379 11.2136 9.21157C11.067 9.35935 10.8853 9.43324 10.6686 9.43324ZM8.00191 12.0999C7.78519 12.0999 7.60294 12.0227 7.45516 11.8683C7.30738 11.7139 7.2335 11.5334 7.2335 11.3267C7.2335 11.1199 7.3068 10.9416 7.45341 10.7916C7.60001 10.6416 7.78168 10.5666 7.99841 10.5666C8.21513 10.5666 8.39738 10.6399 8.54516 10.7865C8.69294 10.9331 8.76683 11.1148 8.76683 11.3315C8.76683 11.5327 8.69352 11.711 8.54691 11.8666C8.40031 12.0221 8.21865 12.0999 8.00191 12.0999ZM5.33525 12.0999C5.11852 12.0999 4.93627 12.0227 4.7885 11.8683C4.64072 11.7139 4.56683 11.5334 4.56683 11.3267C4.56683 11.1199 4.64013 10.9416 4.78675 10.7916C4.93335 10.6416 5.11501 10.5666 5.33175 10.5666C5.54847 10.5666 5.73072 10.6399 5.8785 10.7865C6.02627 10.9331 6.10016 11.1148 6.10016 11.3315C6.10016 11.5327 6.02686 11.711 5.88025 11.8666C5.73365 12.0221 5.55198 12.0999 5.33525 12.0999ZM10.6686 12.0999C10.4674 12.0999 10.2891 12.0227 10.1335 11.8683C9.97794 11.7139 9.90016 11.5334 9.90016 11.3267C9.90016 11.1199 9.97736 10.9416 10.1317 10.7916C10.2861 10.6416 10.4667 10.5666 10.6734 10.5666C10.8801 10.5666 11.0585 10.6399 11.2085 10.7865C11.3585 10.9331 11.4335 11.1148 11.4335 11.3315C11.4335 11.5327 11.3602 11.711 11.2136 11.8666C11.067 12.0221 10.8853 12.0999 10.6686 12.0999Z"/>
</svg>
