<svg viewBox="0 0 16 16"  xmlns="http://www.w3.org/2000/svg">
<path fill-rule="evenodd" clip-rule="evenodd" d="M3.33308 7.50016C3.33308 6.4875 4.15374 5.66683 5.16641 5.66683H8.66641V7.50016H6.83308C6.55708 7.50016 6.33308 7.72416 6.33308 8.00016V11.0002H7.40469C7.57403 11.0002 7.72697 11.0988 7.79597 11.2515C7.86497 11.4041 7.83639 11.5822 7.72305 11.7065L5.15144 14.5269C5.0701 14.6159 4.95474 14.6668 4.83308 14.6668C4.71141 14.6668 4.59572 14.6159 4.51472 14.5269L1.9431 11.7065C1.82977 11.5822 1.80119 11.4041 1.87019 11.2515C1.93885 11.0988 2.09213 11.0002 2.26146 11.0002H3.33308V7.50016Z" />
<path d="M11.1664 1.3335C11.0447 1.3335 10.9294 1.38447 10.8481 1.47347L8.27644 4.29443C8.1631 4.41877 8.13452 4.59653 8.20352 4.74886C8.27252 4.90153 8.42546 5.00016 8.5948 5.00016H9.66641V8.00016C9.66641 8.27616 9.44241 8.50016 9.16641 8.50016H7.33308V10.3335H10.8331C11.8457 10.3335 12.6664 9.51283 12.6664 8.50016V5.00016H13.738C13.9074 5.00016 14.0606 4.90153 14.1293 4.74886C14.1983 4.59619 14.1697 4.41843 14.0564 4.29443L11.4848 1.47347C11.4034 1.38447 11.2881 1.3335 11.1664 1.3335Z" />
</svg>
