<svg xmlns="http://www.w3.org/2000/svg" width="16" height="16" viewBox="0 0 16 16">
  <path d="M3.83965 0C3.48965 0 3.19965 0.29 3.19965 0.64V1.28H1.27965C0.908399 1.28 0.639648 1.54875 0.639648 1.92V4.16H15.3596V1.92C15.3596 1.54875 15.0909 1.28 14.7196 1.28H12.7996V0.64C12.7996 0.29 12.5096 0 12.1596 0H11.5196C11.1696 0 10.8796 0.29 10.8796 0.64V1.28H5.11965V0.64C5.11965 0.29 4.82965 0 4.47965 0H3.83965ZM3.83965 0.64H4.47965V2.56H3.83965V0.64ZM11.5196 0.64H12.1596V2.56H11.5196V0.64ZM0.639648 4.8V14.72C0.639648 15.0737 0.925898 15.36 1.27965 15.36H10.8884C11.4221 15.76 12.0821 16 12.7996 16C14.5646 16 15.9996 14.565 15.9996 12.8C15.9996 12.0825 15.7596 11.4225 15.3596 10.8888V4.8H0.639648ZM7.83965 6.4L8.64465 8.48L10.8796 8.6L9.1434 10.005L9.49965 11.3412L9.7184 12.16L7.83965 10.9487L5.9609 12.16L6.53715 10.005L4.79965 8.6L7.03465 8.48L7.83965 6.4ZM12.7996 10.24C14.2109 10.24 15.3596 11.3888 15.3596 12.8C15.3596 14.2112 14.2109 15.36 12.7996 15.36C11.3884 15.36 10.2396 14.2112 10.2396 12.8C10.2396 11.3888 11.3884 10.24 12.7996 10.24ZM14.1759 11.3287L12.4484 13.3438L11.3909 12.5437L11.0084 13.0562L12.5109 14.2087L14.6559 11.7437L14.1759 11.3287Z"/>
</svg>
