<svg xmlns="http://www.w3.org/2000/svg" viewBox="0 0 16 16">
  <path d="M16 8C16 12.4183 12.4183 16 8 16C3.58175 16 0 12.4183 0 8C0 3.58175 3.58175 0 8 0C12.4183 0 16 3.58175 16 8ZM14.3666 8.6H12.2V7.4H14.3666C14.0731 4.3405 11.6595 1.92675 8.62588 1.63538L8.6 1.63338V3.8H7.4V1.63338C4.3405 1.92688 1.92675 4.3405 1.63538 7.37413L1.63338 7.4H3.8V8.6H1.63338C1.92688 11.6595 4.3405 14.0732 7.37413 14.3646L7.4 14.3666V12.2H8.6V14.3666C11.6595 14.0731 14.0732 11.6595 14.3646 8.62588L14.3666 8.6Z"/>
  <path d="M5.70662 7.80675L9.16663 4.34675L10.32 5.50012L8.00245 7.81756L10.707 10.5219L9.55359 11.6753L5.70662 7.80675Z"/>
</svg>
