<svg width="16" height="16" viewBox="0 0 16 16" fill="none" xmlns="http://www.w3.org/2000/svg">
<path d="M7.01667 14.3332V10.2499H8.35V11.6499H14.25V12.9832H8.35V14.3332H7.01667ZM1.75 12.9832V11.6499H6.18333V12.9832H1.75ZM4.85 10.0166V8.6499H1.75V7.33324H4.85V5.9499H6.18333V10.0166H4.85ZM7.01667 8.6499V7.33324H14.25V8.6499H7.01667ZM9.81667 5.73324V1.6499H11.15V3.01657H14.25V4.3499H11.15V5.73324H9.81667ZM1.75 4.3499V3.01657H8.98333V4.3499H1.75Z" />
<path fill-rule="evenodd" clip-rule="evenodd" d="M16 13C16 14.6569 14.6569 16 13 16C11.3431 16 10 14.6569 10 13C10 11.3431 11.3431 10 13 10C14.6569 10 16 11.3431 16 13ZM13 15C14.1046 15 15 14.1046 15 13C15 11.8954 14.1046 11 13 11C11.8954 11 11 11.8954 11 13C11 14.1046 11.8954 15 13 15Z" fill="white"/>
<path d="M15 13C15 14.1046 14.1046 15 13 15C11.8954 15 11 14.1046 11 13C11 11.8954 11.8954 11 13 11C14.1046 11 15 11.8954 15 13Z" fill="white"/>
<path d="M15 13C15 14.1046 14.1046 15 13 15C11.8954 15 11 14.1046 11 13C11 11.8954 11.8954 11 13 11C14.1046 11 15 11.8954 15 13Z" fill="#4DBFA2"/>
</svg>
