<svg width="16" height="16" viewBox="0 0 16 16" xmlns="http://www.w3.org/2000/svg">
<path d="M7.99984 7.90023C8.33317 7.90023 8.62484 7.78078 8.87484 7.54189C9.12484 7.30301 9.24984 7.01134 9.24984 6.66689C9.24984 6.33356 9.12484 6.04189 8.87484 5.79189C8.62484 5.54189 8.33317 5.41689 7.99984 5.41689C7.65539 5.41689 7.36373 5.54189 7.12484 5.79189C6.88595 6.04189 6.7665 6.33356 6.7665 6.66689C6.7665 7.01134 6.88595 7.30301 7.12484 7.54189C7.36373 7.78078 7.65539 7.90023 7.99984 7.90023ZM7.99984 13.0002C9.38873 11.7336 10.4165 10.5836 11.0832 9.55023C11.7498 8.51689 12.0832 7.60023 12.0832 6.80023C12.0832 5.55578 11.6887 4.54189 10.8998 3.75856C10.1109 2.97523 9.14428 2.58356 7.99984 2.58356C6.85539 2.58356 5.8915 2.97801 5.10817 3.76689C4.32484 4.55578 3.93317 5.56689 3.93317 6.80023C3.93317 7.60023 4.27206 8.51134 4.94984 9.53356C5.62762 10.5558 6.64428 11.7113 7.99984 13.0002ZM7.99984 15.0002C6.13317 13.4113 4.73595 11.9363 3.80817 10.5752C2.88039 9.21412 2.4165 7.95578 2.4165 6.80023C2.4165 5.05578 2.97762 3.66412 4.09984 2.62523C5.22206 1.58634 6.52206 1.06689 7.99984 1.06689C9.47762 1.06689 10.7804 1.58634 11.9082 2.62523C13.0359 3.66412 13.5998 5.05578 13.5998 6.80023C13.5998 7.95578 13.1332 9.21412 12.1998 10.5752C11.2665 11.9363 9.8665 13.4113 7.99984 15.0002Z"/>
</svg>
