<svg width="16" height="16" viewBox="0 0 16 16" fill="none" xmlns="http://www.w3.org/2000/svg">
<path d="M6.86312 2.65869C6.74845 2.65869 6.63163 2.70205 6.53629 2.79671L3.33317 5.99984H1.99984C1.26317 5.99984 0.666504 6.5965 0.666504 7.33317V8.6665C0.666504 9.40317 1.26317 9.99984 1.99984 9.99984H3.33317L6.53629 13.203C6.63163 13.2983 6.74845 13.341 6.86312 13.341C7.10312 13.341 7.33317 13.1549 7.33317 12.8735V3.12614C7.33317 2.84481 7.10312 2.65869 6.86312 2.65869Z"/>
<path fill-rule="evenodd" clip-rule="evenodd" d="M3.33317 9.99984H1.99984C1.26317 9.99984 0.666504 9.40317 0.666504 8.6665V7.33317C0.666504 6.5965 1.26317 5.99984 1.99984 5.99984H3.33317L6.53629 2.79671C6.63163 2.70205 6.74845 2.65869 6.86312 2.65869C7.10312 2.65869 7.33317 2.84481 7.33317 3.12614V12.8735C7.33317 13.1549 7.10312 13.341 6.86312 13.341C6.74845 13.341 6.63163 13.2983 6.53629 13.203L3.33317 9.99984Z"/>
<path fill-rule="evenodd" clip-rule="evenodd" d="M12.276 8.00021L13.8046 6.47162L12.8618 5.52881L11.3332 7.0574L9.80463 5.52881L8.86182 6.47162L10.3904 8.00021L8.86182 9.52881L9.80463 10.4716L11.3332 8.94302L12.8618 10.4716L13.8046 9.52881L12.276 8.00021Z"/>
</svg>
