<svg width="24" height="24" viewBox="0 0 24 24" fill="none" xmlns="http://www.w3.org/2000/svg">
<path d="M4 20V18H6.725C5.875 17.2667 5.20833 16.3833 4.725 15.35C4.24167 14.3167 4 13.2 4 12C4 10.1333 4.56667 8.4875 5.7 7.0625C6.83333 5.6375 8.26667 4.7 10 4.25V6.35C8.83333 6.76667 7.875 7.4875 7.125 8.5125C6.375 9.5375 6 10.7 6 12C6 12.9 6.17917 13.7292 6.5375 14.4875C6.89583 15.2458 7.38333 15.9 8 16.45V14H10V20H4ZM18 12C18 11.15 17.8292 10.3542 17.4875 9.6125C17.1458 8.87083 16.65 8.18333 16 7.55V10H14V4H20V6H17.275C18.2583 6.88333 18.9542 7.82917 19.3625 8.8375C19.7708 9.84583 19.9833 10.9 20 12H18ZM16 22C15.7167 22 15.4792 21.9042 15.2875 21.7125C15.0958 21.5208 15 21.2833 15 21V18C15 17.7167 15.0958 17.4792 15.2875 17.2875C15.4792 17.0958 15.7167 17 16 17V16C16 15.45 16.1958 14.9792 16.5875 14.5875C16.9792 14.1958 17.45 14 18 14C18.55 14 19.0208 14.1958 19.4125 14.5875C19.8042 14.9792 20 15.45 20 16V17C20.2833 17 20.5208 17.0958 20.7125 17.2875C20.9042 17.4792 21 17.7167 21 18V21C21 21.2833 20.9042 21.5208 20.7125 21.7125C20.5208 21.9042 20.2833 22 20 22H16ZM17 17H19V16C19 15.7167 18.9042 15.4792 18.7125 15.2875C18.5208 15.0958 18.2833 15 18 15C17.7167 15 17.4792 15.0958 17.2875 15.2875C17.0958 15.4792 17 15.7167 17 16V17Z"/>
</svg>
