<svg width="16" height="16" viewBox="0 0 16 16" xmlns="http://www.w3.org/2000/svg">
<path d="M8.00039 7.80145C7.21613 7.80145 6.5821 7.55701 6.09831 7.06812C5.61451 6.57923 5.37261 5.94775 5.37261 5.17368C5.37261 4.3996 5.61451 3.76812 6.09831 3.27923C6.5821 2.79034 7.21613 2.5459 8.00039 2.5459C8.77446 2.5459 9.40849 2.7878 9.90247 3.27159C10.3965 3.75539 10.6434 4.38942 10.6434 5.17368C10.6434 5.94775 10.399 6.57923 9.91011 7.06812C9.42122 7.55701 8.78465 7.80145 8.00039 7.80145ZM2.77539 13.3473V11.5751C2.77539 11.1269 2.89252 10.7373 3.12678 10.4063C3.36104 10.0753 3.6615 9.82321 4.02817 9.65007C4.72076 9.32414 5.39044 9.08479 6.0372 8.93201C6.68396 8.77923 7.33326 8.70284 7.98511 8.70284C8.65734 8.70284 9.31428 8.78432 9.95595 8.94729C10.5976 9.11025 11.2647 9.34451 11.9573 9.65007C12.3444 9.81303 12.655 10.0626 12.8893 10.3987C13.1235 10.7348 13.2407 11.1269 13.2407 11.5751V13.3473H2.77539ZM4.16567 11.957H11.8351V11.6362C11.8351 11.4834 11.7867 11.3306 11.69 11.1778C11.5932 11.0251 11.4684 10.9181 11.3157 10.857C10.7046 10.5616 10.1444 10.363 9.63511 10.2612C9.12585 10.1593 8.57585 10.1084 7.98511 10.1084C7.41474 10.1084 6.86984 10.1619 6.35039 10.2688C5.83095 10.3758 5.27585 10.5718 4.68511 10.857C4.53233 10.9181 4.40757 11.0225 4.31081 11.1702C4.21405 11.3179 4.16567 11.4732 4.16567 11.6362V11.957ZM8.00039 6.41118C8.34669 6.41118 8.63951 6.2915 8.87886 6.05215C9.11821 5.8128 9.23789 5.51997 9.23789 5.17368C9.23789 4.81719 9.11821 4.51928 8.87886 4.27993C8.63951 4.04057 8.34669 3.9209 8.00039 3.9209C7.65409 3.9209 7.36127 4.04057 7.12192 4.27993C6.88257 4.51928 6.76289 4.81719 6.76289 5.17368C6.76289 5.51997 6.88257 5.8128 7.12192 6.05215C7.36127 6.2915 7.65409 6.41118 8.00039 6.41118Z"/>
</svg>
