<svg width="16" height="16" viewBox="0 0 16 16" xmlns="http://www.w3.org/2000/svg">
<path d="M15.3344 6.78624C15.3344 9.80622 12.8532 12.239 9.77316 12.239C6.69308 12.239 4.21191 9.80622 4.21191 6.78624C4.21191 3.76626 6.69308 1.3335 9.77316 1.3335C12.8532 1.3335 15.3344 3.76626 15.3344 6.78624ZM9.77316 3.4307C7.89089 3.4307 6.35085 4.9407 6.35085 6.78624C6.35085 8.63178 7.89089 10.1418 9.77316 10.1418C11.6554 10.1418 13.1955 8.63178 13.1955 6.78624C13.1955 4.9407 11.6554 3.4307 9.77316 3.4307Z"/>
<path d="M5.32533 8.83782L0.666992 13.4053L2.48193 15.1848L7.14026 10.6173L5.32533 8.83782Z"/>
</svg>
