<svg width="24" height="24" viewBox="0 0 24 24" fill="none" xmlns="http://www.w3.org/2000/svg">
<path d="M20.1495 12.8181L19.0767 12.2044V11.7299L20.1495 11.1818C20.6526 10.8941 20.9855 10.3664 20.9855 9.76229C20.9855 9.46268 20.9036 9.18194 20.7608 8.94032L20.765 8.94815L19.1017 6.11728C18.8164 5.596 18.2657 5.24776 17.6323 5.24776C17.3351 5.24776 17.0561 5.32446 16.8147 5.45885L16.823 5.45455L15.7501 6.06006L15.3343 5.85557V4.63642C15.3343 3.73268 14.5895 3 13.6709 3H10.3444C9.42575 3 8.68101 3.73268 8.68101 4.63642V5.85557L8.26513 6.09289L7.1923 5.45471C6.95232 5.3148 6.66353 5.23226 6.35493 5.23226C5.74195 5.23226 5.20632 5.55856 4.91784 6.04426L4.91363 6.05193L3.25028 8.8828C3.09325 9.12794 3 9.42632 3 9.74603C3 10.362 3.34602 10.8984 3.85717 11.1776L3.86575 11.1819L4.93858 11.7956V12.2701L3.86575 12.8182C3.3627 13.1059 3.02978 13.6336 3.02978 14.2377C3.02978 14.5373 3.11165 14.8181 3.25449 15.0597L3.25028 15.0519L4.91363 17.8827C5.19883 18.404 5.7496 18.7522 6.383 18.7522C6.68021 18.7522 6.95918 18.6755 7.20057 18.5412L7.1923 18.5454L8.26513 17.9399L8.68101 18.1773V19.3636C8.68101 20.2673 9.42575 21 10.3444 21H13.6709C14.5895 21 15.3343 20.2673 15.3343 19.3636V18.1444L15.7501 17.9071L16.823 18.5126C17.063 18.6525 17.3518 18.7351 17.6603 18.7351C18.2733 18.7351 18.809 18.4088 19.0974 17.9231L19.1017 17.9154L20.765 15.0845C20.9127 14.8451 21 14.5554 21 14.2458C21 13.6359 20.6607 13.1039 20.1578 12.8224L20.1495 12.8181ZM18.6027 13.8244C18.8497 13.9692 19.0126 14.2307 19.0126 14.5296C19.0126 14.6797 18.9716 14.8202 18.9 14.9411L18.9022 14.9373L18.0706 16.3609C17.9234 16.6039 17.6577 16.7642 17.3538 16.7642C17.2013 16.7642 17.0584 16.7239 16.9356 16.6534L16.9395 16.6556L15.3344 15.7801L13.6711 16.7209V18.5454C13.6711 18.9972 13.2987 19.3636 12.8395 19.3636H11.1761C10.7167 19.3636 10.3445 18.9972 10.3445 18.5454V16.7209L8.68117 15.7801L7.07613 16.6883C6.95731 16.7567 6.81432 16.797 6.66181 16.797C6.35805 16.797 6.09234 16.6367 5.94716 16.3976L5.94498 16.3939L5.11338 14.9702C5.04383 14.8532 5.00282 14.7127 5.00282 14.5626C5.00282 14.2638 5.16578 14.0022 5.40888 13.8596L5.41262 13.8576L7.01766 12.9412V11.0594L5.41262 10.1431C5.16562 9.99824 5.00267 9.73683 5.00267 9.43783C5.00267 9.2878 5.04368 9.14727 5.11525 9.02639L5.11307 9.03022L5.94467 7.60658C6.09187 7.36358 6.35758 7.20327 6.6615 7.20327C6.814 7.20327 6.95684 7.24361 7.07972 7.31403L7.07582 7.31188L8.68085 8.22007L10.3442 7.27921V5.45471C10.3442 5.00291 10.7166 4.63657 11.1758 4.63657H12.8392C13.2984 4.63657 13.6708 5.00291 13.6708 5.45471V7.27921L15.3341 8.22007L16.9391 7.31188C17.0581 7.24346 17.201 7.20311 17.3535 7.20311C17.6572 7.20311 17.9231 7.36343 18.0681 7.60259L18.0701 7.60627L18.9017 9.02991C18.9713 9.14697 19.0123 9.28749 19.0123 9.43752C19.0123 9.73637 18.8494 9.99778 18.6062 10.1406L18.6025 10.1427L16.9975 11.0591V12.9409L18.6027 13.8244Z"/>
<path d="M8.68117 11.9999C8.68117 10.1925 10.1705 8.72724 12.0077 8.72724C13.8449 8.72724 15.3343 10.1925 15.3343 11.9999C15.3343 13.8074 13.8449 15.2726 12.0077 15.2726C10.1705 15.2726 8.68117 13.8074 8.68117 11.9999ZM12.0077 13.6363C12.9263 13.6363 13.6711 12.9037 13.6711 11.9999C13.6711 11.0962 12.9263 10.3635 12.0077 10.3635C11.0891 10.3635 10.3444 11.0962 10.3444 11.9999C10.3444 12.9037 11.0891 13.6363 12.0077 13.6363Z"/>
</svg>
