<svg viewBox="0 0 16 17" fill="none" xmlns="http://www.w3.org/2000/svg">
        <path d="M7.83556 13.6666C7.83131 13.6666 7.82631 13.6666 7.82131 13.6666C5.05994 13.6666 2.82131 11.428 2.82131 8.66663C2.82131 5.90525 5.05994 3.66662 7.82131 3.66662C9.03956 3.66662 10.1561 4.10237 11.0236 4.82637L11.0156 4.81987L9.83556 5.99987H14.5022L11.8356 1.99987L11.6089 3.59987C10.5688 2.81975 9.25644 2.35062 7.83444 2.35062C4.34031 2.35062 1.50781 5.18312 1.50781 8.67725C1.50781 12.1714 4.34031 15.0039 7.83444 15.0039C10.5973 15.0039 12.9464 13.2329 13.8088 10.7642L13.8223 10.7199L12.6023 10.1665C11.9468 12.2119 10.0621 13.6665 7.83756 13.6665C7.83694 13.6665 7.83619 13.6666 7.83556 13.6666Z"/>
</svg>
