<svg width="16" height="16" viewBox="0 0 16 16" fill="none" xmlns="http://www.w3.org/2000/svg">
<path d="M6.86312 2.65869C6.74845 2.65869 6.63163 2.70205 6.53629 2.79671L3.33317 5.99984H1.99984C1.26317 5.99984 0.666504 6.5965 0.666504 7.33317V8.6665C0.666504 9.40317 1.26317 9.99984 1.99984 9.99984H3.33317L6.53629 13.203C6.63163 13.2983 6.74845 13.341 6.86312 13.341C7.10312 13.341 7.33317 13.1549 7.33317 12.8735V3.12614C7.33317 2.84481 7.10312 2.65869 6.86312 2.65869ZM10.6261 4.02588C10.4932 4.02565 10.3633 4.06513 10.253 4.13927C10.1427 4.21341 10.0571 4.31882 10.0071 4.44197C9.95718 4.56512 9.94517 4.70039 9.97263 4.83041C10.0001 4.96044 10.0658 5.07929 10.1613 5.17171C11.7292 6.73965 11.7291 9.26073 10.1613 10.828C10.0973 10.8894 10.0462 10.963 10.011 11.0444C9.97585 11.1258 9.95726 11.2134 9.95635 11.3021C9.95545 11.3908 9.97225 11.4788 10.0058 11.5609C10.0393 11.643 10.0889 11.7176 10.1516 11.7804C10.2143 11.8431 10.2889 11.8927 10.371 11.9262C10.4532 11.9597 10.5411 11.9765 10.6298 11.9756C10.7185 11.9747 10.8062 11.9561 10.8876 11.9209C10.969 11.8857 11.0426 11.8347 11.104 11.7707C13.1815 9.6939 13.1814 6.3064 11.104 4.229C11.042 4.16491 10.9677 4.1139 10.8857 4.07901C10.8036 4.04412 10.7153 4.02605 10.6261 4.02588ZM8.74072 5.9126C8.6081 5.91263 8.4785 5.95222 8.36849 6.02629C8.25849 6.10037 8.17307 6.20557 8.12317 6.32844C8.07326 6.45132 8.06114 6.58628 8.08834 6.71609C8.11554 6.84589 8.18084 6.96463 8.27588 7.05713C8.8026 7.58386 8.8026 8.41582 8.27588 8.94254C8.21387 9.00444 8.16465 9.07794 8.13105 9.15886C8.09745 9.23977 8.08012 9.32651 8.08005 9.41413C8.07998 9.50174 8.09717 9.58851 8.13063 9.66948C8.1641 9.75045 8.21319 9.82404 8.2751 9.88603C8.33701 9.94803 8.41053 9.99722 8.49145 10.0308C8.57237 10.0644 8.65912 10.0817 8.74673 10.0817C8.83435 10.0818 8.92111 10.0646 9.00208 10.0311C9.08304 9.99759 9.15661 9.94848 9.21859 9.88656C10.2545 8.85062 10.2545 7.15036 9.21859 6.11442C9.15646 6.05056 9.08216 5.99979 9.00009 5.96513C8.91801 5.93047 8.82982 5.9126 8.74072 5.9126Z" />
</svg>
