<svg  viewBox="0 0 17 16"  xmlns="http://www.w3.org/2000/svg">
<path fill-rule="evenodd" clip-rule="evenodd" d="M3.19967 13.3332C2.96067 13.3332 2.74067 13.2055 2.62166 12.9985C2.503 12.7915 2.50366 12.5368 2.624 12.3305L7.95733 2.99717C8.07667 2.7925 8.296 2.6665 8.533 2.6665C8.77 2.6665 8.98933 2.7925 9.109 2.99717L14.4423 12.3305C14.5627 12.5368 14.5633 12.7915 14.4447 12.9985C14.326 13.2055 14.105 13.3332 13.8663 13.3332H3.19967ZM9.02633 9.99984H8.03533L7.895 5.99984H9.16633L9.02633 9.99984ZM7.914 11.1318C7.882 11.2088 7.86633 11.2908 7.86633 11.3805C7.86633 11.4702 7.882 11.5522 7.914 11.6268C7.945 11.7018 7.99 11.7665 8.04833 11.8228C8.10533 11.8782 8.17567 11.9215 8.25633 11.9535C8.33767 11.9845 8.42867 11.9998 8.531 11.9998C8.633 11.9998 8.725 11.9845 8.807 11.9538C8.89033 11.9218 8.96067 11.8785 9.01767 11.8232C9.07567 11.7668 9.12067 11.7022 9.152 11.6272C9.184 11.5525 9.19967 11.4705 9.19967 11.3805C9.19967 11.2908 9.184 11.2088 9.152 11.1318C9.121 11.0558 9.076 10.9898 9.01767 10.9345C8.96067 10.8785 8.89033 10.8348 8.807 10.8035C8.725 10.7728 8.633 10.7565 8.531 10.7565C8.429 10.7565 8.33767 10.7728 8.25633 10.8035C8.17567 10.8348 8.10533 10.8785 8.04833 10.9345C7.99033 10.9898 7.94533 11.0558 7.914 11.1318Z" />
</svg>
