<svg width="60" height="22" viewBox="0 0 60 22" fill="none" xmlns="http://www.w3.org/2000/svg">
<rect x="1.16406" y="1.05245" width="57" height="19.8947" rx="5" fill="#0168CA" stroke="#328EF2" stroke-width="2"/>
<rect width="20" height="17.8947" rx="4" transform="matrix(-1 0 0 1 22.1641 2.05245)" fill="#104F92"/>
<path fill-rule="evenodd" clip-rule="evenodd" d="M5.69511 7.48702L14.977 5.22535C15.2874 5.14996 15.5595 5.36606 15.5786 5.70782L16.0131 12.9653C16.0322 13.307 15.7935 13.6438 15.4879 13.7192L6.20122 15.9808C5.89087 16.0562 5.61874 15.8401 5.59964 15.5034L5.16513 8.24591C5.14603 7.90415 5.38476 7.56741 5.69511 7.49202V7.48702Z" fill="white"/>
<path opacity="0.5" d="M17.8135 11.211H17.2596C17.0352 11.211 16.849 11.015 16.849 10.7788C16.849 10.5426 17.0304 10.3466 17.2596 10.3466H17.7419L17.5604 8.18043C17.5318 7.84369 17.2453 7.56222 16.9254 7.56222H16.5434L16.8681 12.9098C16.9159 13.6838 16.3906 14.4276 15.6792 14.5985L9.79688 16.0309H17.6273C17.9472 16.0309 18.1907 15.7545 18.162 15.4178L17.8135 11.211Z" fill="white"/>
<path d="M30.9785 6.43359C32.084 6.43359 32.8906 6.67188 33.3984 7.14844C33.9062 7.62109 34.1602 8.27344 34.1602 9.10547C34.1602 9.48047 34.1035 9.83984 33.9902 10.1836C33.877 10.5234 33.6914 10.8262 33.4336 11.0918C33.1797 11.3574 32.8398 11.5684 32.4141 11.7246C31.9883 11.877 31.4629 11.9531 30.8379 11.9531H30.0586V15H28.2422V6.43359H30.9785ZM30.8848 7.92188H30.0586V10.4648H30.6562C30.9961 10.4648 31.291 10.4199 31.541 10.3301C31.791 10.2402 31.9844 10.0996 32.1211 9.9082C32.2578 9.7168 32.3262 9.4707 32.3262 9.16992C32.3262 8.74805 32.209 8.43555 31.9746 8.23242C31.7402 8.02539 31.377 7.92188 30.8848 7.92188ZM37.4238 15H35.6367V5.88281H37.4238V15ZM45.3164 8.44922V15H43.9453L43.7051 14.1621H43.6113C43.4707 14.3848 43.2949 14.5664 43.084 14.707C42.873 14.8477 42.6406 14.9512 42.3867 15.0176C42.1328 15.084 41.8691 15.1172 41.5957 15.1172C41.127 15.1172 40.7188 15.0352 40.3711 14.8711C40.0234 14.7031 39.752 14.4434 39.5566 14.0918C39.3652 13.7402 39.2695 13.2832 39.2695 12.7207V8.44922H41.0566V12.2754C41.0566 12.7441 41.1406 13.0977 41.3086 13.3359C41.4766 13.5742 41.7441 13.6934 42.1113 13.6934C42.4746 13.6934 42.7598 13.6113 42.9668 13.4473C43.1738 13.2793 43.3184 13.0352 43.4004 12.7148C43.4863 12.3906 43.5293 11.9961 43.5293 11.5312V8.44922H45.3164ZM51.7617 13.0547C51.7617 13.5 51.6562 13.877 51.4453 14.1855C51.2383 14.4902 50.9277 14.7227 50.5137 14.8828C50.0996 15.0391 49.584 15.1172 48.9668 15.1172C48.5098 15.1172 48.1172 15.0879 47.7891 15.0293C47.4648 14.9707 47.1367 14.873 46.8047 14.7363V13.2598C47.1602 13.4199 47.541 13.5527 47.9473 13.6582C48.3574 13.7598 48.7168 13.8105 49.0254 13.8105C49.373 13.8105 49.6211 13.7598 49.7695 13.6582C49.9219 13.5527 49.998 13.416 49.998 13.248C49.998 13.1387 49.9668 13.041 49.9043 12.9551C49.8457 12.8652 49.7168 12.7656 49.5176 12.6562C49.3184 12.543 49.0059 12.3965 48.5801 12.2168C48.1699 12.0449 47.832 11.8711 47.5664 11.6953C47.3047 11.5195 47.1094 11.3125 46.9805 11.0742C46.8555 10.832 46.793 10.5254 46.793 10.1543C46.793 9.54883 47.0273 9.09375 47.4961 8.78906C47.9688 8.48047 48.5996 8.32617 49.3887 8.32617C49.7949 8.32617 50.1816 8.36719 50.5488 8.44922C50.9199 8.53125 51.3008 8.66211 51.6914 8.8418L51.1523 10.1309C50.8281 9.99023 50.5215 9.875 50.2324 9.78516C49.9473 9.69531 49.6562 9.65039 49.3594 9.65039C49.0977 9.65039 48.9004 9.68555 48.7676 9.75586C48.6348 9.82617 48.5684 9.93359 48.5684 10.0781C48.5684 10.1836 48.6016 10.2773 48.668 10.3594C48.7383 10.4414 48.8711 10.5332 49.0664 10.6348C49.2656 10.7324 49.5566 10.8594 49.9395 11.0156C50.3105 11.168 50.6328 11.3281 50.9062 11.4961C51.1797 11.6602 51.3906 11.8652 51.5391 12.1113C51.6875 12.3535 51.7617 12.668 51.7617 13.0547Z" fill="white"/>
</svg>
