<svg width="840" height="612" viewBox="0 0 840 612" fill="none" xmlns="http://www.w3.org/2000/svg">
<g clip-path="url(#clip0_15255_4865)">
<path opacity="0.0294118" fill-rule="evenodd" clip-rule="evenodd" d="M406.174 145.982C418.554 96.8565 423.524 47.8803 420.541 0H418.791C421.782 47.7377 416.827 96.5706 404.481 145.558C395.612 180.752 397.37 208.38 406.208 229.881C415.052 251.388 430.937 266.668 450.148 277.238C488.518 298.355 540.247 300.741 576.148 296.484L575.943 294.753C540.21 298.989 488.905 296.581 450.99 275.713C432.054 265.294 416.485 250.286 407.824 229.22C399.159 208.148 397.37 180.918 406.174 145.982Z" fill="url(#paint0_linear_15255_4865)"/>
<path opacity="0.0588235" fill-rule="evenodd" clip-rule="evenodd" d="M412.129 157.43C428.256 104.86 435.641 51.9926 433.517 0H431.773C433.896 51.8215 426.536 104.517 410.461 156.921C399.828 191.586 400.189 219.271 407.931 241.222C415.676 263.177 430.771 279.298 449.418 290.897C486.669 314.068 538.208 319.255 574.276 316.954L574.164 315.217C538.268 317.509 487.153 312.317 450.34 289.419C431.957 277.985 417.164 262.152 409.576 240.644C401.989 219.13 401.575 191.839 412.129 157.43Z" fill="url(#paint1_linear_15255_4865)"/>
<path opacity="0.0882353" fill-rule="evenodd" clip-rule="evenodd" d="M417.294 169.351C437.651 113.328 447.744 56.3965 446.52 0H444.775C445.999 56.197 435.941 112.927 415.654 168.758C403.286 202.799 402.249 230.465 408.874 252.806C415.5 275.151 429.757 292.068 447.793 304.662C483.824 329.821 535.029 337.802 571.164 337.461L571.146 335.719C535.183 336.058 484.402 328.099 448.793 303.236C431.011 290.819 417.038 274.203 410.547 252.311C404.054 230.415 405.018 203.139 417.294 169.351Z" fill="url(#paint2_linear_15255_4865)"/>
<path opacity="0.117647" fill-rule="evenodd" clip-rule="evenodd" d="M421.663 181.701C446.758 122.266 459.869 61.1117 459.562 0H457.82C458.124 60.8835 445.058 121.808 420.055 181.025C405.984 214.35 403.554 241.922 409.043 264.59C414.531 287.264 427.917 304.933 445.292 318.486C480.002 345.566 530.733 356.313 566.836 357.935L566.913 356.194C530.982 354.582 480.672 343.877 446.367 317.116C429.233 303.749 416.117 286.399 410.738 264.182C405.359 241.962 407.699 214.776 421.663 181.701Z" fill="url(#paint3_linear_15255_4865)"/>
<path opacity="0.147059" fill-rule="evenodd" clip-rule="evenodd" d="M425.201 194.435C455.563 131.685 472.014 66.1627 472.632 0H470.888C470.269 65.9057 453.876 131.169 423.631 193.678C407.898 226.194 404.079 253.597 408.413 276.532C412.751 299.472 425.226 317.839 441.891 332.318C475.187 361.244 525.303 374.731 561.276 378.308L561.448 376.577C525.65 373.014 475.945 359.595 443.038 331.005C426.602 316.727 414.378 298.686 410.128 276.209C405.879 253.729 409.588 226.706 425.201 194.435Z" fill="url(#paint4_linear_15255_4865)"/>
<path opacity="0.176471" fill-rule="evenodd" clip-rule="evenodd" d="M427.894 207.507C464.066 141.598 484.194 71.5784 485.72 0H483.972C482.449 71.292 462.391 141.024 426.364 206.67C409.01 238.288 403.816 265.446 406.986 288.585C410.159 311.727 421.69 330.749 437.603 346.111C469.391 376.803 518.756 392.991 554.5 398.516L554.767 396.795C519.195 391.294 470.236 375.196 438.814 344.859C423.121 329.709 411.824 311.028 408.716 288.349C405.605 265.668 410.673 238.885 427.894 207.507Z" fill="url(#paint5_linear_15255_4865)"/>
<path opacity="0.205882" fill-rule="evenodd" clip-rule="evenodd" d="M429.721 220.873C472.255 152.026 496.403 77.3951 498.803 0H497.058C494.656 77.0792 470.595 151.394 428.236 219.959C409.312 250.592 402.752 277.433 404.751 300.711C406.752 323.994 417.306 343.613 432.421 359.816C462.616 392.19 511.097 411.035 546.511 418.491L546.87 416.789C511.627 409.366 463.546 390.633 433.697 358.63C418.789 342.648 408.45 323.38 406.49 300.562C404.529 277.744 410.94 251.273 429.721 220.873Z" fill="url(#paint6_linear_15255_4865)"/>
<path opacity="0.235294" fill-rule="evenodd" clip-rule="evenodd" d="M430.693 234.485C480.136 162.989 508.659 83.6512 511.889 0H510.144C506.912 83.3051 478.494 162.299 429.258 233.496C408.811 263.06 400.907 289.508 401.73 312.864C402.552 336.224 412.101 356.388 426.376 373.39C454.896 407.356 502.358 428.806 537.348 438.175L537.8 436.493C502.978 427.169 455.908 405.851 427.715 372.27C413.632 355.5 404.28 335.694 403.474 312.804C402.667 289.909 410.406 263.824 430.693 234.485Z" fill="url(#paint7_linear_15255_4865)"/>
<path opacity="0.264706" fill-rule="evenodd" clip-rule="evenodd" d="M430.773 248.295C487.666 174.511 520.925 90.3899 524.931 0H523.183C519.178 90.0135 486.041 173.763 429.392 247.233C407.48 275.649 398.253 301.631 397.894 324.999C397.537 348.372 406.054 369.026 419.452 386.776C446.217 422.245 492.532 446.24 526.999 457.497L527.543 455.84C493.24 444.64 447.307 420.795 420.845 385.729C407.63 368.217 399.289 347.932 399.638 325.027C399.99 302.119 409.033 276.49 430.773 248.295Z" fill="url(#paint8_linear_15255_4865)"/>
<path opacity="0.294118" fill-rule="evenodd" clip-rule="evenodd" d="M429.957 262.257C494.819 186.619 533.19 97.6595 537.906 0H536.161C531.442 97.2523 493.214 185.812 428.633 261.122C405.318 288.312 394.789 313.759 393.254 337.078C391.718 360.396 399.181 381.483 411.664 399.937C436.602 436.806 481.641 463.284 515.495 476.395L516.126 474.773C482.433 461.722 437.766 435.418 413.11 398.964C400.794 380.756 393.488 360.045 394.994 337.192C396.499 314.334 406.826 289.232 429.957 262.257Z" fill="url(#paint9_linear_15255_4865)"/>
<path opacity="0.323529" fill-rule="evenodd" clip-rule="evenodd" d="M428.244 276.318C501.566 199.336 545.423 105.509 550.799 0H549.052C543.678 105.07 499.983 198.471 426.98 275.119C402.324 301.004 390.526 325.845 387.814 349.049C385.105 372.253 391.493 393.715 403.026 412.821C426.07 450.994 469.71 479.878 502.854 494.807L503.572 493.22C470.585 478.36 427.307 449.666 404.522 411.923C393.141 393.071 386.892 371.991 389.549 349.25C392.206 326.509 403.782 302.002 428.244 276.318Z" fill="url(#paint10_linear_15255_4865)"/>
<path opacity="0.352941" fill-rule="evenodd" clip-rule="evenodd" d="M425.648 290.429C507.883 212.685 557.615 113.988 563.61 0.000152588H561.862C555.87 113.518 506.323 211.761 424.449 289.165C398.519 313.68 385.482 337.846 381.604 360.871C377.728 383.898 383.025 405.676 393.578 425.382C414.661 464.749 456.78 495.964 489.124 512.672L489.927 511.124C457.735 494.496 415.964 463.49 395.116 424.561C384.702 405.117 379.525 383.726 383.326 361.16C387.128 338.593 399.924 314.75 425.648 290.429Z" fill="url(#paint11_linear_15255_4865)"/>
<path opacity="0.382353" fill-rule="evenodd" clip-rule="evenodd" d="M422.128 304.547C513.678 226.69 569.684 123.149 576.282 0H574.535C567.939 122.647 512.143 225.708 420.997 303.224C393.865 326.296 379.627 349.723 374.592 372.507C369.557 395.292 373.75 417.329 383.291 437.578C402.36 478.037 442.847 511.49 474.303 529.932L475.185 528.43C443.876 510.077 403.726 476.848 384.872 436.836C375.452 416.854 371.362 395.21 376.297 372.882C381.23 350.554 395.213 327.437 422.128 304.547Z" fill="url(#paint12_linear_15255_4865)"/>
<path opacity="0.411765" fill-rule="evenodd" clip-rule="evenodd" d="M417.7 318.621C518.917 241.365 581.597 133.039 588.821 0.000152588H587.076C579.853 132.506 517.409 240.324 416.638 317.237C388.38 338.807 372.978 361.431 366.799 383.911C360.623 406.39 363.696 428.624 372.203 449.365C389.203 490.802 427.945 526.407 458.429 546.528L459.391 545.076C429.052 525.049 390.631 489.685 373.818 448.706C365.421 428.236 362.427 406.4 368.482 384.371C374.536 362.341 389.666 340.018 417.7 318.621Z" fill="url(#paint13_linear_15255_4865)"/>
<path opacity="0.441176" fill-rule="evenodd" clip-rule="evenodd" d="M412.384 332.6C523.546 256.719 593.313 143.704 601.247 0H599.5C591.571 143.139 522.065 255.619 411.399 331.162C382.089 351.169 365.566 372.927 358.26 395.041C350.957 417.155 352.904 439.525 360.354 460.697C375.237 502.999 412.13 540.657 441.555 562.406L442.594 561.008C413.304 539.359 376.72 501.957 361.999 460.12C354.646 439.222 352.759 417.255 359.918 395.586C367.074 373.917 383.311 352.445 412.384 332.6Z" fill="url(#paint14_linear_15255_4865)"/>
<path opacity="0.470588" fill-rule="evenodd" clip-rule="evenodd" d="M406.175 346.432C527.494 272.755 604.771 155.183 613.555 0H611.808C603.029 154.585 526.045 271.596 405.267 344.944C374.987 363.334 357.387 384.164 348.975 405.853C340.565 427.542 341.383 449.989 347.754 471.534C360.481 514.585 395.422 554.193 423.708 577.511L424.819 576.168C396.663 552.959 362.016 513.622 349.426 471.041C343.137 449.773 342.362 427.733 350.603 406.482C358.843 385.232 376.139 364.672 406.175 346.432Z" fill="url(#paint15_linear_15255_4865)"/>
<path opacity="0.5" fill-rule="evenodd" clip-rule="evenodd" d="M399.082 360.075C530.69 289.466 615.907 167.51 625.767 0H624.02C614.164 166.88 529.277 288.25 398.254 358.542C367.087 375.263 348.46 395.111 338.966 416.314C329.472 437.518 329.155 459.978 334.429 481.838C344.965 525.519 377.858 566.968 404.93 591.789L406.108 590.505C379.164 565.802 346.548 524.636 336.124 481.433C330.917 459.851 331.256 437.799 340.559 417.026C349.858 396.253 368.166 376.661 399.082 360.075Z" fill="url(#paint16_linear_15255_4865)"/>
<path opacity="0.529412" fill-rule="evenodd" clip-rule="evenodd" d="M391.095 373.479C533.055 306.843 626.644 180.714 637.891 0H636.144C624.905 180.051 531.677 305.565 390.353 371.902C358.383 386.911 338.779 405.721 328.228 426.382C317.676 447.041 316.226 469.454 320.391 491.57C328.709 535.764 359.465 578.942 385.245 605.196L386.492 603.977C360.828 577.84 330.334 534.963 322.106 491.249C317.993 469.414 319.444 447.412 329.78 427.173C340.117 406.935 359.387 388.361 391.095 373.479Z" fill="url(#paint17_linear_15255_4865)"/>
<path opacity="0.558824" fill-rule="evenodd" clip-rule="evenodd" d="M650.016 0H648.266C635.227 194.117 533.223 323.519 381.625 384.985C348.942 398.235 328.413 415.958 316.833 436.018C305.252 456.077 302.672 478.38 305.713 500.693C311.391 542.336 336.663 584.159 359.872 612H362.148C338.8 584.306 313.136 542.215 307.443 500.459C304.439 478.43 306.999 456.537 318.343 436.888C329.687 417.24 349.867 399.741 382.283 386.597C534.564 324.855 636.965 194.812 650.016 0Z" fill="url(#paint18_linear_15255_4865)"/>
<path opacity="0.588235" fill-rule="evenodd" clip-rule="evenodd" d="M662.138 0C646.766 209.816 535.106 343.474 372.604 399.382C339.573 410.747 318.538 427.126 306.219 446.131C293.899 465.135 290.239 486.858 292.126 509.02C295.26 545.827 313.692 583.724 332.952 612H330.846C311.718 583.671 293.52 545.941 290.387 509.169C288.477 486.722 292.176 464.588 304.754 445.185C317.331 425.778 338.728 409.194 372.036 397.735C533.805 342.081 645.031 209.089 660.388 0H662.138Z" fill="url(#paint19_linear_15255_4865)"/>
<path opacity="0.617647" fill-rule="evenodd" clip-rule="evenodd" d="M674.711 0.000152588C674.083 4.70315 673.52 9.45391 673.031 14.2522C650.832 231.503 530.969 363.705 362.107 411.789C328.544 421.345 306.714 436.56 293.453 454.868C280.193 473.178 275.44 494.673 276.207 516.906C277.341 549.785 290.54 584.184 305.989 612H303.997C288.655 584.164 275.597 549.86 274.462 516.966C273.687 494.446 278.5 472.544 292.04 453.848C305.58 435.149 327.786 419.75 361.626 410.112C529.763 362.237 649.165 230.661 671.294 14.0755C671.777 9.3375 672.331 4.64563 672.951 0.000152588H674.711Z" fill="url(#paint20_linear_15255_4865)"/>
<path opacity="0.647059" fill-rule="evenodd" clip-rule="evenodd" d="M690.241 0C686.654 14.0352 683.653 28.5876 681.34 43.6525C648.208 259.401 521.837 384.916 350.774 423.77C316.777 431.492 294.209 445.501 280.047 463.065C265.881 480.629 260.051 501.835 259.692 524.078C259.219 553.726 268.466 585.137 280.565 612H278.653C266.634 585.119 257.471 553.748 257.947 524.051C258.309 501.522 264.221 479.91 278.686 461.973C293.153 444.033 316.107 429.858 350.387 422.074C520.71 383.388 646.586 258.475 679.615 43.3886C681.913 28.4204 684.889 13.9559 688.441 0H690.241Z" fill="url(#paint21_linear_15255_4865)"/>
<path opacity="0.676471" fill-rule="evenodd" clip-rule="evenodd" d="M709.77 0.000152588C700.834 22.8472 693.389 47.3895 687.987 73.6303C644.013 287.287 511.48 405.773 338.687 435.289C304.349 441.155 281.106 453.92 266.075 470.688C251.043 487.458 244.151 508.318 242.672 530.514C240.877 557.457 247.065 586.301 256.29 612H254.435C245.266 586.274 239.13 557.425 240.931 530.398C242.429 507.918 249.422 486.654 264.774 469.528C280.129 452.397 303.766 439.488 338.393 433.572C510.433 404.186 642.438 286.277 686.277 73.28C691.649 47.181 699.037 22.7555 707.898 0.000152588H709.77Z" fill="url(#paint22_linear_15255_4865)"/>
<path opacity="0.705882" fill-rule="evenodd" clip-rule="evenodd" d="M734.251 0C717.336 30.7421 702.944 65.4024 692.914 104.092C638.219 315.071 499.886 426.203 325.839 446.3C291.252 450.293 267.398 461.779 251.543 477.708C235.687 493.638 227.751 514.095 225.154 536.179C222.252 560.856 226.025 587.51 232.816 612H231.006C224.247 587.463 220.507 560.764 223.421 535.975C226.052 513.607 234.108 492.755 250.304 476.482C266.503 460.207 290.761 448.596 325.64 444.568C498.926 424.561 636.699 313.981 691.227 103.656C701.202 65.1693 715.479 30.6535 732.259 0H734.251Z" fill="url(#paint23_linear_15255_4865)"/>
<path opacity="0.735294" fill-rule="evenodd" clip-rule="evenodd" d="M765.333 0.000152588C737.495 37.0947 712.769 81.8866 696.099 134.944C663.471 238.781 611.229 316.588 545.258 369.765C479.289 422.942 399.636 451.452 312.254 456.761C277.512 458.873 253.112 469.048 236.476 484.095C219.839 499.141 210.882 519.138 207.174 541.05C203.317 563.841 205.149 588.657 209.892 612H208.112C203.386 588.585 201.574 563.687 205.453 540.762C209.209 518.566 218.308 498.175 235.305 482.803C252.302 467.431 277.113 457.154 312.149 455.024C399.207 449.733 478.504 421.337 544.163 368.412C609.823 315.484 661.893 237.986 694.434 134.423C711.012 81.6595 735.526 37.0367 763.154 0.000152588H765.333Z" fill="url(#paint24_linear_15255_4865)"/>
<path opacity="0.764706" fill-rule="evenodd" clip-rule="evenodd" d="M806.061 0.000152588C764.014 40.7505 723.746 95.418 697.52 166.089C659.697 268.014 603.599 342.879 535.036 392.404C466.47 441.929 385.486 466.075 297.956 466.635C263.157 466.859 238.277 475.696 220.906 489.816C203.533 503.94 193.58 523.422 188.771 545.103C184.059 566.349 184.299 589.662 187.319 612H185.558C182.545 589.565 182.321 566.13 187.068 544.727C191.938 522.765 202.054 502.895 219.804 488.466C237.555 474.036 262.853 465.118 297.946 464.894C385.152 464.336 465.772 440.284 534.011 390.993C602.253 341.702 658.162 267.138 695.884 165.484C721.942 95.2648 761.808 40.7806 803.561 0.000152588H806.061Z" fill="url(#paint25_linear_15255_4865)"/>
<path opacity="0.794118" fill-rule="evenodd" clip-rule="evenodd" d="M840.012 16.3767C787.346 55.8833 732.796 114.664 697.18 197.434C654.265 297.166 594.465 368.887 523.494 414.623C452.523 460.358 370.432 480.077 282.995 475.887C248.229 474.22 222.939 481.694 204.88 494.852C186.82 508.012 175.897 526.924 170.001 548.315C164.483 568.332 163.38 590.478 164.936 612H163.187C161.632 590.349 162.751 568.05 168.318 547.852C174.291 526.186 185.395 506.893 203.851 493.446C222.308 479.997 248.021 472.466 283.077 474.146C370.193 478.323 451.915 458.677 522.549 413.16C593.182 367.64 652.777 296.213 695.577 196.747C731.562 113.117 786.803 53.8759 840.012 14.2007V16.3767Z" fill="url(#paint26_linear_15255_4865)"/>
<path opacity="0.823529" fill-rule="evenodd" clip-rule="evenodd" d="M840.016 60.4894C787.505 97.097 733.154 151.515 695.06 228.883C647.172 326.151 583.833 394.526 510.651 436.349C437.469 478.171 354.493 493.406 267.388 484.475C232.754 480.925 207.121 487.018 188.424 499.176C169.726 511.336 157.864 529.631 150.897 550.671C144.577 569.755 142.298 591.06 142.59 612H140.845C140.553 590.903 142.854 569.411 149.24 550.123C156.298 528.81 168.362 510.144 187.472 497.718C206.583 485.289 232.642 479.164 267.565 482.744C354.351 491.642 436.953 476.459 509.784 434.838C582.617 393.215 645.734 325.121 693.494 228.115C731.972 149.963 786.976 95.1314 840.016 58.3671V60.4894Z" fill="url(#paint27_linear_15255_4865)"/>
<path opacity="0.852941" fill-rule="evenodd" clip-rule="evenodd" d="M840.014 102.81C787.059 136.541 731.971 187.173 691.157 260.339C638.424 354.873 571.72 419.72 496.526 457.512C421.333 495.307 337.704 506.017 251.167 492.371C216.76 486.946 190.856 491.638 171.572 502.765C152.287 513.893 139.518 531.517 131.499 552.151C124.335 570.583 120.975 591.381 120.144 612H118.398C119.231 591.194 122.62 570.178 129.872 551.521C137.996 530.619 150.986 512.632 170.698 501.258C190.412 489.881 216.744 485.179 251.438 490.65C337.657 504.248 420.909 493.568 495.741 455.957C570.576 418.347 637.041 353.773 689.634 259.493C730.844 185.613 786.551 134.615 840.014 100.746V102.81Z" fill="url(#paint28_linear_15255_4865)"/>
<path opacity="0.882353" fill-rule="evenodd" clip-rule="evenodd" d="M840.015 143.649C786.05 174.489 729.374 221.75 685.487 291.705C628.056 383.249 558.171 444.387 481.173 478.047C404.172 511.707 320.115 517.864 234.387 499.539C200.301 492.255 174.196 495.533 154.378 505.599C134.559 515.665 120.92 532.569 111.871 552.738C103.772 570.79 99.366 591.418 97.502 612H95.75C97.6209 591.202 102.068 570.324 110.278 552.027C119.446 531.594 133.326 514.336 153.587 504.047C173.848 493.757 200.382 490.491 234.752 497.837C320.165 516.095 403.846 509.948 480.473 476.452C557.099 442.954 626.732 382.077 684.009 290.78C728.3 220.182 785.564 172.6 840.015 141.644V143.649Z" fill="url(#paint29_linear_15255_4865)"/>
<path opacity="0.911765" fill-rule="evenodd" clip-rule="evenodd" d="M840.009 183.329C784.509 211.192 725.45 255.336 678.041 322.885C616.068 411.187 543.192 468.449 464.599 497.884C386.005 527.32 301.753 528.907 217.068 505.955C183.396 496.827 157.162 498.688 136.864 507.662C116.565 516.638 102.092 532.778 92.0376 552.427C82.8669 570.349 77.3917 591.155 74.5344 612H72.7734C75.6441 590.911 81.1762 569.824 90.4837 551.636C100.67 531.729 115.404 515.247 136.157 506.069C156.911 496.892 183.574 495.071 217.526 504.273C301.9 527.141 385.773 525.546 463.986 496.252C542.198 466.961 614.807 409.948 676.61 321.885C724.428 253.756 784.048 209.337 840.009 181.38V183.329Z" fill="url(#paint30_linear_15255_4865)"/>
<path opacity="0.941176" fill-rule="evenodd" clip-rule="evenodd" d="M840.016 222.174C782.517 246.879 720.303 287.986 668.841 353.778C602.493 438.598 526.828 491.827 446.856 516.956C366.884 542.088 282.668 539.1 199.258 511.58C166.092 500.638 139.8 501.071 119.078 508.933C98.3553 516.794 83.0882 532.127 72.0563 551.203C61.6276 569.237 55.0068 590.575 51.1553 612H49.3828C53.256 590.306 59.9501 568.653 70.5451 550.332C81.7231 531.005 97.2685 515.344 118.458 507.306C139.647 499.268 166.366 498.894 199.806 509.928C282.912 537.346 366.752 540.304 446.333 515.297C525.916 490.289 601.302 437.294 667.465 352.709C719.335 286.396 782.081 245.054 840.016 220.278V222.174Z" fill="url(#paint31_linear_15255_4865)"/>
<path opacity="0.970588" fill-rule="evenodd" clip-rule="evenodd" d="M840.019 260.53C780.143 281.791 714.037 319.77 657.914 384.299C587.379 465.401 509.129 514.451 427.998 535.207C346.865 555.962 262.914 548.407 181.009 516.401C148.44 503.674 122.161 502.678 101.072 509.405C79.9821 516.13 63.963 530.612 51.9839 549.064C40.0614 567.426 32.1687 589.679 27.2857 612H25.5C30.4136 589.386 38.3979 566.787 50.5198 548.116C62.6584 529.42 78.9736 514.622 100.541 507.746C122.108 500.867 148.808 501.947 181.645 514.779C263.253 546.67 346.83 554.174 427.564 533.52C508.299 512.866 586.255 464.038 656.598 383.159C713.122 318.165 779.734 279.993 840.019 258.684V260.53Z" fill="url(#paint32_linear_15255_4865)"/>
<path fill-rule="evenodd" clip-rule="evenodd" d="M840.022 298.716C777.478 316.125 706.718 350.696 645.236 414.349C570.703 491.511 490.083 536.246 408.017 552.571C325.949 568.894 242.495 556.793 162.316 520.387C130.433 505.908 104.241 503.489 82.8414 509.06C61.4423 514.63 44.7156 528.223 31.8222 545.996C18.1177 564.891 8.77864 588.463 2.79964 612H1C7.01806 588.149 16.4684 564.194 30.4089 544.976C43.4751 526.964 60.5156 513.072 82.4012 507.375C104.286 501.676 130.895 504.203 163.039 518.799C242.928 555.076 326.009 567.108 407.676 550.862C489.34 534.619 569.654 490.09 643.98 413.14C705.858 349.076 777.094 314.349 840.022 296.91V298.716Z" fill="url(#paint33_linear_15255_4865)"/>
</g>
<defs>
<linearGradient id="paint0_linear_15255_4865" x1="561.903" y1="2.23902e-05" x2="373.865" y2="119.298" gradientUnits="userSpaceOnUse">
<stop stop-color="#EAEBED"/>
<stop offset="1" stop-color="#EAEBED" stop-opacity="0.4"/>
</linearGradient>
<linearGradient id="paint1_linear_15255_4865" x1="560.472" y1="1.96683e-05" x2="368.852" y2="110.667" gradientUnits="userSpaceOnUse">
<stop stop-color="#EAEBED"/>
<stop offset="1" stop-color="#EAEBED" stop-opacity="0.4"/>
</linearGradient>
<linearGradient id="paint2_linear_15255_4865" x1="557.813" y1="1.56491e-05" x2="364.156" y2="101.744" gradientUnits="userSpaceOnUse">
<stop stop-color="#EAEBED"/>
<stop offset="1" stop-color="#EAEBED" stop-opacity="0.4"/>
</linearGradient>
<linearGradient id="paint3_linear_15255_4865" x1="554.024" y1="2.25417e-05" x2="359.853" y2="92.8603" gradientUnits="userSpaceOnUse">
<stop stop-color="#EAEBED"/>
<stop offset="1" stop-color="#EAEBED" stop-opacity="0.4"/>
</linearGradient>
<linearGradient id="paint4_linear_15255_4865" x1="549.032" y1="2.09855e-05" x2="355.893" y2="84.1884" gradientUnits="userSpaceOnUse">
<stop stop-color="#EAEBED"/>
<stop offset="1" stop-color="#EAEBED" stop-opacity="0.4"/>
</linearGradient>
<linearGradient id="paint5_linear_15255_4865" x1="542.837" y1="2.1655e-05" x2="352.127" y2="75.8321" gradientUnits="userSpaceOnUse">
<stop stop-color="#EAEBED"/>
<stop offset="1" stop-color="#EAEBED" stop-opacity="0.4"/>
</linearGradient>
<linearGradient id="paint6_linear_15255_4865" x1="535.437" y1="2.33158e-05" x2="348.404" y2="67.8694" gradientUnits="userSpaceOnUse">
<stop stop-color="#EAEBED"/>
<stop offset="1" stop-color="#EAEBED" stop-opacity="0.4"/>
</linearGradient>
<linearGradient id="paint7_linear_15255_4865" x1="526.875" y1="3.07234e-05" x2="344.616" y2="60.3575" gradientUnits="userSpaceOnUse">
<stop stop-color="#EAEBED"/>
<stop offset="1" stop-color="#EAEBED" stop-opacity="0.4"/>
</linearGradient>
<linearGradient id="paint8_linear_15255_4865" x1="517.136" y1="2.6158e-05" x2="340.611" y2="53.3292" gradientUnits="userSpaceOnUse">
<stop stop-color="#EAEBED"/>
<stop offset="1" stop-color="#EAEBED" stop-opacity="0.4"/>
</linearGradient>
<linearGradient id="paint9_linear_15255_4865" x1="526.28" y1="3.42677e-05" x2="331.531" y2="63.121" gradientUnits="userSpaceOnUse">
<stop stop-color="#EAEBED"/>
<stop offset="1" stop-color="#EAEBED" stop-opacity="0.4"/>
</linearGradient>
<linearGradient id="paint10_linear_15255_4865" x1="537.668" y1="2.55065e-05" x2="321.461" y2="76.2034" gradientUnits="userSpaceOnUse">
<stop stop-color="#EAEBED"/>
<stop offset="1" stop-color="#EAEBED" stop-opacity="0.4"/>
</linearGradient>
<linearGradient id="paint11_linear_15255_4865" x1="548.899" y1="0.000182894" x2="311.137" y2="90.604" gradientUnits="userSpaceOnUse">
<stop stop-color="#EAEBED"/>
<stop offset="1" stop-color="#EAEBED" stop-opacity="0.4"/>
</linearGradient>
<linearGradient id="paint12_linear_15255_4865" x1="559.921" y1="3.68255e-05" x2="300.666" y2="106.3" gradientUnits="userSpaceOnUse">
<stop stop-color="#EAEBED"/>
<stop offset="1" stop-color="#EAEBED" stop-opacity="0.4"/>
</linearGradient>
<linearGradient id="paint13_linear_15255_4865" x1="570.742" y1="0.000170579" x2="290.207" y2="123.262" gradientUnits="userSpaceOnUse">
<stop stop-color="#EAEBED"/>
<stop offset="1" stop-color="#EAEBED" stop-opacity="0.4"/>
</linearGradient>
<linearGradient id="paint14_linear_15255_4865" x1="581.376" y1="3.39249e-05" x2="279.93" y2="141.453" gradientUnits="userSpaceOnUse">
<stop stop-color="#EAEBED"/>
<stop offset="1" stop-color="#EAEBED" stop-opacity="0.4"/>
</linearGradient>
<linearGradient id="paint15_linear_15255_4865" x1="591.827" y1="2.73705e-05" x2="269.967" y2="160.839" gradientUnits="userSpaceOnUse">
<stop stop-color="#EAEBED"/>
<stop offset="1" stop-color="#EAEBED" stop-opacity="0.4"/>
</linearGradient>
<linearGradient id="paint16_linear_15255_4865" x1="602.108" y1="4.47316e-05" x2="260.486" y2="181.381" gradientUnits="userSpaceOnUse">
<stop stop-color="#EAEBED"/>
<stop offset="1" stop-color="#EAEBED" stop-opacity="0.4"/>
</linearGradient>
<linearGradient id="paint17_linear_15255_4865" x1="612.235" y1="4.40603e-05" x2="251.627" y2="203.039" gradientUnits="userSpaceOnUse">
<stop stop-color="#EAEBED"/>
<stop offset="0.925" stop-color="#EAEBED" stop-opacity="0.445"/>
<stop offset="1" stop-color="#EAEBED" stop-opacity="0.4"/>
</linearGradient>
<linearGradient id="paint18_linear_15255_4865" x1="622.286" y1="2.99867e-05" x2="245.459" y2="226.752" gradientUnits="userSpaceOnUse">
<stop stop-color="#EAEBED"/>
<stop offset="1" stop-color="#EAEBED" stop-opacity="0.4"/>
</linearGradient>
<linearGradient id="paint19_linear_15255_4865" x1="632.264" y1="3.95753e-05" x2="242.907" y2="252.432" gradientUnits="userSpaceOnUse">
<stop stop-color="#EAEBED"/>
<stop offset="1" stop-color="#EAEBED" stop-opacity="0.4"/>
</linearGradient>
<linearGradient id="paint20_linear_15255_4865" x1="642.582" y1="0.000184086" x2="242.387" y2="279.048" gradientUnits="userSpaceOnUse">
<stop stop-color="#EAEBED"/>
<stop offset="1" stop-color="#EAEBED" stop-opacity="0.4"/>
</linearGradient>
<linearGradient id="paint21_linear_15255_4865" x1="655.544" y1="5.60204e-05" x2="245.659" y2="308.639" gradientUnits="userSpaceOnUse">
<stop stop-color="#EAEBED"/>
<stop offset="1" stop-color="#EAEBED" stop-opacity="0.4"/>
</linearGradient>
<linearGradient id="paint22_linear_15255_4865" x1="672.117" y1="0.000207268" x2="254.172" y2="341.525" gradientUnits="userSpaceOnUse">
<stop stop-color="#EAEBED"/>
<stop offset="1" stop-color="#EAEBED" stop-opacity="0.4"/>
</linearGradient>
<linearGradient id="paint23_linear_15255_4865" x1="693.171" y1="1.75537e-05" x2="269.476" y2="377.72" gradientUnits="userSpaceOnUse">
<stop stop-color="#EAEBED"/>
<stop offset="1" stop-color="#EAEBED" stop-opacity="0.4"/>
</linearGradient>
<linearGradient id="paint24_linear_15255_4865" x1="720.227" y1="0.000192867" x2="293.834" y2="417.381" gradientUnits="userSpaceOnUse">
<stop stop-color="#EAEBED"/>
<stop offset="1" stop-color="#EAEBED" stop-opacity="0.4"/>
</linearGradient>
<linearGradient id="paint25_linear_15255_4865" x1="756.085" y1="0.000196525" x2="330.995" y2="461.039" gradientUnits="userSpaceOnUse">
<stop stop-color="#EAEBED"/>
<stop offset="1" stop-color="#EAEBED" stop-opacity="0.4"/>
</linearGradient>
<linearGradient id="paint26_linear_15255_4865" x1="785.639" y1="14.2007" x2="376.372" y2="508.602" gradientUnits="userSpaceOnUse">
<stop stop-color="#EAEBED"/>
<stop offset="1" stop-color="#EAEBED" stop-opacity="0.4"/>
</linearGradient>
<linearGradient id="paint27_linear_15255_4865" x1="783.898" y1="58.3671" x2="414.526" y2="555.626" gradientUnits="userSpaceOnUse">
<stop stop-color="#EAEBED"/>
<stop offset="1" stop-color="#EAEBED" stop-opacity="0.4"/>
</linearGradient>
<linearGradient id="paint28_linear_15255_4865" x1="782.096" y1="100.746" x2="453.604" y2="594.985" gradientUnits="userSpaceOnUse">
<stop stop-color="#EAEBED"/>
<stop offset="1" stop-color="#EAEBED" stop-opacity="0.4"/>
</linearGradient>
<linearGradient id="paint29_linear_15255_4865" x1="780.28" y1="141.644" x2="492.698" y2="626.712" gradientUnits="userSpaceOnUse">
<stop stop-color="#EAEBED"/>
<stop offset="1" stop-color="#EAEBED" stop-opacity="0.4"/>
</linearGradient>
<linearGradient id="paint30_linear_15255_4865" x1="778.43" y1="181.38" x2="531.01" y2="651.289" gradientUnits="userSpaceOnUse">
<stop stop-color="#EAEBED"/>
<stop offset="1" stop-color="#EAEBED" stop-opacity="0.4"/>
</linearGradient>
<linearGradient id="paint31_linear_15255_4865" x1="776.56" y1="220.278" x2="567.877" y2="669.252" gradientUnits="userSpaceOnUse">
<stop stop-color="#EAEBED"/>
<stop offset="1" stop-color="#EAEBED" stop-opacity="0.4"/>
</linearGradient>
<linearGradient id="paint32_linear_15255_4865" x1="774.646" y1="258.684" x2="602.726" y2="681.165" gradientUnits="userSpaceOnUse">
<stop stop-color="#EAEBED"/>
<stop offset="1" stop-color="#EAEBED" stop-opacity="0.4"/>
</linearGradient>
<linearGradient id="paint33_linear_15255_4865" x1="772.682" y1="296.91" x2="635.044" y2="687.581" gradientUnits="userSpaceOnUse">
<stop stop-color="#EAEBED"/>
<stop offset="1" stop-color="#EAEBED" stop-opacity="0.4"/>
</linearGradient>
<clipPath id="clip0_15255_4865">
<rect width="840" height="612" fill="white"/>
</clipPath>
</defs>
</svg>
