<svg width="36" height="36" viewBox="0 0 36 36" fill="none" xmlns="http://www.w3.org/2000/svg">
<g clip-path="url(#clip0_15532_33789)">
<path d="M24.375 33C23.0415 33 22.1243 32.5672 21.315 32.1855C20.535 31.818 19.8608 31.5 18.75 31.5C17.6392 31.5 16.965 31.818 16.185 32.1855C15.3757 32.5672 14.4585 33 13.125 33C9.8805 33 4.5 25.5532 4.5 17.625C4.5 12.3675 8.124 8.24999 12.75 8.24999C14.2703 8.24999 15.1943 8.68574 16.0095 9.06974C16.7835 9.43499 17.4525 9.74999 18.75 9.74999C20.0475 9.74999 20.7165 9.43499 21.4905 9.06974C22.3057 8.68574 23.2297 8.24999 24.75 8.24999C26.748 8.24999 28.5247 8.98649 30.0315 10.4407C30.285 10.6852 30.4095 11.0355 30.3667 11.3857C30.324 11.736 30.12 12.0457 29.8155 12.2227C28.0785 13.233 27 15.3742 27 17.8125C27 20.5582 28.503 22.9192 30.7395 23.6857C31.0327 23.7862 31.2713 24.003 31.3988 24.285C31.527 24.5662 31.5338 24.8887 31.416 25.176C29.5958 29.6362 26.568 33 24.375 33ZM19.125 7.49999C18.8565 7.49999 18.594 7.40399 18.387 7.22399C18.1148 6.98699 17.9715 6.63299 18.0045 6.27224C18.0135 6.17999 18.2318 3.98849 19.9493 2.23574C21.5648 0.585742 23.1375 0.0952421 23.3107 0.0442421C23.6775 -0.0622579 24.0735 0.0247421 24.3615 0.275242C24.6502 0.524992 24.792 0.904492 24.7388 1.28324C24.7133 1.46399 24.447 3.11024 23.0648 4.95749C21.585 6.93449 19.4715 7.44899 19.3822 7.46999C19.2968 7.49024 19.2105 7.49999 19.125 7.49999Z" fill="white"/>
</g>
<defs>
<clipPath id="clip0_15532_33789">
<rect width="36" height="36" fill="white"/>
</clipPath>
</defs>
</svg>
