<svg width="20" height="20" viewBox="0 0 20 20" fill="none" xmlns="http://www.w3.org/2000/svg">
<path d="M0 4.21875C0 1.8888 1.8888 0 4.21875 0H15.7812C18.1112 0 20 1.8888 20 4.21875V15.7812C20 18.1112 18.1112 20 15.7812 20H4.21875C1.8888 20 0 18.1112 0 15.7812V4.21875Z" fill="white"/>
<path d="M0 4.21875C0 1.8888 1.8888 0 4.21875 0H15.7812C18.1112 0 20 1.8888 20 4.21875V15.7812C20 18.1112 18.1112 20 15.7812 20H4.21875C1.8888 20 0 18.1112 0 15.7812V4.21875Z" fill="url(#paint0_linear_16237_287)"/>
<path fill-rule="evenodd" clip-rule="evenodd" d="M4.1295 6.55699L13.4936 4.38938C13.8067 4.31713 14.0812 4.52423 14.1005 4.85178L14.5388 11.8074C14.5581 12.1349 14.3173 12.4577 14.009 12.5299L4.64009 14.6975C4.32699 14.7698 4.05245 14.5627 4.03318 14.2399L3.59483 7.28431C3.57556 6.95676 3.8164 6.63403 4.1295 6.56178V6.55699Z" fill="url(#paint1_linear_16237_287)"/>
<path opacity="0.3" d="M16.3551 10.1261H15.7964C15.57 10.1261 15.3822 9.93825 15.3822 9.71186C15.3822 9.48546 15.5652 9.29761 15.7964 9.29761H16.2829L16.0999 7.22153C16.071 6.89879 15.7819 6.62903 15.4592 6.62903H15.0739L15.4014 11.7542C15.4496 12.496 14.9197 13.2089 14.202 13.3727L8.26758 14.7455H16.1673C16.49 14.7455 16.7357 14.4806 16.7068 14.1579L16.3551 10.1261Z" fill="url(#paint2_linear_16237_287)"/>
<defs>
<linearGradient id="paint0_linear_16237_287" x1="0" y1="0" x2="20" y2="20" gradientUnits="userSpaceOnUse">
<stop stop-color="white" stop-opacity="0"/>
<stop offset="1" stop-color="#3C4355" stop-opacity="0.4"/>
</linearGradient>
<linearGradient id="paint1_linear_16237_287" x1="9.06684" y1="4.375" x2="11.1719" y2="14.6875" gradientUnits="userSpaceOnUse">
<stop stop-color="#606981"/>
<stop offset="1" stop-color="#3C4355"/>
</linearGradient>
<linearGradient id="paint2_linear_16237_287" x1="12.4883" y1="6.62903" x2="14.1688" y2="14.7145" gradientUnits="userSpaceOnUse">
<stop stop-color="#606981"/>
<stop offset="1" stop-color="#3C4355"/>
</linearGradient>
</defs>
</svg>
