<svg width="1052" height="565" viewBox="0 0 1052 565" fill="none" xmlns="http://www.w3.org/2000/svg">
<path opacity="0.0294118" d="M832.093 152.463C734.134 163.535 550.299 139.959 598.636 -42.9292C659.057 -271.539 590.243 -497.621 357.684 -664.999C171.637 -798.901 119.966 -1001.4 117.386 -1085.91" stroke="#EAEBED"/>
<path opacity="0.0588235" d="M829.579 179.15C731.167 185.138 548.832 152.08 606.783 -28.0563C679.221 -253.226 622.466 -482.559 399.085 -661.743C220.38 -805.09 179.497 -1009.99 181.393 -1094.52" stroke="#EAEBED"/>
<path opacity="0.0882353" d="M825.388 205.885C726.795 206.772 546.459 164.323 613.864 -12.5672C698.12 -233.68 653.581 -465.635 439.99 -656.134C269.116 -808.533 239.134 -1015.26 245.501 -1099.58" stroke="#EAEBED"/>
<path opacity="0.117647" d="M819.522 232.581C721.017 228.364 543.175 176.64 619.85 3.48127C715.693 -212.968 683.492 -446.91 480.275 -648.202C317.702 -809.235 298.702 -1017.24 309.524 -1101.11" stroke="#EAEBED"/>
<path opacity="0.147059" d="M811.985 259.152C713.838 249.843 538.978 188.986 624.712 20.0322C731.879 -191.16 712.104 -426.449 519.819 -637.981C365.992 -807.208 358.027 -1015.91 373.272 -1099.1" stroke="#EAEBED"/>
<path opacity="0.176471" d="M802.785 285.51C705.265 271.134 533.865 201.312 628.424 37.0263C746.622 -168.33 739.327 -404.32 558.502 -625.514C413.841 -802.469 416.932 -1011.29 436.56 -1093.59" stroke="#EAEBED"/>
<path opacity="0.205882" d="M791.936 311.571C695.311 292.168 527.841 213.57 630.965 54.404C759.87 -144.554 765.075 -380.598 596.205 -610.847C461.108 -795.046 475.247 -1003.42 499.204 -1084.59" stroke="#EAEBED"/>
<path opacity="0.235294" d="M779.456 337.248C683.99 312.871 520.91 225.715 632.317 72.1034C771.575 -119.911 789.265 -355.362 632.813 -594.035C507.65 -784.973 532.799 -992.334 561.018 -1072.15" stroke="#EAEBED"/>
<path opacity="0.264706" d="M765.368 362.46C671.323 333.176 513.079 237.699 632.463 90.0633C781.694 -94.4808 811.821 -328.694 668.215 -575.136C553.33 -772.29 589.419 -978.065 621.824 -1056.31" stroke="#EAEBED"/>
<path opacity="0.294118" d="M749.698 387.121C657.332 353.01 504.358 249.475 631.393 108.22C790.186 -68.3479 832.668 -300.681 702.302 -554.217C598.009 -757.047 644.939 -960.672 681.441 -1037.13" stroke="#EAEBED"/>
<path opacity="0.323529" d="M732.478 411.153C642.043 372.309 494.759 260.998 629.095 126.512C797.016 -41.5966 851.736 -271.412 734.968 -531.348C641.552 -739.297 699.195 -940.215 739.694 -1014.68" stroke="#EAEBED"/>
<path opacity="0.352941" d="M713.743 434.475C625.488 391.004 484.297 272.224 625.567 144.874C802.155 -14.3142 868.964 -240.983 766.112 -506.606C683.831 -719.104 752.029 -916.763 796.413 -989.03" stroke="#EAEBED"/>
<path opacity="0.382353" d="M693.532 457.01C607.699 409.031 472.988 283.107 620.805 163.242C805.576 13.4115 884.29 -209.489 795.638 -480.071C724.716 -696.536 803.282 -890.395 851.43 -960.266" stroke="#EAEBED"/>
<path opacity="0.411765" d="M671.89 478.683C588.715 426.327 460.853 293.604 614.811 181.553C807.259 41.4903 897.662 -177.031 823.452 -451.83C764.085 -671.669 852.803 -861.196 904.583 -928.48" stroke="#EAEBED"/>
<path opacity="0.441176" d="M648.865 499.42C568.574 442.832 447.912 303.673 607.589 199.744C807.186 69.8325 909.031 -143.711 849.468 -421.974C801.816 -644.584 900.444 -829.26 955.714 -893.772" stroke="#EAEBED"/>
<path opacity="0.470588" d="M624.506 519.151C547.321 458.485 434.189 313.273 599.148 217.75C805.347 98.346 918.355 -109.634 873.6 -390.598C837.796 -615.369 946.063 -794.688 1004.67 -856.251" stroke="#EAEBED"/>
<path opacity="0.5" d="M598.871 537.81C525.002 473.232 419.711 322.364 589.499 235.509C801.736 126.94 925.596 -74.9067 895.773 -357.802C871.914 -584.118 989.523 -757.588 1051.31 -816.033" stroke="#EAEBED"/>
<path opacity="0.529412" d="M572.016 555.33C501.666 487.019 404.504 330.908 578.657 252.959C796.348 155.523 930.722 -39.6374 915.912 -323.688C904.064 -550.929 1030.69 -718.074 1095.49 -773.242" stroke="#EAEBED"/>
<path opacity="0.558824" d="M544.004 571.651C477.366 499.793 388.6 338.868 566.64 270.038C789.19 184.001 933.708 -3.93707 933.952 -288.365C934.148 -515.907 1069.45 -676.271 1137.08 -728.009" stroke="#EAEBED"/>
<path opacity="0.588235" d="M514.9 586.715C452.157 511.506 372.029 346.208 553.468 286.687C780.267 212.285 934.534 32.0837 949.831 -251.942C962.07 -479.162 1105.67 -632.303 1175.95 -680.472" stroke="#EAEBED"/>
<path opacity="0.617647" d="M484.773 600.467C426.096 522.113 354.827 352.895 539.167 302.845C769.593 240.283 933.186 68.3119 963.495 -214.533C987.742 -440.808 1139.25 -586.308 1211.98 -630.773" stroke="#EAEBED"/>
<path opacity="0.647059" d="M453.692 612.854C399.243 531.572 337.027 358.897 523.764 318.456C757.185 267.904 929.656 104.635 974.893 -176.253C1011.08 -400.964 1170.09 -538.423 1245.07 -579.063" stroke="#EAEBED"/>
<path opacity="0.676471" d="M421.732 623.831C371.659 539.842 318.668 364.184 507.289 333.462C743.065 295.06 923.941 140.941 983.983 -137.221C1032.02 -359.751 1198.08 -488.793 1275.11 -525.498" stroke="#EAEBED"/>
<path opacity="0.705882" d="M388.968 633.353C343.409 546.888 299.787 368.728 489.776 347.81C727.262 321.663 916.047 177.115 990.728 -97.5585C1050.47 -317.297 1223.14 -437.568 1302 -470.237" stroke="#EAEBED"/>
<path opacity="0.735294" d="M355.478 641.381C314.558 552.676 280.425 372.503 471.261 361.446C709.805 347.625 905.981 213.046 995.098 -57.3865C1066.39 -273.732 1245.18 -384.903 1325.67 -413.445" stroke="#EAEBED"/>
<path opacity="0.764706" d="M321.343 647.879C285.174 557.178 260.624 375.486 451.783 374.32C690.732 372.863 893.762 248.621 997.07 -16.8291C1079.72 -229.189 1264.15 -330.954 1346.03 -355.291" stroke="#EAEBED"/>
<path opacity="0.794118" d="M286.644 652.816C255.325 560.368 240.425 377.654 431.384 386.383C670.082 397.294 879.41 283.729 996.625 23.9896C1090.4 -183.802 1279.96 -275.883 1363.02 -295.949" stroke="#EAEBED"/>
<path opacity="0.823529" d="M251.466 656.165C225.082 562.223 219.873 378.988 410.108 397.588C647.902 420.837 862.953 318.261 993.755 64.9434C1098.4 -137.71 1292.57 -219.855 1376.58 -235.595" stroke="#EAEBED"/>
<path opacity="0.852941" d="M215.891 657.903C194.515 562.724 199.011 379.471 388.001 407.89C624.239 443.414 844.425 352.108 988.454 105.907C1103.68 -91.0538 1301.94 -163.036 1386.67 -174.407" stroke="#EAEBED"/>
<path opacity="0.882353" d="M180.006 658.013C163.697 561.858 177.886 379.089 365.113 417.249C599.147 464.95 823.863 385.164 980.726 146.755C1106.22 -43.973 1308.01 -105.596 1393.23 -112.567" stroke="#EAEBED"/>
<path opacity="0.911765" d="M143.899 656.48C132.702 559.613 156.544 377.828 341.495 425.626C572.683 485.373 801.314 417.326 970.58 187.361C1105.99 3.38935 1310.78 -47.7059 1396.24 -50.257" stroke="#EAEBED"/>
<path opacity="0.941176" d="M107.656 653.294C101.6 555.98 135.032 375.678 317.199 432.983C544.908 504.613 776.828 448.491 958.032 227.601C1103 50.8891 1310.2 10.4619 1395.69 12.3373" stroke="#EAEBED"/>
<path opacity="0.970588" d="M71.3639 648.452C70.4672 550.958 113.395 372.633 292.28 439.286C515.886 522.603 750.458 478.561 943.105 267.351C1097.22 98.3836 1306.29 68.7352 1391.55 75.032" stroke="#EAEBED"/>
<path d="M35.1118 641.952C39.3764 544.545 91.6836 368.687 266.796 444.506C485.686 539.281 722.267 507.439 925.829 306.488C1088.68 145.728 1299.02 126.94 1383.84 137.641" stroke="#EAEBED"/>
</svg>
