<svg width="1052" height="565" viewBox="0 0 1052 565" fill="none" xmlns="http://www.w3.org/2000/svg">
<mask id="mask0_16981_6" style="mask-type:alpha" maskUnits="userSpaceOnUse" x="0" y="-233" width="1193" height="798">
<rect y="-233" width="1193" height="798" fill="#C4C4C4"/>
</mask>
<g mask="url(#mask0_16981_6)">
<path opacity="0.0294118" d="M832.093 152.463C734.133 163.536 550.298 139.959 598.635 -42.9292C659.057 -271.539 590.242 -497.621 357.684 -664.999C171.637 -798.901 119.965 -1001.4 117.385 -1085.91" stroke="#1C1D20"/>
<path opacity="0.0588235" d="M829.579 179.15C731.167 185.138 548.832 152.08 606.783 -28.0562C679.221 -253.226 622.466 -482.559 399.085 -661.743C220.38 -805.09 179.497 -1009.99 181.393 -1094.52" stroke="#1C1D20"/>
<path opacity="0.0882353" d="M825.389 205.885C726.796 206.772 546.46 164.323 613.865 -12.5672C698.121 -233.68 653.582 -465.635 439.991 -656.134C269.117 -808.533 239.135 -1015.26 245.502 -1099.58" stroke="#1C1D20"/>
<path opacity="0.117647" d="M819.522 232.581C721.017 228.364 543.175 176.64 619.849 3.48127C715.693 -212.968 683.491 -446.91 480.275 -648.202C317.702 -809.235 298.702 -1017.24 309.523 -1101.11" stroke="#1C1D20"/>
<path opacity="0.147059" d="M811.985 259.152C713.838 249.843 538.978 188.986 624.712 20.0322C731.879 -191.16 712.104 -426.449 519.819 -637.981C365.992 -807.208 358.027 -1015.91 373.272 -1099.1" stroke="#1C1D20"/>
<path opacity="0.176471" d="M802.786 285.51C705.266 271.134 533.866 201.311 628.425 37.0263C746.623 -168.33 739.328 -404.32 558.502 -625.514C413.842 -802.469 416.933 -1011.29 436.561 -1093.59" stroke="#1C1D20"/>
<path opacity="0.205882" d="M791.938 311.571C695.312 292.168 527.843 213.57 630.967 54.4039C759.872 -144.554 765.076 -380.598 596.206 -610.847C461.11 -795.046 475.249 -1003.42 499.205 -1084.59" stroke="#1C1D20"/>
<path opacity="0.235294" d="M779.456 337.248C683.99 312.871 520.91 225.715 632.317 72.1034C771.576 -119.911 789.266 -355.362 632.813 -594.035C507.651 -784.973 532.799 -992.334 561.019 -1072.15" stroke="#1C1D20"/>
<path opacity="0.264706" d="M765.369 362.46C671.324 333.176 513.08 237.699 632.464 90.0634C781.694 -94.4808 811.822 -328.694 668.216 -575.136C553.331 -772.29 589.42 -978.065 621.825 -1056.31" stroke="#1C1D20"/>
<path opacity="0.294118" d="M749.698 387.121C657.331 353.01 504.358 249.475 631.392 108.22C790.185 -68.3478 832.667 -300.681 702.301 -554.217C598.008 -757.047 644.938 -960.672 681.44 -1037.13" stroke="#1C1D20"/>
<path opacity="0.323529" d="M732.478 411.153C642.044 372.309 494.759 260.998 629.096 126.512C797.016 -41.5966 851.737 -271.412 734.968 -531.348C641.553 -739.297 699.196 -940.215 739.694 -1014.68" stroke="#1C1D20"/>
<path opacity="0.352941" d="M713.744 434.475C625.489 391.004 484.298 272.224 625.568 144.874C802.156 -14.3142 868.965 -240.983 766.113 -506.606C683.832 -719.104 752.03 -916.763 796.414 -989.03" stroke="#1C1D20"/>
<path opacity="0.382353" d="M693.532 457.01C607.699 409.031 472.988 283.107 620.805 163.242C805.576 13.4114 884.29 -209.489 795.638 -480.071C724.716 -696.536 803.282 -890.395 851.43 -960.266" stroke="#1C1D20"/>
<path opacity="0.411765" d="M671.891 478.682C588.715 426.327 460.853 293.604 614.811 181.553C807.259 41.4903 897.662 -177.031 823.453 -451.83C764.085 -671.669 852.803 -861.196 904.583 -928.48" stroke="#1C1D20"/>
<path opacity="0.441176" d="M648.866 499.42C568.575 442.832 447.913 303.673 607.59 199.744C807.187 69.8324 909.032 -143.711 849.469 -421.974C801.817 -644.584 900.445 -829.26 955.715 -893.772" stroke="#1C1D20"/>
<path opacity="0.470588" d="M624.506 519.151C547.321 458.485 434.189 313.273 599.148 217.75C805.347 98.346 918.355 -109.634 873.6 -390.598C837.796 -615.369 946.063 -794.688 1004.67 -856.251" stroke="#1C1D20"/>
<path opacity="0.5" d="M598.871 537.81C525.002 473.232 419.711 322.364 589.5 235.509C801.736 126.94 925.596 -74.9066 895.773 -357.802C871.914 -584.118 989.523 -757.588 1051.31 -816.033" stroke="#1C1D20"/>
<path opacity="0.529412" d="M572.015 555.33C501.665 487.019 404.503 330.908 578.656 252.959C796.348 155.523 930.721 -39.6374 915.912 -323.688C904.064 -550.929 1030.69 -718.074 1095.49 -773.242" stroke="#1C1D20"/>
<path opacity="0.558824" d="M544.004 571.651C477.366 499.793 388.6 338.868 566.64 270.038C789.19 184.001 933.708 -3.93707 933.952 -288.365C934.148 -515.907 1069.45 -676.271 1137.08 -728.009" stroke="#1C1D20"/>
<path opacity="0.588235" d="M514.901 586.715C452.158 511.506 372.03 346.208 553.469 286.687C780.268 212.285 934.535 32.0836 949.832 -251.942C962.071 -479.162 1105.67 -632.303 1175.95 -680.472" stroke="#1C1D20"/>
<path opacity="0.617647" d="M484.772 600.466C426.095 522.113 354.826 352.895 539.167 302.845C769.592 240.283 933.185 68.3118 963.494 -214.533C987.742 -440.808 1139.25 -586.308 1211.98 -630.773" stroke="#1C1D20"/>
<path opacity="0.647059" d="M453.692 612.854C399.243 531.572 337.027 358.897 523.764 318.456C757.185 267.904 929.656 104.635 974.893 -176.253C1011.08 -400.964 1170.09 -538.423 1245.07 -579.064" stroke="#1C1D20"/>
<path opacity="0.676471" d="M421.733 623.831C371.66 539.842 318.669 364.184 507.29 333.462C743.066 295.06 923.942 140.941 983.984 -137.221C1032.02 -359.751 1198.08 -488.793 1275.11 -525.498" stroke="#1C1D20"/>
<path opacity="0.705882" d="M388.968 633.353C343.408 546.888 299.787 368.728 489.775 347.81C727.261 321.663 916.046 177.115 990.728 -97.5585C1050.47 -317.297 1223.14 -437.568 1302 -470.237" stroke="#1C1D20"/>
<path opacity="0.735294" d="M355.479 641.381C314.558 552.676 280.426 372.503 471.261 361.446C709.805 347.625 905.982 213.046 995.098 -57.3865C1066.39 -273.732 1245.18 -384.903 1325.67 -413.445" stroke="#1C1D20"/>
<path opacity="0.764706" d="M321.344 647.879C285.175 557.178 260.625 375.486 451.784 374.32C690.733 372.863 893.763 248.621 997.071 -16.8291C1079.72 -229.189 1264.15 -330.954 1346.03 -355.291" stroke="#1C1D20"/>
<path opacity="0.794118" d="M286.644 652.816C255.325 560.368 240.425 377.654 431.384 386.383C670.082 397.294 879.41 283.729 996.625 23.9896C1090.4 -183.802 1279.96 -275.883 1363.02 -295.949" stroke="#1C1D20"/>
<path opacity="0.823529" d="M251.466 656.165C225.082 562.223 219.873 378.988 410.108 397.588C647.902 420.837 862.954 318.261 993.755 64.9434C1098.4 -137.71 1292.58 -219.855 1376.58 -235.595" stroke="#1C1D20"/>
<path opacity="0.852941" d="M215.892 657.903C194.516 562.724 199.012 379.471 388.002 407.89C624.24 443.414 844.426 352.108 988.455 105.907C1103.68 -91.0538 1301.94 -163.036 1386.67 -174.407" stroke="#1C1D20"/>
<path opacity="0.882353" d="M180.006 658.013C163.697 561.858 177.886 379.089 365.113 417.249C599.147 464.95 823.863 385.164 980.726 146.755C1106.22 -43.973 1308.01 -105.596 1393.23 -112.567" stroke="#1C1D20"/>
<path opacity="0.911765" d="M143.9 656.48C132.702 559.613 156.545 377.828 341.495 425.626C572.684 485.373 801.315 417.326 970.58 187.361C1105.99 3.38935 1310.78 -47.7059 1396.24 -50.257" stroke="#1C1D20"/>
<path opacity="0.941176" d="M107.657 653.294C101.601 555.98 135.033 375.678 317.2 432.983C544.909 504.613 776.829 448.491 958.033 227.601C1103 50.8891 1310.2 10.4619 1395.69 12.3373" stroke="#1C1D20"/>
<path opacity="0.970588" d="M71.3639 648.452C70.4672 550.958 113.395 372.633 292.28 439.286C515.886 522.603 750.458 478.561 943.105 267.351C1097.22 98.3836 1306.29 68.7352 1391.55 75.032" stroke="#1C1D20"/>
<path d="M35.1123 641.952C39.3769 544.545 91.6841 368.687 266.796 444.506C485.686 539.281 722.267 507.439 925.829 306.488C1088.68 145.728 1299.02 126.94 1383.84 137.641" stroke="#1C1D20"/>
</g>
</svg>
