<svg width="36" height="36" viewBox="0 0 36 36" fill="none" xmlns="http://www.w3.org/2000/svg">
<path d="M8.12402 3.49219L19.4033 15.2373C19.6988 15.5448 20.1889 15.5448 20.4844 15.2373L22.7695 12.8613C23.1085 12.5088 23.0315 11.9353 22.6055 11.6953C16.706 8.35781 9.39302 4.21669 8.12402 3.49219ZM4.71094 4.27148C4.58344 4.56848 4.5 4.89436 4.5 5.25586V30.8877C4.5 31.1832 4.56656 31.4559 4.66406 31.7109L17.3643 18.4863C17.6433 18.1968 17.6433 17.7402 17.3643 17.4492L4.71094 4.27148ZM26.165 13.8867C26.0032 13.9094 25.8499 13.9856 25.7314 14.1094L22.5234 17.4492C22.2444 17.7387 22.2444 18.1953 22.5234 18.4863L25.7021 21.7939C25.9391 22.0414 26.3192 22.0938 26.6162 21.9258C28.8407 20.6658 30.3398 19.8193 30.3398 19.8193C31.0883 19.3648 31.5105 18.6653 31.5 17.9033C31.488 17.1593 31.0539 16.4729 30.3369 16.0664C30.2454 16.0154 28.7815 15.1865 26.6455 13.9775C26.4963 13.8935 26.3268 13.864 26.165 13.8867ZM19.9453 20.4668C19.7488 20.4668 19.5511 20.5445 19.4033 20.6982L8.21191 32.3496C10.1349 31.2561 16.9932 27.3744 22.5762 24.2139C23.0022 23.9724 23.0792 23.3989 22.7402 23.0449L20.4844 20.6982C20.3366 20.5445 20.1418 20.4668 19.9453 20.4668Z" fill="white"/>
</svg>
