<svg width="38" height="38" viewBox="0 0 38 38" fill="none" xmlns="http://www.w3.org/2000/svg">
<path d="M1.58325 33.25V30.0833H36.4166V33.25H1.58325ZM6.33325 28.5C5.46242 28.5 4.71693 28.1899 4.09679 27.5698C3.47665 26.9497 3.16659 26.2042 3.16659 25.3333V7.91667C3.16659 7.04583 3.47665 6.30035 4.09679 5.68021C4.71693 5.06007 5.46242 4.75 6.33325 4.75H31.6666C32.5374 4.75 33.2829 5.06007 33.903 5.68021C34.5232 6.30035 34.8333 7.04583 34.8333 7.91667V25.3333C34.8333 26.2042 34.5232 26.9497 33.903 27.5698C33.2829 28.1899 32.5374 28.5 31.6666 28.5H6.33325ZM6.33325 25.3333H31.6666V7.91667H6.33325V25.3333Z" fill="white"/>
</svg>
