<svg width="16" height="18" viewBox="0 0 16 18" fill="none" xmlns="http://www.w3.org/2000/svg">
<path d="M3.88666 4.07346C3.88666 1.917 5.82221 0 7.99955 0C10.1769 0 12.1124 1.917 12.1124 4.07346C12.1124 6.22991 10.1769 8.14692 7.99955 8.14692C5.82221 8.14692 3.88666 6.46982 3.88666 4.07346ZM0.5 13.6576C0.5 11.7406 1.46755 9.82401 3.16133 8.38637C4.12888 10.3034 6.06444 11.5011 8 11.5011C9.93556 11.5011 11.6289 10.3029 12.8387 8.38637C14.532 9.82401 15.5 11.9805 15.5 13.6576C15.5 17.0122 12.1129 17.9705 8.00045 17.9705C3.88756 18.2099 0.5 17.0122 0.5 13.6576Z" fill="white"/>
</svg>
