<svg width="20" height="20" viewBox="0 0 20 20" fill="none" xmlns="http://www.w3.org/2000/svg">
<path d="M4.99992 19.1667C4.54159 19.1667 4.14922 19.0035 3.82284 18.6771C3.49645 18.3507 3.33325 17.9583 3.33325 17.5V8.33334C3.33325 7.87501 3.49645 7.48265 3.82284 7.15626C4.14922 6.82987 4.54159 6.66668 4.99992 6.66668H7.49992V8.33334H4.99992V17.5H14.9999V8.33334H12.4999V6.66668H14.9999C15.4583 6.66668 15.8506 6.82987 16.177 7.15626C16.5034 7.48265 16.6666 7.87501 16.6666 8.33334V17.5C16.6666 17.9583 16.5034 18.3507 16.177 18.6771C15.8506 19.0035 15.4583 19.1667 14.9999 19.1667H4.99992ZM9.16659 13.3333V4.02084L7.83325 5.35418L6.66659 4.16668L9.99992 0.833344L13.3333 4.16668L12.1666 5.35418L10.8333 4.02084V13.3333H9.16659Z" fill="#0168CA"/>
</svg>
