<svg width="20" height="20" viewBox="0 0 20 20" fill="none" xmlns="http://www.w3.org/2000/svg">
<path d="M4.16667 11.6667C4.16667 12.3889 4.3125 13.0729 4.60417 13.7188C4.89583 14.3646 5.3125 14.9306 5.85417 15.4167C5.84028 15.3472 5.83333 15.2847 5.83333 15.2292V15.0417C5.83333 14.5972 5.91667 14.1806 6.08333 13.7917C6.25 13.4028 6.49306 13.0486 6.8125 12.7292L9.16667 10.4167L11.5208 12.7292C11.8403 13.0486 12.0833 13.4028 12.25 13.7917C12.4167 14.1806 12.5 14.5972 12.5 15.0417V15.2292C12.5 15.2847 12.4931 15.3472 12.4792 15.4167C13.0208 14.9306 13.4375 14.3646 13.7292 13.7188C14.0208 13.0729 14.1667 12.3889 14.1667 11.6667C14.1667 10.9722 14.0382 10.316 13.7813 9.69792C13.5243 9.07986 13.1528 8.52778 12.6667 8.04167C12.3889 8.22222 12.0972 8.35764 11.7917 8.44792C11.4861 8.5382 11.1736 8.58333 10.8542 8.58333C9.99306 8.58333 9.24653 8.29861 8.61458 7.72917C7.98264 7.15972 7.61806 6.45833 7.52083 5.625C6.97917 6.08333 6.5 6.55903 6.08333 7.05208C5.66667 7.54514 5.31597 8.04514 5.03125 8.55208C4.74653 9.05903 4.53125 9.57639 4.38542 10.1042C4.23958 10.6319 4.16667 11.1528 4.16667 11.6667ZM9.16667 12.75L7.97917 13.9167C7.82639 14.0694 7.70833 14.2431 7.625 14.4375C7.54167 14.6319 7.5 14.8333 7.5 15.0417C7.5 15.4861 7.6632 15.8681 7.98958 16.1875C8.31597 16.5069 8.70833 16.6667 9.16667 16.6667C9.625 16.6667 10.0174 16.5069 10.3438 16.1875C10.6701 15.8681 10.8333 15.4861 10.8333 15.0417C10.8333 14.8194 10.7917 14.6146 10.7083 14.4271C10.625 14.2396 10.5069 14.0694 10.3542 13.9167L9.16667 12.75ZM9.16667 2.5V5.25C9.16667 5.72222 9.32986 6.11806 9.65625 6.4375C9.98264 6.75695 10.3819 6.91667 10.8542 6.91667C11.1042 6.91667 11.3368 6.86458 11.5521 6.76042C11.7674 6.65625 11.9583 6.5 12.125 6.29167L12.5 5.83333C13.5278 6.41667 14.3403 7.22917 14.9375 8.27083C15.5347 9.3125 15.8333 10.4444 15.8333 11.6667C15.8333 13.5278 15.1875 15.1042 13.8958 16.3958C12.6042 17.6875 11.0278 18.3333 9.16667 18.3333C7.30556 18.3333 5.72917 17.6875 4.4375 16.3958C3.14583 15.1042 2.5 13.5278 2.5 11.6667C2.5 9.875 3.10069 8.17361 4.30208 6.5625C5.50347 4.95139 7.125 3.59722 9.16667 2.5ZM17.5 9.16667C17.2639 9.16667 17.066 9.08681 16.9063 8.92708C16.7465 8.76736 16.6667 8.56945 16.6667 8.33333C16.6667 8.09722 16.7465 7.89931 16.9063 7.73958C17.066 7.57986 17.2639 7.5 17.5 7.5C17.7361 7.5 17.934 7.57986 18.0938 7.73958C18.2535 7.89931 18.3333 8.09722 18.3333 8.33333C18.3333 8.56945 18.2535 8.76736 18.0938 8.92708C17.934 9.08681 17.7361 9.16667 17.5 9.16667ZM16.6667 6.66667V2.5H18.3333V6.66667H16.6667Z" fill="#0168CA"/>
</svg>
