<svg width="20" height="20" viewBox="0 0 20 20" fill="none" xmlns="http://www.w3.org/2000/svg">
<path fill-rule="evenodd" clip-rule="evenodd" d="M15.1458 16.3333L16.1458 17.3333L17.3333 16.1458L5.85417 4.66667L4.1875 3L3.1875 2L2 3.1875L2.70684 3.89434L4.1875 5.375L13.4792 14.6667L15.1458 16.3333Z" fill="#0168CA"/>
<path fill-rule="evenodd" clip-rule="evenodd" d="M3.33341 7.50001H4.19126L5.85793 9.16668H3.33341V10.8333H7.12508L8.10389 11.4126L10.8334 14.1422V15L6.66675 12.5H5.83341V15.8333H4.16675V12.5H3.33341C2.87508 12.5 2.48272 12.3368 2.15633 12.0104C1.82994 11.684 1.66675 11.2917 1.66675 10.8333V9.16668C1.66675 8.70834 1.82994 8.31598 2.15633 7.98959C2.48272 7.6632 2.87508 7.50001 3.33341 7.50001ZM9.25559 5.9467L10.8334 5.00001V7.52452L9.25559 5.9467ZM12.8958 9.58695L11.6667 8.35786V7.20834C12.0417 7.54168 12.3438 7.94793 12.573 8.42709C12.7456 8.78809 12.8533 9.17471 12.8958 9.58695ZM15.0001 10.8333V9.16668H18.3334V10.8333H15.0001ZM14.3334 6.66668L13.3334 5.33334L16.0001 3.33334L17.0001 4.66668L14.3334 6.66668Z" fill="#0168CA"/>
</svg>
