<svg width="20" height="20" viewBox="0 0 20 20" fill="none" xmlns="http://www.w3.org/2000/svg">
<path d="M16.4791 18.8542L14.2916 16.6667H3.33325C2.87492 16.6667 2.48256 16.5035 2.15617 16.1771C1.82978 15.8507 1.66659 15.4583 1.66659 15V4.99999C1.66659 4.54166 1.82978 4.1493 2.15617 3.82291C2.48256 3.49652 2.87492 3.33333 3.33325 3.33333L4.99992 4.99999H3.33325V15H12.6249L1.14575 3.52083L2.33325 2.33333L17.6666 17.6667L16.4791 18.8542ZM18.1458 15.7708L16.6666 14.2917V6.66666L11.9791 9.60416L10.9583 8.58333L16.6666 4.99999H7.37492L5.70825 3.33333H16.6666C17.1249 3.33333 17.5173 3.49652 17.8437 3.82291C18.1701 4.1493 18.3333 4.54166 18.3333 4.99999V15C18.3333 15.1389 18.3194 15.2743 18.2916 15.4062C18.2638 15.5382 18.2152 15.6597 18.1458 15.7708Z" fill="#0168CA"/>
</svg>
