<svg width="20" height="20" viewBox="0 0 20 20" fill="none" xmlns="http://www.w3.org/2000/svg">
<g clip-path="url(#clip0_16237_435)">
<path fill-rule="evenodd" clip-rule="evenodd" d="M19.9861 0.683762L18.3972 5.6485L16.0892 7.88867V17.7044L13.2656 20.528L11.0741 12.9305L10.0011 14.0273V16.4575L7.00643 19.4521L6.45003 16.7494H3.92044V14.2198L1.21772 13.6634L4.21241 10.6687H6.64258L7.73934 9.5958L0.141846 7.40423L2.96542 4.58066H12.7812L15.0214 2.27264L19.9861 0.683762ZM13.4157 6.08066H3.58674L2.99989 6.6675L10.6283 8.86799L7.25427 12.1687H4.83373L4.24689 12.7556L6.74073 13.269L5.42044 14.5893V15.2494H6.08059L7.40088 13.9291L7.91428 16.423L8.50113 15.8361V13.4156L11.8019 10.0415L14.0024 17.67L14.5892 17.0831V7.25421L17.083 4.83367L17.6699 2.99997L15.8362 3.58681L13.4157 6.08066Z" fill="#0168CA"/>
</g>
<defs>
<clipPath id="clip0_16237_435">
<rect width="20" height="20" fill="white"/>
</clipPath>
</defs>
</svg>
