<svg width="20" height="20" viewBox="0 0 20 20" fill="none" xmlns="http://www.w3.org/2000/svg">
<path d="M8.70842 12.9167C9.04175 13.25 9.4723 13.4132 10.0001 13.4063C10.5279 13.3993 10.9167 13.2083 11.1667 12.8333L15.8334 5.83334L8.83342 10.5C8.45842 10.75 8.2605 11.132 8.23967 11.6458C8.21883 12.1597 8.37508 12.5833 8.70842 12.9167ZM10.0001 3.33334C10.8195 3.33334 11.6077 3.44793 12.3647 3.67709C13.1216 3.90626 13.8334 4.25001 14.5001 4.70834L12.9167 5.70834C12.4584 5.47223 11.9827 5.29515 11.4897 5.17709C10.9966 5.05904 10.5001 5.00001 10.0001 5.00001C8.15286 5.00001 6.57994 5.64932 5.28133 6.94793C3.98272 8.24654 3.33341 9.81945 3.33341 11.6667C3.33341 12.25 3.41328 12.8264 3.573 13.3958C3.73272 13.9653 3.95842 14.5 4.25008 15H15.7501C16.0695 14.4722 16.3022 13.9236 16.448 13.3542C16.5938 12.7847 16.6667 12.1945 16.6667 11.5833C16.6667 11.0833 16.6077 10.5972 16.4897 10.125C16.3716 9.65279 16.1945 9.19445 15.9584 8.75001L16.9584 7.16668C17.3751 7.81945 17.7049 8.5139 17.948 9.25001C18.1911 9.98612 18.3195 10.75 18.3334 11.5417C18.3473 12.3333 18.257 13.0903 18.0626 13.8125C17.8681 14.5347 17.5834 15.2222 17.2084 15.875C17.0556 16.125 16.8473 16.3195 16.5834 16.4583C16.3195 16.5972 16.0417 16.6667 15.7501 16.6667H4.25008C3.95842 16.6667 3.68064 16.5972 3.41675 16.4583C3.15286 16.3195 2.94453 16.125 2.79175 15.875C2.43064 15.25 2.15286 14.5868 1.95841 13.8854C1.76397 13.184 1.66675 12.4445 1.66675 11.6667C1.66675 10.5139 1.8855 9.43404 2.323 8.42709C2.7605 7.42015 3.35772 6.5382 4.11467 5.78126C4.87161 5.02432 5.75703 4.42709 6.77092 3.98959C7.7848 3.55209 8.86119 3.33334 10.0001 3.33334Z" fill="#0168CA"/>
</svg>
