<svg width="20" height="20" viewBox="0 0 20 20" fill="none" xmlns="http://www.w3.org/2000/svg">
<path d="M9.16659 17.4583C7.48603 17.25 6.09367 16.5173 4.9895 15.2604C3.88534 14.0035 3.33325 12.5278 3.33325 10.8333C3.33325 9.91665 3.51381 9.03818 3.87492 8.1979C4.23603 7.35762 4.74992 6.62498 5.41659 5.99998L6.60409 7.18748C6.07631 7.6597 5.677 8.20831 5.40617 8.83331C5.13534 9.45831 4.99992 10.125 4.99992 10.8333C4.99992 12.0555 5.38881 13.1354 6.16659 14.0729C6.94436 15.0104 7.94436 15.5833 9.16659 15.7916V17.4583ZM10.8333 17.4583V15.7916C12.0416 15.5694 13.0381 14.993 13.8228 14.0625C14.6076 13.1319 14.9999 12.0555 14.9999 10.8333C14.9999 9.44443 14.5138 8.26387 13.5416 7.29165C12.5694 6.31943 11.3888 5.83331 9.99992 5.83331H9.93742L10.8541 6.74998L9.68742 7.91665L6.77075 4.99998L9.68742 2.08331L10.8541 3.24998L9.93742 4.16665H9.99992C11.861 4.16665 13.4374 4.81248 14.7291 6.10415C16.0208 7.39581 16.6666 8.9722 16.6666 10.8333C16.6666 12.5139 16.1145 13.9826 15.0103 15.2396C13.9062 16.4965 12.5138 17.2361 10.8333 17.4583Z" fill="#0168CA"/>
</svg>
