<svg xmlns="http://www.w3.org/2000/svg" width="133" height="36" fill="#fff" xmlns:v="https://vecta.io/nano"><path d="M20.049 16.442c-.033-3.747 3.03-5.57 3.17-5.655-1.735-2.561-4.424-2.911-5.369-2.939-2.259-.241-4.45 1.368-5.6 1.368-1.174 0-2.945-1.345-4.855-1.306-2.457.038-4.756 1.479-6.017 3.716-2.602 4.561-.661 11.263 1.831 14.95 1.247 1.805 2.704 3.822 4.611 3.75 1.866-.078 2.563-1.204 4.815-1.204 2.231 0 2.886 1.204 4.831 1.159 2.003-.033 3.263-1.814 4.467-3.636 1.441-2.069 2.02-4.108 2.043-4.212-.047-.016-3.889-1.501-3.927-5.992zM16.371 5.416c1.004-1.271 1.69-3 1.5-4.754-1.453.065-3.269 1.017-4.315 2.26-.925 1.095-1.752 2.89-1.539 4.578 1.632.123 3.307-.834 4.354-2.085zM51.38 30.531h-2.684l-1.47-4.678h-5.111l-1.401 4.678h-2.613l5.063-15.925h3.127l5.088 15.925zm-4.598-6.64l-1.33-4.158c-.141-.425-.404-1.425-.793-3h-.047l-.747 3-1.306 4.158h4.223 0zm17.607.755c0 1.953-.521 3.497-1.564 4.63-.934 1.009-2.093 1.513-3.477 1.513-1.494 0-2.567-.543-3.221-1.63h-.047v6.049h-2.52V22.826l-.093-3.78h2.216l.141 1.82h.047c.84-1.371 2.116-2.056 3.827-2.056 1.338 0 2.455.535 3.348 1.606s1.343 2.482 1.343 4.23zm-2.567.093c0-1.118-.248-2.039-.747-2.764-.545-.756-1.276-1.134-2.194-1.134a2.6 2.6 0 0 0-1.691.626 2.91 2.91 0 0 0-.992 1.643c-.078.316-.117.574-.117.778v1.915c0 .835.253 1.54.759 2.116s1.163.863 1.971.863c.949 0 1.688-.371 2.216-1.111s.794-1.717.794-2.931zm15.632-.093c0 1.953-.521 3.497-1.565 4.63-.932 1.009-2.092 1.513-3.476 1.513-1.494 0-2.567-.543-3.219-1.63h-.047v6.049h-2.52V22.826l-.093-3.78h2.216l.141 1.82h.047c.839-1.371 2.114-2.056 3.827-2.056 1.337 0 2.454.535 3.349 1.606s1.34 2.482 1.34 4.23zm-2.567.093c0-1.118-.249-2.039-.748-2.764-.545-.756-1.274-1.134-2.192-1.134-.623 0-1.187.211-1.692.626s-.836.966-.99 1.643c-.077.316-.117.574-.117.778v1.915c0 .835.253 1.54.756 2.116s1.163.863 1.974.863c.949 0 1.688-.371 2.216-1.111s.794-1.717.794-2.931zm17.142 1.329c0 1.355-.465 2.457-1.397 3.308-1.025.93-2.451 1.394-4.284 1.394-1.693 0-3.049-.33-4.076-.992l.584-2.126c1.106.677 2.32 1.017 3.643 1.017.949 0 1.688-.218 2.218-.651s.792-1.015.792-1.74a2.23 2.23 0 0 0-.653-1.632c-.436-.441-1.158-.852-2.17-1.231-2.754-1.04-4.13-2.563-4.13-4.566 0-1.309.482-2.383 1.448-3.218s2.246-1.254 3.851-1.254c1.431 0 2.62.252 3.569.756l-.63 2.08c-.886-.488-1.889-.732-3.01-.732-.886 0-1.579.221-2.075.662a1.9 1.9 0 0 0-.63 1.442c0 .63.24 1.15.722 1.559.42.378 1.182.787 2.288 1.229 1.353.552 2.347 1.197 2.987 1.936s.955 1.66.955 2.761zm8.323-5.096h-2.777v5.575c0 1.418.489 2.127 1.47 2.127.45 0 .824-.04 1.119-.119l.07 1.937c-.496.188-1.15.282-1.959.282-.995 0-1.773-.307-2.334-.921s-.84-1.647-.84-3.096V20.97h-1.655v-1.915H95.1v-2.102l2.475-.756v2.859h2.777v1.917zm12.534 3.72c0 1.765-.499 3.214-1.494 4.348-1.044 1.167-2.429 1.748-4.156 1.748-1.664 0-2.989-.559-3.977-1.677s-1.482-2.529-1.482-4.229c0-1.779.509-3.237 1.529-4.37s2.39-1.702 4.117-1.702c1.664 0 3.003.559 4.014 1.678.967 1.085 1.449 2.487 1.449 4.204zm-2.614.083c0-1.059-.224-1.967-.677-2.725-.528-.917-1.283-1.374-2.262-1.374-1.013 0-1.782.458-2.31 1.374-.453.759-.676 1.681-.676 2.773 0 1.059.223 1.967.676 2.724.545.917 1.306 1.374 2.288 1.374.962 0 1.717-.467 2.262-1.398.465-.772.699-1.69.699-2.748zm10.811-3.486c-.249-.047-.515-.071-.794-.071-.886 0-1.572.339-2.054 1.017-.419.598-.63 1.355-.63 2.268v6.025h-2.518l.023-7.867-.094-3.615h2.194l.093 2.197h.069c.266-.755.686-1.363 1.26-1.819.562-.411 1.168-.615 1.821-.615a3.99 3.99 0 0 1 .63.047v2.433zm11.27 2.957a6.02 6.02 0 0 1-.093 1.157h-7.559c.03 1.134.395 2.002 1.097 2.6.637.535 1.461.803 2.472.803 1.12 0 2.141-.181 3.059-.543l.395 1.771c-1.073.474-2.34.71-3.802.71-1.759 0-3.139-.524-4.144-1.571s-1.505-2.453-1.505-4.217c0-1.732.467-3.174 1.402-4.324.979-1.228 2.301-1.842 3.965-1.842 1.635 0 2.872.614 3.713 1.842.665.975 1 2.182 1 3.614zm-2.403-.662c.016-.756-.148-1.41-.49-1.961-.436-.71-1.106-1.064-2.008-1.064-.823 0-1.493.346-2.005 1.04-.42.552-.669 1.213-.746 1.984h5.249v.001zM45.953 5.9c0 1.408-.417 2.469-1.25 3.181-.772.657-1.869.986-3.289.986a15.06 15.06 0 0 1-1.812-.093V2.278c.658-.108 1.367-.163 2.133-.163 1.353 0 2.373.298 3.061.894.771.674 1.157 1.637 1.157 2.891zm-1.306.035c0-.913-.239-1.613-.716-2.101s-1.175-.731-2.093-.731c-.39 0-.722.026-.997.081v5.85c.152.024.431.035.837.035.948 0 1.679-.267 2.195-.801s.775-1.312.775-2.333zm8.245 1.192c0 .868-.245 1.578-.734 2.136-.513.573-1.192.859-2.041.859-.818 0-1.469-.274-1.955-.824s-.727-1.242-.727-2.077c0-.874.249-1.59.751-2.147s1.175-.835 2.023-.835c.818 0 1.475.274 1.973.823.473.534.71 1.223.71 2.065zm-1.285.041c0-.521-.111-.967-.332-1.339-.26-.45-.63-.675-1.111-.675-.498 0-.876.225-1.136.675-.222.372-.332.826-.332 1.362 0 .521.111.967.332 1.339.268.45.642.675 1.124.675.473 0 .844-.229 1.111-.687.229-.379.344-.829.344-1.35zM62.162 4.36l-1.743 5.641h-1.135l-.722-2.45a18.54 18.54 0 0 1-.448-1.823h-.022c-.108.62-.257 1.227-.448 1.823l-.767 2.45h-1.148L54.09 4.36h1.273l.63 2.682.378 1.811h.022c.092-.471.245-1.072.46-1.799l.791-2.692h1.009l.758 2.635.447 1.857h.034a17.92 17.92 0 0 1 .378-1.857l.676-2.635h1.216V4.36zm6.415 5.636h-1.239V6.765c0-.996-.374-1.493-1.123-1.493a1.11 1.11 0 0 0-.895.41c-.228.274-.344.597-.344.967v3.346h-1.239V5.967l-.045-1.614h1.088l.058.882h.034a1.8 1.8 0 0 1 .642-.681c.336-.211.712-.317 1.123-.317.52 0 .953.17 1.297.511.428.418.642 1.041.642 1.869v3.379h0zm3.428-.001h-1.237V1.766h1.237v8.229zm7.288-2.868c0 .868-.245 1.578-.734 2.136-.513.573-1.194.859-2.041.859-.819 0-1.47-.274-1.955-.824s-.727-1.242-.727-2.077c0-.874.249-1.59.751-2.147s1.175-.835 2.022-.835c.819 0 1.475.274 1.974.823.473.534.71 1.223.71 2.065zm-1.286.041c0-.521-.111-.967-.332-1.339-.259-.45-.63-.675-1.11-.675-.499 0-.877.225-1.136.675-.222.372-.332.826-.332 1.362 0 .521.111.967.332 1.339.268.45.642.675 1.124.675.473 0 .843-.229 1.11-.687.23-.379.344-.829.344-1.35zm7.28 2.826h-1.112l-.092-.65h-.034c-.381.518-.923.778-1.627.778-.526 0-.951-.171-1.272-.511-.291-.309-.436-.693-.436-1.149 0-.689.284-1.215.855-1.578s1.371-.542 2.403-.534v-.105c0-.743-.385-1.114-1.157-1.114-.55 0-1.034.14-1.453.418l-.252-.823c.518-.324 1.157-.487 1.911-.487 1.456 0 2.186.778 2.186 2.333v2.077c0 .564.027 1.012.08 1.345zm-1.286-1.939v-.87c-1.366-.024-2.049.355-2.049 1.137 0 .294.078.515.238.662a.86.86 0 0 0 .605.22 1.24 1.24 0 0 0 .758-.261 1.07 1.07 0 0 0 .429-.668c.013-.061.02-.135.02-.22zm8.31 1.94h-1.099l-.058-.906h-.034c-.351.689-.949 1.034-1.789 1.034-.671 0-1.23-.267-1.673-.801s-.664-1.227-.664-2.077c0-.913.24-1.653.722-2.217.467-.527 1.039-.79 1.72-.79.748 0 1.272.255 1.57.766h.024V1.766h1.24v6.71l.044 1.52zm-1.284-2.379v-.941c0-.163-.012-.294-.034-.395a1.43 1.43 0 0 0-.448-.76c-.23-.205-.508-.308-.829-.308-.462 0-.824.185-1.09.558s-.397.847-.397 1.428c0 .558.126 1.01.381 1.358a1.27 1.27 0 0 0 1.083.556c.406 0 .732-.154.979-.464.239-.286.356-.631.356-1.033zm11.893-.489c0 .868-.245 1.578-.734 2.136-.513.573-1.192.859-2.041.859-.817 0-1.468-.274-1.955-.824s-.727-1.242-.727-2.077c0-.874.249-1.59.75-2.147s1.175-.835 2.025-.835c.817 0 1.475.274 1.971.823.473.534.711 1.223.711 2.065zm-1.284.041c0-.521-.111-.967-.332-1.339-.261-.45-.63-.675-1.112-.675a1.24 1.24 0 0 0-1.136.675c-.222.372-.332.826-.332 1.362 0 .521.111.967.332 1.339.268.45.642.675 1.124.675.473 0 .845-.229 1.112-.687.228-.379.344-.829.344-1.35zm7.946 2.828h-1.238V6.765c0-.996-.373-1.493-1.124-1.493-.367 0-.664.136-.893.41s-.344.597-.344.967v3.346h-1.24V5.967l-.044-1.614h1.088l.057.882h.035a1.82 1.82 0 0 1 .641-.681 2.08 2.08 0 0 1 1.124-.317c.519 0 .952.17 1.296.511.429.418.642 1.041.642 1.869v3.379h0zm8.34-4.706h-1.363v2.74c0 .696.242 1.045.722 1.045a2.16 2.16 0 0 0 .552-.059l.032.951c-.245.093-.567.14-.962.14-.49 0-.87-.151-1.146-.452s-.413-.809-.413-1.521V5.29h-.815v-.94h.815V3.316l1.213-.371v1.404h1.364v.941h.001zm6.544 4.705h-1.24V6.788c0-1.011-.374-1.517-1.122-1.517-.574 0-.967.293-1.182.88-.036.123-.058.274-.058.451v3.393h-1.237V1.766h1.237v3.4h.024c.39-.619.949-.927 1.674-.927.513 0 .937.17 1.274.511.419.425.63 1.057.63 1.892v3.354h0zm6.78-3.087a3.02 3.02 0 0 1-.046.568h-3.715c.017.558.194.982.538 1.277.315.263.72.395 1.216.395.55 0 1.051-.089 1.503-.267l.193.871c-.528.232-1.15.348-1.869.348-.863 0-1.543-.257-2.034-.772s-.739-1.205-.739-2.071c0-.851.228-1.559.688-2.124.48-.603 1.129-.905 1.948-.905.801 0 1.41.302 1.821.905.332.479.496 1.071.496 1.775zm-1.182-.324c.01-.372-.072-.693-.24-.963-.215-.348-.542-.523-.985-.523a1.17 1.17 0 0 0-.986.511c-.206.272-.327.596-.368.975h2.579z"/></svg>