<svg xmlns="http://www.w3.org/2000/svg" width="136" height="34" fill="none" xmlns:v="https://vecta.io/nano"><path d="M11.556 15.735L.531 27.437a2.98 2.98 0 0 0 2.878 2.213c.551 0 1.068-.149 1.511-.41l.035-.021 12.411-7.162-5.809-6.323" fill="#eb3131"/><path d="M22.732 13.74l-.011-.007-5.358-3.106-6.037 5.372 6.058 6.057 5.33-3.075a2.98 2.98 0 0 0 1.569-2.625c0-1.128-.626-2.108-1.551-2.614" fill="#f6b60b"/><path d="M.537 5.229a2.92 2.92 0 0 0-.101.766v20.679a2.88 2.88 0 0 0 .102.766l11.406-11.403L.537 5.23" fill="#5778c5"/><path d="M11.639 16.329l5.707-5.705L4.949 3.436c-.451-.27-.977-.426-1.539-.426A2.98 2.98 0 0 0 .532 5.22l11.107 11.109" fill="#3bad49"/><g fill="#fff"><path d="M113.411 28.356h2.218V13.498h-2.218v14.858zm19.974-9.505l-2.542 6.441h-.076l-2.638-6.441h-2.389l3.958 9.003-2.257 5.008h2.313l6.098-14.01h-2.467zm-12.576 7.817c-.725 0-1.739-.363-1.739-1.262 0-1.147 1.262-1.586 2.351-1.586.974 0 1.434.21 2.026.497a2.69 2.69 0 0 1-2.638 2.351h0zm.268-8.142c-1.605 0-3.268.707-3.956 2.275l1.968.822c.421-.822 1.204-1.089 2.026-1.089 1.147 0 2.313.688 2.332 1.911v.153c-.402-.229-1.262-.573-2.313-.573-2.122 0-4.282 1.166-4.282 3.345 0 1.988 1.74 3.269 3.689 3.269 1.491 0 2.314-.669 2.829-1.453h.077v1.147h2.142v-5.696c0-2.638-1.971-4.109-4.512-4.109h0zm-13.705 2.134h-3.154v-5.092h3.154c1.658 0 2.599 1.372 2.599 2.546 0 1.151-.941 2.546-2.599 2.546zm-.057-7.161h-5.314v14.858h2.217v-5.629h3.097c2.458 0 4.874-1.779 4.874-4.614s-2.416-4.614-4.874-4.614v-.001zM78.34 26.67c-1.532 0-2.814-1.283-2.814-3.044 0-1.781 1.282-3.082 2.814-3.082 1.513 0 2.7 1.301 2.7 3.082 0 1.761-1.187 3.044-2.7 3.044zm2.546-6.988h-.077c-.498-.593-1.455-1.129-2.661-1.129-2.528 0-4.844 2.221-4.844 5.074 0 2.833 2.317 5.035 4.844 5.035 1.206 0 2.163-.536 2.661-1.148h.077v.727c0 1.934-1.034 2.968-2.7 2.968-1.359 0-2.201-.976-2.546-1.799l-1.933.804c.555 1.34 2.029 2.987 4.48 2.987 2.604 0 4.806-1.532 4.806-5.266v-9.075h-2.106v.823zm3.639 8.673h2.22V13.497h-2.22v14.858zm5.494-4.901c-.057-1.953 1.513-2.948 2.642-2.948.881 0 1.627.441 1.877 1.072l-4.519 1.876zm6.892-1.685c-.421-1.129-1.704-3.216-4.327-3.216-2.604 0-4.768 2.048-4.768 5.054 0 2.834 2.145 5.055 5.016 5.055 2.317 0 3.657-1.416 4.213-2.24l-1.723-1.149c-.575.843-1.359 1.398-2.49 1.398s-1.933-.517-2.45-1.532l6.758-2.795-.23-.575zm-53.845-1.665v2.144h5.131c-.153 1.206-.555 2.087-1.168 2.699-.747.746-1.915 1.57-3.963 1.57-3.159 0-5.629-2.546-5.629-5.705s2.47-5.706 5.629-5.706c1.704 0 2.948.67 3.867 1.532l1.513-1.513c-1.283-1.225-2.987-2.163-5.38-2.163-4.328 0-7.965 3.523-7.965 7.85s3.638 7.85 7.965 7.85c2.335 0 4.097-.766 5.475-2.202 1.417-1.417 1.857-3.408 1.857-5.017 0-.497-.039-.957-.115-1.34h-7.218zm13.167 6.567c-1.532 0-2.853-1.264-2.853-3.063 0-1.819 1.321-3.063 2.853-3.063s2.852 1.244 2.852 3.063c0 1.8-1.321 3.063-2.852 3.063zm0-8.118c-2.796 0-5.074 2.125-5.074 5.054 0 2.91 2.278 5.055 5.074 5.055s5.073-2.144 5.073-5.055c0-2.929-2.279-5.054-5.073-5.054zm11.068 8.118c-1.531 0-2.853-1.264-2.853-3.063 0-1.819 1.322-3.063 2.853-3.063s2.853 1.244 2.853 3.063c0 1.8-1.321 3.063-2.853 3.063zm0-8.118c-2.795 0-5.073 2.125-5.073 5.054 0 2.91 2.278 5.055 5.073 5.055s5.074-2.144 5.074-5.055c0-2.929-2.278-5.054-5.074-5.054z"/><path d="M42.651 4.322h-3.467v.858h2.598c-.071.7-.349 1.25-.819 1.649s-1.07.6-1.779.6c-.778 0-1.437-.271-1.977-.81-.529-.55-.799-1.229-.799-2.048s.269-1.499.799-2.048c.54-.538 1.199-.808 1.977-.808.399 0 .78.069 1.129.219s.63.36.849.63l.659-.659c-.299-.34-.678-.6-1.148-.789s-.96-.28-1.489-.28c-1.038 0-1.918.36-2.637 1.079s-1.079 1.608-1.079 2.657.36 1.939 1.079 2.657 1.599 1.079 2.637 1.079c1.09 0 1.959-.349 2.628-1.059.589-.59.889-1.389.889-2.388 0-.169-.02-.349-.05-.539h0zM43.994.995v7.153h4.176v-.878h-3.257V5h2.938v-.858h-2.938V1.875h3.257v-.88h-4.176zm10.032.88v-.88h-4.915v.88h1.998v6.273h.919V1.875h1.998zm4.45-.88h-.919v7.153h.919V.995zm6.067.88v-.88h-4.915v.88h1.998v6.273h.919V1.875h1.998zm9.275.05c-.709-.73-1.578-1.09-2.616-1.09s-1.909.36-2.618 1.079c-.709.709-1.058 1.599-1.058 2.657s.349 1.948 1.058 2.657c.709.719 1.578 1.079 2.618 1.079 1.029 0 1.907-.36 2.616-1.079.709-.709 1.058-1.599 1.058-2.657 0-1.049-.349-1.937-1.058-2.646zm-4.575.598c.529-.538 1.179-.808 1.959-.808s1.428.269 1.948.808c.529.529.789 1.22.789 2.048s-.26 1.519-.789 2.048c-.52.538-1.17.81-1.948.81s-1.43-.271-1.959-.81c-.518-.54-.778-1.218-.778-2.048s.26-1.508.778-2.048zm7.818 1.17l-.039-1.38h.039l3.636 5.834h.96V.994h-.919V5.18l.039 1.38h-.039L77.261.994h-1.12v7.153h.919V3.693z" stroke="#fff" stroke-width=".267" stroke-miterlimit="10"/></g></svg>