<svg xmlns="http://www.w3.org/2000/svg" width="100" height="100" fill="none" xmlns:v="https://vecta.io/nano"><g fill="#0168ca"><path d="M50 8.333L12.5 25v14.638c0 23.606 15.106 44.565 37.5 52.029 22.394-7.465 37.5-28.423 37.5-52.029V25L50 8.333z"/><path opacity=".3" d="M51.422 5.135L50 4.503l-1.422.632-37.5 16.667L9 22.725V25v14.638c0 25.113 16.07 47.409 39.893 55.35l1.107.369 1.107-.369C74.93 87.046 91 64.75 91 39.637V25v-2.275l-2.079-.924-37.5-16.667z" stroke="#0168ca" stroke-width="7"/></g><g fill="#fff"><path fill-rule="evenodd" d="M33.51 37.15l26.393-6.11a1.36 1.36 0 0 1 1.711 1.303l1.236 19.605c.054.923-.625 1.833-1.494 2.037l-26.407 6.109a1.36 1.36 0 0 1-1.711-1.29L32.003 39.2c-.054-.923.625-1.833 1.507-2.036v-.014z"/><path d="M67.967 47.21h-1.575c-.638 0-1.168-.529-1.168-1.168a1.17 1.17 0 0 1 1.168-1.167h1.371l-.516-5.852c-.081-.91-.896-1.67-1.806-1.67h-1.086l.923 14.446c.136 2.091-1.358 4.1-3.381 4.562L45.172 60.23h22.266c.91 0 1.602-.747 1.521-1.656l-.991-11.364z" fill-opacity=".4"/></g></svg>