<svg xmlns="http://www.w3.org/2000/svg" width="24" height="24" viewBox="0 0 24 24" fill="none">
    <path d="M0 5.0625C0 2.26656 2.26656 0 5.0625 0H18.9375C21.7334 0 24 2.26656 24 5.0625V18.9375C24 21.7334 21.7334 24 18.9375 24H5.0625C2.26656 24 0 21.7334 0 18.9375V5.0625Z" fill="white"/>
    <path d="M0 5.0625C0 2.26656 2.26656 0 5.0625 0H18.9375C21.7334 0 24 2.26656 24 5.0625V18.9375C24 21.7334 21.7334 24 18.9375 24H5.0625C2.26656 24 0 21.7334 0 18.9375V5.0625Z" fill="url(#paint0_linear_12908_1135)"/>
    <path fill-rule="evenodd" clip-rule="evenodd" d="M4.9554 7.86838L16.1923 5.26726C16.568 5.18055 16.8975 5.42908 16.9206 5.82214L17.4466 14.1689C17.4697 14.5619 17.1807 14.9492 16.8108 15.0359L5.56811 17.637C5.19239 17.7237 4.86294 17.4752 4.83982 17.0879L4.3138 8.74118C4.29068 8.34812 4.57968 7.96084 4.9554 7.87413V7.86838Z" fill="url(#paint1_linear_12908_1135)"/>
    <path opacity="0.3" d="M19.627 12.1511H18.9565C18.6848 12.1511 18.4594 11.9257 18.4594 11.654C18.4594 11.3823 18.679 11.1569 18.9565 11.1569H19.5403L19.3206 8.66559C19.2859 8.27831 18.9391 7.95459 18.5518 7.95459H18.0894L18.4825 14.1048C18.5403 14.995 17.9045 15.8505 17.0432 16.047L9.92188 17.6944H19.4016C19.7888 17.6944 20.0836 17.3765 20.0489 16.9892L19.627 12.1511Z" fill="url(#paint2_linear_12908_1135)"/>
    <defs>
        <linearGradient id="paint0_linear_12908_1135" x1="0" y1="0" x2="24" y2="24" gradientUnits="userSpaceOnUse">
            <stop stop-color="white" stop-opacity="0"/>
            <stop offset="1" stop-color="#3C4355" stop-opacity="0.4"/>
        </linearGradient>
        <linearGradient id="paint1_linear_12908_1135" x1="10.8802" y1="5.25" x2="13.4063" y2="17.625" gradientUnits="userSpaceOnUse">
            <stop stop-color="#606981"/>
            <stop offset="1" stop-color="#3C4355"/>
        </linearGradient>
        <linearGradient id="paint2_linear_12908_1135" x1="14.9868" y1="7.95459" x2="17.0033" y2="17.6571" gradientUnits="userSpaceOnUse">
            <stop stop-color="#606981"/>
            <stop offset="1" stop-color="#3C4355"/>
        </linearGradient>
    </defs>
</svg>
