<svg width="430" height="642" viewBox="0 0 430 642" fill="none" xmlns="http://www.w3.org/2000/svg">
    <g opacity="0.15">
        <mask id="mask0_12908_1050" style="mask-type:alpha" maskUnits="userSpaceOnUse" x="-56" y="-168" width="542" height="810">
            <rect x="-56" y="642" width="810" height="541.811" transform="rotate(-90 -56 642)" fill="#C4C4C4"/>
        </mask>
        <g mask="url(#mask0_12908_1050)">
            <path opacity="0.0294118" d="M250.936 42.4139C258.454 108.925 242.446 233.741 118.272 200.922C-36.945 159.899 -190.445 206.621 -304.088 364.519C-395.003 490.837 -532.492 525.92 -589.873 527.672" stroke="#2E3853" stroke-width="0.8"/>
            <path opacity="0.0588235" d="M269.052 44.1211C273.117 110.939 250.672 234.737 128.367 195.391C-24.5144 146.208 -180.222 184.742 -301.881 336.41C-399.208 457.743 -538.325 485.501 -595.717 484.214" stroke="#2E3853" stroke-width="0.8"/>
            <path opacity="0.0882353" d="M287.204 46.9663C287.806 113.907 258.985 236.348 138.884 190.583C-11.2428 133.376 -168.732 163.617 -298.073 308.637C-401.546 424.653 -541.908 445.01 -599.155 440.687" stroke="#2E3853" stroke-width="0.8"/>
            <path opacity="0.117647" d="M305.33 50.9493C302.467 117.83 267.349 238.578 149.781 186.519C2.82027 121.445 -156.018 143.309 -292.687 281.285C-402.022 391.665 -543.246 404.566 -600.191 397.218" stroke="#2E3853" stroke-width="0.8"/>
            <path opacity="0.147059" d="M323.371 56.0668C317.05 122.705 275.731 241.428 161.018 183.218C17.6271 110.456 -142.125 123.882 -285.747 254.436C-400.645 358.879 -542.343 364.287 -598.829 353.936" stroke="#2E3853" stroke-width="0.8"/>
            <path opacity="0.176471" d="M341.268 62.3133C331.507 128.525 284.1 244.899 172.557 180.698C33.128 100.446 -127.1 105.399 -277.282 228.172C-397.427 326.391 -539.211 324.292 -595.084 310.965" stroke="#2E3853" stroke-width="0.8"/>
            <path opacity="0.205882" d="M358.962 69.6793C345.788 135.284 292.424 248.989 184.356 178.972C49.2713 91.4506 -110.993 87.9169 -267.323 202.573C-392.387 294.298 -533.868 284.698 -588.975 268.433" stroke="#2E3853" stroke-width="0.8"/>
            <path opacity="0.235294" d="M376.397 78.1527C359.846 142.97 300.67 253.695 196.374 178.055C66.0037 83.5035 -93.8583 71.4925 -255.908 177.718C-385.547 262.698 -526.337 245.623 -580.527 226.463" stroke="#2E3853" stroke-width="0.8"/>
            <path opacity="0.264706" d="M393.514 87.718C373.632 151.571 308.807 259.012 208.568 177.955C83.2699 76.6335 -75.7514 56.178 -243.076 153.681C-376.936 231.683 -516.649 207.181 -569.773 185.179" stroke="#2E3853" stroke-width="0.8"/>
            <path opacity="0.294118" d="M410.259 98.3574C387.099 161.07 316.803 264.934 220.897 178.682C101.014 70.8681 -56.7311 42.0242 -228.873 130.538C-366.586 201.349 -504.839 169.485 -556.752 144.702" stroke="#2E3853" stroke-width="0.8"/>
            <path opacity="0.323529" d="M426.576 110.049C400.202 171.451 324.627 271.451 233.316 180.242C119.177 66.2306 -36.8587 29.0774 -213.345 108.359C-354.534 171.784 -490.949 132.647 -541.508 105.15" stroke="#2E3853" stroke-width="0.8"/>
            <path opacity="0.352941" d="M442.407 122.77C412.892 182.691 332.245 278.554 245.779 182.637C137.697 62.7414 -16.2019 17.3808 -196.549 87.2129C-340.827 143.078 -475.03 96.7749 -524.097 66.6399" stroke="#2E3853" stroke-width="0.8"/>
            <path opacity="0.382353" d="M457.708 136.492C425.132 194.769 339.635 286.233 258.251 185.871C156.522 60.4187 5.18136 6.97495 -178.533 67.1662C-325.504 115.319 -457.127 61.9762 -504.567 29.2856" stroke="#2E3853" stroke-width="0.8"/>
            <path opacity="0.411765" d="M472.423 151.186C436.876 207.659 346.762 294.472 270.684 189.94C175.587 59.2761 27.2195 -2.1043 -159.358 48.2812C-308.62 88.5895 -437.301 28.3534 -482.984 -6.80327" stroke="#2E3853" stroke-width="0.8"/>
            <path opacity="0.441176" d="M486.504 166.819C448.082 221.333 353.599 303.258 283.035 194.843C194.831 59.3247 49.843 -9.82415 -139.086 30.6174C-290.23 62.9706 -415.618 -3.9936 -459.419 -41.5199" stroke="#2E3853" stroke-width="0.8"/>
            <path opacity="0.470588" d="M499.901 183.358C458.711 235.764 360.118 312.576 295.261 200.575C214.191 60.5738 72.9804 -16.1539 -117.783 14.2329C-270.394 38.5423 -392.144 -34.9664 -433.943 -74.7595" stroke="#2E3853" stroke-width="0.8"/>
            <path opacity="0.5" d="M512.57 200.763C468.724 250.917 366.291 322.406 307.319 207.126C233.605 63.0258 96.5594 -21.0705 -95.5151 -0.821706C-249.175 15.3773 -366.954 -64.4745 -406.636 -106.425" stroke="#2E3853" stroke-width="0.8"/>
            <path opacity="0.529412" d="M524.466 218.997C478.085 266.762 372.092 332.731 319.168 214.488C253.012 66.6839 120.506 -24.5504 -72.3531 -14.4952C-226.64 -6.45098 -340.126 -92.427 -377.583 -136.42" stroke="#2E3853" stroke-width="0.8"/>
            <path opacity="0.558824" d="M535.548 238.015C486.758 283.26 377.497 343.529 330.764 222.647C272.349 71.5439 144.746 -26.5784 -48.3695 -26.7442C-202.862 -26.8769 -311.742 -118.741 -346.871 -164.657" stroke="#2E3853" stroke-width="0.8"/>
            <path opacity="0.588235" d="M545.776 257.776C494.712 300.376 382.481 354.78 342.068 231.59C291.553 77.6027 169.203 -27.1387 -23.6393 -37.5251C-177.913 -45.8343 -281.89 -143.336 -314.594 -191.048" stroke="#2E3853" stroke-width="0.8"/>
            <path opacity="0.617647" d="M555.113 278.231C501.914 318.07 387.021 366.459 353.04 241.299C310.562 84.8495 193.801 -26.2239 1.76045 -46.8026C-151.872 -63.2655 -250.66 -166.136 -280.851 -215.514" stroke="#2E3853" stroke-width="0.8"/>
            <path opacity="0.647059" d="M563.52 299.333C508.332 336.303 391.093 378.544 363.635 251.757C329.313 93.2739 218.459 -23.827 27.7473 -54.5414C-124.822 -79.1129 -218.152 -187.071 -245.745 -237.979" stroke="#2E3853" stroke-width="0.8"/>
            <path opacity="0.676471" d="M570.973 321.033C513.948 355.031 394.683 391.01 373.824 262.943C347.751 102.86 243.11 -19.9471 54.2485 -60.7131C-96.8404 -93.3258 -184.455 -206.076 -209.376 -258.374" stroke="#2E3853" stroke-width="0.8"/>
            <path opacity="0.705882" d="M577.439 343.278C518.732 374.211 397.769 403.829 383.566 274.834C365.813 113.59 267.671 -14.587 81.1784 -65.2928C-68.0156 -105.857 -149.675 -223.09 -171.855 -276.635" stroke="#2E3853" stroke-width="0.8"/>
            <path opacity="0.735294" d="M582.89 366.017C522.663 393.8 400.332 416.975 392.825 287.405C383.441 125.443 292.067 -7.7531 108.454 -68.2597C-38.4363 -116.665 -113.917 -238.059 -133.295 -292.705" stroke="#2E3853" stroke-width="0.8"/>
            <path opacity="0.764706" d="M587.302 389.193C525.72 413.751 402.358 430.419 401.566 300.63C400.577 138.393 316.221 0.543426 135.991 -69.5982C-8.19255 -125.712 -77.287 -250.934 -93.8113 -306.531" stroke="#2E3853" stroke-width="0.8"/>
            <path opacity="0.794118" d="M590.654 412.752C527.886 434.017 403.83 444.133 409.757 314.48C417.165 152.413 340.059 10.2877 163.706 -69.2967C22.6236 -132.964 -39.8957 -261.672 -53.52 -318.067" stroke="#2E3853" stroke-width="0.8"/>
            <path opacity="0.823529" d="M592.929 436.637C529.146 454.551 404.736 458.088 417.365 328.926C433.15 167.473 363.505 21.4615 191.512 -67.3475C53.9184 -138.395 -1.85427 -270.235 -12.5413 -327.274" stroke="#2E3853" stroke-width="0.8"/>
            <path opacity="0.852941" d="M594.109 460.791C529.487 475.304 405.065 472.252 424.36 343.935C448.48 183.539 386.486 34.0416 219.326 -63.7486C85.5969 -141.981 36.7237 -276.592 29.0032 -334.119" stroke="#2E3853" stroke-width="0.8"/>
            <path opacity="0.882353" d="M594.184 485.155C528.899 496.229 404.805 486.595 430.715 359.475C463.102 200.576 408.931 48.002 247.06 -58.5014C117.563 -143.704 75.7235 -280.718 70.9907 -338.574" stroke="#2E3853" stroke-width="0.8"/>
            <path opacity="0.911765" d="M593.143 509.671C527.374 517.274 403.95 501.085 436.403 375.511C476.969 218.543 430.768 63.3119 274.63 -51.6127C149.721 -143.552 115.029 -282.592 113.297 -340.62" stroke="#2E3853" stroke-width="0.8"/>
            <path opacity="0.941176" d="M590.977 534.278C524.905 538.39 402.487 515.691 441.394 392.007C490.028 237.401 451.924 79.9371 301.948 -43.0938C181.968 -141.519 154.519 -282.204 155.792 -340.244" stroke="#2E3853" stroke-width="0.8"/>
            <path opacity="0.970588" d="M587.689 558.92C521.495 559.528 400.42 530.382 445.674 408.926C502.243 257.107 472.34 97.8416 328.937 -32.9584C214.215 -137.598 194.085 -279.544 198.36 -337.437" stroke="#2E3853" stroke-width="0.8"/>
            <path d="M583.277 583.533C517.142 580.637 397.741 545.123 449.219 426.229C513.567 277.611 491.947 116.982 355.51 -21.2288C246.36 -131.797 233.604 -274.614 240.869 -332.201" stroke="#2E3853" stroke-width="0.8"/>
        </g>
    </g>
</svg>
