<svg xmlns="http://www.w3.org/2000/svg" width="12" height="10" viewBox="0 0 12 10" fill="none">
    <g clip-path="url(#clip0_10258_1752)">
        <path fill-rule="evenodd" clip-rule="evenodd" d="M0 0.833331C0 0.373128 0.341146 0 0.761903 0H8.38097C8.80171 0 9.14286 0.373128 9.14286 0.833331V3.89771C9.42206 3.55164 9.83051 3.33333 10.2857 3.33333C11.1273 3.33333 11.8095 4.07959 11.8095 5C11.8095 5.92041 11.1273 6.66669 10.2857 6.66669C9.83051 6.66669 9.42206 6.44837 9.14286 6.10229V9.16669C9.14286 9.62687 8.80171 10 8.38097 10H0.761903C0.341146 10 0 9.62687 0 9.16669V6.40281C0 5.83333 0.891743 5.79326 1.14639 6.10677C1.42559 6.45019 1.83259 6.66669 2.28571 6.66669C3.12723 6.66669 3.80953 5.92041 3.80953 5C3.80953 4.07959 3.12723 3.33333 2.28571 3.33333C1.83259 3.33333 1.42559 3.54981 1.14639 3.89323C0.891743 4.20674 0 4.16667 0 3.59721V0.833331Z" fill="#5C6373"/>
    </g>
    <defs>
        <clipPath id="clip0_10258_1752">
            <rect width="12" height="10" fill="white"/>
        </clipPath>
    </defs>
</svg>
