<svg width="28" height="28" viewBox="0 0 28 28" fill="none" xmlns="http://www.w3.org/2000/svg">
<circle cx="14" cy="14" r="13.5" fill="#E9EBEF" stroke="#E9EBEF"/>
<path fill-rule="evenodd" clip-rule="evenodd" d="M6.65362 9.66204L18.0778 7.01754C18.4598 6.92939 18.7948 7.18207 18.8183 7.58168L19.3531 16.0676C19.3766 16.4672 19.0827 16.8609 18.7066 16.9491L7.27654 19.5936C6.89456 19.6817 6.55962 19.429 6.53611 19.0353L6.00132 10.5494C5.97781 10.1498 6.27164 9.75603 6.65362 9.66788V9.66204Z" fill="#515765"/>
<path d="M21.57 14.0165H20.8883C20.6121 14.0165 20.383 13.7873 20.383 13.5111C20.383 13.2349 20.6063 13.0057 20.8883 13.0057H21.4819L21.2586 10.4729C21.2233 10.0792 20.8707 9.75005 20.477 9.75005H20.0068L20.4064 16.0028C20.4652 16.9078 19.8188 17.7776 18.9432 17.9774L11.7031 19.6522H21.3409C21.7346 19.6522 22.0343 19.329 21.999 18.9353L21.57 14.0165Z" fill="#A1A6B2"/>
</svg>
