<svg width="22" height="22" viewBox="0 0 22 22" fill="none" xmlns="http://www.w3.org/2000/svg">
<g clip-path="url(#clip0_603_246)">
<path d="M19.25 0H2.75C1.23122 0 0 1.23122 0 2.75V19.25C0 20.7688 1.23122 22 2.75 22H19.25C20.7688 22 22 20.7688 22 19.25V2.75C22 1.23122 20.7688 0 19.25 0Z" fill="#F68423"/>
<path d="M10.663 5.65271C9.82558 5.65271 9.14429 6.33303 9.14429 7.16736C9.14429 7.89838 9.6643 8.51073 10.3837 8.64441C10.3686 9.11113 10.356 9.7072 10.3474 10.2799C10.4521 10.2684 10.5581 10.2625 10.6656 10.2625C10.7714 10.2625 10.8756 10.2683 10.9785 10.2799C10.9697 9.7072 10.9587 9.11189 10.9436 8.64441C11.6628 8.51035 12.1816 7.89838 12.1816 7.16736C12.1816 6.33303 11.5003 5.65271 10.663 5.65271ZM17.0707 7.77832C16.4932 7.77832 16.0247 8.24589 16.0247 8.82166C16.0247 8.93375 16.0428 9.04156 16.0757 9.14258L13.233 10.8251C13.233 10.8251 12.9824 10.9715 12.665 11.1581C12.8071 11.3332 12.9178 11.5271 12.9967 11.7314L13.5701 11.3971C14.9252 10.6044 15.8127 10.0602 16.4449 9.65418C16.6197 9.7848 16.8358 9.86231 17.0707 9.86231C17.6482 9.86231 18.1154 9.39704 18.1154 8.82166C18.1154 8.24589 17.6482 7.77832 17.0707 7.77832ZM5.20056 8.15833C5.14787 8.15784 5.09446 8.16262 5.04077 8.1731C4.83242 8.21358 4.65179 8.3331 4.5332 8.50879C4.44402 8.64075 4.39758 8.79205 4.39758 8.94788C4.39758 8.99886 4.40319 9.05112 4.4137 9.1023C4.45449 9.30914 4.57323 9.488 4.74805 9.60584H4.74939C4.92526 9.72336 5.13608 9.76748 5.34424 9.72669C5.45385 9.70587 5.55935 9.65076 5.66113 9.57361C5.71174 9.61295 6.66955 10.3538 6.66955 10.3538L8.24328 11.5663L8.24462 11.5676C8.35825 11.3795 8.49933 11.2061 8.66223 11.0507L8.65283 11.0426C7.25916 9.96154 6.42115 9.41162 5.95654 9.13721C5.97391 9.07094 5.98742 9.00804 5.98742 8.95056L5.97265 8.79748C5.8993 8.42302 5.5694 8.16171 5.20056 8.15833ZM10.5273 10.813C10.4559 10.8148 10.3838 10.8196 10.3112 10.8278C9.1497 10.9584 8.29865 11.8617 8.40979 12.8459C8.52112 13.8298 9.55273 14.5221 10.714 14.3915C11.8754 14.2614 12.7267 13.3575 12.6154 12.3733C12.511 11.4507 11.5984 10.7853 10.5273 10.813ZM18.2939 11.424C17.6928 11.424 17.188 11.831 17.0398 12.384C15.8514 12.3653 14.5006 12.352 13.131 12.3464C13.1363 12.4291 13.1362 12.5124 13.1323 12.5962C13.1243 12.7356 13.1019 12.8728 13.0665 13.0057C14.4516 13.0004 15.8185 12.9865 17.0197 12.9681C17.1363 13.5636 17.6636 14.0128 18.2953 14.0128C19.0127 14.0128 19.5937 13.4335 19.5937 12.7184C19.5937 12.0032 19.0127 11.424 18.2953 11.424H18.2939ZM3.53015 11.4911C2.9099 11.4911 2.40625 11.9924 2.40625 12.611C2.40625 13.2289 2.9099 13.7295 3.53015 13.7295C4.0259 13.7295 4.44506 13.4087 4.59363 12.9641C5.58187 12.9805 6.73214 12.9927 7.93579 13.0004C7.91631 12.8629 7.91225 12.7233 7.92371 12.5828C7.9277 12.5047 7.93566 12.428 7.94922 12.3518C6.7553 12.3593 5.61317 12.3718 4.62988 12.3881C4.52619 11.8763 4.07364 11.4911 3.53015 11.4911ZM8.23389 13.7939C7.71656 14.1115 7.26771 14.3966 6.89514 14.6439C6.69806 14.4566 6.44603 14.3557 6.17944 14.366C5.91419 14.3765 5.66838 14.489 5.48792 14.6829C5.30802 14.8769 5.21327 15.1299 5.22339 15.3945C5.24497 15.9405 5.7081 16.3674 6.25598 16.3466C6.79202 16.3259 7.21204 15.8911 7.21204 15.3569V15.318C7.20993 15.2576 7.19508 15.1917 7.17712 15.1219C7.20577 15.1053 7.93823 14.6806 8.65015 14.2679C8.58579 14.2128 8.52405 14.1543 8.46619 14.092H8.46485C8.37777 13.9983 8.30148 13.898 8.23389 13.7939ZM12.559 13.9363C12.4217 14.0915 12.2632 14.2317 12.089 14.3539L12.5455 14.6238C12.5455 14.6242 12.767 14.7514 12.8436 14.7957C12.828 14.8636 12.8154 14.9289 12.8154 14.9877C12.8154 15.0696 12.8276 15.1522 12.8503 15.2334C12.9838 15.7047 13.4674 15.9825 13.9286 15.8524C14.1472 15.7909 14.3292 15.6463 14.4415 15.4456C14.5166 15.313 14.5557 15.1625 14.5557 15.0105C14.5557 14.9269 14.5439 14.8434 14.5208 14.7621C14.3875 14.2912 13.9043 14.0132 13.4438 14.1431C13.3466 14.1708 13.2518 14.2234 13.1605 14.2948C13.1256 14.2747 13.0383 14.2263 13.0383 14.2263C12.944 14.1769 12.8338 14.119 12.559 13.9363Z" fill="white"/>
</g>
<defs>
<clipPath id="clip0_603_246">
<rect width="22" height="22" fill="white"/>
</clipPath>
</defs>
</svg>
