<svg width="24" height="24" viewBox="0 0 24 24" fill="none" xmlns="http://www.w3.org/2000/svg">
<g clip-path="url(#clip0_11850_291)">
<path d="M23.2001 5.12008V4.81014C23.2001 3.8102 22.6601 2.6702 21.6801 2.6702H21C20.8054 2.40433 20.5247 2.21139 20.1996 2.13208L20.19 2.13001C17.7278 1.61964 14.898 1.32751 12 1.32751C9.102 1.32751 6.27225 1.61964 3.53869 2.17614L3.81 2.13001C3.4785 2.21176 3.201 2.40451 3.01275 2.66589L3.00994 2.67001H2.31994C1.33987 2.67001 0.799875 3.83008 0.799875 4.80995V5.11989C0.34725 5.24045 0.0163125 5.63945 0 6.11814V6.12001V11.1201C0 11.7221 0.488062 12.21 1.08994 12.21H1.30988C1.78069 12.1913 2.17313 11.8765 2.30775 11.4476L2.30981 11.44C2.30981 12.04 2.30981 12.82 2.30981 13.3399V18.79C2.31131 18.969 2.34056 19.1408 2.39325 19.3018L2.38987 19.2898C2.34075 19.4111 2.3115 19.552 2.30981 19.6991V21.5198C2.30981 22.1218 2.79787 22.6097 3.39975 22.6097H5.30981C5.31038 22.6097 5.31094 22.6097 5.3115 22.6097C5.89237 22.6097 6.36713 22.1554 6.39975 21.5826L6.39994 21.5798V20.9998C8.08369 21.3242 10.0202 21.5098 12 21.5098C13.9798 21.5098 15.9163 21.3242 17.793 20.9695L17.6001 20.9998V21.6199C17.6001 22.222 18.0881 22.7098 18.69 22.7098H20.5101C21.1121 22.7098 21.6 22.2218 21.6 21.6199V19.7599C21.6 19.7584 21.6 19.7563 21.6 19.7545C21.6 19.6041 21.5668 19.4616 21.5074 19.3337L21.51 19.3399C21.567 19.195 21.6 19.0271 21.6 18.8515C21.6 18.8509 21.6 18.8503 21.6 18.8498V13.3999C21.6 12.8899 21.66 12.1099 21.66 11.5099C21.7974 11.944 22.1904 12.2558 22.6584 12.2698H22.6601H22.8801C22.8891 12.27 22.8996 12.2702 22.9101 12.2702C23.5121 12.2702 24 11.7821 24 11.1803C24 11.1801 24 11.1799 24 11.1799V6.17983C24.0002 6.17251 24.0002 6.16389 24.0002 6.15526C24.0002 5.66026 23.664 5.24364 23.2074 5.12158L23.1999 5.11989L23.2001 5.12008ZM9.27019 1.86995H14.7302C15.3302 1.86995 15.8201 2.22001 15.8201 2.67001C15.8201 3.12001 15.3302 3.47008 14.7302 3.47008H9.27019C8.67019 3.47008 8.18025 3.12001 8.18025 2.67001C8.18025 2.22001 8.67019 1.86995 9.27019 1.86995ZM4.92019 5.45008C7.04212 4.83095 9.47962 4.47489 12.0002 4.47489C14.5208 4.47489 16.9584 4.83095 19.2651 5.49564L19.0802 5.45008C19.3948 5.55901 19.6251 5.83295 19.6697 6.16558L19.6702 6.17008C19.8202 7.89002 19.9702 9.43014 20.1302 11.07C20.1302 11.37 19.9403 11.47 19.6403 11.47H4.36031C4.06031 11.47 3.84037 11.37 3.87038 11.07C4.03031 9.42995 4.18031 7.89002 4.33031 6.17008C4.38 5.83483 4.60838 5.56295 4.914 5.45214L4.92019 5.45008ZM1.60013 5.12008V4.81014C1.60013 4.13008 1.60013 3.47008 2.32013 3.47008H2.71012C2.59013 5.74014 2.51006 8.00008 2.40019 10.1601V6.16014C2.40019 6.15883 2.40019 6.15714 2.40019 6.15545C2.40019 5.66045 2.064 5.24401 1.60763 5.12176L1.60013 5.12008ZM6.60019 18.55L4.33012 17.55C3.77513 17.4206 3.35381 16.9691 3.27112 16.4076L3.27019 16.4001C3.27019 15.9501 3.76012 15.6501 4.35019 15.7401L6.00019 16.0001C6.60019 16.0901 7.63013 16.6502 7.63013 17.2502C7.63013 17.8502 7.16006 18.7202 6.59006 18.5501L6.60019 18.55ZM13.6502 20.2701H10.3601C10.353 20.2703 10.3446 20.2703 10.3359 20.2703C9.83325 20.2703 9.40856 19.9361 9.27206 19.4779L9.27 19.47C9.40856 19.0039 9.83325 18.6698 10.3359 18.6698C10.3444 18.6698 10.3528 18.67 10.3612 18.67H10.3599H13.6399C13.647 18.6698 13.6554 18.6698 13.6641 18.6698C14.1667 18.6698 14.5914 19.0039 14.7279 19.4621L14.73 19.47C14.5914 19.9361 14.1667 20.2703 13.6641 20.2703C13.6556 20.2703 13.6472 20.2701 13.6388 20.2701H13.6401H13.6502ZM16.3703 17.22C16.3703 16.62 17.3702 16.06 18.0002 15.97L19.6601 15.7399C20.2502 15.6499 20.7401 15.9499 20.7401 16.3999C20.6464 16.9541 20.2329 17.3908 19.6995 17.518L19.6901 17.5198L17.4201 18.5198C16.8401 18.7198 16.3601 17.8198 16.3601 17.2198L16.3703 17.22ZM21.6002 6.15995V9.87001C21.5102 7.76008 21.4601 5.63008 21.3503 3.48001H21.6803C22.3603 3.48001 22.4002 4.14001 22.4002 4.82008V5.13001C21.9381 5.25339 21.6028 5.66739 21.6002 6.15995Z" fill="#5B6373"/>
</g>
<defs>
<clipPath id="clip0_11850_291">
<rect width="24" height="24" fill="white"/>
</clipPath>
</defs>
</svg>
