<svg width="24" height="24" viewBox="0 0 24 24" fill="none" xmlns="http://www.w3.org/2000/svg">
<g clip-path="url(#clip0_13878_106)">
<path d="M6.99994 21H16.9999L17.9998 17.0001H5.99981L6.99994 21ZM14.8701 12C14.6467 11.1653 14.1448 10.4713 13.4719 10.0076L13.4601 9.99994C13.1396 10.4556 12.6161 10.7498 12.024 10.7498C11.0574 10.7498 10.2741 9.96619 10.2741 8.99982C10.2741 8.04169 11.0439 7.26357 11.9989 7.25007H12.0002C12.9668 7.25007 13.7501 8.03363 13.7501 9C14.8431 9.64463 15.6283 10.7119 15.8852 11.9711L15.8901 12H19.0001C18.9872 10.8371 18.6146 9.76388 17.9888 8.883L18.0002 8.89988C17.0702 8.50988 16.3103 8.89988 15.0002 7.58982C14.2247 6.76782 13.1918 6.19613 12.0308 6.00394L12.0002 5.99982C10.8086 6.19613 9.77569 6.76782 9.00262 7.58719L9.00019 7.58982C7.69012 8.91975 6.93019 8.50988 6.00019 8.89988C5.38575 9.76369 5.01319 10.8369 5.00025 11.9966V11.9998H14.8702L14.8701 12ZM3 12.9999L4.5 15.9999H19.5L21 12.9999H3ZM6.99994 24H16.9999V21.9999H6.99994V24ZM13.8999 4.86C13.7299 5.52994 13.2399 6 12 6C10.7601 6 10.26 5.52994 10.0899 4.86C9.711 4.36313 9.48281 3.7335 9.48281 3.05044C9.48281 2.93757 9.489 2.826 9.50119 2.7165L9.49988 2.73C9.4995 2.71332 9.49931 2.69363 9.49931 2.67394C9.49931 1.257 10.599 0.0967544 11.9916 0.000379395L12 -0.000183105C13.4014 0.0960044 14.5018 1.25644 14.5018 2.67394C14.5018 2.70769 14.5013 2.74125 14.4999 2.77463L14.5001 2.76975C14.508 2.85169 14.5127 2.94694 14.5127 3.04332C14.5127 3.72938 14.2824 4.36163 13.8949 4.86694L13.9001 4.85982L13.8999 4.86Z" fill="#5B6373"/>
</g>
<defs>
<clipPath id="clip0_13878_106">
<rect width="24" height="24" fill="white"/>
</clipPath>
</defs>
</svg>
