<svg width="24" height="24" viewBox="0 0 24 24" fill="none" xmlns="http://www.w3.org/2000/svg">
<g clip-path="url(#clip0_11850_186)">
<path d="M18.4598 3.99994H5.53969L6.33975 2.37994H17.6597L18.4598 3.99994ZM15.2299 0H8.76994L7.99988 1.62H15.9999L15.2299 0ZM20.0798 8.07994L19.2698 4.84988H4.72969L3.91969 8.07994L11.9996 5.65988L20.0798 8.07994ZM20.7199 18.5799L21.5299 19.3899L20.3899 20.5299C19.9952 20.9254 19.4496 21.1699 18.8469 21.1699C18.8445 21.1699 18.8421 21.1699 18.8396 21.1699H18.84C18.8385 21.1699 18.8366 21.1699 18.8348 21.1699C18.2346 21.1699 17.6917 20.9252 17.3002 20.5301L17.3001 20.5299C17.1167 20.3318 16.8553 20.208 16.5651 20.208C16.2748 20.208 16.0134 20.3318 15.8306 20.5292L15.8301 20.5299C15.4341 20.9241 14.8881 21.1678 14.2851 21.1678C13.6821 21.1678 13.1361 20.9241 12.7401 20.5298C12.5565 20.3282 12.2929 20.2024 12 20.2024C11.7071 20.2024 11.4435 20.3284 11.2607 20.529L11.2599 20.5298C10.8639 20.9239 10.3179 21.1676 9.71494 21.1676C9.11194 21.1676 8.56594 20.9239 8.16994 20.5296C7.98675 20.3314 7.72519 20.2076 7.43494 20.2076C7.14469 20.2076 6.88312 20.3314 6.7005 20.5288L6.69994 20.5296C6.30394 20.9237 5.75794 21.1674 5.15494 21.1674C4.55194 21.1674 4.00594 20.9237 3.60994 20.5294L2.46994 19.3894L3.27994 18.5794L4.41994 19.7293C4.60912 19.9149 4.86862 20.0295 5.15494 20.0295C5.44125 20.0295 5.70075 19.9149 5.89013 19.7291L5.88994 19.7293C6.28275 19.3354 6.82613 19.0916 7.4265 19.0916C7.65619 19.0916 7.87763 19.1273 8.08538 19.1934L8.07 19.1893L1.5 9.69938L12 7.26938V18.5794L12.81 7.26938L22.5 9.69938L15.93 19.1893C16.1224 19.1274 16.3438 19.0916 16.5735 19.0916C17.1737 19.0916 17.7171 19.3354 18.1099 19.7291C18.2991 19.9148 18.5586 20.0293 18.8449 20.0293C19.1312 20.0293 19.3907 19.9148 19.5801 19.7289L19.5799 19.7291L20.7199 18.5799ZM13.6198 11.31L15.2299 9.69994L13.6198 8.79V11.31ZM8.76975 9.69994L10.3798 11.31V8.79L8.76975 9.69994ZM19.6399 22.7001C19.4638 22.7994 19.2533 22.8581 19.029 22.8581C18.6669 22.8581 18.3405 22.7053 18.1106 22.4608L18.1101 22.4601C17.7141 22.0659 17.1681 21.8222 16.5651 21.8222C15.9621 21.8222 15.4161 22.0659 15.0201 22.4603C14.8365 22.6618 14.5729 22.7876 14.28 22.7876C13.9871 22.7876 13.7235 22.6616 13.5407 22.461L13.5399 22.4603C13.1456 22.0667 12.6011 21.8233 12 21.8233C11.3989 21.8233 10.8544 22.0667 10.4601 22.4604C10.2765 22.662 10.0129 22.7878 9.72 22.7878C9.42712 22.7878 9.1635 22.6618 8.98069 22.4612L8.97994 22.4604C8.58394 22.0663 8.03794 21.8226 7.43494 21.8226C6.83194 21.8226 6.28594 22.0663 5.88994 22.4606C5.6595 22.7059 5.33306 22.8587 4.971 22.8587C4.74675 22.8587 4.53619 22.8 4.35375 22.6974L4.36012 22.7006L3.22012 21.8406L2.53012 22.7505L3.67013 23.6106C4.03519 23.8498 4.48237 23.9923 4.96294 23.9923C5.63231 23.9923 6.23719 23.7159 6.66956 23.2712L6.67013 23.2706C6.85331 23.0724 7.11487 22.9487 7.40512 22.9487C7.69537 22.9487 7.95694 23.0724 8.13956 23.2699L8.14013 23.2706C8.53613 23.6648 9.08212 23.9085 9.68513 23.9085C10.2881 23.9085 10.8341 23.6648 11.2301 23.2704C11.4137 23.0689 11.6773 22.9431 11.9702 22.9431C12.2631 22.9431 12.5265 23.0691 12.7095 23.2697L12.7103 23.2704C13.1063 23.6646 13.6523 23.9083 14.2552 23.9083C14.8582 23.9083 15.4042 23.6646 15.8002 23.2703C15.9836 23.0721 16.245 22.9483 16.5353 22.9483C16.8255 22.9483 17.0869 23.0721 17.2697 23.2695L17.2703 23.2703C17.7232 23.7242 18.3484 24.0064 19.0395 24.0103H19.0403C19.0483 24.0105 19.0577 24.0105 19.0671 24.0105C19.5304 24.0105 19.9588 23.8605 20.3061 23.6063L20.3002 23.6104L21.4403 22.7503L20.7502 21.8404L19.6399 22.7001Z" fill="#5B6373"/>
</g>
<defs>
<clipPath id="clip0_11850_186">
<rect width="24" height="24" fill="white"/>
</clipPath>
</defs>
</svg>
