<svg width="24" height="24" viewBox="0 0 24 24" fill="none" xmlns="http://www.w3.org/2000/svg">
<g clip-path="url(#clip0_11850_226)">
<path d="M19.1018 20.0001C18.9228 20.1711 18.6796 20.2762 18.4118 20.2762C18.1441 20.2762 17.9009 20.1711 17.7214 19.9997L17.7218 20.0001C17.5979 19.8868 17.4604 19.7844 17.3134 19.6965L17.3018 19.6901L21.0818 12.8801L12.7619 11.3702L12.0019 18.9302V11.3602L2.92188 12.8702L6.70187 19.6802C6.54325 19.7745 6.40581 19.8769 6.28 19.992L6.28187 19.9903C6.10225 20.1643 5.857 20.2716 5.58662 20.2716C5.3215 20.2716 5.08037 20.1682 4.90131 19.9999L4.90188 20.0002L3.83181 18.9302L3.07188 19.6802L4.14194 20.7502C4.50662 21.1309 5.01925 21.3675 5.587 21.3675C6.15475 21.3675 6.66719 21.1309 7.03131 20.751L7.03206 20.7502C7.21169 20.5764 7.45694 20.4692 7.72712 20.4692C7.99731 20.4692 8.24237 20.5762 8.42237 20.7504L8.422 20.7502C8.78669 21.1309 9.29931 21.3675 9.86706 21.3675C10.4348 21.3675 10.9473 21.1309 11.3114 20.751L11.3121 20.7502C11.4912 20.5792 11.7344 20.4741 12.0021 20.4741C12.2699 20.4741 12.5131 20.5792 12.6925 20.7506L12.6921 20.7502C13.0568 21.1309 13.5694 21.3675 14.1372 21.3675C14.7049 21.3675 15.2174 21.1309 15.5815 20.751L15.5823 20.7502C15.7619 20.5764 16.0071 20.4692 16.2773 20.4692C16.5475 20.4692 16.7926 20.5762 16.9726 20.7504L16.9724 20.7502C17.3358 21.1207 17.8414 21.3502 18.4008 21.3502C18.4049 21.3502 18.409 21.3502 18.4131 21.3502H18.4126C18.4189 21.3502 18.4266 21.3504 18.4341 21.3504C18.9934 21.3504 19.4993 21.1207 19.8623 20.7506L19.8627 20.7502L20.9328 19.6802L20.1728 18.9302L19.1018 20.0001ZM9.17181 20.0001C9.04787 19.8868 8.91044 19.7844 8.76344 19.6965L8.75181 19.6901H11.0018C10.8432 19.7844 10.7057 19.8868 10.5799 20.0019L10.5818 20.0002C10.4011 20.1801 10.1519 20.2911 9.87681 20.2911C9.60175 20.2911 9.35256 20.1797 9.17181 20.0001ZM13.4517 20.0001C13.3278 19.8868 13.1903 19.7844 13.0433 19.6965L13.0317 19.6901H15.2517C15.0931 19.7844 14.9556 19.8868 14.8298 20.0019L14.8317 20.0002C14.6526 20.1712 14.4094 20.2764 14.1417 20.2764C13.8739 20.2764 13.6308 20.1712 13.4513 19.9999L13.4517 20.0001ZM20.2317 21.9999L20.8716 22.8499L19.8016 23.6499C19.4867 23.8873 19.0889 24.0302 18.6578 24.0302C18.6451 24.0302 18.6323 24.03 18.6198 24.0298H18.6216C17.9839 24.0081 17.4137 23.7364 17.0024 23.3106L17.0016 23.3098C16.822 23.136 16.5768 23.0287 16.3066 23.0287C16.0364 23.0287 15.7913 23.1358 15.6113 23.31L15.6115 23.3098C15.2399 23.6756 14.7295 23.9016 14.1664 23.9016C13.6034 23.9016 13.093 23.6756 12.7212 23.3094L12.7214 23.3096C12.5423 23.1386 12.2991 23.0334 12.0314 23.0334C11.7636 23.0334 11.5204 23.1386 11.341 23.31L11.3414 23.3096C10.9697 23.6754 10.4596 23.9014 9.89631 23.9014C9.33306 23.9014 8.82287 23.6754 8.45106 23.3092L8.45125 23.3094C8.27162 23.1356 8.02637 23.0284 7.75619 23.0284C7.486 23.0284 7.24094 23.1354 7.06094 23.3096L7.06131 23.3094C6.658 23.7315 6.09081 23.994 5.46231 23.994C5.00331 23.994 4.57694 23.8541 4.22369 23.6145L4.23137 23.6194L3.16131 22.8193L3.77125 21.9994L4.84131 22.7994C5.00819 22.8952 5.20806 22.9517 5.42106 22.9517C5.76006 22.9517 6.0655 22.8088 6.28075 22.5801L6.28131 22.5795C6.646 22.1989 7.15863 21.9622 7.72638 21.9622C8.29413 21.9622 8.80656 22.1989 9.17069 22.5787L9.17144 22.5795C9.3505 22.7505 9.59369 22.8557 9.86144 22.8557C10.1292 22.8557 10.3724 22.7505 10.5518 22.5791L10.5514 22.5795C10.9225 22.2082 11.4351 21.9786 12.0014 21.9786C12.5676 21.9786 13.0804 22.2082 13.4513 22.5793C13.6304 22.7503 13.8736 22.8555 14.1413 22.8555C14.4091 22.8555 14.6523 22.7503 14.8317 22.5789L14.8313 22.5793C15.196 22.1987 15.7086 21.9621 16.2764 21.9621C16.8441 21.9621 17.3566 22.1987 17.7207 22.5786L17.7214 22.5793C17.9373 22.8088 18.2427 22.9515 18.5817 22.9515C18.7947 22.9515 18.9948 22.8951 19.1673 22.7962L19.1614 22.7992L20.2317 21.9999ZM18.8118 12.1401L17.3018 6.14006L14.0717 5.60006L13.3017 3.79012H15.7917V2.27006H15.0018V3H13.0017L12.3516 1.47994H13.5417V0H10.5417V1.50994H11.7318L11.0018 3H9.00175V2.27006H8.21181V3.79012H10.7018L9.93175 5.60006L6.70169 6.06L5.19175 12.1101L12.0017 10.6001L18.8118 12.1401ZM17.3018 9.84L12.3818 9.14006V7.57012H15.7919L17.3018 9.84ZM8.21181 7.56994H11.6219V9.13987L6.70187 9.83981L8.21181 7.56994Z" fill="#5B6373"/>
</g>
<defs>
<clipPath id="clip0_11850_226">
<rect width="24" height="24" fill="white"/>
</clipPath>
</defs>
</svg>
