<svg width="24" height="24" viewBox="0 0 24 24" fill="none" xmlns="http://www.w3.org/2000/svg">
<g clip-path="url(#clip0_11850_42)">
<path d="M18 20.4999H6V3.49987H18V20.4999ZM18.9999 0.500061H4.99988V2.50012H18.9999V0.500061ZM18.9999 21.5001H4.99988V23.5001H18.9999V21.5001ZM0 22.5H3.99994V20.4999H0V22.5ZM0 4.5H5.00006V3.50006H0V4.5ZM5.00006 7.5V5.49994H1.00013V19.5H5.00006V17.4999H2.00006V16.5H5.00006V14.4999H2.00006V13.5H5.00006V11.4999H2.00006V10.5H5.00006V8.49994H2.00006V7.5H5.00006ZM24 20.4999H20.0001V22.5H24V20.4999ZM24 3.50006H18.9999V4.5H24V3.50006ZM18.9999 5.49994V7.5H21.9999V8.49994H18.9999V10.5H21.9999V11.4999H18.9999V13.5H21.9999V14.4999H18.9999V16.5H21.9999V17.4999H18.9999V19.5H22.9999V5.49994H18.9999ZM16.5 6.09994H7.5V7.09987H16.5V6.09994ZM16.5 9.69994H7.5V10.6999H16.5V9.69994ZM16.5 16.8999H7.5V17.8999H16.5V16.8999ZM16.5 13.2999H7.5V14.2999H16.5V13.2999Z" fill="#5B6373"/>
</g>
<defs>
<clipPath id="clip0_11850_42">
<rect width="24" height="24" fill="white"/>
</clipPath>
</defs>
</svg>
