<svg width="24" height="24" viewBox="0 0 24 24" fill="none" xmlns="http://www.w3.org/2000/svg">
<path d="M14.9988 6.00002C14.2509 5.24983 13.2166 4.78577 12.0738 4.78577C10.931 4.78577 9.89675 5.24983 9.149 6.00002L6.21875 8.90008C6.66763 9.3497 7.28825 9.62777 7.97375 9.62777C8.65925 9.62777 9.27988 9.3497 9.72875 8.90008L10.8987 7.73008L13.2387 10.0701L17.9187 14.76H21.4287V6.56008H15.5788L14.9988 6.00002Z" fill="#5B6373"/>
<path d="M0 7.82007H1.65994V16.92H0V7.82007Z" fill="#5B6373"/>
<path d="M22.3398 6.15991H23.9998V15.2598H22.3398V6.15991Z" fill="#5B6373"/>
<path d="M10.8995 8.90009L10.3195 9.49015C9.71784 10.087 8.88928 10.456 7.97447 10.456C7.05966 10.456 6.23109 10.0871 5.62922 9.48996L5.62941 9.49015L5.04947 8.90009L8.04947 5.90009L7.80947 5.66009C7.51059 5.35952 7.09678 5.17352 6.63947 5.17352C6.18216 5.17352 5.76834 5.35952 5.46947 5.66009L3.68953 7.43009C3.01584 8.18402 2.58328 9.16615 2.52009 10.2475L2.51953 10.26V15.1401C2.51953 16.05 3.04959 16.8 3.68953 16.8C3.98822 16.7858 4.26947 16.7464 4.54172 16.6838L4.50947 16.69C4.99303 17.1566 5.51897 17.5871 6.07809 17.9728L6.11953 17.9998C7.67953 18.9398 9.21947 19.4398 9.54947 19.1198C9.87947 18.7997 9.07941 17.4797 7.78941 16.1897C7.97822 16.3984 8.17078 16.5908 8.37234 16.7736L8.37928 16.7798C9.65934 18.0598 11.1093 18.7198 11.5893 18.2398C12.0693 17.7598 11.4192 16.3099 10.1292 15.0199L10.7193 15.61C11.9993 16.89 13.4493 17.55 13.9392 17.07C14.4292 16.59 13.7592 15.1401 12.4692 13.8501C12.7792 14.1701 12.6492 14.0201 13.0593 14.43C14.3493 15.72 15.7893 16.38 16.2792 15.9C16.7692 15.42 16.2792 14.22 15.5692 13.56C14.8591 12.9 10.8991 8.90009 10.8991 8.90009H10.8995Z" fill="#5B6373"/>
</svg>
