<svg width="24" height="24" viewBox="0 0 24 24" fill="none" xmlns="http://www.w3.org/2000/svg">
<path d="M9.59984 0.960022V1.92002C9.59984 2.7139 10.246 3.36002 11.0398 3.36002H11.5198V7.69596C11.5183 7.69596 11.5167 7.69577 11.5152 7.69596C11.457 7.69971 11.3995 7.70683 11.3417 7.7119C11.2373 7.72108 11.1328 7.73046 11.0295 7.74377C10.9583 7.75296 10.8874 7.7644 10.8167 7.77565C10.732 7.78915 10.6474 7.80358 10.5636 7.81971C10.4886 7.83415 10.4145 7.8499 10.3405 7.86658C10.255 7.88571 10.1706 7.90652 10.0864 7.92846C10.0238 7.94477 9.96097 7.96033 9.89891 7.97815C9.78322 8.01152 9.66922 8.04846 9.55578 8.0869C9.52353 8.09796 9.49053 8.10733 9.45828 8.11877C9.41666 8.13358 9.37672 8.15121 9.33547 8.16658C9.12941 8.24383 8.92728 8.32952 8.72984 8.42346C8.69609 8.4394 8.66009 8.45121 8.62672 8.46752C8.61153 8.47521 8.59691 8.48365 8.58266 8.49283C8.42609 8.57121 8.27272 8.65371 8.12234 8.74221C8.71709 9.54096 9.72322 10.9393 9.75922 10.9913C10.0881 11.4638 10.0798 11.833 10.0798 12C10.0798 12.1616 10.0392 12.3251 9.95516 12.4735C9.93941 12.5014 9.66603 12.9827 9.38609 13.4531C9.66397 13.9076 9.93359 14.3695 9.94953 14.3963C10.1674 14.7703 10.108 15.2445 9.80422 15.5531C9.61897 15.7418 9.37034 15.84 9.11891 15.84C8.95859 15.84 8.79753 15.7991 8.65016 15.7172C8.62278 15.7018 8.14541 15.4339 7.67984 15.1594C7.21428 15.4341 6.73691 15.7018 6.70953 15.7172C6.56216 15.7999 6.40109 15.84 6.24078 15.84C5.98972 15.84 5.74072 15.7418 5.55547 15.5531C5.40903 15.4041 5.32109 15.216 5.29203 15.0197C5.29072 15.0071 5.28884 14.9946 5.28641 14.9822C5.26503 14.7836 5.30422 14.5781 5.41016 14.3963C5.42591 14.3695 5.69572 13.9078 5.97359 13.4531C5.81047 13.179 5.40078 12.4658 5.11766 11.971C4.61178 12.9949 4.31984 14.1428 4.31984 15.36C4.31984 15.6246 4.33297 15.886 4.35922 16.1438C4.35922 16.1441 4.35922 16.1445 4.35922 16.1447C4.41172 16.66 4.51597 17.1606 4.66578 17.641C4.66578 17.6413 4.66578 17.6415 4.66578 17.6419C4.81559 18.1223 5.01134 18.5824 5.24797 19.0172C5.24816 19.0174 5.24778 19.018 5.24797 19.0181C5.36628 19.2355 5.49528 19.4468 5.63328 19.651C5.63347 19.6513 5.63309 19.6517 5.63328 19.6519C6.04766 20.2646 6.54828 20.8144 7.11734 21.2843C7.30709 21.4408 7.50359 21.5886 7.70797 21.7268C7.70816 21.727 7.70872 21.7266 7.70891 21.7268C7.91309 21.8648 8.12441 21.9938 8.34172 22.1119C8.55959 22.2304 8.78309 22.338 9.01297 22.4353C9.24266 22.5326 9.47759 22.6191 9.71797 22.6941C9.95853 22.7691 10.204 22.8321 10.4539 22.8835C10.7037 22.9348 10.9573 22.9744 11.2152 23.0006C11.4733 23.0269 11.7349 23.04 11.9998 23.04C13.0714 23.04 14.0933 22.8186 15.0205 22.4213C15.0801 22.3978 15.1347 22.3624 15.1804 22.3174C15.2262 22.2724 15.2625 22.2188 15.2875 22.1595C15.3122 22.1003 15.3248 22.0365 15.3244 21.9724C15.324 21.9083 15.3109 21.8447 15.2856 21.7856C15.2605 21.7266 15.2235 21.6731 15.1772 21.6287C15.1309 21.5843 15.0762 21.5494 15.0162 21.5263C14.9562 21.5033 14.8922 21.4926 14.8281 21.4948C14.764 21.4971 14.7008 21.5121 14.6425 21.5391C14.1612 21.7451 13.6491 21.8891 13.1181 21.9786C13.1953 21.265 13.2643 20.4955 13.315 19.6461C14.0715 19.6076 14.7912 19.5295 15.4872 19.4286C15.2548 19.1138 15.0835 18.8807 15.0653 18.8558C14.7853 18.4736 14.8258 17.9449 15.1609 17.6098C15.3467 17.424 15.5933 17.3286 15.8404 17.3286C15.9733 17.3286 16.1029 17.3663 16.2278 17.4223C16.2478 17.1737 16.2728 16.9305 16.2859 16.6751C15.538 16.7194 14.7345 16.7505 13.9037 16.7717C13.9122 16.3078 13.9197 15.8406 13.9197 15.3598C13.9197 14.8742 13.9067 14.4163 13.8981 13.948C14.7312 13.9691 15.5365 14.0003 16.2861 14.0445C16.2381 13.1036 16.1423 12.2063 15.9983 11.3614C15.1534 11.2174 14.256 11.1216 13.3152 11.0736C13.2645 10.224 13.1955 9.45415 13.1183 8.74015C14.0372 8.8939 14.8917 9.23065 15.6432 9.71608C15.778 10.2388 15.9012 10.7805 15.9983 11.3614C16.5792 11.4587 17.1208 11.5817 17.6436 11.7165C18.129 12.468 18.4658 13.3225 18.6195 14.2414C17.9055 14.1641 17.1357 14.0951 16.2861 14.0445C16.3101 14.4765 16.3198 14.9134 16.3198 15.3598C16.3198 15.8063 16.3101 16.2431 16.2861 16.6751C17.1357 16.6245 17.9055 16.5555 18.6195 16.4783C18.547 16.8968 18.4392 17.3035 18.2942 17.6942C18.2708 17.7536 18.2593 17.8172 18.2608 17.8811C18.2623 17.9451 18.2764 18.0079 18.3025 18.0662C18.3285 18.1245 18.366 18.177 18.4125 18.2207C18.459 18.2644 18.514 18.2983 18.5738 18.3206C18.6338 18.3428 18.6975 18.3529 18.7611 18.3501C18.825 18.3475 18.8877 18.3319 18.9454 18.3047C19.0032 18.2775 19.0549 18.2389 19.0977 18.1915C19.1402 18.144 19.173 18.0885 19.194 18.0281C19.5017 17.1988 19.6797 16.3011 19.6797 15.36C19.6797 15.0953 19.6665 14.8331 19.6403 14.5753C19.614 14.3175 19.5743 14.0638 19.5229 13.8141C19.4717 13.5643 19.4085 13.3185 19.3335 13.0781C19.2585 12.8378 19.1721 12.6028 19.0748 12.3731C18.9775 12.1435 18.8698 11.9196 18.7513 11.7019C18.6332 11.4846 18.504 11.2733 18.366 11.0693V11.0683C18.2278 10.864 18.0801 10.6675 17.9235 10.4777C17.4537 9.90865 16.9041 9.40802 16.2913 8.99365H16.2904C16.0864 8.85565 15.8749 8.72665 15.6578 8.60833H15.6568C15.2218 8.37171 14.7619 8.17596 14.2815 8.02615H14.2806C13.8002 7.87633 13.2998 7.77208 12.7843 7.71958H12.7834C12.6835 7.70946 12.5807 7.71096 12.4797 7.70458V3.36021H12.9597C13.7537 3.36021 14.3997 2.71408 14.3997 1.92021V0.960209H9.59966L9.59984 0.960022ZM3.83984 6.24002C3.83984 6.24002 5.06984 7.91815 5.60984 8.61565C5.06984 9.31315 3.83984 10.9913 3.83984 10.9913C3.83984 10.9913 5.51797 9.76127 6.21547 9.22315C6.91297 9.76127 8.59297 10.9913 8.59297 10.9913C8.59297 10.9913 7.36147 9.31315 6.82297 8.61565C7.36147 7.91815 8.59297 6.24002 8.59297 6.24002C8.59297 6.24002 6.91297 7.47002 6.21547 8.00815C5.51797 7.47002 3.83984 6.24002 3.83984 6.24002ZM6.23984 12.0002C6.23984 12.0002 6.76672 12.9304 7.10234 13.4608C6.76691 13.9763 6.23984 14.8802 6.23984 14.8802C6.23984 14.8802 7.15672 14.3666 7.67984 14.0383C7.94141 14.2026 8.30122 14.4126 8.59578 14.5821C8.89034 14.7516 9.11984 14.8802 9.11984 14.8802C9.11984 14.8802 8.98784 14.6541 8.81422 14.3636C8.64059 14.0732 8.42516 13.7186 8.25734 13.4608C8.59297 12.9304 9.11984 12.0002 9.11984 12.0002C9.11984 12.0002 8.20297 12.5402 7.67984 12.8833C7.15672 12.5402 6.23984 12.0002 6.23984 12.0002ZM11.9998 13.92C12.3186 13.92 12.6268 13.9253 12.9373 13.9294C12.9465 14.4034 12.9598 14.8676 12.9598 15.36C12.9598 15.8471 12.9527 16.321 12.9439 16.7906C12.6313 16.7948 12.3208 16.8 11.9998 16.8C11.515 16.8 11.0395 16.7955 10.5739 16.786C10.593 17.794 10.6317 18.7534 10.6845 19.6463C9.74366 19.5983 8.84628 19.5025 8.00141 19.3585C7.85741 18.5136 7.76159 17.6162 7.71359 16.6753C8.60647 16.7282 9.56591 16.7666 10.5739 16.786C10.5643 16.3204 10.5598 15.8449 10.5598 15.36C10.5598 14.8751 10.5643 14.3996 10.5739 13.9341C11.0395 13.9245 11.515 13.92 11.9998 13.92ZM15.8398 18.2888C15.8398 18.2888 17.0698 19.9669 17.6098 20.6644C17.0698 21.3619 15.8398 23.04 15.8398 23.04C15.8398 23.04 17.518 21.81 18.2155 21.2719C18.9128 21.8106 20.593 23.04 20.593 23.04C20.593 23.04 19.3615 21.3619 18.823 20.6644C19.3609 19.9671 20.593 18.2888 20.593 18.2888C20.593 18.2888 18.913 19.519 18.2155 20.0569C17.518 19.5184 15.8398 18.2888 15.8398 18.2888Z" fill="#5B6373"/>
</svg>
