<svg width="24" height="24" viewBox="0 0 24 24" fill="none" xmlns="http://www.w3.org/2000/svg">
<g clip-path="url(#clip0_11850_82)">
<path d="M22.5501 9.93C23.2982 9.7845 23.8751 9.19425 23.9987 8.45062L24.0002 8.44012C24.0002 7.82006 23.3302 7.32019 22.5002 7.32019C22.4987 7.32019 22.497 7.32019 22.4953 7.32019C21.975 7.32019 21.5175 7.5885 21.2537 7.99444L21.2501 8.00025C20.9102 7.25025 20.5802 6.47025 20.2502 5.65031C20.0844 5.26444 19.7698 4.96931 19.3806 4.83337L19.3703 4.83019C17.1559 4.3005 14.6136 3.99675 12.0002 3.99675C9.38681 3.99675 6.8445 4.3005 4.40644 4.87462L4.63013 4.83019C4.23056 4.96931 3.91575 5.26444 3.75375 5.64056L3.75 5.65013C3.42 6.47006 3.09 7.25006 2.75006 8.00006C2.48269 7.5885 2.02519 7.32 1.50487 7.32C1.50319 7.32 1.5015 7.32 1.49981 7.32C0.66975 7.32 0 7.82006 0 8.43994C0.125062 9.19406 0.702 9.7845 1.4385 9.92812L1.44994 9.93H1.54988C1.24781 10.1812 1.05675 10.5574 1.05675 10.9779C1.05675 11.0104 1.05787 11.0424 1.06012 11.0743L1.05994 11.07C1.18988 12.48 1.30988 14.25 1.44 15.75C1.45481 15.9382 1.50488 16.1115 1.58363 16.2681L1.58006 16.26C1.2375 16.4707 1.00819 16.8368 0.990188 17.2575V17.2599V18.7099C0.98925 18.7279 0.988687 18.7489 0.988687 18.7699C0.988687 19.4492 1.53938 19.9999 2.21869 19.9999C2.22263 19.9999 2.22675 19.9999 2.23088 19.9999H4.85025C5.526 19.9999 6.07463 19.4548 6.08025 18.7804V18.0997C7.86019 18.4243 9.90844 18.6097 12.0002 18.6097C14.0919 18.6097 16.1404 18.4241 18.1297 18.0686L17.9201 18.0997V18.7798C17.9257 19.4548 18.4744 19.9999 19.1501 19.9999H21.7701C22.4458 19.9999 22.9944 19.4548 23.0001 18.7804V17.3299C22.9819 16.9067 22.7526 16.5407 22.4154 16.3329L22.4102 16.3299C22.4805 16.1812 22.53 16.0087 22.5495 15.8271L22.5501 15.8199C22.68 14.3199 22.8 12.5499 22.9301 11.1399C22.9322 11.1124 22.9333 11.0803 22.9333 11.0479C22.9333 10.6273 22.7424 10.2512 22.4424 10.0018L22.4402 9.99994L22.5501 9.93ZM5.28 6.62006C5.28 6.62006 5.34 6.43012 5.37 6.41006C7.43775 5.958 9.813 5.69906 12.2486 5.69906C14.5059 5.69906 16.7113 5.92144 18.8441 6.34556L18.63 6.31012C18.63 6.31012 18.6999 6.62006 18.72 6.64013C19.17 7.64006 19.59 8.80012 20.0001 9.50006H19.4601C17.2187 9.16594 14.6316 8.97506 12 8.97506C9.36844 8.97506 6.7815 9.16594 4.25212 9.53456L4.53994 9.50006H3.99994C4.41 8.80012 4.83994 7.60012 5.28 6.62006ZM5.73 14.88C4.48688 14.6655 3.4125 14.0587 2.61337 13.1936L2.61 13.1899C2.04994 12.4999 2.55 11.8899 3.35006 11.8899C4.15013 11.8899 6.58013 12.0499 6.86006 13.4599C6.87188 13.5234 6.87862 13.5968 6.87862 13.6714C6.87862 14.3181 6.37125 14.8462 5.733 14.8796L5.73 14.88ZM16.23 13.7301C16.23 14.5101 15.7101 15.9401 15.0399 16.0301C14.124 16.1541 13.0652 16.2247 11.9899 16.2247C10.9146 16.2247 9.85575 16.1541 8.81794 16.017L8.93981 16.0301C8.26988 15.9401 7.76981 14.5101 7.76981 13.7301C7.76156 13.6791 7.75669 13.6206 7.75669 13.5607C7.75669 12.9532 8.24925 12.4607 8.85675 12.4607C8.90719 12.4607 8.95687 12.4641 9.00562 12.4706L9 12.4701C9.91613 12.5991 10.9746 12.6726 12.0501 12.6726C13.1256 12.6726 14.1838 12.5991 15.2203 12.4566L15.1001 12.4701C15.7701 12.39 16.2701 12.9101 16.2701 13.6901L16.23 13.7301ZM21.39 13.1901C20.5875 14.0587 19.5131 14.6657 18.3026 14.8753L18.27 14.88C17.6286 14.8464 17.1214 14.3182 17.1214 13.6716C17.1214 13.5967 17.1281 13.5236 17.1411 13.4526L17.1399 13.4601C17.4199 12.0501 19.86 11.88 20.6499 11.8901C21.4399 11.9002 21.9999 12.5001 21.39 13.1901Z" fill="#5B6373"/>
</g>
<defs>
<clipPath id="clip0_11850_82">
<rect width="24" height="24" fill="white"/>
</clipPath>
</defs>
</svg>
