<svg width="24" height="24" viewBox="0 0 24 24" fill="none" xmlns="http://www.w3.org/2000/svg">
<g clip-path="url(#clip0_11850_342)">
<path d="M10.5217 9.00002C10.5536 9.13764 10.5717 9.2957 10.5717 9.45789C10.5717 10.3213 10.0557 11.064 9.31512 11.3948L9.30162 11.4002C8.66169 11.8001 7.81156 12.0302 7.93156 13.0703C7.93156 13.0703 8.10162 16.2302 8.2715 22.5503C8.27469 22.5848 8.27656 22.6249 8.27656 22.6656C8.27656 23.4002 7.68106 23.9955 6.94662 23.9955C6.21219 23.9955 5.61669 23.4 5.61669 22.6656C5.61669 22.6251 5.61856 22.585 5.62212 22.5452L5.62175 22.5503C5.79181 19.1702 6.16175 13.0802 6.16175 13.0802C6.28175 12.0803 5.43181 11.8502 4.79169 11.4503C4.03812 11.1081 3.52344 10.362 3.52344 9.49595C3.52344 9.32008 3.54462 9.14927 3.58456 8.98558L3.58156 9.0002C3.88269 5.59314 4.36344 2.52152 5.03131 -0.479797L4.94169 0.000202626H5.42169L5.06169 7.42014H6.13175L6.87181 0.000202626H7.22187L8.00187 7.42014H9.00181L8.67181 0.000202626H9.15181C9.73194 2.51889 10.2161 5.58995 10.5011 8.71858L10.5219 9.0002L10.5217 9.00002ZM20.4517 6.80008C20.4517 4.21014 19.0017 1.51396e-05 17.2516 1.51396e-05C15.5015 1.51396e-05 14.0017 4.20995 14.0017 6.77008C14.0017 8.91002 15.0016 10.7001 16.3917 11.22C16.3317 12.1101 16.2817 12.78 16.2517 13.02C16.2517 13.02 15.8716 19.12 15.7117 22.51C15.7085 22.5445 15.7066 22.5846 15.7066 22.6253C15.7066 23.3599 16.3021 23.9552 17.0366 23.9552C17.771 23.9552 18.3665 23.3597 18.3665 22.6253C18.3665 22.5848 18.3646 22.5446 18.3611 22.5049L18.3614 22.51C18.1914 16.1899 18.0114 13 18.0114 13C18.0114 12.7699 17.9414 12.13 17.8713 11.28C19.3614 10.8501 20.4513 9.00002 20.4513 6.77008L20.4517 6.80008Z" fill="#5B6373"/>
</g>
<defs>
<clipPath id="clip0_11850_342">
<rect width="24" height="24" fill="white"/>
</clipPath>
</defs>
</svg>
