<svg width="24" height="24" viewBox="0 0 24 24" fill="none" xmlns="http://www.w3.org/2000/svg">
<g clip-path="url(#clip0_13878_103)">
<path d="M17.46 5.33005C15.2953 4.39968 13.4293 3.24561 11.7626 1.8598L11.7999 1.88999C11.2431 3.31686 10.7805 4.99836 10.4908 6.73818L10.47 6.88986L11.8401 5.88993L12.54 5.36999C12.54 5.36999 12.87 6.29999 13.14 6.99993C13.3189 7.43436 13.6821 7.76137 14.1294 7.88737L14.1401 7.88999C14.2669 7.93743 14.4133 7.9648 14.5661 7.9648C14.8082 7.9648 15.0341 7.89599 15.2256 7.77693L15.2203 7.77993C15.7403 7.39987 15.8803 7.39987 16.0103 7.44993C16.1402 7.49999 16.2602 7.72987 16.1903 7.93987C15.9114 8.69155 15.2006 9.21749 14.3668 9.21749C14.1609 9.21749 13.9626 9.18543 13.7766 9.12599L13.7902 9.12974C13.9702 9.84974 14.1103 10.5397 14.2202 11.1298C14.61 11.1636 14.97 11.2451 15.3094 11.3691L15.2801 11.3597C17.1101 12.0197 17.9402 13.8697 17.5101 14.2796C17.4202 14.3556 17.3031 14.4019 17.1752 14.4019C17.1011 14.4019 17.0304 14.3863 16.9667 14.3584L16.9701 14.3597C16.59 14.2196 16.6601 13.2397 14.8301 12.5797C14.7154 12.5349 14.5652 12.4871 14.412 12.4468L14.3799 12.4397C14.4306 12.8856 14.4596 13.4023 14.4596 13.926C14.4596 14.9257 14.3541 15.9009 14.1536 16.8409L14.1699 16.7497C16.32 16.4398 20.82 15.0997 24.0399 6.25968C24.0088 6.25986 23.9719 6.25987 23.9349 6.25987C21.6272 6.25987 19.3988 5.91993 17.2971 5.28749L17.4598 5.32949L17.46 5.33005ZM17.9301 10.68C17.1797 10.3804 16.659 9.6598 16.659 8.81755C16.659 8.59311 16.6959 8.3773 16.7642 8.17593L16.7601 8.18999V8.07993C16.8195 7.97568 16.9299 7.90668 17.0563 7.90668C17.1007 7.90668 17.1433 7.9153 17.1823 7.93087L17.1801 7.93011C17.31 7.93011 17.4201 8.06005 17.58 8.69005C17.6976 9.05193 17.9724 9.33336 18.3216 9.45749L18.33 9.46011C18.4573 9.50886 18.6043 9.53699 18.7582 9.53699C18.9998 9.53699 19.2251 9.46743 19.4151 9.34705L19.41 9.35005C20.0001 8.99999 20.1099 8.99999 20.2401 8.99999C20.3636 9.06974 20.4456 9.20005 20.4456 9.34949C20.4456 9.39993 20.4362 9.4483 20.4191 9.49274L20.4201 9.48993C20.1531 10.2568 19.4363 10.7974 18.5933 10.7974C18.3553 10.7974 18.1273 10.7542 17.9167 10.6755L17.9301 10.68ZM6.54 10.5201C4.58681 11.1379 2.33925 11.5022 0.0091875 11.52H0C3.77006 21.8901 9.32006 21.9399 10.7601 22.11C11.76 21.06 15.9701 17.4501 12.2001 7.10999C10.5707 8.45436 8.7045 9.59887 6.68944 10.4631L6.54 10.5201ZM5.63006 14.6499C5.12006 14.8399 4.97006 15.6499 4.97006 15.6499C4.91006 16.0299 4.78013 16.2598 4.58006 16.3299C4.5405 16.3447 4.49475 16.3534 4.44694 16.3534C4.30406 16.3534 4.179 16.2765 4.11112 16.1617L4.11019 16.1599L4.00012 15.9298C3.92644 15.732 3.88369 15.5034 3.88369 15.2647C3.88369 14.1842 4.75969 13.3082 5.84025 13.3082C6.68213 13.3082 7.40006 13.8401 7.67587 14.5862L7.68019 14.5997L7.75012 14.8196C7.75275 14.8369 7.75425 14.8569 7.75425 14.8772C7.75425 15.0456 7.65019 15.1897 7.50281 15.2486L7.50019 15.2496C7.30013 15.3195 7.06013 15.2496 6.76013 14.9796C6.51788 14.7643 6.19688 14.6327 5.84513 14.6327C5.76919 14.6327 5.69475 14.6389 5.622 14.6507L5.62987 14.6496L5.63006 14.6499ZM9.63 19.0599C7.8 19.7299 5.96006 18.7999 6.03 18.21C6.054 18.0101 6.19781 17.8494 6.38663 17.8007L6.39 17.7999C6.75994 17.6599 7.97006 18.2799 9.18994 17.7999C10.4098 17.3199 10.9999 16.14 11.34 15.9999C11.3985 15.9727 11.4668 15.9568 11.5389 15.9568C11.6627 15.9568 11.7754 16.0035 11.8605 16.0804L11.8601 16.08C12.3002 16.5 11.4801 18.39 9.65006 19.0599H9.63ZM11.7501 13.6899C11.55 13.77 11.31 13.6899 11.01 13.4199C10.7696 13.2112 10.4535 13.0841 10.1077 13.0841C10.0344 13.0841 9.96244 13.0899 9.89213 13.1008L9.89981 13.0999C9.38981 13.2799 9.23981 14.0998 9.23981 14.0998C9.17981 14.4898 9.04988 14.7097 8.84981 14.7898C8.81138 14.8033 8.76713 14.8112 8.721 14.8112C8.57719 14.8112 8.45138 14.7354 8.38069 14.6216L8.37975 14.6199L8.28975 14.4099C8.20781 14.2007 8.16037 13.9582 8.16037 13.7049C8.16037 12.609 9.04894 11.7204 10.1449 11.7204C10.9875 11.7204 11.7073 12.2456 11.9953 12.9864L12 12.9999L12.0699 13.2199C12.0778 13.2487 12.0823 13.2817 12.0823 13.3159C12.0823 13.5019 11.9488 13.6566 11.7724 13.6894L11.7699 13.6897L11.7501 13.6899Z" fill="#5B6373"/>
</g>
<defs>
<clipPath id="clip0_13878_103">
<rect width="24" height="24" fill="white"/>
</clipPath>
</defs>
</svg>
