<svg width="24" height="24" viewBox="0 0 24 24" fill="none" xmlns="http://www.w3.org/2000/svg">
<g clip-path="url(#clip0_11850_364)">
<path d="M16.5294 21.8599C17.8753 21.6919 18.9886 20.8377 19.5198 19.6637L19.5294 19.6399C19.6794 19.24 19.8393 18.76 19.9994 18.37C20.3547 17.5272 20.6716 16.5242 20.8979 15.4874L20.9195 15.37C20.9761 14.8733 21.0084 14.2977 21.0084 13.7144C21.0084 13.5299 21.0052 13.3463 20.9988 13.1633L20.9996 13.1897C20.8901 11.8658 20.7131 10.6696 20.4659 9.49936L20.4997 9.68986C20.1898 8.1398 19.8697 8.20993 19.5597 6.61993C19.2401 5.29486 18.2212 4.26943 16.9246 3.94524L16.8997 3.93999C15.8341 3.75343 14.5636 3.61749 13.2721 3.56218L13.2097 3.56011L15.4897 1.80005L15.3997 1.64011H15.5197L15.8398 2.11018C15.992 2.32318 16.2384 2.46024 16.5168 2.46024C16.5178 2.46024 16.5189 2.46024 16.5198 2.46024C16.5298 2.46061 16.5412 2.46099 16.5528 2.46099C16.7201 2.46099 16.8751 2.4083 17.0023 2.31868L16.9998 2.32036C17.2173 2.1728 17.3583 1.9268 17.3583 1.6478C17.3583 1.47268 17.3026 1.3103 17.2081 1.17793L17.2098 1.18036L16.6299 0.360427C16.4908 0.153427 16.2629 0.0152397 16.0019 0.000614746L15.9999 0.000427246H8.04987C8.048 0.000427246 8.04575 0.000427246 8.04331 0.000427246C7.76375 0.000427246 7.51719 0.142177 7.37169 0.357615L7.36981 0.360427L6.79981 1.18036C6.70981 1.31049 6.656 1.47155 6.656 1.64536C6.656 2.10024 7.02481 2.46924 7.47988 2.46924C7.76113 2.46924 8.00938 2.32824 8.15806 2.11318L8.15994 2.11036L8.48 1.6403H8.6L8.51 1.80024L10.7699 3.5603C9.416 3.61768 8.1455 3.7538 6.90069 3.96549L7.07994 3.94036C5.75731 4.27355 4.73844 5.30236 4.42494 6.60568L4.41988 6.63043C4.10994 8.21049 3.78987 8.15049 3.47994 9.70036C3.27069 10.6909 3.10044 11.8954 3.00612 13.1209L2.99994 13.2203C2.97444 13.5569 2.96 13.9495 2.96 14.3453C2.96 14.7411 2.97444 15.1336 3.00294 15.5222L2.99994 15.4703C3.27575 16.5869 3.61831 17.5529 4.04262 18.4735L4.00006 18.3704C4.16 18.7604 4.31 19.2404 4.47012 19.6403C5.01087 20.8381 6.12425 21.6923 7.45156 21.8584L7.47013 21.8603H5.62006L2 24.0002H5.99994L8 22.6802H16.0001L18.0001 24.0002H22.0001L18.38 21.8603L16.5294 21.8599ZM16.2093 18.5599C15.7676 18.5599 15.4093 18.2018 15.4093 17.7599C15.4093 17.3179 15.7674 16.9598 16.2093 16.9598C16.6511 16.9598 17.0094 17.3179 17.0094 17.7599C17.0094 18.2016 16.6513 18.5599 16.2093 18.5599ZM16.5393 15.9599C15.8489 15.9599 15.2892 15.4002 15.2892 14.7098C15.2892 14.0194 15.8489 13.4597 16.5393 13.4597C17.2297 13.4597 17.7894 14.0194 17.7894 14.7098C17.7898 14.7218 17.7899 14.7357 17.7899 14.7497C17.7899 15.4401 17.2303 15.9998 16.5399 15.9998C16.5397 15.9998 16.5395 15.9998 16.5391 15.9998L16.5393 15.9599ZM14.0793 1.63993L11.9994 2.81986L9.91944 1.63993H14.0793ZM18.3794 7.06993L17.3795 11.1799H6.65956L5.65963 7.06993H18.3794ZM5.87937 14.7098C5.90169 14.0369 6.45237 13.4999 7.12869 13.4999C7.81906 13.4999 8.37875 14.0596 8.37875 14.7499C8.37875 15.4401 7.81944 15.9996 7.12944 16C7.12925 16 7.12906 16 7.12887 16C6.4385 16 5.87881 15.4403 5.87881 14.7499C5.87881 14.7359 5.879 14.7218 5.87956 14.7079V14.71L5.87937 14.7098ZM6.65938 17.7599C6.65938 17.3181 7.0175 16.9598 7.45944 16.9598C7.90137 16.9598 8.2595 17.3179 8.2595 17.7599C8.2595 18.2016 7.90137 18.5599 7.45944 18.5599C7.01769 18.5599 6.65938 18.2018 6.65938 17.7599ZM7.41931 20.9999L8.87938 20.1698H15.5193L16.4493 20.9999H7.41931Z" fill="#5B6373"/>
</g>
<defs>
<clipPath id="clip0_11850_364">
<rect width="24" height="24" fill="white"/>
</clipPath>
</defs>
</svg>
