<svg width="30" height="30" viewBox="0 0 30 30" fill="none" xmlns="http://www.w3.org/2000/svg">
<g clip-path="url(#clip0_18387_35)">
<path d="M28.788 9.07102C28.788 11.1629 26.1465 13.7332 22.6694 13.7332C19.1923 13.7332 14.6719 11.5869 14.6719 9.49495C14.6719 7.40303 17.4906 5.7072 20.9677 5.7072C23.624 5.7072 27.1554 8.1487 28.5031 8.42349C28.6088 8.65179 28.6858 8.81389 28.788 9.07102Z" fill="url(#paint0_linear_18387_35)"/>
<path d="M2.98415 6.11492C4.63665 4.83218 7.69741 5.94871 9.82952 8.69542C11.9616 11.4421 12.1912 15.5108 10.5387 16.7936C8.88619 18.0763 5.97742 16.0873 3.84531 13.3406C2.21651 11.2423 3.30469 7.84306 2.69531 6.60989C2.77751 6.46013 2.87972 6.28202 2.98415 6.11492Z" fill="#2E5C91"/>
<path d="M28.5023 8.42256C27.567 8.41822 20.3516 8.46121 14.1327 8.43129C11.8143 9.11304 9.90126 10.2009 8.90332 12.3225C8.1911 11.7162 3.46518 6.68814 2.97656 6.12424C7.16601 0.565582 12.9235 0.0436652 14.0429 0.0436652C15.1623 0.0436652 23.4714 -1.10839 28.5023 8.42256Z" fill="url(#paint1_radial_18387_35)"/>
<path d="M13.43 29.8713C11.7619 28.6089 11.4847 24.9412 13.583 22.1685C15.6813 19.3959 19.0599 17.5042 20.728 18.7666C22.3961 20.029 21.722 23.9673 19.6237 26.74C18.0208 28.8581 14.8869 28.9935 13.8545 29.9025C13.6891 29.8964 13.5935 29.8944 13.43 29.8713Z" fill="#699DD3"/>
<path d="M13.8594 29.9023C14.3377 29.0985 17.711 22.8422 20.8918 17.4982C21.4805 15.1545 21.6054 13.0082 20.2834 11.0719C21.1672 10.7657 28.0562 9.20655 28.7901 9.07157C31.4548 15.5019 28.9836 20.7282 28.4157 21.6928C27.8478 22.6575 24.625 30.4023 13.8594 29.9023Z" fill="url(#paint2_radial_18387_35)"/>
<path d="M2.69716 6.60487C3.16009 7.41762 6.79763 13.6492 9.87472 19.0535C11.6224 20.7225 13.5697 21.6541 15.9062 21.4603C15.7362 22.38 13.6868 29.168 13.442 29.8728C6.53431 29.0157 3.20922 24.2866 2.65067 23.3165C2.09213 22.3464 -3.05226 15.7204 2.69716 6.60487Z" fill="url(#paint3_radial_18387_35)"/>
<path d="M21.0647 14.9274C21.0647 18.3098 18.3342 21.0518 14.966 21.0518C11.5977 21.0518 8.86719 18.3098 8.86719 14.9274C8.86719 11.545 11.5977 8.80304 14.966 8.80304C18.3342 8.80304 21.0647 11.545 21.0647 14.9274Z" fill="url(#paint4_linear_18387_35)"/>
<path fill-rule="evenodd" clip-rule="evenodd" d="M14.963 9.32355C11.8843 9.32355 9.38477 11.8304 9.38477 14.9274C9.38477 18.0244 11.8843 20.5312 14.963 20.5312C18.0418 20.5312 20.5413 18.0244 20.5413 14.9274C20.5413 11.8304 18.0418 9.32355 14.963 9.32355ZM8.34375 14.9274C8.34375 11.2596 11.3052 8.28253 14.963 8.28253C18.6208 8.28253 21.5823 11.2596 21.5823 14.9274C21.5823 18.5952 18.6208 21.5723 14.963 21.5723C11.3052 21.5723 8.34375 18.5952 8.34375 14.9274Z" fill="url(#paint5_linear_18387_35)"/>
<path d="M19.625 11.8438C22.0981 14.1258 21.7648 15.7888 20.968 17.7163C20.5531 14.7467 20.655 13.3884 19.625 11.8438Z" fill="white"/>
<path d="M11.3365 20.4848C8.31413 18.5531 7.35795 14.3828 10.1603 12.0778C8.71248 14.7171 9.32938 16.4019 11.3365 20.4848Z" fill="white"/>
</g>
<defs>
<linearGradient id="paint0_linear_18387_35" x1="19.8846" y1="9.67667" x2="27.7176" y2="8.82731" gradientUnits="userSpaceOnUse">
<stop stop-color="#B2CDE9"/>
<stop offset="1" stop-color="#C4DBEE"/>
</linearGradient>
<radialGradient id="paint1_radial_18387_35" cx="0" cy="0" r="1" gradientUnits="userSpaceOnUse" gradientTransform="translate(14.6307 1.91734) rotate(90.7774) scale(7.11614 13.1656)">
<stop stop-color="#658DB6"/>
<stop offset="0.767779" stop-color="#527FAB"/>
<stop offset="1" stop-color="#4071A0"/>
</radialGradient>
<radialGradient id="paint2_radial_18387_35" cx="0" cy="0" r="1" gradientUnits="userSpaceOnUse" gradientTransform="translate(15.3694 14.301) rotate(64.4403) scale(15.2095 19.2549)">
<stop stop-color="#D0E2F1"/>
<stop offset="0.855809" stop-color="#CADEF0"/>
<stop offset="1" stop-color="#95BEE3"/>
</radialGradient>
<radialGradient id="paint3_radial_18387_35" cx="0" cy="0" r="1" gradientUnits="userSpaceOnUse" gradientTransform="translate(10.197 14.5298) rotate(-176.176) scale(10.2195 13.6165)">
<stop stop-color="#96D0E1"/>
<stop offset="0.678194" stop-color="#89B7E1"/>
<stop offset="1" stop-color="#699DD3"/>
</radialGradient>
<linearGradient id="paint4_linear_18387_35" x1="14.9398" y1="19.8755" x2="14.9662" y2="9.74066" gradientUnits="userSpaceOnUse">
<stop stop-color="#3B79BC"/>
<stop offset="1" stop-color="#94B8E0"/>
</linearGradient>
<linearGradient id="paint5_linear_18387_35" x1="16.5639" y1="8.28252" x2="16.6312" y2="21.5723" gradientUnits="userSpaceOnUse">
<stop stop-color="#D7DEF0"/>
<stop offset="0.5" stop-color="white"/>
<stop offset="1" stop-color="#D5DEF0"/>
</linearGradient>
<clipPath id="clip0_18387_35">
<rect width="30" height="29.9255" fill="white"/>
</clipPath>
</defs>
</svg>
