<svg width="30" height="30" viewBox="0 0 30 30" fill="none" xmlns="http://www.w3.org/2000/svg">
<rect width="30" height="30" rx="15" fill="#F34141"/>
<path d="M17.9291 10.8566C17.8119 10.7394 17.622 10.7394 17.5048 10.8566L15.045 13.3164L12.5416 10.813C12.4245 10.6958 12.2345 10.6958 12.1174 10.813L10.8144 12.1159C10.6973 12.2331 10.6973 12.423 10.8144 12.5402L13.3178 15.0436L10.858 17.5034C10.7409 17.6205 10.7409 17.8105 10.858 17.9277L12.0738 19.1434C12.1909 19.2606 12.3809 19.2606 12.498 19.1434L14.9578 16.6836L17.4612 19.187C17.5784 19.3042 17.7683 19.3042 17.8855 19.187L19.1884 17.8841C19.3056 17.7669 19.3056 17.577 19.1884 17.4598L16.6851 14.9564L19.1448 12.4966C19.262 12.3795 19.262 12.1895 19.1448 12.0723L17.9291 10.8566Z" fill="white"/>
</svg>
