<svg width="30" height="30" viewBox="0 0 30 30" fill="none" xmlns="http://www.w3.org/2000/svg">
<rect width="30" height="30" rx="15" fill="#F34141"/>
<path d="M17.9291 10.8566C17.8119 10.7394 17.622 10.7394 17.5048 10.8566L15.045 13.3164L12.5416 10.813C12.4245 10.6958 12.2345 10.6958 12.1174 10.813L10.8144 12.1159C10.6973 12.2331 10.6973 12.423 10.8144 12.5402L13.3178 15.0436L10.858 17.5034C10.7409 17.6205 10.7409 17.8105 10.858 17.9276L12.0738 19.1434C12.1909 19.2605 12.3809 19.2605 12.498 19.1434L14.9578 16.6836L17.4612 19.187C17.5784 19.3041 17.7683 19.3041 17.8855 19.187L19.1884 17.884C19.3056 17.7669 19.3056 17.5769 19.1884 17.4598L16.6851 14.9564L19.1448 12.4966C19.262 12.3794 19.262 12.1895 19.1448 12.0723L17.9291 10.8566Z" fill="white"/>
<rect width="30" height="30" rx="15" fill="#4DBFA2"/>
<path fill-rule="evenodd" clip-rule="evenodd" d="M13.415 15.9363L17.4801 11L19.3209 12.5159L13.6938 19.3489L10 16.1168L11.5703 14.3222L13.415 15.9363Z" fill="white"/>
</svg>
