<svg width="30" height="31" viewBox="0 0 30 31" fill="none" xmlns="http://www.w3.org/2000/svg">
<g clip-path="url(#clip0_17895_6433)">
<path d="M28.666 10.4879C28.0252 8.94603 26.7254 7.28127 25.7075 6.75502C26.4333 8.1606 26.9371 9.67011 27.201 11.2299L27.2037 11.2546C25.5363 7.09938 22.7098 5.42131 20.4001 1.77216C20.2832 1.58761 20.1664 1.40268 20.0526 1.20748C19.9876 1.09599 19.9354 0.995531 19.8902 0.903066C19.7944 0.717585 19.7206 0.521563 19.6702 0.318974C19.6703 0.309626 19.6669 0.30058 19.6607 0.293562C19.6546 0.286543 19.646 0.282044 19.6367 0.280923C19.6277 0.278429 19.6181 0.278429 19.609 0.280923C19.6071 0.280923 19.604 0.284347 19.6017 0.285108C19.5995 0.285869 19.5945 0.289294 19.5911 0.290816L19.5968 0.280923C15.8925 2.44986 14.6349 6.4643 14.5207 8.47343C13.0409 8.57488 11.626 9.12003 10.4606 10.0377C10.3391 9.93478 10.212 9.8385 10.0801 9.7493C9.74409 8.57309 9.72977 7.32829 10.0386 6.14467C8.67822 6.80365 7.46944 7.73786 6.48878 8.88819H6.48193C5.89746 8.14733 5.93856 5.70441 5.97204 5.19414C5.79913 5.26363 5.63408 5.35126 5.47965 5.45556C4.96369 5.8238 4.48134 6.237 4.03826 6.69033C3.53335 7.20224 3.0722 7.75554 2.65965 8.34443V8.34671V8.34405C1.71161 9.68789 1.03911 11.2062 0.68097 12.8113L0.661183 12.9087C0.633405 13.0385 0.53333 13.6884 0.516207 13.8296C0.516207 13.8406 0.513923 13.8509 0.512782 13.8619C0.383691 14.5329 0.303698 15.2124 0.273438 15.895V15.9711C0.279955 19.6616 1.66977 23.2155 4.16853 25.9313C6.66729 28.6471 10.0934 30.3275 13.7705 30.6406C17.4477 30.9538 21.1086 29.8771 24.0307 27.623C26.9528 25.3689 28.9236 22.1012 29.5541 18.465C29.5789 18.2747 29.599 18.0864 29.6211 17.8942C29.9249 15.3836 29.596 12.8368 28.6645 10.4856L28.666 10.4879ZM11.6684 22.0327C11.7372 22.0658 11.8019 22.1016 11.8727 22.1332L11.883 22.1397C11.8114 22.1054 11.7399 22.0698 11.6684 22.0327ZM27.2041 11.2588V11.2447L27.2067 11.2603L27.2041 11.2588Z" fill="url(#paint0_linear_17895_6433)"/>
<path d="M28.663 10.4881C28.0222 8.94626 26.7223 7.2815 25.7044 6.75525C26.4303 8.16084 26.9341 9.67034 27.198 11.2301V11.2442L27.2006 11.2598C28.3375 14.5128 28.1731 18.0794 26.7417 21.2141C25.0515 24.8408 20.9617 28.558 14.5576 28.3754C7.63984 28.1794 1.54398 23.0444 0.406237 16.3207C0.198856 15.2602 0.406237 14.7225 0.510499 13.8606C0.368281 14.5301 0.288916 15.2114 0.273438 15.8956V15.9717C0.279955 19.6622 1.66977 23.2161 4.16853 25.9319C6.66729 28.6477 10.0934 30.3281 13.7705 30.6413C17.4477 30.9544 21.1086 29.8777 24.0307 27.6236C26.9528 25.3695 28.9236 22.1018 29.5541 18.4656C29.5789 18.2754 29.599 18.087 29.6211 17.8948C29.9249 15.3842 29.596 12.8374 28.6645 10.4862L28.663 10.4881Z" fill="url(#paint1_radial_17895_6433)"/>
<path d="M28.663 10.4881C28.0222 8.94626 26.7223 7.2815 25.7044 6.75525C26.4303 8.16084 26.9341 9.67034 27.198 11.2301V11.2442L27.2006 11.2598C28.3375 14.5128 28.1731 18.0794 26.7417 21.2141C25.0515 24.8408 20.9617 28.558 14.5576 28.3754C7.63984 28.1794 1.54398 23.0444 0.406237 16.3207C0.198856 15.2602 0.406237 14.7225 0.510499 13.8606C0.368281 14.5301 0.288916 15.2114 0.273438 15.8956V15.9717C0.279955 19.6622 1.66977 23.2161 4.16853 25.9319C6.66729 28.6477 10.0934 30.3281 13.7705 30.6413C17.4477 30.9544 21.1086 29.8777 24.0307 27.6236C26.9528 25.3695 28.9236 22.1018 29.5541 18.4656C29.5789 18.2754 29.599 18.087 29.6211 17.8948C29.9249 15.3842 29.596 12.8374 28.6645 10.4862L28.663 10.4881Z" fill="url(#paint2_radial_17895_6433)"/>
<path d="M21.495 12.2195C21.527 12.242 21.5567 12.2644 21.5867 12.2869C21.2163 11.63 20.7551 11.0286 20.2169 10.5003C15.6317 5.91513 19.0156 0.561273 19.586 0.287302L19.5917 0.278931C15.8874 2.44787 14.6298 6.46231 14.5156 8.47143C14.6876 8.45964 14.8581 8.44518 15.0339 8.44518C16.3481 8.44772 17.6383 8.79821 18.7731 9.46102C19.908 10.1238 20.8471 11.0753 21.495 12.2188V12.2195Z" fill="url(#paint3_radial_17895_6433)"/>
<path d="M15.0464 13.1366C15.0221 13.5034 13.726 14.7686 13.2728 14.7686C9.07956 14.7686 8.39844 17.3055 8.39844 17.3055C8.58413 19.4417 10.0727 21.202 11.8722 22.1305C11.9544 22.1731 12.0377 22.2115 12.121 22.2492C12.2654 22.3131 12.4097 22.3722 12.554 22.4265C13.1716 22.645 13.8184 22.7698 14.473 22.7968C21.8246 23.1415 23.2477 14.0068 17.9429 11.3546C19.1943 11.1918 20.4615 11.4995 21.4988 12.218C20.8509 11.0746 19.9118 10.1231 18.7769 9.4603C17.6421 8.79749 16.3519 8.447 15.0377 8.44446C14.8626 8.44446 14.6914 8.45892 14.5194 8.47071C13.0396 8.57217 11.6247 9.11731 10.4593 10.035C10.6842 10.2253 10.938 10.4795 11.4726 11.0065C12.4734 11.9924 15.04 13.0137 15.0457 13.1336L15.0464 13.1366Z" fill="url(#paint4_radial_17895_6433)"/>
<path d="M15.0464 13.1366C15.0221 13.5034 13.726 14.7686 13.2728 14.7686C9.07956 14.7686 8.39844 17.3055 8.39844 17.3055C8.58413 19.4417 10.0727 21.202 11.8722 22.1305C11.9544 22.1731 12.0377 22.2115 12.121 22.2492C12.2654 22.3131 12.4097 22.3722 12.554 22.4265C13.1716 22.645 13.8184 22.7698 14.473 22.7968C21.8246 23.1415 23.2477 14.0068 17.9429 11.3546C19.1943 11.1918 20.4615 11.4995 21.4988 12.218C20.8509 11.0746 19.9118 10.1231 18.7769 9.4603C17.6421 8.79749 16.3519 8.447 15.0377 8.44446C14.8626 8.44446 14.6914 8.45892 14.5194 8.47071C13.0396 8.57217 11.6247 9.11731 10.4593 10.035C10.6842 10.2253 10.938 10.4795 11.4726 11.0065C12.4734 11.9924 15.04 13.0137 15.0457 13.1336L15.0464 13.1366Z" fill="url(#paint5_radial_17895_6433)"/>
<path d="M9.77127 9.54832C9.89075 9.62443 9.98931 9.69064 10.0757 9.75038C9.73968 8.57418 9.72536 7.32937 10.0342 6.14575C8.67381 6.80473 7.46503 7.73895 6.48438 8.88927C6.55629 8.88737 8.69555 8.84894 9.77127 9.54832Z" fill="url(#paint6_radial_17895_6433)"/>
<path d="M0.410145 16.3214C1.54827 23.0451 7.64375 28.1821 14.5615 28.3761C20.9656 28.5573 25.0562 24.8396 26.7456 21.2148C28.177 18.0802 28.3415 14.5136 27.2045 11.2605V11.2465C27.2045 11.2354 27.2023 11.229 27.2045 11.2324L27.2072 11.2571C27.7304 14.673 25.993 17.9808 23.2765 20.2221L23.2681 20.2411C17.9751 24.5523 12.9105 22.8415 11.8869 22.1437C11.8153 22.1094 11.7438 22.0738 11.6723 22.0368C8.58667 20.5619 7.31156 17.7521 7.58553 15.3397C6.85308 15.3505 6.13321 15.1486 5.51314 14.7586C4.89308 14.3686 4.39943 13.8071 4.09202 13.1422C4.90206 12.646 5.82567 12.3655 6.77485 12.3274C7.72403 12.2893 8.66716 12.4949 9.51436 12.9245C11.2607 13.7172 13.2477 13.7953 15.0509 13.1422C15.0452 13.0223 12.4786 12.0007 11.4778 11.0151C10.9432 10.4881 10.6894 10.2343 10.4645 10.0437C10.343 9.94071 10.216 9.84443 10.084 9.75523C9.99648 9.69549 9.89792 9.6308 9.77958 9.55317C8.70387 8.85379 6.56461 8.89222 6.49383 8.89412H6.48698C5.90251 8.15326 5.9436 5.71034 5.97709 5.20007C5.80418 5.26956 5.63913 5.35719 5.4847 5.46149C4.96873 5.82973 4.48639 6.24293 4.04331 6.69626C3.53659 7.20673 3.07353 7.75876 2.65899 8.34656C1.71095 9.69039 1.03845 11.2083 0.680311 12.8134C0.673081 12.8435 0.149111 15.1342 0.407481 16.3222L0.410145 16.3214Z" fill="url(#paint7_radial_17895_6433)"/>
<path d="M20.2179 10.4996C20.7563 11.0284 21.2175 11.6304 21.5878 12.288C21.6688 12.3492 21.7446 12.4101 21.8089 12.4691C25.1525 15.5513 23.4006 19.9082 23.2701 20.2164C25.9862 17.9786 27.7221 14.6685 27.2008 11.2515C25.5326 7.09243 22.7031 5.41435 20.3972 1.76521C20.2803 1.58066 20.1635 1.39573 20.0497 1.20052C19.9847 1.08903 19.9325 0.988573 19.8873 0.896108C19.7915 0.710627 19.7177 0.514605 19.6673 0.312016C19.6674 0.302668 19.664 0.293622 19.6578 0.286604C19.6517 0.279585 19.6431 0.275086 19.6338 0.273965C19.6248 0.271471 19.6152 0.271471 19.6061 0.273965C19.6042 0.273965 19.6011 0.277389 19.5988 0.27815C19.5966 0.278911 19.5916 0.282336 19.5882 0.283858C19.0178 0.554405 15.6346 5.91169 20.2198 10.4931L20.2179 10.4996Z" fill="url(#paint8_radial_17895_6433)"/>
<path d="M21.8066 12.4706C21.7423 12.4116 21.6666 12.3507 21.5856 12.2895C21.5555 12.267 21.5258 12.2446 21.4939 12.2221C20.4565 11.5036 19.1893 11.1959 17.9379 11.3587C23.2423 14.0109 21.8192 23.1433 14.468 22.8008C13.8135 22.7739 13.1666 22.6491 12.5491 22.4306C12.4047 22.3766 12.2604 22.3175 12.116 22.2533C12.0327 22.2152 11.9494 22.1772 11.8672 22.1346L11.8775 22.141C12.9026 22.8408 17.9657 24.5505 23.2587 20.2384L23.2671 20.2194C23.3991 19.9112 25.151 15.5543 21.8059 12.4721L21.8066 12.4706Z" fill="url(#paint9_radial_17895_6433)"/>
<path d="M8.3968 17.3032C8.3968 17.3032 9.07754 14.7663 13.2712 14.7663C13.7244 14.7663 15.0216 13.5011 15.0448 13.1343C13.2417 13.7874 11.2546 13.7093 9.50829 12.9166C8.66108 12.4869 7.71795 12.2813 6.76877 12.3194C5.81959 12.3575 4.89598 12.638 4.08594 13.1343C4.39336 13.7992 4.887 14.3606 5.50707 14.7507C6.12713 15.1407 6.847 15.3425 7.57945 15.3317C7.30624 17.7431 8.58097 20.5524 11.6662 22.0288C11.7351 22.0619 11.7998 22.0977 11.8705 22.1293C10.0695 21.1989 8.58249 19.4394 8.3968 17.3043V17.3032Z" fill="url(#paint10_radial_17895_6433)"/>
<path d="M28.6652 10.4879C28.0245 8.94603 26.7246 7.28127 25.7067 6.75502C26.4326 8.1606 26.9364 9.67011 27.2003 11.2299L27.2029 11.2546C25.5355 7.09938 22.709 5.42131 20.3993 1.77216C20.2825 1.58761 20.1657 1.40268 20.0519 1.20748C19.9868 1.09599 19.9347 0.995531 19.8894 0.903066C19.7936 0.717585 19.7198 0.521563 19.6695 0.318974C19.6695 0.309626 19.6662 0.30058 19.66 0.293562C19.6538 0.286543 19.6453 0.282044 19.636 0.280923C19.6269 0.278429 19.6173 0.278429 19.6082 0.280923C19.6063 0.280923 19.6033 0.284347 19.601 0.285108C19.5987 0.285869 19.5937 0.289294 19.5903 0.290816L19.596 0.280923C15.8917 2.44986 14.6341 6.4643 14.5199 8.47343C14.6919 8.46163 14.8624 8.44717 15.0382 8.44717C16.3525 8.44971 17.6426 8.80021 18.7775 9.46301C19.9123 10.1258 20.8515 11.0773 21.4994 12.2207C20.462 11.5022 19.1948 11.1945 17.9434 11.3574C23.2478 14.0096 21.8247 23.1419 14.4735 22.7995C13.819 22.7726 13.1722 22.6478 12.5546 22.4292C12.4102 22.3752 12.2659 22.3161 12.1216 22.2519C12.0382 22.2139 11.9549 22.1758 11.8727 22.1332L11.883 22.1397C11.8114 22.1054 11.7399 22.0698 11.6684 22.0327C11.7372 22.0658 11.8019 22.1016 11.8727 22.1332C10.0717 21.2024 8.58466 19.4429 8.39897 17.3082C8.39897 17.3082 9.07971 14.7713 13.2734 14.7713C13.7266 14.7713 15.0238 13.5061 15.047 13.1393C15.0413 13.0194 12.4747 11.9978 11.4739 11.0122C10.9393 10.4852 10.6855 10.2314 10.4606 10.0408C10.3391 9.93783 10.212 9.84154 10.0801 9.75234C9.74409 8.57614 9.72977 7.33134 10.0386 6.14771C8.67822 6.80669 7.46944 7.74091 6.48878 8.89123H6.48193C5.89746 8.15037 5.93856 5.70746 5.97204 5.19719C5.79913 5.26668 5.63408 5.3543 5.47965 5.4586C4.96369 5.82684 4.48134 6.24005 4.03826 6.69337C3.53335 7.20528 3.0722 7.75859 2.65965 8.34748C1.71161 9.69131 1.03911 11.2092 0.68097 12.8144L0.661183 12.9118C0.633405 13.0415 0.508977 13.7006 0.491093 13.8421C0.377281 14.5224 0.304597 15.209 0.273438 15.8981V15.9742C0.279955 19.6646 1.66977 23.2185 4.16853 25.9343C6.66729 28.6501 10.0934 30.3305 13.7705 30.6437C17.4477 30.9569 21.1086 29.8801 24.0307 27.626C26.9528 25.3719 28.9236 22.1042 29.5541 18.4681C29.5789 18.2778 29.599 18.0894 29.6211 17.8973C29.9249 15.3866 29.596 12.8398 28.6645 10.4886L28.6652 10.4879Z" fill="url(#paint11_linear_17895_6433)"/>
</g>
<defs>
<linearGradient id="paint0_linear_17895_6433" x1="26.714" y1="4.99168" x2="2.23043" y2="28.6141" gradientUnits="userSpaceOnUse">
<stop offset="0.048" stop-color="#FFF44F"/>
<stop offset="0.111" stop-color="#FFE847"/>
<stop offset="0.225" stop-color="#FFC830"/>
<stop offset="0.368" stop-color="#FF980E"/>
<stop offset="0.401" stop-color="#FF8B16"/>
<stop offset="0.462" stop-color="#FF672A"/>
<stop offset="0.534" stop-color="#FF3647"/>
<stop offset="0.705" stop-color="#E31587"/>
</linearGradient>
<radialGradient id="paint1_radial_17895_6433" cx="0" cy="0" r="1" gradientUnits="userSpaceOnUse" gradientTransform="translate(25.7634 3.70351) scale(30.7457 30.7457)">
<stop offset="0.129" stop-color="#FFBD4F"/>
<stop offset="0.186" stop-color="#FFAC31"/>
<stop offset="0.247" stop-color="#FF9D17"/>
<stop offset="0.283" stop-color="#FF980E"/>
<stop offset="0.403" stop-color="#FF563B"/>
<stop offset="0.467" stop-color="#FF3750"/>
<stop offset="0.71" stop-color="#F5156C"/>
<stop offset="0.782" stop-color="#EB0878"/>
<stop offset="0.86" stop-color="#E50080"/>
</radialGradient>
<radialGradient id="paint2_radial_17895_6433" cx="0" cy="0" r="1" gradientUnits="userSpaceOnUse" gradientTransform="translate(14.348 16.2605) scale(30.7457 30.7457)">
<stop offset="0.3" stop-color="#960E18"/>
<stop offset="0.351" stop-color="#B11927" stop-opacity="0.74"/>
<stop offset="0.435" stop-color="#DB293D" stop-opacity="0.343"/>
<stop offset="0.497" stop-color="#F5334B" stop-opacity="0.094"/>
<stop offset="0.53" stop-color="#FF3750" stop-opacity="0"/>
</radialGradient>
<radialGradient id="paint3_radial_17895_6433" cx="0" cy="0" r="1" gradientUnits="userSpaceOnUse" gradientTransform="translate(18.1541 -3.14571) scale(22.2716)">
<stop offset="0.132" stop-color="#FFF44F"/>
<stop offset="0.252" stop-color="#FFDC3E"/>
<stop offset="0.506" stop-color="#FF9D12"/>
<stop offset="0.526" stop-color="#FF980E"/>
</radialGradient>
<radialGradient id="paint4_radial_17895_6433" cx="0" cy="0" r="1" gradientUnits="userSpaceOnUse" gradientTransform="translate(10.9292 24.2515) scale(14.6384)">
<stop offset="0.353" stop-color="#3A8EE6"/>
<stop offset="0.472" stop-color="#5C79F0"/>
<stop offset="0.669" stop-color="#9059FF"/>
<stop offset="1" stop-color="#C139E6"/>
</radialGradient>
<radialGradient id="paint5_radial_17895_6433" cx="0" cy="0" r="1" gradientUnits="userSpaceOnUse" gradientTransform="translate(15.8409 13.6214) rotate(-13.5916) scale(7.76256 9.08802)">
<stop offset="0.206" stop-color="#9059FF" stop-opacity="0"/>
<stop offset="0.278" stop-color="#8C4FF3" stop-opacity="0.064"/>
<stop offset="0.747" stop-color="#7716A8" stop-opacity="0.45"/>
<stop offset="0.975" stop-color="#6E008B" stop-opacity="0.6"/>
</radialGradient>
<radialGradient id="paint6_radial_17895_6433" cx="0" cy="0" r="1" gradientUnits="userSpaceOnUse" gradientTransform="translate(13.9722 2.56205) scale(10.5327 10.5327)">
<stop stop-color="#FFE226"/>
<stop offset="0.121" stop-color="#FFDB27"/>
<stop offset="0.295" stop-color="#FFC82A"/>
<stop offset="0.502" stop-color="#FFA930"/>
<stop offset="0.732" stop-color="#FF7E37"/>
<stop offset="0.792" stop-color="#FF7139"/>
</radialGradient>
<radialGradient id="paint7_radial_17895_6433" cx="0" cy="0" r="1" gradientUnits="userSpaceOnUse" gradientTransform="translate(22.3454 -4.28733) scale(44.9389)">
<stop offset="0.113" stop-color="#FFF44F"/>
<stop offset="0.456" stop-color="#FF980E"/>
<stop offset="0.622" stop-color="#FF5634"/>
<stop offset="0.716" stop-color="#FF3647"/>
<stop offset="0.904" stop-color="#E31587"/>
</radialGradient>
<radialGradient id="paint8_radial_17895_6433" cx="0" cy="0" r="1" gradientUnits="userSpaceOnUse" gradientTransform="translate(18.6061 -1.79566) rotate(83.976) scale(32.9319 21.6129)">
<stop stop-color="#FFF44F"/>
<stop offset="0.06" stop-color="#FFE847"/>
<stop offset="0.168" stop-color="#FFC830"/>
<stop offset="0.304" stop-color="#FF980E"/>
<stop offset="0.356" stop-color="#FF8B16"/>
<stop offset="0.455" stop-color="#FF672A"/>
<stop offset="0.57" stop-color="#FF3647"/>
<stop offset="0.737" stop-color="#E31587"/>
</radialGradient>
<radialGradient id="paint9_radial_17895_6433" cx="0" cy="0" r="1" gradientUnits="userSpaceOnUse" gradientTransform="translate(13.968 6.36713) scale(28.0516 28.0516)">
<stop offset="0.137" stop-color="#FFF44F"/>
<stop offset="0.48" stop-color="#FF980E"/>
<stop offset="0.592" stop-color="#FF5634"/>
<stop offset="0.655" stop-color="#FF3647"/>
<stop offset="0.904" stop-color="#E31587"/>
</radialGradient>
<radialGradient id="paint10_radial_17895_6433" cx="0" cy="0" r="1" gradientUnits="userSpaceOnUse" gradientTransform="translate(21.2012 7.88922) scale(30.7038 30.7038)">
<stop offset="0.094" stop-color="#FFF44F"/>
<stop offset="0.231" stop-color="#FFE141"/>
<stop offset="0.509" stop-color="#FFAF1E"/>
<stop offset="0.626" stop-color="#FF980E"/>
</radialGradient>
<linearGradient id="paint11_linear_17895_6433" x1="26.4164" y1="4.8661" x2="5.58696" y2="25.6993" gradientUnits="userSpaceOnUse">
<stop offset="0.167" stop-color="#FFF44F" stop-opacity="0.8"/>
<stop offset="0.266" stop-color="#FFF44F" stop-opacity="0.634"/>
<stop offset="0.489" stop-color="#FFF44F" stop-opacity="0.217"/>
<stop offset="0.6" stop-color="#FFF44F" stop-opacity="0"/>
</linearGradient>
<clipPath id="clip0_17895_6433">
<rect width="30" height="30.9881" fill="white"/>
</clipPath>
</defs>
</svg>
