<svg width="30" height="30" viewBox="0 0 30 30" fill="none" xmlns="http://www.w3.org/2000/svg">
<path d="M29.2029 14.2859C29.2029 16.1586 28.8356 18.0129 28.1218 19.743C27.408 21.4731 26.3618 23.0452 25.043 24.3693C23.7241 25.6935 22.1584 26.7439 20.4352 27.4606C18.712 28.1772 16.8651 28.546 14.9999 28.546C11.233 28.546 7.62043 27.0436 4.95684 24.3693C2.29326 21.6951 0.796875 18.0679 0.796875 14.2859C0.796875 10.5039 2.29326 6.87676 4.95684 4.20246C7.62043 1.52816 11.233 0.0257578 14.9999 0.0257568C16.8651 0.0257567 18.712 0.394608 20.4352 1.11125C22.1584 1.82789 23.7241 2.87828 25.043 4.20246C26.3618 5.52664 27.408 7.09866 28.1218 8.82878C28.8356 10.5589 29.2029 12.4132 29.2029 14.2859Z" fill="url(#paint0_linear_17895_15735)"/>
<path fill-rule="evenodd" clip-rule="evenodd" d="M14.9975 0.046811C11.2363 0.046812 7.62907 1.54698 4.96943 4.21731C2.30979 6.88764 0.81561 10.5094 0.81561 14.2859C0.81561 18.0623 2.30979 21.6841 4.96943 24.3544C7.62907 27.0248 11.2363 28.5249 14.9975 28.5249C16.8599 28.5249 18.7041 28.1566 20.4247 27.4411C22.1453 26.7255 23.7088 25.6766 25.0257 24.3544C26.3426 23.0322 27.3872 21.4625 28.1 19.7349C28.8127 18.0074 29.1795 16.1558 29.1795 14.2859C29.1795 12.416 28.8127 10.5644 28.1 8.83679C27.3872 7.10922 26.3426 5.53952 25.0257 4.21731C23.7088 2.89509 22.1453 1.84626 20.4247 1.13068C18.7041 0.415112 16.8599 0.0468109 14.9975 0.046811ZM4.93955 4.18755C7.60709 1.50929 11.225 0.00463964 14.9975 0.00463867C16.8655 0.00463855 18.7152 0.37404 20.4409 1.09175C22.1667 1.80945 23.7347 2.86141 25.0556 4.18755C26.3764 5.51369 27.4241 7.08803 28.1389 8.82071C28.8538 10.5534 29.2217 12.4104 29.2217 14.2859C29.2217 16.1613 28.8538 18.0184 28.1389 19.751C27.4241 21.4837 26.3764 23.0581 25.0556 24.3842C23.7347 25.7103 22.1667 26.7623 20.4409 27.48C18.7152 28.1977 16.8655 28.5671 14.9975 28.5671C11.225 28.5671 7.60709 27.0625 4.93955 24.3842C2.27202 21.7059 0.773437 18.0735 0.773438 14.2859C0.773437 10.4983 2.27202 6.8658 4.93955 4.18755Z" fill="#CDCDCD"/>
<path d="M28.0864 14.2859C28.0864 17.7716 26.7073 21.1145 24.2524 23.5792C21.7976 26.044 18.4681 27.4286 14.9963 27.4286C11.5246 27.4286 8.19512 26.044 5.74025 23.5792C3.28538 21.1145 1.90625 17.7716 1.90625 14.2859C1.90625 10.8003 3.28538 7.45734 5.74025 4.9926C8.19512 2.52786 11.5246 1.14319 14.9963 1.14319C18.4681 1.14319 21.7976 2.52786 24.2524 4.9926C26.7073 7.45734 28.0864 10.8003 28.0864 14.2859Z" fill="url(#paint1_radial_17895_15735)"/>
<path d="M14.997 1.82849C14.8913 1.82849 14.8062 1.91395 14.8062 2.02011V4.23032C14.8062 4.33648 14.8913 4.42194 14.997 4.42194C15.1028 4.42194 15.1879 4.33648 15.1879 4.23032V2.02011C15.1879 1.91395 15.1028 1.82849 14.997 1.82849ZM13.7485 1.90772C13.7358 1.90635 13.7228 1.90635 13.7097 1.90788C13.6045 1.9189 13.5287 2.01276 13.5397 2.11835L13.6359 3.04301C13.6469 3.14859 13.7404 3.22473 13.8455 3.2137C13.9507 3.20268 14.0265 3.10881 14.0155 3.00323L13.9194 2.07858C13.9098 1.98619 13.837 1.91635 13.7485 1.90772ZM16.2543 1.90863C16.1658 1.91719 16.093 1.98702 16.0833 2.0794L15.9864 3.00398C15.9754 3.10956 16.0512 3.20351 16.1564 3.21461C16.2615 3.22572 16.355 3.14966 16.3661 3.04409L16.4629 2.11943C16.474 2.01385 16.3982 1.91997 16.293 1.90888C16.2799 1.90751 16.2669 1.9075 16.2543 1.90863ZM12.4659 2.09445C12.4532 2.09455 12.4403 2.09582 12.4274 2.09855C12.324 2.12054 12.2583 2.22187 12.2802 2.32572L12.7361 4.48798C12.758 4.59183 12.8589 4.65775 12.9624 4.63576C13.0658 4.61378 13.1315 4.51252 13.1096 4.40867L12.6537 2.24634C12.6345 2.15546 12.5549 2.09376 12.4659 2.09445ZM17.5368 2.09628C17.4479 2.09536 17.3682 2.15725 17.349 2.24811L16.8915 4.41011C16.8695 4.51395 16.9351 4.6153 17.0385 4.63737C17.1419 4.65944 17.2429 4.59357 17.2649 4.48974L17.7223 2.32774C17.7443 2.2239 17.6787 2.12254 17.5753 2.10049C17.5624 2.09775 17.5495 2.09628 17.5368 2.09628ZM11.242 2.44096C11.2172 2.43869 11.1917 2.44142 11.1666 2.44979C11.066 2.48261 11.0114 2.59023 11.044 2.69119L11.3302 3.57541C11.3629 3.67638 11.4701 3.73127 11.5707 3.69847C11.6712 3.66565 11.7258 3.55795 11.6932 3.45699L11.407 2.57277C11.3825 2.49705 11.3161 2.44729 11.242 2.44096ZM18.7538 2.44142C18.6797 2.44774 18.6133 2.49752 18.5888 2.57324L18.3024 3.45737C18.2698 3.55833 18.3244 3.66604 18.4249 3.69886C18.5255 3.73168 18.6328 3.67682 18.6654 3.57588L18.9518 2.69167C18.9844 2.5907 18.9298 2.483 18.8293 2.45018C18.8042 2.44199 18.7785 2.43932 18.7538 2.44142ZM10.0316 2.88567C10.0068 2.88613 9.98167 2.89159 9.95751 2.90238C9.86095 2.94549 9.8177 3.05827 9.86065 3.15528L10.7547 5.17495C10.7977 5.27196 10.91 5.31533 11.0066 5.27221C11.1032 5.2291 11.1465 5.11632 11.1036 5.01932L10.2094 2.99964C10.1772 2.92688 10.1059 2.88423 10.0316 2.88567ZM19.9779 2.89246C19.9035 2.89109 19.8322 2.93347 19.7999 3.00617L18.9031 5.02461C18.86 5.12156 18.9031 5.23442 18.9996 5.27767C19.0962 5.32091 19.2086 5.27769 19.2517 5.18075L20.1485 3.16231C20.1916 3.06536 20.1485 2.9525 20.0519 2.90925C20.0278 2.89846 20.0027 2.893 19.9779 2.89246ZM8.90806 3.48252C8.87142 3.47979 8.83367 3.48798 8.79934 3.50792C8.70777 3.561 8.67662 3.67773 8.72948 3.76966L9.19248 4.57482C9.24535 4.66676 9.3616 4.69803 9.45317 4.64495C9.54473 4.59187 9.57588 4.47514 9.52302 4.38321L9.06003 3.57805C9.02697 3.52059 8.96913 3.48681 8.90806 3.48252ZM21.086 3.48252C21.0249 3.48661 20.9671 3.52057 20.9341 3.57804L20.471 4.38319C20.4182 4.47513 20.4494 4.59186 20.541 4.64494C20.6325 4.69802 20.7488 4.66674 20.8017 4.57481L21.2647 3.76965C21.3175 3.67771 21.2864 3.56098 21.1948 3.50791C21.1605 3.48801 21.1226 3.47997 21.086 3.48252ZM7.8171 4.16569C7.78037 4.16706 7.7436 4.17889 7.7115 4.20225C7.62592 4.26458 7.607 4.38393 7.66911 4.46986L8.96171 6.25889C9.02379 6.34482 9.14275 6.36382 9.22833 6.3015C9.31392 6.23917 9.33284 6.11982 9.27072 6.03389L7.97804 4.24486C7.93923 4.19115 7.87828 4.16359 7.8171 4.16569ZM22.1906 4.17544C22.1295 4.17316 22.0685 4.2007 22.0296 4.25433L20.7345 6.04163C20.6723 6.12747 20.6911 6.24687 20.7766 6.30932C20.8621 6.37177 20.981 6.35298 21.0432 6.26717L22.3382 4.47987C22.4004 4.39403 22.3816 4.27463 22.2962 4.21218C22.2641 4.18878 22.2273 4.17676 22.1906 4.17544ZM6.84194 4.98679C6.79323 4.98406 6.74351 5.00041 6.70422 5.03592C6.62564 5.10694 6.61932 5.22761 6.69008 5.30651L7.30965 5.99754C7.38038 6.07645 7.50057 6.08279 7.57916 6.01175C7.65774 5.94072 7.66406 5.81997 7.5933 5.74107L6.97381 5.05012C6.93845 5.01065 6.89066 4.98937 6.84194 4.98679ZM23.1535 4.98816C23.1048 4.99089 23.057 5.01206 23.0216 5.05151L22.4021 5.74238C22.3313 5.82127 22.3376 5.94202 22.4162 6.01305C22.4947 6.08408 22.6149 6.07772 22.6857 5.99885L23.3053 5.30798C23.3761 5.22909 23.3697 5.10834 23.2912 5.03731C23.2519 5.0018 23.2022 4.9856 23.1535 4.98816ZM5.90732 5.88817C5.8586 5.8909 5.81089 5.91207 5.77552 5.95152C5.70478 6.03042 5.71111 6.15109 5.78967 6.22212L7.42575 7.70085C7.50433 7.77188 7.62451 7.76553 7.69525 7.68665C7.766 7.60775 7.75975 7.48708 7.68115 7.41606L6.045 5.93732C6.00569 5.90181 5.95604 5.8856 5.90732 5.88817ZM24.0927 5.89464C24.044 5.8919 23.9942 5.9082 23.9549 5.94368L22.3178 7.42127C22.2392 7.49223 22.2327 7.6129 22.3034 7.69185C22.3741 7.7708 22.4943 7.77721 22.573 7.70624L24.2101 6.22866C24.2888 6.15769 24.2951 6.03701 24.2245 5.95806C24.1891 5.91859 24.1414 5.89724 24.0927 5.89464ZM5.13009 6.89158C5.06891 6.8893 5.0079 6.91698 4.96906 6.97064C4.90692 7.05652 4.92576 7.17586 5.01132 7.23825L5.76046 7.78473C5.846 7.84713 5.96485 7.82829 6.027 7.74239C6.08915 7.65651 6.07034 7.53709 5.98483 7.4747L5.23569 6.92822C5.20364 6.90482 5.1668 6.8929 5.13009 6.89158ZM24.8692 6.89854C24.8324 6.89991 24.7957 6.9117 24.7636 6.9351L24.0141 7.48108C23.9285 7.54342 23.9096 7.66285 23.9717 7.74878C24.0338 7.8347 24.1526 7.85362 24.2382 7.7913L24.9878 7.24532C25.0733 7.18298 25.0922 7.06363 25.0301 6.9777C24.9913 6.924 24.9303 6.89644 24.8692 6.89854ZM4.40377 7.96189C4.3427 7.96599 4.28493 7.99995 4.25188 8.05741C4.19902 8.14934 4.23017 8.26607 4.32173 8.31915L6.22814 9.42426C6.3197 9.47734 6.43596 9.44606 6.48883 9.35413C6.5417 9.26219 6.51055 9.14547 6.41898 9.09239L4.51258 7.98727C4.47826 7.96738 4.44041 7.95934 4.40377 7.96189ZM25.5903 7.96189C25.5536 7.95916 25.5158 7.96735 25.4815 7.98729L23.5751 9.0924C23.4835 9.14548 23.4524 9.26221 23.5052 9.35415C23.5581 9.44608 23.6744 9.47735 23.7659 9.42427L25.6724 8.31917C25.764 8.26609 25.7951 8.14936 25.7423 8.05743C25.7092 7.99997 25.6514 7.96618 25.5903 7.96189ZM3.85462 9.10272C3.78025 9.1009 3.70893 9.14365 3.67663 9.21635C3.63355 9.3133 3.6766 9.42617 3.77316 9.46941L4.61891 9.84817C4.71548 9.89142 4.82789 9.8482 4.87096 9.75125C4.91403 9.6543 4.87091 9.54143 4.77434 9.49819L3.92867 9.11943C3.90455 9.1086 3.87941 9.10322 3.85462 9.10272ZM26.1431 9.1106C26.1183 9.11105 26.0932 9.11652 26.069 9.12731L25.2231 9.50541C25.1265 9.54861 25.0833 9.6614 25.1263 9.75838C25.1693 9.85536 25.2818 9.89873 25.3784 9.85555L26.2243 9.47737C26.3209 9.43421 26.364 9.32137 26.321 9.22439C26.2887 9.15166 26.2175 9.10912 26.1431 9.1106ZM3.36519 10.2951C3.29107 10.3013 3.22461 10.3511 3.20005 10.4268C3.16731 10.5277 3.22181 10.6354 3.32236 10.6683L5.41542 11.3531C5.51594 11.3859 5.62325 11.3312 5.65601 11.2303C5.68875 11.1293 5.63425 11.0216 5.5337 10.9887L3.44065 10.3039C3.41553 10.2957 3.3899 10.293 3.36519 10.2951ZM26.6317 10.3033C26.607 10.301 26.5814 10.3038 26.5563 10.3121L24.4628 10.9954C24.3622 11.0282 24.3076 11.1359 24.3403 11.2369C24.373 11.3378 24.4802 11.3927 24.5808 11.3598L26.6742 10.6766C26.7748 10.6438 26.8295 10.5361 26.7968 10.4351C26.7723 10.3594 26.7058 10.3096 26.6317 10.3033ZM3.06027 11.5468C2.97136 11.5459 2.89162 11.6078 2.87239 11.6987C2.8504 11.8025 2.916 11.9039 3.01941 11.9259L3.92521 12.1192C4.02864 12.1413 4.12957 12.0754 4.15156 11.9716C4.17355 11.8677 4.10794 11.7664 4.00453 11.7443L3.09881 11.5511C3.08589 11.5483 3.07296 11.5468 3.06027 11.5468ZM26.9342 11.5486C26.9215 11.5487 26.9087 11.5504 26.8958 11.5527L25.9899 11.7459C25.8865 11.7679 25.821 11.8692 25.8429 11.973C25.8649 12.0769 25.9658 12.1428 26.0693 12.1207L26.975 11.9276C27.0784 11.9055 27.1441 11.8041 27.1221 11.7003C27.1029 11.6094 27.0231 11.5478 26.9342 11.5486ZM2.82947 12.8058C2.74097 12.8143 2.66812 12.884 2.6584 12.9764C2.64729 13.082 2.72293 13.1759 2.82807 13.1871L5.01725 13.4195C5.12239 13.4306 5.21601 13.3546 5.22712 13.249C5.23823 13.1435 5.16251 13.0495 5.05736 13.0383L2.86819 12.8059C2.85504 12.8046 2.84212 12.8046 2.82947 12.8058ZM27.1666 12.8223C27.154 12.8209 27.141 12.8209 27.1278 12.8225L24.9384 13.0519C24.8332 13.0629 24.7574 13.1568 24.7684 13.2623C24.7794 13.3679 24.8729 13.4441 24.978 13.433L27.1674 13.2036C27.2726 13.1926 27.3484 13.0987 27.3375 12.9931C27.3278 12.9008 27.2551 12.8309 27.1666 12.8223ZM2.79241 14.0945C2.68667 14.0945 2.60156 14.18 2.60156 14.2862C2.60156 14.3923 2.68667 14.4778 2.79241 14.4778H3.71839C3.82412 14.4778 3.90932 14.3923 3.90932 14.2862C3.90932 14.18 3.82412 14.0945 3.71839 14.0945H2.79241ZM26.2757 14.0945C26.1699 14.0945 26.0848 14.18 26.0848 14.2862C26.0848 14.3923 26.1699 14.4778 26.2757 14.4778H27.2016C27.3074 14.4778 27.3925 14.3923 27.3925 14.2862C27.3925 14.18 27.3074 14.0945 27.2016 14.0945H26.2757ZM5.05481 15.1391C5.04216 15.1378 5.02924 15.1378 5.01609 15.1393L2.82658 15.3687C2.72142 15.3797 2.64561 15.4736 2.65657 15.5792C2.66755 15.6847 2.76104 15.7609 2.8662 15.7498L5.05571 15.5204C5.16087 15.5094 5.23667 15.4156 5.22571 15.31C5.2161 15.2176 5.1433 15.1478 5.05481 15.1391ZM24.9381 15.1527C24.8496 15.1612 24.7767 15.2309 24.767 15.3233C24.7559 15.4289 24.8315 15.5229 24.9367 15.534L27.1259 15.7664C27.231 15.7776 27.3246 15.7015 27.3357 15.596C27.3469 15.4904 27.2711 15.3964 27.166 15.3852L24.9769 15.1529C24.9637 15.1515 24.9507 15.1515 24.9381 15.1527ZM3.96343 16.4472C3.95074 16.4473 3.93781 16.4485 3.92489 16.4513L3.01909 16.6445C2.91566 16.6665 2.8501 16.7679 2.87206 16.8717C2.89405 16.9756 2.99499 17.0414 3.09841 17.0193L4.00422 16.8262C4.10764 16.8041 4.1732 16.7028 4.15124 16.599C4.13201 16.5081 4.05234 16.4464 3.96343 16.4472ZM26.0304 16.449C25.9415 16.4481 25.8618 16.51 25.8426 16.6008C25.8206 16.7047 25.8861 16.806 25.9895 16.8281L26.8953 17.0214C26.9987 17.0434 27.0997 16.9777 27.1217 16.8738C27.1437 16.77 27.0781 16.6685 26.9746 16.6465L26.0689 16.4532C26.056 16.4505 26.0431 16.449 26.0304 16.449ZM5.48872 17.2037C5.46401 17.2014 5.43849 17.2042 5.41335 17.2125L3.31981 17.8958C3.21926 17.9286 3.16464 18.0363 3.19733 18.1373C3.23002 18.2382 3.33729 18.2931 3.43784 18.2603L5.53131 17.577C5.63186 17.5442 5.68656 17.4365 5.65387 17.3355C5.62934 17.2598 5.56284 17.21 5.48872 17.2037ZM24.5033 17.2105C24.4291 17.2167 24.3627 17.2664 24.3381 17.3421C24.3054 17.4431 24.3599 17.5508 24.4604 17.5837L26.5535 18.2685C26.654 18.3013 26.7613 18.2466 26.7941 18.1457C26.8269 18.0447 26.7723 17.937 26.6718 17.9041L24.5787 17.2193C24.5536 17.2111 24.528 17.2084 24.5033 17.2105ZM4.68983 18.7002C4.66503 18.7007 4.63993 18.7061 4.61578 18.7168L3.76979 19.095C3.67319 19.1382 3.63008 19.251 3.67308 19.348C3.71611 19.445 3.82846 19.4883 3.92505 19.4451L4.77105 19.067C4.86764 19.0238 4.91075 18.911 4.86775 18.814C4.83551 18.7413 4.76421 18.6987 4.68983 18.7002ZM25.3012 18.7075C25.2268 18.7057 25.1555 18.7484 25.1232 18.8211C25.0801 18.9181 25.1231 19.031 25.2197 19.0742L26.0654 19.453C26.1619 19.4962 26.2744 19.453 26.3174 19.356C26.3605 19.2591 26.3175 19.1462 26.2209 19.103L25.3752 18.7242C25.3511 18.7134 25.326 18.708 25.3012 18.7075ZM6.33695 19.1227C6.30031 19.12 6.26248 19.1282 6.22814 19.1482L4.32173 20.2533C4.23017 20.3063 4.19902 20.4231 4.25188 20.515C4.30475 20.6069 4.42101 20.6382 4.51258 20.5851L6.41898 19.4801C6.51055 19.427 6.54169 19.3102 6.48883 19.2183C6.45578 19.1608 6.39801 19.127 6.33695 19.1227ZM23.6572 19.1227C23.5961 19.1268 23.5383 19.1608 23.5052 19.2183C23.4524 19.3102 23.4835 19.427 23.5751 19.4801L25.4815 20.5851C25.573 20.6382 25.6894 20.6069 25.7423 20.515C25.7951 20.4231 25.764 20.3063 25.6724 20.2532L23.7659 19.1481C23.7316 19.1282 23.6938 19.1202 23.6572 19.1227ZM5.86144 20.7445C5.82471 20.7458 5.78793 20.7577 5.75584 20.7811L5.00637 21.3271C4.92079 21.3894 4.90187 21.5088 4.96394 21.5947C5.02603 21.6806 5.1449 21.6996 5.23048 21.6373L5.98002 21.0913C6.06561 21.029 6.08454 20.9096 6.02246 20.8237C5.98365 20.77 5.92262 20.7424 5.86144 20.7445ZM24.1281 20.7509C24.0669 20.7487 24.0059 20.7763 23.9671 20.83C23.9049 20.9159 23.9238 21.0353 24.0093 21.0977L24.7585 21.6442C24.844 21.7066 24.9629 21.6876 25.025 21.6017C25.0871 21.5159 25.0683 21.3965 24.9828 21.3341L24.2337 20.7877C24.2016 20.7643 24.1648 20.7523 24.1281 20.7509ZM7.55887 20.8171C7.51016 20.8144 7.46047 20.8307 7.42115 20.8661L5.78401 22.3437C5.70538 22.4147 5.69899 22.5354 5.76968 22.6143C5.84037 22.6933 5.96055 22.6997 6.03919 22.6287L7.67633 21.1511C7.75496 21.0802 7.76135 20.9595 7.69066 20.8805C7.65534 20.8411 7.60759 20.8197 7.55887 20.8171ZM22.4307 20.8224C22.3819 20.8251 22.3342 20.8463 22.2988 20.8857C22.228 20.9646 22.2344 21.0853 22.3129 21.1563L23.949 22.6351C24.0276 22.7061 24.1479 22.6997 24.2186 22.6209C24.2893 22.542 24.283 22.4213 24.2044 22.3503L22.5683 20.8715C22.529 20.836 22.4794 20.8198 22.4307 20.8224ZM9.11201 22.2261C9.05083 22.2238 8.98977 22.2513 8.95089 22.305L7.6559 24.0923C7.5937 24.1782 7.61242 24.2976 7.69789 24.36C7.78339 24.4225 7.90232 24.4037 7.96452 24.3178L9.2595 22.5305C9.3217 22.4447 9.30298 22.3253 9.21752 22.2628C9.18546 22.2394 9.14871 22.2274 9.11201 22.2261ZM20.8714 22.2341C20.8347 22.2355 20.7979 22.2473 20.7658 22.2707C20.6802 22.333 20.6613 22.4524 20.7234 22.5383L22.016 24.3273C22.0781 24.4133 22.1969 24.4323 22.2825 24.3699C22.3681 24.3076 22.387 24.1883 22.325 24.1023L21.0324 22.3133C20.9936 22.2596 20.9326 22.232 20.8714 22.2341ZM7.44026 22.5102C7.39155 22.5129 7.34377 22.5341 7.3084 22.5735L6.68882 23.2644C6.61807 23.3433 6.62433 23.464 6.70292 23.5351C6.7815 23.6061 6.90168 23.5997 6.97243 23.5208L7.59208 22.83C7.66284 22.7511 7.65649 22.6303 7.57793 22.5593C7.53862 22.5238 7.48899 22.5076 7.44026 22.5102ZM22.5526 22.5111C22.5039 22.5084 22.4543 22.5247 22.415 22.5602C22.3364 22.6312 22.3301 22.7519 22.4008 22.8308L23.0203 23.5218C23.091 23.6007 23.2112 23.6071 23.2898 23.536C23.3684 23.465 23.3747 23.3443 23.304 23.2654L22.6845 22.5744C22.6491 22.5349 22.6014 22.5137 22.5526 22.5111ZM10.9204 23.2775C10.846 23.2757 10.7748 23.3185 10.7425 23.3912L9.84557 25.4096C9.8025 25.5066 9.84555 25.6194 9.94211 25.6627C10.0387 25.7059 10.1511 25.6627 10.1942 25.5657L11.0911 23.5473C11.1341 23.4504 11.0911 23.3375 10.9945 23.2942C10.9704 23.2834 10.9452 23.278 10.9204 23.2775ZM19.0616 23.2831C19.0368 23.2836 19.0116 23.2889 18.9874 23.2997C18.8909 23.3428 18.8476 23.4556 18.8906 23.5526L19.7847 25.5723C19.8276 25.6692 19.94 25.7127 20.0366 25.6695C20.1332 25.6264 20.1764 25.5137 20.1335 25.4166L19.2394 23.397C19.2072 23.3243 19.1359 23.2817 19.0616 23.2831ZM9.34436 23.9016C9.2833 23.9057 9.22551 23.9397 9.19248 23.9971L8.72948 24.8023C8.67662 24.8942 8.70777 25.0109 8.79934 25.064C8.8909 25.1171 9.00716 25.0858 9.06003 24.9939L9.52302 24.1887C9.57588 24.0968 9.54474 23.9801 9.45317 23.927C9.41885 23.9071 9.38101 23.8991 9.34436 23.9016ZM20.6497 23.9016C20.6131 23.8989 20.5753 23.9071 20.541 23.927C20.4494 23.9801 20.4183 24.0968 20.4711 24.1887L20.9341 24.9939C20.987 25.0858 21.1032 25.1171 21.1948 25.064C21.2864 25.011 21.3175 24.8942 21.2647 24.8023L20.8017 23.9971C20.7686 23.9397 20.7108 23.9059 20.6497 23.9016ZM12.9171 23.9305C12.8282 23.9296 12.7485 23.9914 12.7293 24.0823L12.2718 26.2443C12.2498 26.3481 12.3154 26.4495 12.4188 26.4716C12.5223 26.4936 12.6232 26.4278 12.6452 26.3239L13.1026 24.1619C13.1246 24.0581 13.059 23.9567 12.9556 23.9347C12.9427 23.932 12.9298 23.9305 12.9171 23.9305ZM17.0702 23.9318C17.0575 23.9319 17.0447 23.9332 17.0318 23.9359C16.9283 23.9579 16.8627 24.0592 16.8846 24.163L17.3405 26.3254C17.3624 26.4292 17.4633 26.4951 17.5668 26.4731C17.6702 26.4511 17.7358 26.3498 17.714 26.246L17.258 24.0838C17.2388 23.9929 17.1591 23.9311 17.0702 23.9318ZM14.997 24.1499C14.8913 24.1499 14.8062 24.2354 14.8062 24.3415V26.5517C14.8062 26.6579 14.8913 26.7434 14.997 26.7434C15.1028 26.7434 15.1879 26.6579 15.1879 26.5517V24.3415C15.1879 24.2354 15.1028 24.1499 14.997 24.1499ZM11.4938 24.8641C11.4196 24.8704 11.3531 24.9202 11.3286 24.9959L11.0424 25.8801C11.0097 25.9811 11.0643 26.0888 11.1649 26.1216C11.2654 26.1544 11.3727 26.0995 11.4054 25.9986L11.6916 25.1144C11.7243 25.0135 11.6697 24.9058 11.5691 24.8729C11.544 24.8648 11.5185 24.862 11.4938 24.8641ZM18.4988 24.8646C18.4741 24.8623 18.4486 24.865 18.4235 24.8733C18.3229 24.9062 18.2682 25.0139 18.3009 25.1148L18.587 25.999C18.6197 26.1 18.727 26.1548 18.8275 26.122C18.9281 26.0892 18.9828 25.9816 18.9501 25.8806L18.6639 24.9964C18.6394 24.9207 18.5729 24.8709 18.4988 24.8646ZM13.7991 25.357C13.7106 25.3656 13.6377 25.4353 13.628 25.5277L13.5312 26.4524C13.5201 26.5579 13.5959 26.6518 13.7011 26.6629C13.8062 26.674 13.8998 26.598 13.9108 26.4924L14.0076 25.5678C14.0187 25.4622 13.9429 25.3683 13.8378 25.3572C13.8246 25.3558 13.8117 25.3558 13.7991 25.357ZM16.1873 25.3579C16.1747 25.3566 16.1617 25.3566 16.1485 25.3581C16.0434 25.3691 15.9675 25.463 15.9785 25.5686L16.0747 26.4933C16.0857 26.5989 16.1792 26.6749 16.2843 26.6639C16.3895 26.6529 16.4653 26.559 16.4543 26.4534L16.3582 25.5288C16.3486 25.4364 16.2758 25.3666 16.1873 25.3579Z" fill="#F4F2F3"/>
<g opacity="0.409" filter="url(#filter0_f_17895_15735)">
<path d="M23.942 6.62122L13.5004 12.7122L6.89844 23.1473L16.5565 15.9649L23.942 6.62122Z" fill="black"/>
</g>
<path d="M16.4929 15.8594L13.5 12.7125L24.117 5.54175L16.4929 15.8594Z" fill="#FF5150"/>
<path d="M16.4998 15.8593L13.5069 12.7124L5.88281 23.03L16.4998 15.8593Z" fill="#F1F1F1"/>
<path opacity="0.243" d="M5.88281 23.03L16.4998 15.8593L24.1239 5.54163L5.88281 23.03Z" fill="black"/>
<defs>
<filter id="filter0_f_17895_15735" x="4.3536" y="4.07638" width="22.1365" height="21.6158" filterUnits="userSpaceOnUse" color-interpolation-filters="sRGB">
<feFlood flood-opacity="0" result="BackgroundImageFix"/>
<feBlend mode="normal" in="SourceGraphic" in2="BackgroundImageFix" result="shape"/>
<feGaussianBlur stdDeviation="1.27242" result="effect1_foregroundBlur_17895_15735"/>
</filter>
<linearGradient id="paint0_linear_17895_15735" x1="14.9994" y1="28.5457" x2="14.9994" y2="0.025682" gradientUnits="userSpaceOnUse">
<stop stop-color="#BDBDBD"/>
<stop offset="1" stop-color="white"/>
</linearGradient>
<radialGradient id="paint1_radial_17895_15735" cx="0" cy="0" r="1" gradientUnits="userSpaceOnUse" gradientTransform="translate(15.0554 12.3695) scale(14.203 14.2601)">
<stop stop-color="#06C2E7"/>
<stop offset="0.25" stop-color="#0DB8EC"/>
<stop offset="0.5" stop-color="#12AEF1"/>
<stop offset="0.75" stop-color="#1F86F9"/>
<stop offset="1" stop-color="#107DDD"/>
</radialGradient>
</defs>
</svg>
