<svg width="59" height="22" viewBox="0 0 59 22" fill="none" xmlns="http://www.w3.org/2000/svg">
<rect x="1" y="1.05243" width="57" height="19.8947" rx="5" fill="#0168CA" stroke="#328EF2" stroke-width="2"/>
<rect width="20" height="17.8947" rx="4" transform="matrix(-1 0 0 1 22 2.05243)" fill="#104F92"/>
<path fill-rule="evenodd" clip-rule="evenodd" d="M5.53105 7.487L14.8129 5.22533C15.1233 5.14994 15.3955 5.36604 15.4145 5.7078L15.8491 12.9652C15.8682 13.307 15.6294 13.6437 15.3238 13.7191L6.03716 15.9808C5.72681 16.0562 5.45468 15.8401 5.43558 15.5033L5.00107 8.24589C4.98197 7.90413 5.2207 7.56739 5.53105 7.492V7.487Z" fill="white"/>
<path opacity="0.5" d="M17.6494 11.211H17.0956C16.8712 11.211 16.685 11.015 16.685 10.7788C16.685 10.5426 16.8664 10.3466 17.0956 10.3466H17.5778L17.3964 8.18041C17.3677 7.84367 17.0812 7.56219 16.7613 7.56219H16.3794L16.704 12.9098C16.7518 13.6838 16.2266 14.4276 15.5152 14.5985L9.63281 16.0309H17.4632C17.7831 16.0309 18.0266 15.7545 17.998 15.4177L17.6494 11.211Z" fill="white"/>
<path d="M30.8145 6.43359C31.9199 6.43359 32.7266 6.67188 33.2344 7.14844C33.7422 7.62109 33.9961 8.27344 33.9961 9.10547C33.9961 9.48047 33.9395 9.83984 33.8262 10.1836C33.7129 10.5234 33.5273 10.8262 33.2695 11.0918C33.0156 11.3574 32.6758 11.5684 32.25 11.7246C31.8242 11.877 31.2988 11.9531 30.6738 11.9531H29.8945V15H28.0781V6.43359H30.8145ZM30.7207 7.92188H29.8945V10.4648H30.4922C30.832 10.4648 31.127 10.4199 31.377 10.3301C31.627 10.2402 31.8203 10.0996 31.957 9.9082C32.0938 9.7168 32.1621 9.4707 32.1621 9.16992C32.1621 8.74805 32.0449 8.43555 31.8105 8.23242C31.5762 8.02539 31.2129 7.92188 30.7207 7.92188ZM37.2598 15H35.4727V5.88281H37.2598V15ZM45.1523 8.44922V15H43.7812L43.541 14.1621H43.4473C43.3066 14.3848 43.1309 14.5664 42.9199 14.707C42.709 14.8477 42.4766 14.9512 42.2227 15.0176C41.9688 15.084 41.7051 15.1172 41.4316 15.1172C40.9629 15.1172 40.5547 15.0352 40.207 14.8711C39.8594 14.7031 39.5879 14.4434 39.3926 14.0918C39.2012 13.7402 39.1055 13.2832 39.1055 12.7207V8.44922H40.8926V12.2754C40.8926 12.7441 40.9766 13.0977 41.1445 13.3359C41.3125 13.5742 41.5801 13.6934 41.9473 13.6934C42.3105 13.6934 42.5957 13.6113 42.8027 13.4473C43.0098 13.2793 43.1543 13.0352 43.2363 12.7148C43.3223 12.3906 43.3652 11.9961 43.3652 11.5312V8.44922H45.1523ZM51.5977 13.0547C51.5977 13.5 51.4922 13.877 51.2812 14.1855C51.0742 14.4902 50.7637 14.7227 50.3496 14.8828C49.9355 15.0391 49.4199 15.1172 48.8027 15.1172C48.3457 15.1172 47.9531 15.0879 47.625 15.0293C47.3008 14.9707 46.9727 14.873 46.6406 14.7363V13.2598C46.9961 13.4199 47.377 13.5527 47.7832 13.6582C48.1934 13.7598 48.5527 13.8105 48.8613 13.8105C49.209 13.8105 49.457 13.7598 49.6055 13.6582C49.7578 13.5527 49.834 13.416 49.834 13.248C49.834 13.1387 49.8027 13.041 49.7402 12.9551C49.6816 12.8652 49.5527 12.7656 49.3535 12.6562C49.1543 12.543 48.8418 12.3965 48.416 12.2168C48.0059 12.0449 47.668 11.8711 47.4023 11.6953C47.1406 11.5195 46.9453 11.3125 46.8164 11.0742C46.6914 10.832 46.6289 10.5254 46.6289 10.1543C46.6289 9.54883 46.8633 9.09375 47.332 8.78906C47.8047 8.48047 48.4355 8.32617 49.2246 8.32617C49.6309 8.32617 50.0176 8.36719 50.3848 8.44922C50.7559 8.53125 51.1367 8.66211 51.5273 8.8418L50.9883 10.1309C50.6641 9.99023 50.3574 9.875 50.0684 9.78516C49.7832 9.69531 49.4922 9.65039 49.1953 9.65039C48.9336 9.65039 48.7363 9.68555 48.6035 9.75586C48.4707 9.82617 48.4043 9.93359 48.4043 10.0781C48.4043 10.1836 48.4375 10.2773 48.5039 10.3594C48.5742 10.4414 48.707 10.5332 48.9023 10.6348C49.1016 10.7324 49.3926 10.8594 49.7754 11.0156C50.1465 11.168 50.4688 11.3281 50.7422 11.4961C51.0156 11.6602 51.2266 11.8652 51.375 12.1113C51.5234 12.3535 51.5977 12.668 51.5977 13.0547Z" fill="white"/>
</svg>
