<svg width="16" height="16" viewBox="0 0 16 16" fill="none" xmlns="http://www.w3.org/2000/svg">
<g opacity="0.3">
<path d="M10.9271 3.85656C10.81 3.7394 10.62 3.7394 10.5029 3.85656L8.04307 6.31636L5.53968 3.81297C5.42253 3.69581 5.23258 3.69581 5.11542 3.81297L3.81248 5.11591C3.69532 5.23307 3.69532 5.42302 3.81248 5.54017L6.31587 8.04356L3.85607 10.5034C3.73891 10.6205 3.73891 10.8105 3.85607 10.9276L5.07183 12.1434C5.18899 12.2605 5.37894 12.2605 5.49609 12.1434L7.95589 9.68359L10.4593 12.187C10.5764 12.3041 10.7664 12.3041 10.8835 12.187L12.1865 10.884C12.3036 10.7669 12.3036 10.5769 12.1865 10.4598L9.6831 7.95638L12.1429 5.49658C12.2601 5.37942 12.2601 5.18948 12.1429 5.07232L10.9271 3.85656Z" fill="#5C6373"/>
</g>
</svg>
