<svg width="13" height="12" viewBox="0 0 13 12" fill="none" xmlns="http://www.w3.org/2000/svg">
<path fill-rule="evenodd" clip-rule="evenodd" d="M0.531048 2.48702L9.81294 0.22535C10.1233 0.149961 10.3955 0.366057 10.4145 0.70782L10.8491 7.96527C10.8682 8.30703 10.6294 8.64377 10.3238 8.71916L1.03716 10.9808C0.726807 11.0562 0.454677 10.8401 0.435579 10.5034L0.00107071 3.24591C-0.0180278 2.90415 0.220697 2.56741 0.531048 2.49202V2.48702Z" fill="white"/>
<path opacity="0.5" d="M12.6494 6.21105H12.0956C11.8712 6.21105 11.685 6.01504 11.685 5.77883C11.685 5.54261 11.8664 5.3466 12.0956 5.3466H12.5778L12.3964 3.18043C12.3677 2.84369 12.0812 2.56222 11.7613 2.56222H11.3794L11.704 7.90982C11.7518 8.68381 11.2266 9.42764 10.5152 9.59852L4.63281 11.0309H12.4632C12.7831 11.0309 13.0266 10.7545 12.998 10.4178L12.6494 6.21105Z" fill="white"/>
</svg>
