<svg width="371" height="164" viewBox="0 0 371 164" fill="none" xmlns="http://www.w3.org/2000/svg">
<mask id="mask0_8503_15" style="mask-type:alpha" maskUnits="userSpaceOnUse" x="0" y="-141" width="431" height="305">
<rect y="-140" width="430.556" height="303.158" fill="#C4C4C4"/>
</mask>
<g mask="url(#mask0_8503_15)">
<mask id="mask1_8503_15" style="mask-type:alpha" maskUnits="userSpaceOnUse" x="12" y="-470" width="492" height="669">
<path opacity="0.0294118" d="M300.296 6.43645C264.943 10.6429 198.596 1.6862 216.041 -67.7924C237.847 -154.641 213.012 -240.528 129.081 -304.115C61.9364 -354.984 43.2881 -431.913 42.357 -464.019" stroke="#EAEBED"/>
<path opacity="0.0588235" d="M299.389 16.5746C263.872 18.8494 198.066 6.29069 218.981 -62.1424C245.124 -147.684 224.641 -234.807 144.022 -302.878C79.5273 -357.335 64.7725 -435.175 65.4569 -467.287" stroke="#EAEBED"/>
<path opacity="0.0882353" d="M297.876 26.7315C262.293 27.0683 197.21 10.942 221.536 -56.258C251.944 -140.258 235.87 -228.377 158.785 -300.747C97.116 -358.643 86.2952 -437.18 88.5934 -469.211" stroke="#EAEBED"/>
<path opacity="0.117647" d="M295.758 36.8735C260.208 35.2715 196.024 15.6218 223.696 -50.1609C258.286 -132.389 246.665 -221.263 173.323 -297.733C114.65 -358.91 107.793 -437.928 111.699 -469.79" stroke="#EAEBED"/>
<path opacity="0.147059" d="M293.041 46.9677C257.62 43.4312 194.512 20.312 225.454 -43.873C264.131 -124.104 256.994 -213.49 187.598 -293.85C132.082 -358.139 129.207 -437.423 134.709 -469.029" stroke="#EAEBED"/>
<path opacity="0.176471" d="M289.721 56.9804C254.526 51.5192 192.667 24.9937 226.793 -37.4177C269.452 -115.432 266.819 -205.084 201.558 -289.115C149.35 -356.34 150.466 -435.671 157.55 -466.934" stroke="#EAEBED"/>
<path opacity="0.205882" d="M285.805 66.881C250.933 59.5099 190.492 29.651 227.71 -30.8159C274.232 -106.399 276.111 -196.072 215.165 -283.543C166.408 -353.52 171.511 -432.682 180.157 -463.516" stroke="#EAEBED"/>
<path opacity="0.235294" d="M281.3 76.6362C246.847 67.3755 187.991 34.265 228.198 -24.0916C278.456 -97.0372 284.841 -186.484 228.377 -277.155C183.205 -349.692 192.281 -428.468 202.466 -458.789" stroke="#EAEBED"/>
<path opacity="0.264706" d="M276.216 86.2135C242.275 75.0886 185.164 38.8172 228.25 -17.269C282.108 -87.3768 292.981 -176.354 241.153 -269.976C199.691 -344.875 212.715 -423.048 224.41 -452.772" stroke="#EAEBED"/>
<path opacity="0.294118" d="M270.56 95.5828C237.225 82.6242 182.016 43.2913 227.863 -10.3709C285.172 -77.4487 300.504 -165.711 253.454 -262.029C215.815 -339.083 232.752 -416.44 245.926 -445.487" stroke="#EAEBED"/>
<path opacity="0.323529" d="M264.345 104.713C231.707 89.9557 178.551 47.6693 227.034 -3.42183C287.637 -67.2857 307.385 -154.592 265.243 -253.341C231.529 -332.34 252.333 -408.668 266.949 -436.957" stroke="#EAEBED"/>
<path opacity="0.352941" d="M257.587 113.572C225.735 97.0572 174.779 51.933 225.764 3.553C289.495 -56.9219 313.606 -143.033 276.487 -243.942C246.791 -324.67 271.404 -399.76 287.422 -427.214" stroke="#EAEBED"/>
<path opacity="0.382353" d="M250.292 122.133C219.315 103.906 170.697 56.0676 224.045 10.5314C290.729 -46.3889 319.137 -131.068 287.142 -233.861C261.547 -316.096 289.901 -389.742 307.278 -416.286" stroke="#EAEBED"/>
<path opacity="0.411765" d="M242.481 130.367C212.463 110.477 166.317 60.0557 221.881 17.4881C291.336 -35.7215 323.963 -118.737 297.18 -223.132C275.754 -306.649 307.773 -378.65 326.46 -404.21" stroke="#EAEBED"/>
<path opacity="0.441176" d="M234.171 138.245C205.194 116.747 161.646 63.8812 219.274 24.3988C291.309 -24.9542 328.065 -106.079 306.569 -211.79C289.371 -296.359 324.966 -366.517 344.913 -391.025" stroke="#EAEBED"/>
<path opacity="0.470588" d="M225.379 145.741C197.523 122.694 156.693 67.528 216.227 31.2391C290.645 -14.1221 331.43 -93.1332 315.278 -199.871C302.356 -285.26 341.43 -353.383 362.582 -376.771" stroke="#EAEBED"/>
<path opacity="0.5" d="M216.127 152.829C189.467 128.296 151.468 70.9815 212.745 37.9854C289.341 -3.25961 334.043 -79.9406 323.279 -187.412C314.669 -273.388 357.114 -339.289 379.413 -361.492" stroke="#EAEBED"/>
<path opacity="0.529412" d="M206.435 159.485C181.045 133.533 145.979 74.2276 208.831 44.6149C287.397 7.59906 335.892 -66.5417 330.547 -174.452C326.272 -260.78 371.972 -324.278 395.357 -345.236" stroke="#EAEBED"/>
<path opacity="0.558824" d="M196.328 165.686C172.279 138.387 140.243 77.2517 204.498 51.1035C284.816 18.4184 336.973 -52.9789 337.062 -161.032C337.132 -247.475 385.963 -308.396 410.369 -328.052" stroke="#EAEBED"/>
<path opacity="0.588235" d="M185.821 171.408C163.176 142.836 134.258 80.0399 199.74 57.4279C281.592 29.163 337.267 -39.2951 342.788 -147.195C347.205 -233.516 399.032 -291.694 424.393 -309.993" stroke="#EAEBED"/>
<path opacity="0.617647" d="M174.951 176.632C153.774 146.866 128.053 82.58 194.582 63.5662C277.743 39.799 336.784 -25.5323 347.723 -132.984C356.474 -218.946 411.155 -274.22 437.401 -291.113" stroke="#EAEBED"/>
<path opacity="0.647059" d="M163.729 181.337C144.078 150.459 121.625 84.8599 189.018 69.4964C273.261 50.292 335.506 -11.7334 351.832 -118.442C364.893 -203.809 422.278 -256.029 449.338 -271.469" stroke="#EAEBED"/>
<path opacity="0.676471" d="M152.195 185.508C134.123 153.601 114.998 86.8687 183.072 75.1976C268.165 60.6088 333.443 2.0592 355.112 -103.614C372.448 -188.152 432.38 -237.175 460.179 -251.119" stroke="#EAEBED"/>
<path opacity="0.705882" d="M140.373 189.125C123.931 156.278 108.188 88.5952 176.755 80.6485C262.464 70.7151 330.597 15.8019 357.55 -88.5458C379.112 -172.024 441.427 -217.715 469.889 -230.125" stroke="#EAEBED"/>
<path opacity="0.735294" d="M128.287 192.175C113.518 158.477 101.2 90.0296 170.073 85.8291C256.164 80.5785 326.964 29.4521 359.127 -73.2843C384.857 -155.473 449.384 -197.707 478.431 -208.55" stroke="#EAEBED"/>
<path opacity="0.764706" d="M115.967 194.644C102.913 160.187 94.0529 91.1624 163.043 90.7196C249.28 90.166 322.554 42.9667 359.838 -57.8769C389.665 -138.552 456.227 -177.212 485.78 -186.458" stroke="#EAEBED"/>
<path opacity="0.794118" d="M103.443 196.519C92.1401 161.398 86.7627 91.9858 155.68 95.3019C241.827 99.447 317.374 56.304 359.677 -42.3703C393.52 -121.31 461.934 -156.291 491.911 -163.914" stroke="#EAEBED"/>
<path opacity="0.823529" d="M90.7468 197.792C81.2248 162.103 79.3448 92.4929 148.001 99.5588C233.821 108.391 311.434 69.4228 358.641 -26.8117C396.406 -103.799 466.486 -135.006 496.805 -140.985" stroke="#EAEBED"/>
<path opacity="0.852941" d="M77.9074 198.452C70.1929 162.294 71.8155 92.6767 140.022 103.473C225.281 116.968 304.747 82.2815 356.727 -11.2495C398.312 -86.0744 469.864 -113.42 500.443 -117.74" stroke="#EAEBED"/>
<path opacity="0.882353" d="M64.9563 198.494C59.0703 161.965 64.191 92.5311 131.762 107.028C216.225 125.15 297.326 94.8393 353.938 4.26814C399.227 -68.1888 472.057 -91.5993 502.81 -94.2474" stroke="#EAEBED"/>
<path opacity="0.911765" d="M51.9245 197.911C47.8833 161.112 56.4882 92.0523 123.237 110.211C206.674 132.908 289.187 107.058 350.275 19.6946C399.146 -50.1959 473.053 -69.6068 503.898 -70.576" stroke="#EAEBED"/>
<path opacity="0.941176" d="M38.8438 196.701C36.6584 159.732 48.7237 91.2355 114.468 113.005C196.649 140.217 280.349 118.897 345.747 34.9813C398.064 -32.151 472.846 -47.5092 503.697 -46.7968" stroke="#EAEBED"/>
<path opacity="0.970588" d="M25.7495 194.861C25.4259 157.824 40.9187 90.0789 105.479 115.4C186.179 147.052 270.836 130.32 340.363 50.0825C395.984 -14.1078 471.436 -25.3712 502.209 -22.979" stroke="#EAEBED"/>
<path d="M12.6655 192.392C14.2046 155.387 33.0824 88.5794 96.2807 117.383C175.279 153.387 260.661 141.291 334.127 64.9503C392.9 3.87805 468.814 -3.25954 499.425 0.805691" stroke="#EAEBED"/>
</mask>
<g mask="url(#mask1_8503_15)">
<rect y="-140" width="430.556" height="303.158" fill="url(#paint0_linear_8503_15)"/>
</g>
</g>
<defs>
<linearGradient id="paint0_linear_8503_15" x1="396" y1="-140" x2="201.685" y2="154.179" gradientUnits="userSpaceOnUse">
<stop stop-color="#606E93"/>
<stop offset="1" stop-color="#606E93" stop-opacity="0.4"/>
</linearGradient>
</defs>
</svg>
