<svg xmlns="http://www.w3.org/2000/svg" width="1193" height="798" fill="none" xmlns:v="https://vecta.io/nano"><style><![CDATA[.B{stroke:#eaebed}.C{stroke-width:2}]]></style><mask id="A" maskUnits="userSpaceOnUse" x="0" y="0" width="1193" height="798" mask-type="alpha"><path fill="#c4c4c4" d="M0 0h1193v798H0z"/></mask><g mask="url(#A)" class="B C"><path opacity=".029" d="M832.093 385.463c-97.96 11.073-281.795-12.504-233.458-195.392 60.422-228.61-8.393-454.692-240.951-622.069-186.047-133.903-237.719-336.403-240.299-420.915"/><path opacity=".059" d="M829.579 412.15c-98.412 5.988-280.747-27.07-222.796-207.206 72.438-225.17 15.683-454.503-207.698-633.687C220.38-572.09 179.497-776.986 181.393-861.516"/><path opacity=".088" d="M825.389 438.885c-98.593.887-278.929-41.562-211.524-218.452C698.121-.68 653.582-232.635 439.991-423.134 269.117-575.533 239.135-782.265 245.502-866.581"/><path opacity=".118" d="M819.522 465.581c-98.505-4.217-276.347-55.941-199.673-229.1 95.844-216.448 63.642-450.391-139.574-651.683-162.573-161.033-181.573-369.033-170.752-452.904"/><path opacity=".147" d="M811.985 492.152c-98.147-9.309-273.007-70.166-187.273-239.12C731.879 41.84 712.104-193.449 519.819-404.981c-153.827-169.226-161.792-377.924-146.547-461.12"/><path opacity=".176" d="M802.786 518.51c-97.52-14.376-268.92-84.199-174.361-248.484C746.623 64.67 739.328-171.32 558.502-392.514c-144.66-176.955-141.569-385.779-121.941-468.072"/><path opacity=".206" d="M791.938 544.571c-96.626-19.403-264.095-98-160.971-257.167 128.905-198.958 134.109-435.002-34.761-665.251-135.096-184.199-120.957-392.577-97.001-473.741"/><path opacity=".235" d="M779.456 570.248C683.99 545.871 520.91 458.715 632.317 305.103c139.259-192.014 156.949-427.465.496-666.138-125.162-190.938-100.014-398.299-71.794-478.112"/><path opacity=".265" d="M765.369 595.459c-94.045-29.284-252.289-124.76-132.905-272.396 149.23-184.544 179.358-418.757 35.752-665.199-114.885-197.154-78.796-402.929-46.391-481.173"/><path opacity=".294" d="M749.698 620.121c-92.367-34.11-245.34-137.646-118.306-278.901 158.793-176.568 201.275-408.9 70.909-662.437-104.293-202.83-57.363-406.455-20.861-482.914"/><path opacity=".324" d="M732.478 644.153c-90.434-38.844-237.719-150.154-103.382-284.641 167.92-168.109 222.641-397.924 105.872-657.86-93.415-207.949-35.772-408.867 4.726-483.332"/><path opacity=".353" d="M713.744 667.475c-88.255-43.471-229.446-162.252-88.176-289.602C802.156 218.686 868.965-7.983 766.113-273.606c-82.281-212.498-14.083-410.157 30.301-482.425"/><path opacity=".382" d="M693.532 690.01c-85.833-47.979-220.544-173.903-72.727-293.768C805.576 246.412 884.29 23.511 795.638-247.071c-70.922-216.465 7.644-410.324 55.792-480.195"/><path opacity=".412" d="M671.891 711.682c-83.176-52.355-211.038-185.078-57.08-297.129C807.259 274.49 897.662 55.969 823.453-218.83c-59.368-219.839 29.35-409.366 81.13-476.65"/><path opacity=".441" d="M648.866 732.42c-80.291-56.588-200.953-195.747-41.276-299.676C807.187 302.832 909.032 89.289 849.469-188.974c-47.652-222.61 50.976-407.286 106.246-471.798"/><path opacity=".471" d="M624.506 752.151c-77.185-60.665-190.317-205.878-25.358-301.401C805.347 331.346 918.355 123.366 873.6-157.598c-35.804-224.771 72.463-404.09 131.07-465.653"/><path opacity=".5" d="M598.871 770.809c-73.869-64.577-179.16-215.445-9.371-302.3C801.736 359.94 925.596 158.093 895.773-124.802c-23.859-226.316 93.75-399.786 155.537-458.231"/><path opacity=".529" d="M572.015 788.33c-70.35-68.311-167.512-224.422 6.641-302.371 217.692-97.437 352.065-292.597 337.256-576.647-11.848-227.241 114.778-394.387 179.578-449.554"/><path opacity=".559" d="M544.004 804.652C477.366 732.793 388.6 571.868 566.64 503.038c222.55-86.037 367.068-273.975 367.312-558.403.196-227.542 135.498-387.905 203.128-439.644"/><path opacity=".588" d="M514.901 819.715c-62.743-75.209-142.871-240.507 38.568-300.028 226.799-74.402 381.066-254.603 396.363-538.629 12.239-227.22 155.838-380.361 226.118-428.53"/><path opacity=".618" d="M484.772 833.466c-58.677-78.353-129.946-247.571 54.395-297.621 230.425-62.562 394.018-234.533 424.327-517.378 24.248-226.275 175.756-371.775 248.486-416.241"/><path opacity=".647" d="M453.692 845.854c-54.449-81.282-116.665-253.957 70.072-294.398 233.421-50.552 405.892-213.821 451.129-494.709 36.187-224.711 195.197-362.17 270.177-402.811"/><path opacity=".676" d="M421.733 856.831c-50.073-83.989-103.064-259.647 85.557-290.369C743.066 528.06 923.942 373.941 983.984 95.778c48.036-222.529 214.096-351.571 291.126-388.276"/><path opacity=".706" d="M388.968 866.353c-45.56-86.465-89.181-264.625 100.807-285.543 237.486-26.147 426.271-170.695 500.953-445.369C1050.47-84.298 1223.14-204.569 1302-237.237"/><path opacity=".735" d="M355.479 874.381c-40.921-88.705-75.053-268.878 115.782-279.935 238.544-13.821 434.721-148.4 523.837-418.833 71.292-216.345 250.082-327.516 330.572-356.058"/><path opacity=".765" d="M321.344 880.879c-36.169-90.7-60.719-272.393 130.44-273.559 238.949-1.457 441.979-125.699 545.287-391.149C1079.72 3.811 1264.15-97.954 1346.03-122.291"/><path opacity=".794" d="M286.644 885.816c-31.319-92.448-46.219-275.162 144.74-266.433C670.082 630.294 879.41 516.729 996.625 256.99 1090.4 49.198 1279.96-42.883 1363.02-62.949"/><path opacity=".824" d="M251.466 889.165c-26.384-93.942-31.593-277.177 158.642-258.578 237.794 23.25 452.846-79.326 583.647-332.644C1098.4 95.289 1292.58 13.145 1376.58-2.595"/><path opacity=".853" d="M215.892 890.903c-21.376-95.179-16.88-278.432 172.11-250.013 236.238 35.524 456.424-55.782 600.453-301.983C1103.68 141.946 1301.94 69.964 1386.67 58.593"/><path opacity=".882" d="M180.006 891.013c-16.309-96.155-2.12-278.924 185.107-240.764 234.034 47.701 458.75-32.085 615.613-270.494 125.494-190.728 327.284-252.351 412.504-259.322"/><path opacity=".912" d="M143.9 889.48c-11.198-96.867 12.645-278.652 197.595-230.854 231.189 59.748 459.82-8.299 629.085-238.264 135.41-183.972 340.2-235.068 425.66-237.619"/><path opacity=".941" d="M107.657 886.294c-6.056-97.314 27.376-277.616 209.543-220.311 227.709 71.63 459.629 15.508 640.833-205.382C1103 283.889 1310.2 243.462 1395.69 245.337"/><path opacity=".971" d="M71.364 881.452c-.897-97.494 42.031-275.819 220.916-209.166 223.606 83.317 458.178 39.275 650.825-171.935 154.115-168.968 363.185-198.616 448.445-192.319"/><path d="M35.112 874.952c4.265-97.407 56.572-273.265 231.684-197.446 218.89 94.775 455.471 62.933 659.033-138.018 162.851-160.76 373.191-179.548 458.011-168.847"/></g></svg>