<svg width="22" height="22" viewBox="0 0 22 22" fill="none" xmlns="http://www.w3.org/2000/svg">
<g clip-path="url(#clip0_2123_160)">
<path d="M19.25 0H2.75C1.23122 0 0 1.23122 0 2.75V19.25C0 20.7688 1.23122 22 2.75 22H19.25C20.7688 22 22 20.7688 22 19.25V2.75C22 1.23122 20.7688 0 19.25 0Z" fill="#F68423"/>
<path d="M10.663 5.65283C9.82558 5.65283 9.14429 6.33315 9.14429 7.16748C9.14429 7.8985 9.6643 8.51086 10.3837 8.64453C10.3686 9.11125 10.356 9.70732 10.3474 10.28C10.4521 10.2686 10.5581 10.2626 10.6656 10.2626C10.7714 10.2626 10.8756 10.2684 10.9785 10.28C10.9697 9.70732 10.9587 9.11202 10.9436 8.64453C11.6628 8.51047 12.1816 7.8985 12.1816 7.16748C12.1816 6.33315 11.5003 5.65283 10.663 5.65283ZM17.0707 7.77844C16.4932 7.77844 16.0247 8.24602 16.0247 8.82178C16.0247 8.93387 16.0428 9.04168 16.0757 9.1427L13.233 10.8252C13.233 10.8252 12.9824 10.9716 12.665 11.1582C12.8071 11.3333 12.9178 11.5272 12.9967 11.7316L13.5701 11.3972C14.9252 10.6045 15.8127 10.0603 16.4449 9.6543C16.6197 9.78492 16.8358 9.86243 17.0707 9.86243C17.6482 9.86243 18.1154 9.39716 18.1154 8.82178C18.1154 8.24602 17.6482 7.77844 17.0707 7.77844ZM5.20056 8.15845C5.14787 8.15797 5.09446 8.16274 5.04077 8.17322C4.83242 8.2137 4.65179 8.33322 4.5332 8.50891C4.44402 8.64087 4.39758 8.79217 4.39758 8.948C4.39758 8.99899 4.40319 9.05124 4.4137 9.10242C4.45449 9.30926 4.57323 9.48812 4.74805 9.60596H4.74939C4.92526 9.72349 5.13608 9.7676 5.34424 9.72681C5.45385 9.70599 5.55935 9.65088 5.66113 9.57373C5.71174 9.61307 6.66955 10.3539 6.66955 10.3539L8.24328 11.5664L8.24462 11.5677C8.35825 11.3796 8.49933 11.2062 8.66223 11.0508L8.65283 11.0427C7.25916 9.96167 6.42115 9.41175 5.95654 9.13733C5.97391 9.07106 5.98742 9.00816 5.98742 8.95068L5.97265 8.79761C5.8993 8.42315 5.5694 8.16183 5.20056 8.15845ZM10.5273 10.8131C10.4559 10.815 10.3838 10.8197 10.3112 10.8279C9.1497 10.9585 8.29865 11.8618 8.40979 12.8461C8.52112 13.8299 9.55273 14.5222 10.714 14.3916C11.8754 14.2616 12.7267 13.3576 12.6154 12.3734C12.511 11.4509 11.5984 10.7854 10.5273 10.8131ZM18.2939 11.4241C17.6928 11.4241 17.188 11.8311 17.0398 12.3842C15.8514 12.3654 14.5006 12.3521 13.131 12.3466C13.1363 12.4292 13.1362 12.5125 13.1323 12.5963C13.1243 12.7357 13.1019 12.8729 13.0665 13.0059C14.4516 13.0005 15.8185 12.9866 17.0197 12.9683C17.1363 13.5637 17.6636 14.0129 18.2953 14.0129C19.0127 14.0129 19.5937 13.4337 19.5937 12.7185C19.5937 12.0033 19.0127 11.4241 18.2953 11.4241H18.2939ZM3.53015 11.4912C2.9099 11.4912 2.40625 11.9925 2.40625 12.6111C2.40625 13.229 2.9099 13.7296 3.53015 13.7296C4.0259 13.7296 4.44506 13.4088 4.59363 12.9642C5.58187 12.9807 6.73214 12.9928 7.93579 13.0005C7.91631 12.863 7.91225 12.7234 7.92371 12.5829C7.9277 12.5048 7.93566 12.4281 7.94922 12.3519C6.7553 12.3594 5.61317 12.372 4.62988 12.3882C4.52619 11.8764 4.07364 11.4912 3.53015 11.4912ZM8.23389 13.7941C7.71656 14.1116 7.26771 14.3967 6.89514 14.644C6.69806 14.4567 6.44603 14.3558 6.17944 14.3661C5.91419 14.3766 5.66838 14.4892 5.48792 14.683C5.30802 14.877 5.21327 15.13 5.22339 15.3947C5.24497 15.9406 5.7081 16.3675 6.25598 16.3467C6.79202 16.3261 7.21204 15.8912 7.21204 15.3571V15.3181C7.20993 15.2578 7.19508 15.1918 7.17712 15.1221C7.20577 15.1055 7.93823 14.6807 8.65015 14.2681C8.58579 14.2129 8.52405 14.1544 8.46619 14.0922H8.46485C8.37777 13.9984 8.30148 13.8981 8.23389 13.7941ZM12.559 13.9364C12.4217 14.0917 12.2632 14.2318 12.089 14.354L12.5455 14.6239C12.5455 14.6243 12.767 14.7515 12.8436 14.7958C12.828 14.8638 12.8154 14.929 12.8154 14.9878C12.8154 15.0697 12.8276 15.1524 12.8503 15.2335C12.9838 15.7048 13.4674 15.9826 13.9286 15.8525C14.1472 15.791 14.3292 15.6464 14.4415 15.4457C14.5166 15.3131 14.5557 15.1626 14.5557 15.0106C14.5557 14.927 14.5439 14.8436 14.5208 14.7622C14.3875 14.2913 13.9043 14.0133 13.4438 14.1432C13.3466 14.1709 13.2518 14.2235 13.1605 14.2949C13.1256 14.2749 13.0383 14.2264 13.0383 14.2264C12.944 14.177 12.8338 14.1192 12.559 13.9364Z" fill="#1C1C1E"/>
</g>
<defs>
<clipPath id="clip0_2123_160">
<rect width="22" height="22" fill="white"/>
</clipPath>
</defs>
</svg>
