<svg width="34" height="50" viewBox="0 0 34 50" fill="none" xmlns="http://www.w3.org/2000/svg">
<path d="M16.875 2C8.0451 2 2.45308 8.15477 2.5003 16.8538C2.54752 25.546 8.93551 38.328 16.875 47C24.8145 38.328 31.2025 25.546 31.2497 16.8538C31.2969 8.15477 25.7116 2 16.875 2Z" fill="#0168CA"/>
<path fill-rule="evenodd" clip-rule="evenodd" d="M16.875 49.9618L15.3998 48.3505C11.2914 43.863 7.60248 38.3358 4.92758 32.8053C2.26868 27.3079 0.526214 21.6304 0.500325 16.8646C0.474365 12.082 2.00369 7.84388 4.90902 4.78695C7.82446 1.71939 11.9761 0 16.875 0C21.7769 0 25.9288 1.71919 28.8437 4.78719C31.7484 7.84444 33.2756 12.0826 33.2497 16.8646C33.2238 21.6304 31.4813 27.3079 28.8224 32.8053C26.1475 38.3358 22.4586 43.863 18.3501 48.3505L16.875 49.9618ZM15.5441 45.4912C8.23347 36.8958 2.54484 25.0546 2.5003 16.8538C2.45308 8.15477 8.0451 2 16.875 2C25.7116 2 31.2969 8.15477 31.2497 16.8538C31.2051 25.0546 25.5165 36.8958 18.2059 45.4912C17.7678 46.0063 17.3239 46.5097 16.875 47C16.4261 46.5097 15.9822 46.0063 15.5441 45.4912Z" fill="white"/>
<g opacity="0.2">
<path d="M16.875 2V6.58233C22.2309 6.58233 26.5751 10.9285 26.5751 16.2869C26.5751 21.6453 22.2309 25.9914 16.875 25.9914V47C24.8145 38.328 31.2025 25.546 31.2497 16.8538C31.2969 8.15477 25.7116 2 16.875 2Z" fill="black"/>
<path d="M26.5751 16.2869C26.5751 10.9285 22.2309 6.58233 16.875 6.58233V25.9914C22.2309 25.9914 26.5751 21.6453 26.5751 16.2869Z" fill="black"/>
</g>
<circle cx="17" cy="16.5" r="11.5" fill="white"/>
<path d="M23.5847 9.41669L21.8139 9.9834L19.4764 12.3917H9.98468L9.41797 12.9584L16.7847 15.0834L13.5264 18.2709H11.1889L10.6222 18.8376L13.0305 19.3334L11.7555 20.6084V21.2459H12.393L13.668 19.9709L14.1638 22.3792L14.7305 21.8125V19.475L17.918 16.2167L20.043 23.5834L20.6097 23.0167V13.525L23.018 11.1875L23.5847 9.41669Z" fill="#5B6373"/>
</svg>
