<svg width="34" height="50" viewBox="0 0 34 50" fill="none" xmlns="http://www.w3.org/2000/svg">
<path d="M17.125 2C8.2951 2 2.70308 8.15477 2.7503 16.8538C2.79752 25.546 9.18551 38.328 17.125 47C25.0645 38.328 31.4525 25.546 31.4997 16.8538C31.5469 8.15477 25.9616 2 17.125 2Z" fill="#0168CA"/>
<path fill-rule="evenodd" clip-rule="evenodd" d="M17.125 49.9618L15.6498 48.3505C11.5414 43.863 7.85248 38.3358 5.17758 32.8053C2.51868 27.3079 0.776214 21.6304 0.750325 16.8646C0.724365 12.082 2.25369 7.84388 5.15902 4.78695C8.07446 1.71939 12.2261 0 17.125 0C22.0269 0 26.1788 1.71919 29.0937 4.78719C31.9984 7.84444 33.5256 12.0826 33.4997 16.8646C33.4738 21.6304 31.7313 27.3079 29.0724 32.8053C26.3975 38.3358 22.7086 43.863 18.6001 48.3505L17.125 49.9618ZM15.7941 45.4912C8.48347 36.8958 2.79484 25.0546 2.7503 16.8538C2.70308 8.15477 8.2951 2 17.125 2C25.9616 2 31.5469 8.15477 31.4997 16.8538C31.4551 25.0546 25.7665 36.8958 18.4559 45.4912C18.0178 46.0063 17.5739 46.5097 17.125 47C16.6761 46.5097 16.2322 46.0063 15.7941 45.4912Z" fill="white"/>
<g opacity="0.2">
<path d="M17.125 2V6.58233C22.4809 6.58233 26.8251 10.9285 26.8251 16.2869C26.8251 21.6453 22.4809 25.9914 17.125 25.9914V47C25.0645 38.328 31.4525 25.546 31.4997 16.8538C31.5469 8.15477 25.9616 2 17.125 2Z" fill="black"/>
<path d="M26.8251 16.2869C26.8251 10.9285 22.4809 6.58233 17.125 6.58233V25.9914C22.4809 25.9914 26.8251 21.6453 26.8251 16.2869Z" fill="black"/>
</g>
<circle cx="17.25" cy="16.375" r="11.5" fill="white"/>
<g clip-path="url(#clip0_11569_34)">
<path d="M24.2501 11.2001V11.0064C24.2501 10.3814 23.9126 9.66889 23.3 9.66889H22.875C22.7534 9.50272 22.5779 9.38213 22.3747 9.33256L22.3687 9.33127C20.8298 9.01229 19.0612 8.82971 17.25 8.82971C15.4387 8.82971 13.6702 9.01229 11.9617 9.3601L12.1312 9.33127C11.9241 9.38237 11.7506 9.50284 11.633 9.6662L11.6312 9.66877H11.2C10.5874 9.66877 10.2499 10.3938 10.2499 11.0062V11.1999C9.96703 11.2753 9.7602 11.5247 9.75 11.8239V11.825V14.9501C9.75 15.3264 10.055 15.6313 10.4312 15.6313H10.5687C10.8629 15.6196 11.1082 15.4228 11.1923 15.1548L11.1936 15.15C11.1936 15.525 11.1936 16.0125 11.1936 16.3374V19.7437C11.1946 19.8556 11.2129 19.963 11.2458 20.0637L11.2437 20.0562C11.213 20.132 11.1947 20.22 11.1936 20.312V21.4499C11.1936 21.8262 11.4987 22.1311 11.8748 22.1311H13.0686C13.069 22.1311 13.0693 22.1311 13.0697 22.1311C13.4327 22.1311 13.7295 21.8471 13.7498 21.4891L13.75 21.4874V21.1249C14.8023 21.3276 16.0126 21.4437 17.25 21.4437C18.4874 21.4437 19.6977 21.3276 20.8706 21.1059L20.75 21.1249V21.5124C20.75 21.8887 21.0551 22.1937 21.4312 22.1937H22.5688C22.9451 22.1937 23.25 21.8886 23.25 21.5124V20.3499C23.25 20.349 23.25 20.3477 23.25 20.3465C23.25 20.2526 23.2293 20.1635 23.1921 20.0836L23.1938 20.0874C23.2294 19.9969 23.25 19.892 23.25 19.7822C23.25 19.7818 23.25 19.7815 23.25 19.7811V16.3749C23.25 16.0562 23.2875 15.5687 23.2875 15.1937C23.3734 15.465 23.619 15.6599 23.9115 15.6687H23.9126H24.05C24.0557 15.6688 24.0622 15.6689 24.0688 15.6689C24.4451 15.6689 24.75 15.3639 24.75 14.9877C24.75 14.9876 24.75 14.9874 24.75 14.9874V11.8624C24.7501 11.8578 24.7501 11.8524 24.7501 11.8471C24.7501 11.5377 24.54 11.2773 24.2546 11.201L24.25 11.1999L24.2501 11.2001ZM15.5439 9.16874H18.9564C19.3314 9.16874 19.6376 9.38752 19.6376 9.66877C19.6376 9.95002 19.3314 10.1688 18.9564 10.1688H15.5439C15.1689 10.1688 14.8627 9.95002 14.8627 9.66877C14.8627 9.38752 15.1689 9.16874 15.5439 9.16874ZM12.8251 11.4063C14.1513 11.0194 15.6748 10.7968 17.2501 10.7968C18.8255 10.7968 20.349 11.0194 21.7907 11.4348L21.6751 11.4063C21.8718 11.4744 22.0157 11.6456 22.0436 11.8535L22.0439 11.8563C22.1377 12.9313 22.2314 13.8939 22.3314 14.9188C22.3314 15.1063 22.2127 15.1687 22.0252 15.1687H12.4752C12.2877 15.1687 12.1502 15.1063 12.169 14.9188C12.2689 13.8937 12.3627 12.9313 12.4564 11.8563C12.4875 11.6468 12.6302 11.4769 12.8212 11.4076L12.8251 11.4063ZM10.7501 11.2001V11.0064C10.7501 10.5813 10.7501 10.1688 11.2001 10.1688H11.4438C11.3688 11.5876 11.3188 13.0001 11.2501 14.3501V11.8501C11.2501 11.8493 11.2501 11.8482 11.2501 11.8472C11.2501 11.5378 11.04 11.2775 10.7548 11.2011L10.7501 11.2001ZM13.8751 19.5937L12.4563 18.9688C12.1095 18.8879 11.8461 18.6057 11.7945 18.2548L11.7939 18.2501C11.7939 17.9688 12.1001 17.7813 12.4689 17.8376L13.5001 18.0001C13.8751 18.0564 14.5188 18.4064 14.5188 18.7814C14.5188 19.1564 14.225 19.7001 13.8688 19.5939L13.8751 19.5937ZM18.2814 20.6688H16.2251C16.2206 20.6689 16.2154 20.6689 16.21 20.6689C15.8958 20.6689 15.6304 20.4601 15.545 20.1737L15.5437 20.1688C15.6304 19.8774 15.8958 19.6686 16.21 19.6686C16.2152 19.6686 16.2205 19.6687 16.2258 19.6687H16.225H18.2749C18.2794 19.6686 18.2846 19.6686 18.29 19.6686C18.6042 19.6686 18.8696 19.8774 18.955 20.1639L18.9562 20.1688C18.8696 20.4601 18.6042 20.6689 18.29 20.6689C18.2848 20.6689 18.2795 20.6688 18.2742 20.6688H18.275H18.2814ZM19.9814 18.7625C19.9814 18.3875 20.6064 18.0375 21.0001 17.9812L22.0376 17.8374C22.4064 17.7812 22.7126 17.9687 22.7126 18.2499C22.654 18.5964 22.3956 18.8693 22.0622 18.9487L22.0563 18.9499L20.6375 19.5749C20.2751 19.6999 19.9751 19.1374 19.9751 18.7624L19.9814 18.7625ZM23.2501 11.85V14.1688C23.1939 12.8501 23.1626 11.5188 23.0939 10.175H23.3002C23.7252 10.175 23.7502 10.5875 23.7502 11.0126V11.2063C23.4613 11.2834 23.2518 11.5421 23.2501 11.85Z" fill="#5B6373"/>
</g>
<defs>
<clipPath id="clip0_11569_34">
<rect width="15" height="15" fill="white" transform="translate(9.75 8)"/>
</clipPath>
</defs>
</svg>
