<svg width="34" height="50" viewBox="0 0 34 50" fill="none" xmlns="http://www.w3.org/2000/svg">
<path d="M16.875 2C8.0451 2 2.45308 8.15477 2.5003 16.8538C2.54752 25.546 8.93551 38.328 16.875 47C24.8145 38.328 31.2025 25.546 31.2497 16.8538C31.2969 8.15477 25.7116 2 16.875 2Z" fill="#0168CA"/>
<path fill-rule="evenodd" clip-rule="evenodd" d="M16.875 49.9618L15.3998 48.3505C11.2914 43.863 7.60248 38.3358 4.92758 32.8053C2.26868 27.3079 0.526214 21.6304 0.500325 16.8646C0.474365 12.082 2.00369 7.84388 4.90902 4.78695C7.82446 1.71939 11.9761 0 16.875 0C21.7769 0 25.9288 1.71919 28.8437 4.78719C31.7484 7.84444 33.2756 12.0826 33.2497 16.8646C33.2238 21.6304 31.4813 27.3079 28.8224 32.8053C26.1475 38.3358 22.4586 43.863 18.3501 48.3505L16.875 49.9618ZM15.5441 45.4912C8.23347 36.8958 2.54484 25.0546 2.5003 16.8538C2.45308 8.15477 8.0451 2 16.875 2C25.7116 2 31.2969 8.15477 31.2497 16.8538C31.2051 25.0546 25.5165 36.8958 18.2059 45.4912C17.7678 46.0063 17.3239 46.5097 16.875 47C16.4261 46.5097 15.9822 46.0063 15.5441 45.4912Z" fill="white"/>
<g opacity="0.2">
<path d="M16.875 2V6.58233C22.2309 6.58233 26.5751 10.9285 26.5751 16.2869C26.5751 21.6453 22.2309 25.9914 16.875 25.9914V47C24.8145 38.328 31.2025 25.546 31.2497 16.8538C31.2969 8.15477 25.7116 2 16.875 2Z" fill="black"/>
<path d="M26.5751 16.2869C26.5751 10.9285 22.2309 6.58233 16.875 6.58233V25.9914C22.2309 25.9914 26.5751 21.6453 26.5751 16.2869Z" fill="black"/>
</g>
<circle cx="17.5" cy="16.5" r="11.5" fill="white"/>
<g clip-path="url(#clip0_13879_130)">
<path d="M13.9583 22.8749H21.0416L21.7499 20.0417H13.2499L13.9583 22.8749ZM19.533 16.4999C19.3748 15.9087 19.0192 15.4171 18.5426 15.0887L18.5342 15.0832C18.3072 15.406 17.9364 15.6144 17.517 15.6144C16.8324 15.6144 16.2775 15.0593 16.2775 14.3748C16.2775 13.6961 16.8228 13.145 17.4992 13.1354H17.5001C18.1848 13.1354 18.7397 13.6904 18.7397 14.3749C19.5138 14.8316 20.0701 15.5875 20.252 16.4795L20.2555 16.4999H22.4584C22.4493 15.6762 22.1854 14.916 21.742 14.2921L21.7501 14.304C21.0914 14.0278 20.5531 14.304 19.6251 13.3761C19.0758 12.7938 18.3442 12.3889 17.5218 12.2527L17.5001 12.2498C16.6561 12.3889 15.9244 12.7938 15.3769 13.3742L15.3751 13.3761C14.4472 14.3181 13.9089 14.0278 13.2501 14.304C12.8149 14.9159 12.551 15.6761 12.5418 16.4976V16.4998H19.5331L19.533 16.4999ZM11.125 17.2082L12.1875 19.3332H22.8125L23.875 17.2082H11.125ZM13.9583 25H21.0416V23.5832H13.9583V25ZM18.8458 11.4424C18.7253 11.917 18.3783 12.2499 17.5 12.2499C16.6217 12.2499 16.2675 11.917 16.147 11.4424C15.8786 11.0905 15.717 10.6445 15.717 10.1607C15.717 10.0807 15.7214 10.0017 15.73 9.92414L15.7291 9.9337C15.7288 9.92188 15.7287 9.90793 15.7287 9.89399C15.7287 8.89032 16.5076 8.06848 17.494 8.00022L17.5 7.99982C18.4926 8.06795 19.2721 8.88993 19.2721 9.89399C19.2721 9.9179 19.2717 9.94167 19.2708 9.96531L19.2709 9.96186C19.2765 10.0199 19.2798 10.0874 19.2798 10.1556C19.2798 10.6416 19.1167 11.0894 18.8422 11.4474L18.8459 11.4423L18.8458 11.4424Z" fill="#5B6373"/>
</g>
<defs>
<clipPath id="clip0_13879_130">
<rect width="17" height="17" fill="white" transform="translate(9 8)"/>
</clipPath>
</defs>
</svg>
