<svg width="33" height="50" viewBox="0 0 33 50" fill="none" xmlns="http://www.w3.org/2000/svg">
<path d="M16.625 2C7.7951 2 2.20308 8.15477 2.2503 16.8538C2.29752 25.546 8.68551 38.328 16.625 47C24.5645 38.328 30.9525 25.546 30.9997 16.8538C31.0469 8.15477 25.4616 2 16.625 2Z" fill="#0168CA"/>
<path fill-rule="evenodd" clip-rule="evenodd" d="M16.625 49.9618L15.1498 48.3505C11.0414 43.863 7.35248 38.3358 4.67758 32.8053C2.01868 27.3079 0.276214 21.6304 0.250325 16.8646C0.224365 12.082 1.75369 7.84388 4.65902 4.78695C7.57446 1.71939 11.7261 0 16.625 0C21.5269 0 25.6788 1.71919 28.5937 4.78719C31.4984 7.84444 33.0256 12.0826 32.9997 16.8646C32.9738 21.6304 31.2313 27.3079 28.5724 32.8053C25.8975 38.3358 22.2086 43.863 18.1001 48.3505L16.625 49.9618ZM15.2941 45.4912C7.98347 36.8958 2.29484 25.0546 2.2503 16.8538C2.20308 8.15477 7.7951 2 16.625 2C25.4616 2 31.0469 8.15477 30.9997 16.8538C30.9551 25.0546 25.2665 36.8958 17.9559 45.4912C17.5178 46.0063 17.0739 46.5097 16.625 47C16.1761 46.5097 15.7322 46.0063 15.2941 45.4912Z" fill="white"/>
<g opacity="0.2">
<path d="M16.625 2V6.58233C21.9809 6.58233 26.3251 10.9285 26.3251 16.2869C26.3251 21.6453 21.9809 25.9914 16.625 25.9914V47C24.5645 38.328 30.9525 25.546 30.9997 16.8538C31.0469 8.15477 25.4616 2 16.625 2Z" fill="black"/>
<path d="M26.3251 16.2869C26.3251 10.9285 21.9809 6.58233 16.625 6.58233V25.9914C21.9809 25.9914 26.3251 21.6453 26.3251 16.2869Z" fill="black"/>
</g>
<circle cx="16.75" cy="16.375" r="11.5" fill="white"/>
<g clip-path="url(#clip0_11569_18)">
<path d="M20.7873 11.5H12.7123L13.2123 10.4875H20.2873L20.7873 11.5ZM18.7687 9H14.7312L14.2499 10.0125H19.25L18.7687 9ZM21.7998 14.05L21.2936 12.0312H12.2061L11.6998 14.05L16.7498 12.5374L21.7998 14.05ZM22.1999 20.6125L22.7062 21.1187L21.9937 21.8312C21.747 22.0784 21.406 22.2312 21.0293 22.2312C21.0278 22.2312 21.0263 22.2312 21.0248 22.2312H21.025C21.0241 22.2312 21.0229 22.2312 21.0217 22.2312C20.6466 22.2312 20.3073 22.0782 20.0627 21.8313L20.0625 21.8312C19.9479 21.7073 19.7846 21.63 19.6032 21.63C19.4218 21.63 19.2584 21.7073 19.1441 21.8307L19.1438 21.8312C18.8963 22.0775 18.555 22.2299 18.1782 22.2299C17.8013 22.2299 17.46 22.0775 17.2125 21.8311C17.0978 21.7051 16.933 21.6265 16.75 21.6265C16.567 21.6265 16.4022 21.7052 16.2879 21.8306L16.2875 21.8311C16.04 22.0774 15.6987 22.2298 15.3218 22.2298C14.945 22.2298 14.6037 22.0774 14.3562 21.831C14.2417 21.7071 14.0782 21.6298 13.8968 21.6298C13.7154 21.6298 13.552 21.7071 13.4378 21.8305L13.4375 21.831C13.19 22.0773 12.8487 22.2296 12.4718 22.2296C12.095 22.2296 11.7537 22.0773 11.5062 21.8309L10.7937 21.1184L11.3 20.6121L12.0125 21.3308C12.1307 21.4468 12.2929 21.5184 12.4718 21.5184C12.6508 21.5184 12.813 21.4468 12.9313 21.3307L12.9312 21.3308C13.1767 21.0846 13.5163 20.9323 13.8916 20.9323C14.0351 20.9323 14.1735 20.9545 14.3034 20.9959L14.2938 20.9933L10.1875 15.0621L16.75 13.5434V20.6121L17.2562 13.5434L23.3125 15.0621L19.2063 20.9933C19.3265 20.9546 19.4649 20.9323 19.6084 20.9323C19.9836 20.9323 20.3232 21.0846 20.5687 21.3307C20.6869 21.4467 20.8491 21.5183 21.028 21.5183C21.207 21.5183 21.3692 21.4467 21.4875 21.3306L21.4874 21.3307L22.1999 20.6125ZM17.7624 16.0688L18.7687 15.0625L17.7624 14.4938V16.0688ZM14.7311 15.0625L15.7374 16.0688V14.4938L14.7311 15.0625ZM21.5249 23.1875C21.4149 23.2497 21.2833 23.2863 21.1431 23.2863C20.9168 23.2863 20.7128 23.1908 20.5691 23.038L20.5688 23.0375C20.3213 22.7912 19.98 22.6389 19.6032 22.6389C19.2263 22.6389 18.885 22.7912 18.6375 23.0377C18.5228 23.1636 18.358 23.2423 18.175 23.2423C17.992 23.2423 17.8272 23.1635 17.7129 23.0381L17.7125 23.0377C17.466 22.7917 17.1257 22.6396 16.75 22.6396C16.3743 22.6396 16.034 22.7917 15.7875 23.0378C15.6728 23.1638 15.508 23.2424 15.325 23.2424C15.142 23.2424 14.9772 23.1636 14.8629 23.0382L14.8625 23.0378C14.615 22.7914 14.2737 22.6391 13.8968 22.6391C13.52 22.6391 13.1787 22.7914 12.9312 23.0379C12.7872 23.1912 12.5832 23.2867 12.3569 23.2867C12.2167 23.2867 12.0851 23.25 11.9711 23.1859L11.9751 23.1879L11.2626 22.6504L10.8313 23.2191L11.5438 23.7566C11.772 23.9061 12.0515 23.9952 12.3518 23.9952C12.7702 23.9952 13.1482 23.8225 13.4185 23.5445L13.4188 23.5441C13.5333 23.4203 13.6968 23.3429 13.8782 23.3429C14.0596 23.3429 14.2231 23.4203 14.3372 23.5437L14.3376 23.5441C14.5851 23.7905 14.9263 23.9428 15.3032 23.9428C15.6801 23.9428 16.0213 23.7905 16.2688 23.544C16.3836 23.418 16.5483 23.3394 16.7314 23.3394C16.9144 23.3394 17.0791 23.4182 17.1934 23.5436L17.1939 23.544C17.4414 23.7904 17.7827 23.9427 18.1595 23.9427C18.5364 23.9427 18.8777 23.7904 19.1252 23.5439C19.2398 23.42 19.4031 23.3427 19.5845 23.3427C19.7659 23.3427 19.9293 23.42 20.0436 23.5434L20.0439 23.5439C20.327 23.8276 20.7177 24.004 21.1497 24.0064H21.1502C21.1552 24.0066 21.1611 24.0066 21.1669 24.0066C21.4565 24.0066 21.7243 23.9128 21.9413 23.7539L21.9377 23.7565L22.6502 23.2189L22.2189 22.6502L21.5249 23.1875Z" fill="#5B6373"/>
</g>
<defs>
<clipPath id="clip0_11569_18">
<rect width="15" height="15" fill="white" transform="translate(9.25 9)"/>
</clipPath>
</defs>
</svg>
