<svg width="33" height="50" viewBox="0 0 33 50" fill="none" xmlns="http://www.w3.org/2000/svg">
<path d="M16.375 2C7.5451 2 1.95308 8.15477 2.0003 16.8538C2.04752 25.546 8.43551 38.328 16.375 47C24.3145 38.328 30.7025 25.546 30.7497 16.8538C30.7969 8.15477 25.2116 2 16.375 2Z" fill="#0168CA"/>
<path fill-rule="evenodd" clip-rule="evenodd" d="M16.375 49.9618L14.8998 48.3505C10.7914 43.863 7.10248 38.3358 4.42758 32.8053C1.76868 27.3079 0.0262139 21.6304 0.000325098 16.8646C-0.0256353 12.082 1.50369 7.84388 4.40902 4.78695C7.32446 1.71939 11.4761 0 16.375 0C21.2769 0 25.4288 1.71919 28.3437 4.78719C31.2484 7.84444 32.7756 12.0826 32.7497 16.8646C32.7238 21.6304 30.9813 27.3079 28.3224 32.8053C25.6475 38.3358 21.9586 43.863 17.8501 48.3505L16.375 49.9618ZM15.0441 45.4912C7.73347 36.8958 2.04484 25.0546 2.0003 16.8538C1.95308 8.15477 7.5451 2 16.375 2C25.2116 2 30.7969 8.15477 30.7497 16.8538C30.7051 25.0546 25.0165 36.8958 17.7059 45.4912C17.2678 46.0063 16.8239 46.5097 16.375 47C15.9261 46.5097 15.4822 46.0063 15.0441 45.4912Z" fill="white"/>
<g opacity="0.2">
<path d="M16.375 2V6.58233C21.7309 6.58233 26.0751 10.9285 26.0751 16.2869C26.0751 21.6453 21.7309 25.9914 16.375 25.9914V47C24.3145 38.328 30.7025 25.546 30.7497 16.8538C30.7969 8.15477 25.2116 2 16.375 2Z" fill="black"/>
<path d="M26.0751 16.2869C26.0751 10.9285 21.7309 6.58233 16.375 6.58233V25.9914C21.7309 25.9914 26.0751 21.6453 26.0751 16.2869Z" fill="black"/>
</g>
<circle cx="16.5" cy="16.375" r="11.5" fill="white"/>
<g clip-path="url(#clip0_11569_58)">
<path d="M12.75 9.875H11.5V8H12.75V9.875ZM21.5 8H20.25V9.875H21.5V8ZM24 8.62496V23H9V8.62496H10.25V10.5H14V8.62496H19.0001V10.5H22.7501V8.62496H24ZM22.75 11.75H10.2499V21.75H22.75V11.75ZM15.7 15.9063H12.75L15.2 17.4313L14.1813 20.3188L16.5001 18.375L18.8189 20.3188L17.8002 17.4313L20.2502 15.9063H17.3003L16.5002 13.1813L15.7 15.9063Z" fill="#5B6373"/>
</g>
<defs>
<clipPath id="clip0_11569_58">
<rect width="15" height="15" fill="white" transform="translate(9 8)"/>
</clipPath>
</defs>
</svg>
