<svg width="33" height="50" viewBox="0 0 33 50" fill="none" xmlns="http://www.w3.org/2000/svg">
<path d="M16.375 2C7.5451 2 1.95308 8.15477 2.0003 16.8538C2.04752 25.546 8.43551 38.328 16.375 47C24.3145 38.328 30.7025 25.546 30.7497 16.8538C30.7969 8.15477 25.2116 2 16.375 2Z" fill="#0168CA"/>
<path fill-rule="evenodd" clip-rule="evenodd" d="M16.375 49.9618L14.8998 48.3505C10.7914 43.863 7.10248 38.3358 4.42758 32.8053C1.76868 27.3079 0.0262139 21.6304 0.000325098 16.8646C-0.0256353 12.082 1.50369 7.84388 4.40902 4.78695C7.32446 1.71939 11.4761 0 16.375 0C21.2769 0 25.4288 1.71919 28.3437 4.78719C31.2484 7.84444 32.7756 12.0826 32.7497 16.8646C32.7238 21.6304 30.9813 27.3079 28.3224 32.8053C25.6475 38.3358 21.9586 43.863 17.8501 48.3505L16.375 49.9618ZM15.0441 45.4912C7.73347 36.8958 2.04484 25.0546 2.0003 16.8538C1.95308 8.15477 7.5451 2 16.375 2C25.2116 2 30.7969 8.15477 30.7497 16.8538C30.7051 25.0546 25.0165 36.8958 17.7059 45.4912C17.2678 46.0063 16.8239 46.5097 16.375 47C15.9261 46.5097 15.4822 46.0063 15.0441 45.4912Z" fill="white"/>
<g opacity="0.2">
<path d="M16.375 2V6.58233C21.7309 6.58233 26.0751 10.9285 26.0751 16.2869C26.0751 21.6453 21.7309 25.9914 16.375 25.9914V47C24.3145 38.328 30.7025 25.546 30.7497 16.8538C30.7969 8.15477 25.2116 2 16.375 2Z" fill="black"/>
<path d="M26.0751 16.2869C26.0751 10.9285 21.7309 6.58233 16.375 6.58233V25.9914C21.7309 25.9914 26.0751 21.6453 26.0751 16.2869Z" fill="black"/>
</g>
<circle cx="16.5" cy="16.375" r="11.5" fill="white"/>
<g clip-path="url(#clip0_11569_26)">
<path d="M21.5311 21.1667C21.4043 21.2878 21.232 21.3623 21.0424 21.3623C20.8527 21.3623 20.6804 21.2878 20.5533 21.1664L20.5536 21.1667C20.4658 21.0865 20.3685 21.014 20.2643 20.9517L20.2561 20.9472L22.9336 16.1234L17.0403 15.0539L16.502 20.4089V15.0468L10.0703 16.1164L12.7478 20.9401C12.6355 21.0069 12.5381 21.0795 12.449 21.161L12.4503 21.1598C12.3231 21.2831 12.1494 21.359 11.9578 21.359C11.77 21.359 11.5993 21.2858 11.4724 21.1666L11.4728 21.1668L10.7149 20.4089L10.1766 20.9401L10.9345 21.6981C11.1928 21.9677 11.556 22.1353 11.9581 22.1353C12.3603 22.1353 12.7232 21.9677 12.9812 21.6986L12.9817 21.6981C13.1089 21.575 13.2826 21.499 13.474 21.499C13.6654 21.499 13.839 21.5748 13.9665 21.6982L13.9662 21.6981C14.2246 21.9677 14.5877 22.1353 14.9898 22.1353C15.392 22.1353 15.755 21.9677 16.0129 21.6986L16.0134 21.6981C16.1402 21.577 16.3125 21.5025 16.5022 21.5025C16.6918 21.5025 16.8641 21.577 16.9912 21.6984L16.9909 21.6981C17.2492 21.9677 17.6123 22.1353 18.0145 22.1353C18.4166 22.1353 18.7796 21.9677 19.0375 21.6986L19.0381 21.6981C19.1653 21.575 19.339 21.499 19.5304 21.499C19.7218 21.499 19.8954 21.5748 20.0229 21.6982L20.0228 21.6981C20.2801 21.9605 20.6383 22.1231 21.0345 22.1231C21.0374 22.1231 21.0404 22.1231 21.0433 22.1231H21.0429C21.0474 22.1231 21.0528 22.1232 21.0582 22.1232C21.4543 22.1232 21.8127 21.9605 22.0698 21.6984L22.0701 21.6981L22.828 20.9401L22.2897 20.4089L21.5311 21.1667ZM14.4974 21.1667C14.4096 21.0865 14.3122 21.014 14.2081 20.9517L14.1999 20.9472H15.7936C15.6812 21.014 15.5839 21.0865 15.4948 21.168L15.4961 21.1668C15.3681 21.2942 15.1916 21.3728 14.9967 21.3728C14.8019 21.3728 14.6254 21.2939 14.4974 21.1667ZM17.5289 21.1667C17.4411 21.0865 17.3438 21.014 17.2397 20.9517L17.2314 20.9472H18.8039C18.6916 21.014 18.5942 21.0865 18.5051 21.168L18.5064 21.1668C18.3796 21.288 18.2073 21.3625 18.0177 21.3625C17.828 21.3625 17.6558 21.288 17.5287 21.1666L17.5289 21.1667ZM22.3314 22.5833L22.7847 23.1853L22.0268 23.752C21.8038 23.9202 21.5219 24.0214 21.2166 24.0214C21.2076 24.0214 21.1985 24.0212 21.1896 24.0211H21.191C20.7393 24.0057 20.3354 23.8133 20.044 23.5116L20.0435 23.5111C19.9162 23.388 19.7425 23.312 19.5511 23.312C19.3598 23.312 19.1862 23.3879 19.0587 23.5112L19.0588 23.5111C18.7956 23.7702 18.434 23.9303 18.0352 23.9303C17.6364 23.9303 17.2749 23.7702 17.0115 23.5108L17.0116 23.511C16.8848 23.3899 16.7125 23.3153 16.5229 23.3153C16.3332 23.3153 16.161 23.3899 16.0339 23.5112L16.0341 23.511C15.7709 23.7701 15.4095 23.9301 15.0105 23.9301C14.6116 23.9301 14.2502 23.7701 13.9868 23.5107L13.987 23.5108C13.8597 23.3877 13.686 23.3118 13.4946 23.3118C13.3032 23.3118 13.1296 23.3876 13.0021 23.511L13.0024 23.5108C12.7167 23.8098 12.315 23.9957 11.8698 23.9957C11.5447 23.9957 11.2426 23.8967 10.9924 23.7269L10.9979 23.7304L10.2399 23.1637L10.672 22.5829L11.4299 23.1496C11.5481 23.2175 11.6897 23.2574 11.8406 23.2574C12.0807 23.2574 12.297 23.1562 12.4495 22.9942L12.4499 22.9938C12.7082 22.7242 13.0713 22.5566 13.4735 22.5566C13.8757 22.5566 14.2386 22.7242 14.4966 22.9933L14.4971 22.9938C14.6239 23.1149 14.7962 23.1894 14.9858 23.1894C15.1755 23.1894 15.3477 23.1149 15.4749 22.9935L15.4746 22.9938C15.7374 22.7308 16.1005 22.5681 16.5016 22.5681C16.9027 22.5681 17.266 22.7308 17.5287 22.9937C17.6555 23.1148 17.8278 23.1893 18.0174 23.1893C18.2071 23.1893 18.3793 23.1148 18.5064 22.9934L18.5062 22.9937C18.7645 22.7241 19.1276 22.5565 19.5297 22.5565C19.9319 22.5565 20.2949 22.7241 20.5528 22.9931L20.5533 22.9937C20.7062 23.1562 20.9226 23.2573 21.1627 23.2573C21.3136 23.2573 21.4553 23.2173 21.5775 23.1473L21.5733 23.1495L22.3314 22.5833ZM21.3256 15.5992L20.2561 11.3492L17.9681 10.9667L17.4227 9.68467H19.1864V8.60796H18.6269V9.125H17.2102L16.7497 8.04829H17.5927V7H15.4677V8.06954H16.3106L15.7936 9.125H14.3769V8.60796H13.8174V9.68467H15.5811L15.0356 10.9667L12.7477 11.2925L11.6781 15.578L16.5019 14.5084L21.3256 15.5992ZM20.2561 13.97L16.7711 13.4742V12.3622H19.1866L20.2561 13.97ZM13.8174 12.362H16.2328V13.4741L12.7478 13.9699L13.8174 12.362Z" fill="#5B6373"/>
</g>
<defs>
<clipPath id="clip0_11569_26">
<rect width="17" height="17" fill="white" transform="translate(8 7)"/>
</clipPath>
</defs>
</svg>
