<svg width="33" height="50" viewBox="0 0 33 50" fill="none" xmlns="http://www.w3.org/2000/svg">
<path d="M16.375 2C7.5451 2 1.95308 8.15477 2.0003 16.8538C2.04752 25.546 8.43551 38.328 16.375 47C24.3145 38.328 30.7025 25.546 30.7497 16.8538C30.7969 8.15477 25.2116 2 16.375 2Z" fill="#0168CA"/>
<path fill-rule="evenodd" clip-rule="evenodd" d="M16.375 49.9618L14.8998 48.3505C10.7914 43.863 7.10248 38.3358 4.42758 32.8053C1.76868 27.3079 0.0262139 21.6304 0.000325098 16.8646C-0.0256353 12.082 1.50369 7.84388 4.40902 4.78695C7.32446 1.71939 11.4761 0 16.375 0C21.2769 0 25.4288 1.71919 28.3437 4.78719C31.2484 7.84444 32.7756 12.0826 32.7497 16.8646C32.7238 21.6304 30.9813 27.3079 28.3224 32.8053C25.6475 38.3358 21.9586 43.863 17.8501 48.3505L16.375 49.9618ZM15.0441 45.4912C7.73347 36.8958 2.04484 25.0546 2.0003 16.8538C1.95308 8.15477 7.5451 2 16.375 2C25.2116 2 30.7969 8.15477 30.7497 16.8538C30.7051 25.0546 25.0165 36.8958 17.7059 45.4912C17.2678 46.0063 16.8239 46.5097 16.375 47C15.9261 46.5097 15.4822 46.0063 15.0441 45.4912Z" fill="white"/>
<g opacity="0.2">
<path d="M16.375 2V6.58233C21.7309 6.58233 26.0751 10.9285 26.0751 16.2869C26.0751 21.6453 21.7309 25.9914 16.375 25.9914V47C24.3145 38.328 30.7025 25.546 30.7497 16.8538C30.7969 8.15477 25.2116 2 16.375 2Z" fill="black"/>
<path d="M26.0751 16.2869C26.0751 10.9285 21.7309 6.58233 16.375 6.58233V25.9914C21.7309 25.9914 26.0751 21.6453 26.0751 16.2869Z" fill="black"/>
</g>
<circle cx="16.5" cy="16.5" r="11.5" fill="white"/>
<g clip-path="url(#clip0_11563_2181)">
<path d="M20.25 21.8125H12.75V11.1874H20.25V21.8125ZM20.875 9.31256H12.1249V10.5626H20.875V9.31256ZM20.875 22.4376H12.1249V23.6876H20.875V22.4376ZM9 23.0625H11.5V21.8125H9V23.0625ZM9 11.8125H12.125V11.1876H9V11.8125ZM12.125 13.6875V12.4375H9.62508V21.1875H12.125V19.9375H10.25V19.3125H12.125V18.0625H10.25V17.4375H12.125V16.1875H10.25V15.5625H12.125V14.3125H10.25V13.6875H12.125ZM24 21.8125H21.5V23.0625H24V21.8125ZM24 11.1876H20.875V11.8125H24V11.1876ZM20.875 12.4375V13.6875H22.75V14.3125H20.875V15.5625H22.75V16.1875H20.875V17.4375H22.75V18.0625H20.875V19.3125H22.75V19.9375H20.875V21.1875H23.3749V12.4375H20.875ZM19.3125 12.8125H13.6875V13.4374H19.3125V12.8125ZM19.3125 15.0625H13.6875V15.6874H19.3125V15.0625ZM19.3125 19.5625H13.6875V20.1874H19.3125V19.5625ZM19.3125 17.3125H13.6875V17.9374H19.3125V17.3125Z" fill="#5B6373"/>
</g>
<defs>
<clipPath id="clip0_11563_2181">
<rect width="15" height="15" fill="white" transform="translate(9 9)"/>
</clipPath>
</defs>
</svg>
