<svg width="33" height="50" viewBox="0 0 33 50" fill="none" xmlns="http://www.w3.org/2000/svg">
<path d="M16.375 2C7.5451 2 1.95308 8.15477 2.0003 16.8538C2.04752 25.546 8.43551 38.328 16.375 47C24.3145 38.328 30.7025 25.546 30.7497 16.8538C30.7969 8.15477 25.2116 2 16.375 2Z" fill="#0168CA"/>
<path fill-rule="evenodd" clip-rule="evenodd" d="M16.375 49.9618L14.8998 48.3505C10.7914 43.863 7.10248 38.3358 4.42758 32.8053C1.76868 27.3079 0.0262139 21.6304 0.000325098 16.8646C-0.0256353 12.082 1.50369 7.84388 4.40902 4.78695C7.32446 1.71939 11.4761 0 16.375 0C21.2769 0 25.4288 1.71919 28.3437 4.78719C31.2484 7.84444 32.7756 12.0826 32.7497 16.8646C32.7238 21.6304 30.9813 27.3079 28.3224 32.8053C25.6475 38.3358 21.9586 43.863 17.8501 48.3505L16.375 49.9618ZM15.0441 45.4912C7.73347 36.8958 2.04484 25.0546 2.0003 16.8538C1.95308 8.15477 7.5451 2 16.375 2C25.2116 2 30.7969 8.15477 30.7497 16.8538C30.7051 25.0546 25.0165 36.8958 17.7059 45.4912C17.2678 46.0063 16.8239 46.5097 16.375 47C15.9261 46.5097 15.4822 46.0063 15.0441 45.4912Z" fill="white"/>
<g opacity="0.2">
<path d="M16.375 2V6.58233C21.7309 6.58233 26.0751 10.9285 26.0751 16.2869C26.0751 21.6453 21.7309 25.9914 16.375 25.9914V47C24.3145 38.328 30.7025 25.546 30.7497 16.8538C30.7969 8.15477 25.2116 2 16.375 2Z" fill="black"/>
<path d="M26.0751 16.2869C26.0751 10.9285 21.7309 6.58233 16.375 6.58233V25.9914C21.7309 25.9914 26.0751 21.6453 26.0751 16.2869Z" fill="black"/>
</g>
<circle cx="16.5" cy="16.5" r="11.5" fill="white"/>
<path d="M18.6255 12.25C18.0957 11.7186 17.3631 11.3899 16.5536 11.3899C15.7441 11.3899 15.0115 11.7186 14.4818 12.25L12.4062 14.3042C12.7242 14.6227 13.1638 14.8196 13.6494 14.8196C14.1349 14.8196 14.5745 14.6227 14.8925 14.3042L15.7212 13.4754L17.3787 15.1329L20.6937 18.455H23.18V12.6467H19.0363L18.6255 12.25Z" fill="#5B6373"/>
<path d="M8 13.5392H9.17579V19.985H8V13.5392Z" fill="#5B6373"/>
<path d="M23.8242 12.3633H25V18.8091H23.8242V12.3633Z" fill="#5B6373"/>
<path d="M15.7209 14.3042L15.3102 14.7222C14.884 15.1449 14.2971 15.4063 13.6491 15.4063C13.0011 15.4063 12.4142 15.145 11.9879 14.722L11.988 14.7222L11.5772 14.3042L13.7022 12.1792L13.5322 12.0092C13.3205 11.7963 13.0274 11.6646 12.7034 11.6646C12.3795 11.6646 12.0864 11.7963 11.8747 12.0092L10.6139 13.2629C10.1367 13.797 9.83031 14.4927 9.78555 15.2586L9.78516 15.2675V18.7242C9.78516 19.3687 10.1606 19.9 10.6139 19.9C10.8255 19.8899 11.0247 19.862 11.2175 19.8176L11.1947 19.822C11.5372 20.1526 11.9098 20.4575 12.3058 20.7307L12.3352 20.7499C13.4402 21.4156 14.5309 21.7699 14.7647 21.5431C14.9984 21.3164 14.4317 20.3814 13.518 19.4677C13.6517 19.6155 13.7881 19.7518 13.9309 19.8813L13.9358 19.8856C14.8425 20.7924 15.8696 21.2599 16.2096 20.9199C16.5496 20.5799 16.0891 19.5528 15.1754 18.6391L15.5933 19.057C16.5 19.9637 17.5271 20.4312 17.8741 20.0912C18.2211 19.7512 17.7466 18.7242 16.8329 17.8104C17.0524 18.0372 16.9604 17.9309 17.2508 18.2212C18.1646 19.135 19.1846 19.6025 19.5316 19.2625C19.8786 18.9225 19.5316 18.0725 19.0286 17.605C18.5257 17.1375 15.7207 14.3042 15.7207 14.3042H15.7209Z" fill="#5B6373"/>
</svg>
