<svg width="33" height="50" viewBox="0 0 33 50" fill="none" xmlns="http://www.w3.org/2000/svg">
<path d="M16.625 2C7.7951 2 2.20308 8.15477 2.2503 16.8538C2.29752 25.546 8.68551 38.328 16.625 47C24.5645 38.328 30.9525 25.546 30.9997 16.8538C31.0469 8.15477 25.4616 2 16.625 2Z" fill="#0168CA"/>
<path fill-rule="evenodd" clip-rule="evenodd" d="M16.625 49.9618L15.1498 48.3505C11.0414 43.863 7.35248 38.3358 4.67758 32.8053C2.01868 27.3079 0.276214 21.6304 0.250325 16.8646C0.224365 12.082 1.75369 7.84388 4.65902 4.78695C7.57446 1.71939 11.7261 0 16.625 0C21.5269 0 25.6788 1.71919 28.5937 4.78719C31.4984 7.84444 33.0256 12.0826 32.9997 16.8646C32.9738 21.6304 31.2313 27.3079 28.5724 32.8053C25.8975 38.3358 22.2086 43.863 18.1001 48.3505L16.625 49.9618ZM15.2941 45.4912C7.98347 36.8958 2.29484 25.0546 2.2503 16.8538C2.20308 8.15477 7.7951 2 16.625 2C25.4616 2 31.0469 8.15477 30.9997 16.8538C30.9551 25.0546 25.2665 36.8958 17.9559 45.4912C17.5178 46.0063 17.0739 46.5097 16.625 47C16.1761 46.5097 15.7322 46.0063 15.2941 45.4912Z" fill="white"/>
<g opacity="0.2">
<path d="M16.625 2V6.58233C21.9809 6.58233 26.3251 10.9285 26.3251 16.2869C26.3251 21.6453 21.9809 25.9914 16.625 25.9914V47C24.5645 38.328 30.9525 25.546 30.9997 16.8538C31.0469 8.15477 25.4616 2 16.625 2Z" fill="black"/>
<path d="M26.3251 16.2869C26.3251 10.9285 21.9809 6.58233 16.625 6.58233V25.9914C21.9809 25.9914 26.3251 21.6453 26.3251 16.2869Z" fill="black"/>
</g>
<circle cx="16.5" cy="16.5" r="11.5" fill="white"/>
<path d="M14.7987 8.67999V9.35999C14.7987 9.92232 15.2564 10.38 15.8188 10.38H16.1588V13.4513C16.1577 13.4513 16.1565 13.4511 16.1554 13.4513C16.1143 13.4539 16.0735 13.459 16.0326 13.4626C15.9586 13.4691 15.8846 13.4757 15.8114 13.4851C15.761 13.4917 15.7108 13.4998 15.6607 13.5077C15.6007 13.5173 15.5408 13.5275 15.4814 13.5389C15.4283 13.5492 15.3758 13.5603 15.3234 13.5721C15.2628 13.5857 15.203 13.6004 15.1434 13.616C15.099 13.6275 15.0545 13.6385 15.0106 13.6512C14.9286 13.6748 14.8479 13.701 14.7675 13.7282C14.7447 13.736 14.7213 13.7427 14.6985 13.7508C14.669 13.7613 14.6407 13.7738 14.6115 13.7846C14.4655 13.8394 14.3224 13.9001 14.1825 13.9666C14.1586 13.9779 14.1331 13.9863 14.1095 13.9978C14.0987 14.0033 14.0883 14.0092 14.0782 14.0157C13.9673 14.0713 13.8587 14.1297 13.7522 14.1924C14.1735 14.7582 14.8861 15.7487 14.9116 15.7855C15.1446 16.1201 15.1388 16.3817 15.1388 16.5C15.1388 16.6145 15.1099 16.7303 15.0504 16.8353C15.0393 16.8551 14.8456 17.1961 14.6473 17.5293C14.8442 17.8512 15.0352 18.1783 15.0464 18.1973C15.2008 18.4623 15.1587 18.7982 14.9435 19.0168C14.8123 19.1504 14.6362 19.22 14.4581 19.22C14.3445 19.22 14.2304 19.191 14.1261 19.133C14.1067 19.1221 13.7685 18.9323 13.4388 18.7379C13.109 18.9325 12.7708 19.1221 12.7514 19.133C12.6471 19.1916 12.533 19.22 12.4194 19.22C12.2416 19.22 12.0652 19.1504 11.934 19.0168C11.8303 18.9112 11.768 18.778 11.7474 18.6389C11.7465 18.63 11.7451 18.6211 11.7434 18.6124C11.7283 18.4717 11.756 18.3262 11.8311 18.1973C11.8422 18.1783 12.0333 17.8514 12.2302 17.5293C12.1146 17.3351 11.8244 16.8299 11.6239 16.4794C11.2655 17.2047 11.0587 18.0178 11.0587 18.88C11.0587 19.0674 11.068 19.2525 11.0866 19.4351C11.0866 19.4354 11.0866 19.4357 11.0866 19.4358C11.1238 19.8008 11.1977 20.1554 11.3038 20.4957C11.3038 20.4959 11.3038 20.4961 11.3038 20.4963C11.4099 20.8366 11.5486 21.1625 11.7162 21.4705C11.7163 21.4706 11.716 21.471 11.7162 21.4712C11.8 21.6251 11.8914 21.7748 11.9891 21.9194C11.9892 21.9197 11.989 21.9199 11.9891 21.9201C12.2826 22.3541 12.6372 22.7435 13.0403 23.0763C13.1747 23.1872 13.3139 23.2919 13.4587 23.3898C13.4588 23.3899 13.4592 23.3896 13.4593 23.3898C13.604 23.4875 13.7536 23.5789 13.9076 23.6626C14.0619 23.7465 14.2202 23.8227 14.383 23.8917C14.5457 23.9606 14.7122 24.0218 14.8824 24.075C15.0528 24.1281 15.2267 24.1727 15.4037 24.2091C15.5806 24.2455 15.7603 24.2735 15.9429 24.2921C16.1258 24.3107 16.3111 24.32 16.4988 24.32C17.2578 24.32 17.9816 24.1631 18.6384 23.8817C18.6806 23.8651 18.7192 23.84 18.7516 23.8081C18.7841 23.7763 18.8098 23.7383 18.8275 23.6963C18.845 23.6543 18.8539 23.6092 18.8536 23.5638C18.8534 23.5183 18.8441 23.4733 18.8262 23.4315C18.8084 23.3896 18.7822 23.3518 18.7494 23.3203C18.7166 23.2888 18.6778 23.2641 18.6353 23.2478C18.5928 23.2315 18.5475 23.2239 18.5021 23.2255C18.4567 23.2271 18.4119 23.2377 18.3706 23.2568C18.0297 23.4028 17.667 23.5048 17.2908 23.5681C17.3456 23.0627 17.3944 22.5176 17.4303 21.916C17.9662 21.8887 18.4759 21.8333 18.9689 21.7619C18.8044 21.5389 18.683 21.3738 18.6701 21.3561C18.4718 21.0855 18.5005 20.7109 18.7378 20.4736C18.8695 20.342 19.0441 20.2744 19.2191 20.2744C19.3133 20.2744 19.4051 20.3011 19.4935 20.3408C19.5077 20.1647 19.5254 19.9924 19.5347 19.8115C19.0049 19.8429 18.4358 19.8649 17.8473 19.8799C17.8533 19.5514 17.8586 19.2204 17.8586 18.8799C17.8586 18.5359 17.8495 18.2115 17.8433 17.8798C18.4334 17.8948 19.0039 17.9168 19.5348 17.9482C19.5008 17.2817 19.433 16.6461 19.331 16.0476C18.7325 15.9456 18.0969 15.8778 17.4304 15.8438C17.3946 15.242 17.3457 14.6967 17.291 14.1909C17.9419 14.2998 18.5471 14.5384 19.0794 14.8822C19.1749 15.2525 19.2622 15.6362 19.331 16.0476C19.7424 16.1166 20.1261 16.2037 20.4964 16.2992C20.8403 16.8315 21.0788 17.4367 21.1877 18.0876C20.6819 18.0329 20.1366 17.984 19.5348 17.9482C19.5518 18.2542 19.5588 18.5636 19.5588 18.8799C19.5588 19.1961 19.5518 19.5055 19.5348 19.8115C20.1366 19.7757 20.6819 19.7268 21.1877 19.6721C21.1363 19.9685 21.0599 20.2566 20.9573 20.5334C20.9407 20.5755 20.9326 20.6205 20.9336 20.6658C20.9347 20.7111 20.9446 20.7556 20.9631 20.7969C20.9816 20.8382 21.0081 20.8754 21.0411 20.9063C21.074 20.9373 21.1129 20.9613 21.1553 20.9771C21.1978 20.9928 21.2429 20.9999 21.288 20.998C21.3333 20.9961 21.3776 20.9851 21.4185 20.9658C21.4594 20.9466 21.4961 20.9192 21.5264 20.8856C21.5565 20.852 21.5798 20.8127 21.5946 20.7699C21.8126 20.1825 21.9386 19.5466 21.9386 18.88C21.9386 18.6925 21.9293 18.5068 21.9107 18.3242C21.8921 18.1416 21.864 17.9619 21.8276 17.785C21.7913 17.608 21.7466 17.4339 21.6934 17.2637C21.6403 17.0934 21.5791 16.927 21.5102 16.7643C21.4412 16.6016 21.365 16.443 21.2811 16.2888C21.1974 16.1349 21.1059 15.9852 21.0081 15.8407V15.84C20.9103 15.6953 20.8056 15.5561 20.6947 15.4217C20.3619 15.0186 19.9726 14.664 19.5386 14.3705H19.5379C19.3934 14.2727 19.2436 14.1814 19.0898 14.0975H19.0891C18.781 13.9299 18.4552 13.7913 18.1149 13.6852H18.1143C17.774 13.579 17.4195 13.5052 17.0544 13.468H17.0538C16.983 13.4608 16.9102 13.4619 16.8386 13.4574V10.3801H17.1786C17.7411 10.3801 18.1986 9.92245 18.1986 9.36013V8.68013H14.7986L14.7987 8.67999ZM10.7188 12.42C10.7188 12.42 11.59 13.6087 11.9725 14.1027C11.59 14.5968 10.7188 15.7855 10.7188 15.7855C10.7188 15.7855 11.9074 14.9142 12.4015 14.533C12.8955 14.9142 14.0855 15.7855 14.0855 15.7855C14.0855 15.7855 13.2132 14.5968 12.8318 14.1027C13.2132 13.6087 14.0855 12.42 14.0855 12.42C14.0855 12.42 12.8955 13.2912 12.4015 13.6724C11.9074 13.2912 10.7188 12.42 10.7188 12.42ZM12.4187 16.5001C12.4187 16.5001 12.792 17.159 13.0297 17.5347C12.7921 17.8998 12.4187 18.5401 12.4187 18.5401C12.4187 18.5401 13.0682 18.1764 13.4388 17.9438C13.624 18.0601 13.8789 18.2089 14.0875 18.329C14.2962 18.449 14.4588 18.5401 14.4588 18.5401C14.4588 18.5401 14.3652 18.38 14.2423 18.1742C14.1193 17.9685 13.9667 17.7174 13.8478 17.5347C14.0855 17.159 14.4588 16.5001 14.4588 16.5001C14.4588 16.5001 13.8093 16.8826 13.4388 17.1257C13.0682 16.8826 12.4187 16.5001 12.4187 16.5001ZM16.4988 17.86C16.7245 17.86 16.9429 17.8637 17.1628 17.8666C17.1693 18.2024 17.1788 18.5312 17.1788 18.88C17.1788 19.225 17.1737 19.5607 17.1675 19.8934C16.9461 19.8963 16.7261 19.9 16.4988 19.9C16.1553 19.9 15.8185 19.8968 15.4887 19.89C15.5023 20.604 15.5296 21.2836 15.5671 21.9161C14.9006 21.8821 14.265 21.8142 13.6665 21.7122C13.5645 21.1138 13.4967 20.4781 13.4627 19.8117C14.0951 19.8491 14.7747 19.8764 15.4887 19.89C15.4819 19.5603 15.4788 19.2234 15.4788 18.88C15.4788 18.5365 15.4819 18.1997 15.4887 17.87C15.8185 17.8632 16.1553 17.86 16.4988 17.86ZM19.2187 20.9545C19.2187 20.9545 20.09 22.1432 20.4725 22.6373C20.09 23.1313 19.2187 24.32 19.2187 24.32C19.2187 24.32 20.4074 23.4487 20.9015 23.0676C21.3954 23.4491 22.5855 24.32 22.5855 24.32C22.5855 24.32 21.7132 23.1313 21.3318 22.6373C21.7128 22.1433 22.5855 20.9545 22.5855 20.9545C22.5855 20.9545 21.3955 21.8259 20.9015 22.2069C20.4074 21.8255 19.2187 20.9545 19.2187 20.9545Z" fill="#5B6373"/>
</svg>
