<svg width="34" height="50" viewBox="0 0 34 50" fill="none" xmlns="http://www.w3.org/2000/svg">
<path d="M17.125 2C8.2951 2 2.70308 8.15477 2.7503 16.8538C2.79752 25.546 9.18551 38.328 17.125 47C25.0645 38.328 31.4525 25.546 31.4997 16.8538C31.5469 8.15477 25.9616 2 17.125 2Z" fill="#0168CA"/>
<path fill-rule="evenodd" clip-rule="evenodd" d="M17.125 49.9618L15.6498 48.3505C11.5414 43.863 7.85248 38.3358 5.17758 32.8053C2.51868 27.3079 0.776214 21.6304 0.750325 16.8646C0.724365 12.082 2.25369 7.84388 5.15902 4.78695C8.07446 1.71939 12.2261 0 17.125 0C22.0269 0 26.1788 1.71919 29.0937 4.78719C31.9984 7.84444 33.5256 12.0826 33.4997 16.8646C33.4738 21.6304 31.7313 27.3079 29.0724 32.8053C26.3975 38.3358 22.7086 43.863 18.6001 48.3505L17.125 49.9618ZM15.7941 45.4912C8.48347 36.8958 2.79484 25.0546 2.7503 16.8538C2.70308 8.15477 8.2951 2 17.125 2C25.9616 2 31.5469 8.15477 31.4997 16.8538C31.4551 25.0546 25.7665 36.8958 18.4559 45.4912C18.0178 46.0063 17.5739 46.5097 17.125 47C16.6761 46.5097 16.2322 46.0063 15.7941 45.4912Z" fill="white"/>
<g opacity="0.2">
<path d="M17.125 2V6.58233C22.4809 6.58233 26.8251 10.9285 26.8251 16.2869C26.8251 21.6453 22.4809 25.9914 17.125 25.9914V47C25.0645 38.328 31.4525 25.546 31.4997 16.8538C31.5469 8.15477 25.9616 2 17.125 2Z" fill="black"/>
<path d="M26.8251 16.2869C26.8251 10.9285 22.4809 6.58233 17.125 6.58233V25.9914C22.4809 25.9914 26.8251 21.6453 26.8251 16.2869Z" fill="black"/>
</g>
<circle cx="17.25" cy="16.375" r="11.5" fill="white"/>
<g clip-path="url(#clip0_11569_2)">
<path d="M24.723 14.0338C25.2529 13.9307 25.6615 13.5126 25.7491 12.9859L25.7501 12.9784C25.7501 12.5392 25.2756 12.1852 24.6876 12.1852C24.6866 12.1852 24.6854 12.1852 24.6842 12.1852C24.3156 12.1852 23.9916 12.3752 23.8047 12.6628L23.8022 12.6669C23.5614 12.1356 23.3276 11.5831 23.0939 11.0023C22.9765 10.729 22.7536 10.52 22.4779 10.4237L22.4706 10.4214C20.9021 10.0462 19.1013 9.83105 17.2501 9.83105C15.399 9.83105 13.5982 10.0462 11.8712 10.4529L12.0297 10.4214C11.7466 10.52 11.5237 10.729 11.4089 10.9954L11.4062 11.0022C11.1725 11.583 10.9388 12.1355 10.698 12.6667C10.5086 12.3752 10.1845 12.185 9.81595 12.185C9.81476 12.185 9.81356 12.185 9.81237 12.185C9.22441 12.185 8.75 12.5392 8.75 12.9783C8.83859 13.5125 9.24725 13.9307 9.76894 14.0324L9.77704 14.0338H9.84783C9.63387 14.2117 9.49853 14.4782 9.49853 14.7761C9.49853 14.799 9.49933 14.8218 9.50092 14.8443L9.50079 14.8413C9.59283 15.84 9.67783 17.0938 9.77 18.1563C9.78049 18.2896 9.81595 18.4123 9.87173 18.5232L9.86921 18.5175C9.62656 18.6668 9.46413 18.9261 9.45138 19.2241V19.2258V20.2529C9.45072 20.2656 9.45032 20.2805 9.45032 20.2954C9.45032 20.7765 9.84039 21.1666 10.3216 21.1666C10.3244 21.1666 10.3273 21.1666 10.3302 21.1666H12.1856C12.6642 21.1666 13.0529 20.7805 13.0568 20.3028V19.8207C14.3176 20.0506 15.7685 20.1819 17.2501 20.1819C18.7318 20.1819 20.1828 20.0504 21.5919 19.7986L21.4434 19.8207V20.3024C21.4474 20.7805 21.836 21.1666 22.3147 21.1666H24.1705C24.6491 21.1666 25.0377 20.7805 25.0417 20.3028V19.2754C25.0288 18.9756 24.8664 18.7163 24.6276 18.5692L24.6239 18.5671C24.6737 18.4617 24.7087 18.3396 24.7226 18.2109L24.723 18.2058C24.815 17.1433 24.9 15.8896 24.9922 14.8908C24.9936 14.8713 24.9944 14.8486 24.9944 14.8256C24.9944 14.5277 24.8592 14.2613 24.6467 14.0846L24.6451 14.0833L24.723 14.0338ZM12.49 11.6892C12.49 11.6892 12.5325 11.5547 12.5538 11.5405C14.0184 11.2203 15.7009 11.0369 17.4261 11.0369C19.025 11.0369 20.5872 11.1944 22.0979 11.4948L21.9462 11.4697C21.9462 11.4697 21.9958 11.6892 22.01 11.7034C22.3287 12.4117 22.6263 13.2334 22.9167 13.7292H22.5342C20.9466 13.4926 19.114 13.3574 17.25 13.3574C15.386 13.3574 13.5536 13.4926 11.7619 13.7537L11.9658 13.7292H11.5833C11.8737 13.2334 12.1783 12.3834 12.49 11.6892ZM12.8088 17.54C11.9282 17.3881 11.1672 16.9583 10.6011 16.3455L10.5987 16.3429C10.202 15.8541 10.5563 15.4221 11.123 15.4221C11.6897 15.4221 13.4109 15.5354 13.6092 16.5341C13.6176 16.5791 13.6224 16.6311 13.6224 16.6839C13.6224 17.142 13.263 17.5161 12.8109 17.5398L12.8088 17.54ZM20.2463 16.7255C20.2463 17.278 19.878 18.2909 19.4033 18.3547C18.7545 18.4425 18.0045 18.4926 17.2428 18.4926C16.4811 18.4926 15.7312 18.4425 14.996 18.3454L15.0824 18.3547C14.6078 18.2909 14.2536 17.278 14.2536 16.7255C14.2478 16.6894 14.2443 16.6479 14.2443 16.6056C14.2443 16.1752 14.5932 15.8263 15.0235 15.8263C15.0593 15.8263 15.0945 15.8287 15.129 15.8334L15.125 15.833C15.7739 15.9244 16.5236 15.9764 17.2855 15.9764C18.0473 15.9764 18.7969 15.9244 19.5311 15.8234L19.4459 15.833C19.9205 15.7763 20.2747 16.1447 20.2747 16.6972L20.2463 16.7255ZM23.9012 16.343C23.3328 16.9583 22.5718 17.3882 21.7144 17.5367L21.6912 17.54C21.2369 17.5162 20.8776 17.1421 20.8776 16.684C20.8776 16.6311 20.8824 16.5793 20.8916 16.5289L20.8908 16.5342C21.0891 15.5355 22.8175 15.415 23.377 15.4222C23.9366 15.4294 24.3333 15.8542 23.9012 16.343Z" fill="#5B6373"/>
</g>
<defs>
<clipPath id="clip0_11569_2">
<rect width="17" height="17" fill="white" transform="translate(8.75 7)"/>
</clipPath>
</defs>
</svg>
