<svg width="34" height="50" viewBox="0 0 34 50" fill="none" xmlns="http://www.w3.org/2000/svg">
<path d="M16.875 2C8.0451 2 2.45308 8.15477 2.5003 16.8538C2.54752 25.546 8.93551 38.328 16.875 47C24.8145 38.328 31.2025 25.546 31.2497 16.8538C31.2969 8.15477 25.7116 2 16.875 2Z" fill="#0168CA"/>
<path fill-rule="evenodd" clip-rule="evenodd" d="M16.875 49.9618L15.3998 48.3505C11.2914 43.863 7.60248 38.3358 4.92758 32.8053C2.26868 27.3079 0.526214 21.6304 0.500325 16.8646C0.474365 12.082 2.00369 7.84388 4.90902 4.78695C7.82446 1.71939 11.9761 0 16.875 0C21.7769 0 25.9288 1.71919 28.8437 4.78719C31.7484 7.84444 33.2756 12.0826 33.2497 16.8646C33.2238 21.6304 31.4813 27.3079 28.8224 32.8053C26.1475 38.3358 22.4586 43.863 18.3501 48.3505L16.875 49.9618ZM15.5441 45.4912C8.23347 36.8958 2.54484 25.0546 2.5003 16.8538C2.45308 8.15477 8.0451 2 16.875 2C25.7116 2 31.2969 8.15477 31.2497 16.8538C31.2051 25.0546 25.5165 36.8958 18.2059 45.4912C17.7678 46.0063 17.3239 46.5097 16.875 47C16.4261 46.5097 15.9822 46.0063 15.5441 45.4912Z" fill="white"/>
<g opacity="0.2">
<path d="M16.875 2V6.58233C22.2309 6.58233 26.5751 10.9285 26.5751 16.2869C26.5751 21.6453 22.2309 25.9914 16.875 25.9914V47C24.8145 38.328 31.2025 25.546 31.2497 16.8538C31.2969 8.15477 25.7116 2 16.875 2Z" fill="black"/>
<path d="M26.5751 16.2869C26.5751 10.9285 22.2309 6.58233 16.875 6.58233V25.9914C22.2309 25.9914 26.5751 21.6453 26.5751 16.2869Z" fill="black"/>
</g>
<circle cx="17" cy="16.375" r="11.5" fill="white"/>
<g clip-path="url(#clip0_11569_42)">
<path d="M16.0731 13.625C16.093 13.711 16.1044 13.8098 16.1044 13.9112C16.1044 14.4508 15.7819 14.915 15.319 15.1217L15.3106 15.1251C14.9106 15.3751 14.3793 15.5189 14.4543 16.1689C14.4543 16.1689 14.5606 18.1439 14.6668 22.0939C14.6688 22.1155 14.6699 22.1406 14.6699 22.166C14.6699 22.6251 14.2977 22.9972 13.8387 22.9972C13.3797 22.9972 13.0075 22.625 13.0075 22.166C13.0075 22.1407 13.0087 22.1156 13.0109 22.0908L13.0107 22.0939C13.117 19.9814 13.3482 16.1751 13.3482 16.1751C13.4232 15.5502 12.892 15.4064 12.4919 15.1564C12.0209 14.9426 11.6992 14.4763 11.6992 13.935C11.6992 13.8251 11.7125 13.7183 11.7374 13.616L11.7355 13.6251C11.9237 11.4957 12.2242 9.57595 12.6416 7.70013L12.5856 8.00013H12.8856L12.6606 12.6376H13.3294L13.792 8.00013H14.0107L14.4982 12.6376H15.1232L14.917 8.00013H15.217C15.5795 9.57431 15.8821 11.4937 16.0602 13.4491L16.0732 13.6251L16.0731 13.625ZM22.2794 12.2501C22.2794 10.6313 21.3732 8.00002 20.2793 8.00002C19.1855 8.00002 18.2481 10.6312 18.2481 12.2313C18.2481 13.5688 18.8731 14.6876 19.7419 15.0125C19.7044 15.5688 19.6731 15.9875 19.6544 16.1375C19.6544 16.1375 19.4168 19.95 19.3169 22.0687C19.3149 22.0903 19.3137 22.1154 19.3137 22.1408C19.3137 22.5999 19.6859 22.972 20.1449 22.972C20.6039 22.972 20.9761 22.5998 20.9761 22.1408C20.9761 22.1155 20.975 22.0904 20.9727 22.0656L20.973 22.0687C20.8667 18.1187 20.7542 16.125 20.7542 16.125C20.7542 15.9812 20.7105 15.5812 20.6666 15.05C21.5979 14.7813 22.2791 13.625 22.2791 12.2313L22.2794 12.2501Z" fill="#5B6373"/>
</g>
<defs>
<clipPath id="clip0_11569_42">
<rect width="15" height="15" fill="white" transform="translate(9.5 8)"/>
</clipPath>
</defs>
</svg>
