<svg width="34" height="50" viewBox="0 0 34 50" fill="none" xmlns="http://www.w3.org/2000/svg">
<path d="M17.125 2C8.2951 2 2.70308 8.15477 2.7503 16.8538C2.79752 25.546 9.18551 38.328 17.125 47C25.0645 38.328 31.4525 25.546 31.4997 16.8538C31.5469 8.15477 25.9616 2 17.125 2Z" fill="#0168CA"/>
<path fill-rule="evenodd" clip-rule="evenodd" d="M17.125 49.9618L15.6498 48.3505C11.5414 43.863 7.85248 38.3358 5.17758 32.8053C2.51868 27.3079 0.776214 21.6304 0.750325 16.8646C0.724365 12.082 2.25369 7.84388 5.15902 4.78695C8.07446 1.71939 12.2261 0 17.125 0C22.0269 0 26.1788 1.71919 29.0937 4.78719C31.9984 7.84444 33.5256 12.0826 33.4997 16.8646C33.4738 21.6304 31.7313 27.3079 29.0724 32.8053C26.3975 38.3358 22.7086 43.863 18.6001 48.3505L17.125 49.9618ZM15.7941 45.4912C8.48347 36.8958 2.79484 25.0546 2.7503 16.8538C2.70308 8.15477 8.2951 2 17.125 2C25.9616 2 31.5469 8.15477 31.4997 16.8538C31.4551 25.0546 25.7665 36.8958 18.4559 45.4912C18.0178 46.0063 17.5739 46.5097 17.125 47C16.6761 46.5097 16.2322 46.0063 15.7941 45.4912Z" fill="white"/>
<g opacity="0.2">
<path d="M17.125 2V6.58233C22.4809 6.58233 26.8251 10.9285 26.8251 16.2869C26.8251 21.6453 22.4809 25.9914 17.125 25.9914V47C25.0645 38.328 31.4525 25.546 31.4997 16.8538C31.5469 8.15477 25.9616 2 17.125 2Z" fill="black"/>
<path d="M26.8251 16.2869C26.8251 10.9285 22.4809 6.58233 17.125 6.58233V25.9914C22.4809 25.9914 26.8251 21.6453 26.8251 16.2869Z" fill="black"/>
</g>
<circle cx="17.5" cy="16.5" r="11.5" fill="white"/>
<g clip-path="url(#clip0_13879_121)">
<path d="M21.3675 11.7755C19.8342 11.1165 18.5124 10.299 17.3319 9.31738L17.3583 9.33877C16.9638 10.3495 16.6362 11.5405 16.431 12.7729L16.4163 12.8803L17.3867 12.1721L17.8825 11.8038C17.8825 11.8038 18.1163 12.4625 18.3075 12.9583C18.4342 13.266 18.6915 13.4977 19.0084 13.5869L19.0159 13.5888C19.1057 13.6224 19.2094 13.6418 19.3177 13.6418C19.4891 13.6418 19.6492 13.593 19.7848 13.5087L19.7811 13.5108C20.1493 13.2416 20.2486 13.2416 20.3406 13.2771C20.4326 13.3125 20.5176 13.4753 20.4681 13.6241C20.2706 14.1565 19.7671 14.5291 19.1765 14.5291C19.0307 14.5291 18.8901 14.5064 18.7584 14.4643L18.7681 14.4669C18.8956 14.9769 18.9948 15.4657 19.0726 15.8836C19.3488 15.9075 19.6038 15.9653 19.8441 16.0531L19.8234 16.0465C21.1197 16.514 21.7076 17.8244 21.403 18.1147C21.3393 18.1685 21.2563 18.2013 21.1658 18.2013C21.1133 18.2013 21.0632 18.1903 21.0181 18.1705L21.0205 18.1715C20.7513 18.0723 20.8009 17.3782 19.5047 16.9107C19.4234 16.8789 19.317 16.8451 19.2085 16.8165L19.1858 16.8115C19.2216 17.1273 19.2422 17.4933 19.2422 17.8643C19.2422 18.5724 19.1675 19.2632 19.0255 19.929L19.037 19.8644C20.56 19.6449 23.7475 18.6957 26.0283 12.434C26.0062 12.4341 25.9801 12.4341 25.9539 12.4341C24.3193 12.4341 22.7408 12.1933 21.2521 11.7453L21.3674 11.7751L21.3675 11.7755ZM21.7005 15.565C21.1689 15.3528 20.8001 14.8424 20.8001 14.2458C20.8001 14.0868 20.8263 13.9339 20.8746 13.7913L20.8717 13.8013V13.7233C20.9138 13.6495 20.992 13.6006 21.0816 13.6006C21.113 13.6006 21.1432 13.6067 21.1708 13.6177L21.1692 13.6172C21.2612 13.6172 21.3392 13.7092 21.4525 14.1555C21.5358 14.4118 21.7305 14.6112 21.9778 14.6991L21.9838 14.7009C22.0739 14.7355 22.1781 14.7554 22.2871 14.7554C22.4582 14.7554 22.6178 14.7061 22.7523 14.6209L22.7487 14.623C23.1667 14.375 23.2445 14.375 23.3367 14.375C23.4242 14.4244 23.4823 14.5167 23.4823 14.6226C23.4823 14.6583 23.4756 14.6926 23.4635 14.724L23.4642 14.7221C23.2751 15.2653 22.7673 15.6482 22.1702 15.6482C22.0017 15.6482 21.8402 15.6176 21.691 15.5618L21.7005 15.565ZM13.6325 15.4517C12.249 15.8893 10.657 16.1474 9.00651 16.16H9C11.6705 23.5055 15.6017 23.5408 16.6217 23.6613C17.33 22.9175 20.3122 20.3605 17.6417 13.0363C16.4876 13.9885 15.1657 14.7992 13.7384 15.4114L13.6325 15.4517ZM12.988 18.3771C12.6267 18.5116 12.5205 19.0853 12.5205 19.0853C12.478 19.3546 12.3859 19.5174 12.2442 19.5671C12.2162 19.5775 12.1838 19.5837 12.1499 19.5837C12.0487 19.5837 11.9601 19.5292 11.912 19.4479L11.9114 19.4466L11.8334 19.2836C11.7812 19.1435 11.7509 18.9816 11.7509 18.8125C11.7509 18.0471 12.3714 17.4266 13.1368 17.4266C13.7332 17.4266 14.2417 17.8034 14.4371 18.3319L14.4401 18.3415L14.4897 18.4973C14.4915 18.5095 14.4926 18.5237 14.4926 18.538C14.4926 18.6573 14.4189 18.7594 14.3145 18.8011L14.3126 18.8018C14.1709 18.8513 14.0009 18.8018 13.7884 18.6105C13.6168 18.4581 13.3895 18.3648 13.1403 18.3648C13.0865 18.3648 13.0338 18.3692 12.9822 18.3776L12.9878 18.3768L12.988 18.3771ZM15.8212 21.5008C14.525 21.9753 13.2217 21.3166 13.2712 20.8988C13.2882 20.7572 13.3901 20.6434 13.5239 20.6088L13.5263 20.6083C13.7883 20.5091 14.6455 20.9483 15.5095 20.6083C16.3736 20.2683 16.7916 19.4325 17.0325 19.3333C17.0739 19.314 17.1223 19.3028 17.1734 19.3028C17.2611 19.3028 17.3409 19.3358 17.4012 19.3903L17.4009 19.39C17.7126 19.6875 17.1317 21.0263 15.8355 21.5008H15.8212ZM17.323 17.6971C17.1812 17.7538 17.0113 17.6971 16.7987 17.5058C16.6285 17.358 16.4046 17.2679 16.1597 17.2679C16.1077 17.2679 16.0567 17.2721 16.0069 17.2798L16.0124 17.2791C15.6511 17.4066 15.5449 17.9874 15.5449 17.9874C15.5024 18.2636 15.4103 18.4194 15.2686 18.4761C15.2414 18.4857 15.21 18.4913 15.1774 18.4913C15.0755 18.4913 14.9864 18.4376 14.9363 18.357L14.9357 18.3558L14.8719 18.2071C14.8139 18.0588 14.7803 17.8871 14.7803 17.7077C14.7803 16.9314 15.4097 16.302 16.186 16.302C16.7828 16.302 17.2927 16.674 17.4967 17.1987L17.5 17.2083L17.5495 17.3641C17.5551 17.3845 17.5583 17.4079 17.5583 17.4321C17.5583 17.5638 17.4637 17.6734 17.3388 17.6967L17.337 17.6969L17.323 17.6971Z" fill="#5B6373"/>
</g>
<defs>
<clipPath id="clip0_13879_121">
<rect width="17" height="17" fill="white" transform="translate(9 8)"/>
</clipPath>
</defs>
</svg>
