<svg width="33" height="50" viewBox="0 0 33 50" fill="none" xmlns="http://www.w3.org/2000/svg">
<path d="M16.625 2C7.7951 2 2.20308 8.15477 2.2503 16.8538C2.29752 25.546 8.68551 38.328 16.625 47C24.5645 38.328 30.9525 25.546 30.9997 16.8538C31.0469 8.15477 25.4616 2 16.625 2Z" fill="#0168CA"/>
<path fill-rule="evenodd" clip-rule="evenodd" d="M16.625 49.9618L15.1498 48.3505C11.0414 43.863 7.35248 38.3358 4.67758 32.8053C2.01868 27.3079 0.276214 21.6304 0.250325 16.8646C0.224365 12.082 1.75369 7.84388 4.65902 4.78695C7.57446 1.71939 11.7261 0 16.625 0C21.5269 0 25.6788 1.71919 28.5937 4.78719C31.4984 7.84444 33.0256 12.0826 32.9997 16.8646C32.9738 21.6304 31.2313 27.3079 28.5724 32.8053C25.8975 38.3358 22.2086 43.863 18.1001 48.3505L16.625 49.9618ZM15.2941 45.4912C7.98347 36.8958 2.29484 25.0546 2.2503 16.8538C2.20308 8.15477 7.7951 2 16.625 2C25.4616 2 31.0469 8.15477 30.9997 16.8538C30.9551 25.0546 25.2665 36.8958 17.9559 45.4912C17.5178 46.0063 17.0739 46.5097 16.625 47C16.1761 46.5097 15.7322 46.0063 15.2941 45.4912Z" fill="white"/>
<g opacity="0.2">
<path d="M16.625 2V6.58233C21.9809 6.58233 26.3251 10.9285 26.3251 16.2869C26.3251 21.6453 21.9809 25.9914 16.625 25.9914V47C24.5645 38.328 30.9525 25.546 30.9997 16.8538C31.0469 8.15477 25.4616 2 16.625 2Z" fill="black"/>
<path d="M26.3251 16.2869C26.3251 10.9285 21.9809 6.58233 16.625 6.58233V25.9914C21.9809 25.9914 26.3251 21.6453 26.3251 16.2869Z" fill="black"/>
</g>
<circle cx="16.75" cy="16.375" r="11.5" fill="white"/>
<g clip-path="url(#clip0_11569_50)">
<path d="M19.9596 22.4842C20.9129 22.3652 21.7016 21.7601 22.0778 20.9286L22.0846 20.9117C22.1909 20.6285 22.3041 20.2885 22.4176 20.0122C22.6693 19.4152 22.8937 18.7048 23.054 17.9703L23.0693 17.8872C23.1094 17.5354 23.1322 17.1276 23.1322 16.7145C23.1322 16.5838 23.13 16.4538 23.1255 16.3241L23.126 16.3429C23.0484 15.4051 22.9231 14.5577 22.748 13.7288L22.7719 13.8638C22.5524 12.7658 22.3257 12.8155 22.1061 11.6892C21.8797 10.7507 21.158 10.0243 20.2396 9.79467L20.2219 9.79095C19.4671 9.6588 18.5672 9.56251 17.6524 9.52333L17.6082 9.52187L19.2232 8.27516L19.1594 8.16187H19.2444L19.4711 8.49483C19.579 8.64571 19.7535 8.74279 19.9507 8.74279C19.9514 8.74279 19.9522 8.74279 19.9528 8.74279C19.9599 8.74306 19.968 8.74333 19.9762 8.74333C20.0947 8.74333 20.2045 8.70601 20.2946 8.64252L20.2928 8.64372C20.4469 8.53919 20.5468 8.36494 20.5468 8.16732C20.5468 8.04327 20.5073 7.92826 20.4404 7.83449L20.4416 7.83622L20.0308 7.25543C19.9323 7.1088 19.7709 7.01092 19.586 7.00056L19.5845 7.00043H13.9533C13.952 7.00043 13.9504 7.00043 13.9486 7.00043C13.7506 7.00043 13.576 7.10083 13.4729 7.25344L13.4716 7.25543L13.0678 7.83622C13.0041 7.92839 12.966 8.04247 12.966 8.16559C12.966 8.48779 13.2272 8.74917 13.5495 8.74917C13.7488 8.74917 13.9246 8.64929 14.0299 8.49696L14.0313 8.49497L14.258 8.16201H14.343L14.2792 8.27529L15.88 9.52201C14.921 9.56265 14.021 9.65907 13.1393 9.80901L13.2663 9.79122C12.3294 10.0272 11.6077 10.756 11.3856 11.6791L11.382 11.6967C11.1625 12.8159 10.9358 12.7734 10.7163 13.8712C10.568 14.5729 10.4474 15.4261 10.3806 16.2941L10.3763 16.3645C10.3582 16.6029 10.348 16.881 10.348 17.1614C10.348 17.4417 10.3582 17.7197 10.3784 17.995L10.3763 17.9583C10.5716 18.7492 10.8143 19.4334 11.1148 20.0855L11.0847 20.0125C11.198 20.2887 11.3042 20.6287 11.4176 20.912C11.8007 21.7604 12.5893 22.3655 13.5295 22.4832L13.5426 22.4845H12.2322L9.66797 24.0003H12.5013L13.918 23.0653H19.5847L21.0014 24.0003H23.8347L21.2705 22.4845L19.9596 22.4842ZM19.7329 20.1467C19.42 20.1467 19.1662 19.8931 19.1662 19.58C19.1662 19.267 19.4199 19.0133 19.7329 19.0133C20.0458 19.0133 20.2996 19.267 20.2996 19.58C20.2996 19.8929 20.0459 20.1467 19.7329 20.1467ZM19.9666 18.305C19.4776 18.305 19.0812 17.9086 19.0812 17.4196C19.0812 16.9306 19.4776 16.5341 19.9666 16.5341C20.4557 16.5341 20.8521 16.9306 20.8521 17.4196C20.8524 17.4281 20.8525 17.4379 20.8525 17.4479C20.8525 17.9369 20.4561 18.3333 19.967 18.3333C19.9669 18.3333 19.9668 18.3333 19.9665 18.3333L19.9666 18.305ZM18.2241 8.16174L16.7509 8.99753L15.2776 8.16174H18.2241ZM21.2701 12.008L20.5618 14.9192H12.9685L12.2602 12.008H21.2701ZM12.4159 17.4196C12.4317 16.9429 12.8217 16.5625 13.3008 16.5625C13.7898 16.5625 14.1863 16.959 14.1863 17.448C14.1863 17.9369 13.7901 18.3332 13.3013 18.3335C13.3012 18.3335 13.3011 18.3335 13.3009 18.3335C12.8119 18.3335 12.4155 17.937 12.4155 17.448C12.4155 17.438 12.4156 17.4281 12.416 17.4182V17.4197L12.4159 17.4196ZM12.9684 19.58C12.9684 19.2671 13.222 19.0133 13.5351 19.0133C13.8481 19.0133 14.1018 19.267 14.1018 19.58C14.1018 19.8929 13.8481 20.1467 13.5351 20.1467C13.2222 20.1467 12.9684 19.8931 12.9684 19.58ZM13.5066 21.875L14.5409 21.2871H19.2442L19.9029 21.875H13.5066Z" fill="#5B6373"/>
</g>
<defs>
<clipPath id="clip0_11569_50">
<rect width="17" height="17" fill="white" transform="translate(8.25 7)"/>
</clipPath>
</defs>
</svg>
