<svg width="34" height="50" viewBox="0 0 34 50" fill="none" xmlns="http://www.w3.org/2000/svg">
<path d="M17.125 2C8.2951 2 2.70308 8.15477 2.7503 16.8538C2.79752 25.546 9.18551 38.328 17.125 47C25.0645 38.328 31.4525 25.546 31.4997 16.8538C31.5469 8.15477 25.9616 2 17.125 2Z" fill="#0168CA"/>
<path fill-rule="evenodd" clip-rule="evenodd" d="M17.125 49.9618L15.6498 48.3505C11.5414 43.863 7.85248 38.3358 5.17758 32.8053C2.51868 27.3079 0.776214 21.6304 0.750325 16.8646C0.724365 12.082 2.25369 7.84388 5.15902 4.78695C8.07446 1.71939 12.2261 0 17.125 0C22.0269 0 26.1788 1.71919 29.0937 4.78719C31.9984 7.84444 33.5256 12.0826 33.4997 16.8646C33.4738 21.6304 31.7313 27.3079 29.0724 32.8053C26.3975 38.3358 22.7086 43.863 18.6001 48.3505L17.125 49.9618ZM15.7941 45.4912C8.48347 36.8958 2.79484 25.0546 2.7503 16.8538C2.70308 8.15477 8.2951 2 17.125 2C25.9616 2 31.5469 8.15477 31.4997 16.8538C31.4551 25.0546 25.7665 36.8958 18.4559 45.4912C18.0178 46.0063 17.5739 46.5097 17.125 47C16.6761 46.5097 16.2322 46.0063 15.7941 45.4912Z" fill="white"/>
<g opacity="0.2">
<path d="M17.125 2V6.58233C22.4809 6.58233 26.8251 10.9285 26.8251 16.2869C26.8251 21.6453 22.4809 25.9914 17.125 25.9914V47C25.0645 38.328 31.4525 25.546 31.4997 16.8538C31.5469 8.15477 25.9616 2 17.125 2Z" fill="black"/>
<path d="M26.8251 16.2869C26.8251 10.9285 22.4809 6.58233 17.125 6.58233V25.9914C22.4809 25.9914 26.8251 21.6453 26.8251 16.2869Z" fill="black"/>
</g>
<circle cx="17.25" cy="16.5" r="11.5" fill="white"/>
<path d="M13.7096 22.875L10.168 19.3333L13.7096 15.7917L14.719 16.7833L12.8773 18.625H23.6263V20.0417H12.8773L14.719 21.8833L13.7096 22.875ZM20.793 17.2083L19.7836 16.2167L21.6253 14.375H10.8763V12.9583H21.6253L19.7836 11.1167L20.793 10.125L24.3346 13.6667L20.793 17.2083Z" fill="#5B6373"/>
</svg>
