<?xml version="1.0" encoding="UTF-8" standalone="no"?>
<svg
   xmlns:dc="http://purl.org/dc/elements/1.1/"
   xmlns:cc="http://creativecommons.org/ns#"
   xmlns:rdf="http://www.w3.org/1999/02/22-rdf-syntax-ns#"
   xmlns:svg="http://www.w3.org/2000/svg"
   xmlns="http://www.w3.org/2000/svg"
   viewBox="0 0 366.66666 682.66669"
   height="682.66669"
   width="366.66666"
   xml:space="preserve"
   id="svg2"
   version="1.1"><metadata
     id="metadata8"><rdf:RDF><cc:Work
         rdf:about=""><dc:format>image/svg+xml</dc:format><dc:type
           rdf:resource="http://purl.org/dc/dcmitype/StillImage" /></cc:Work></rdf:RDF></metadata><defs
     id="defs6"><clipPath
       id="clipPath18"
       clipPathUnits="userSpaceOnUse"><path
         id="path16"
         d="M 0,512 H 275 V 0 H 0 Z" /></clipPath></defs><g
     transform="matrix(1.3333333,0,0,-1.3333333,0,682.66667)"
     id="g10"><g
       id="g12"><g
         clip-path="url(#clipPath18)"
         id="g14"><g
           transform="translate(137.5,430.3594)"
           id="g20"><path
             id="path22"
             style="fill:#cc3d5e;fill-opacity:1;fill-rule:nonzero;stroke:none"
             d="m 0,0 c -30.824,0 -55.859,-25.021 -55.859,-55.859 0,-30.839 25.035,-55.86 55.859,-55.86 30.824,0 55.859,25.021 55.859,55.86 C 55.859,-25.021 30.824,0 0,0 m 0,-330.859 c 0,0 -137.5,151.25 -137.5,275 0,75.932 61.582,137.5 137.5,137.5 75.919,0 137.5,-61.568 137.5,-137.5 0,-123.75 -137.5,-275 -137.5,-275" /></g><g
           transform="translate(137.5,68.75)"
           id="g24"><path
             id="path26"
             style="fill:#cc3d5e;fill-opacity:1;fill-rule:nonzero;stroke:none"
             d="m 0,0 c -18.969,0 -34.375,-15.397 -34.375,-34.375 0,-18.978 15.406,-34.375 34.375,-34.375 18.969,0 34.375,15.397 34.375,34.375 C 34.375,-15.397 18.969,0 0,0" /></g></g></g></g></svg>